<svg xmlns="http://www.w3.org/2000/svg" xmlns:xlink="http://www.w3.org/1999/xlink" xmlns:lucid="lucid" width="590" height="347"><g transform="translate(-66 -66)" lucid:page-tab-id="0_0"><path d="M400 260h240v60H400z" stroke="#000" stroke-opacity="0" stroke-width="2" fill="#fff" fill-opacity="0"/><use xlink:href="#a" transform="matrix(1,0,0,1,405,265) translate(103.80864197530865 31.22222222222222)"/><path d="M140 210h240v60H140z" stroke="#000" stroke-opacity="0" stroke-width="2" fill="#fff" fill-opacity="0"/><use xlink:href="#b" transform="matrix(1,0,0,1,145,215) translate(104.62962962962963 31.22222222222222)"/><path d="M60 280h240v60H60z" stroke="#000" stroke-opacity="0" stroke-width="2" fill="#fff" fill-opacity="0"/><use xlink:href="#c" transform="matrix(1,0,0,1,65,285) translate(77.4506172839506 31.22222222222222)"/><use xlink:href="#d" transform="matrix(1,0,0,1,65,285) translate(108.4753086419753 31.22222222222222)"/><use xlink:href="#e" transform="matrix(1,0,0,1,65,285) translate(135.26543209876542 31.22222222222222)"/><path d="M240 80h240v60H240z" stroke="#000" stroke-opacity="0" stroke-width="2" fill="#fff" fill-opacity="0"/><use xlink:href="#f" transform="matrix(1,0,0,1,245,85) translate(79.1358024691358 31.22222222222222)"/><use xlink:href="#d" transform="matrix(1,0,0,1,245,85) translate(106.79012345679013 31.22222222222222)"/><use xlink:href="#e" transform="matrix(1,0,0,1,245,85) translate(133.58024691358025 31.22222222222222)"/><path d="M80 80h160v120H80z" stroke="#000" stroke-width="2" fill="#fff"/><use xlink:href="#g" transform="matrix(1,0,0,1,85,85) translate(41.099999999999994 58.6)"/><path d="M480 80h160v120H480z" stroke="#000" stroke-width="2" fill="#fff"/><use xlink:href="#h" transform="matrix(1,0,0,1,485,85) translate(21.674999999999997 47.8)"/><use xlink:href="#i" transform="matrix(1,0,0,1,485,85) translate(74.475 47.8)"/><use xlink:href="#j" transform="matrix(1,0,0,1,485,85) translate(84.475 47.8)"/><use xlink:href="#k" transform="matrix(1,0,0,1,485,85) translate(40.75 69.4)"/><path d="M280 280h160v120H280z" stroke="#000" stroke-width="2" fill="#fff"/><use xlink:href="#l" transform="matrix(1,0,0,1,285,285) translate(19.124999999999993 58.6)"/><use xlink:href="#m" transform="matrix(1,0,0,1,285,285) translate(73.025 58.6)"/><path d="M241 140h219.76" fill="none"/><path d="M241 140h10.46m10.47 0h20.93m10.46 0h20.93m10.47 0h20.93m10.46 0h20.94m10.47 0h20.94m10.46 0h20.93m10.47 0h10.46" stroke="#000" stroke-width="2" fill="none"/><path d="M241 141h-1v-2h1zM475.76 140l-14.26 4.64v-9.28z"/><path d="M479 140l-18.5 6v-12zm-16.5 3.26l10.03-3.26-10.03-3.26z"/><path d="M441 340l107.14-125.15" stroke="#000" stroke-width="2" fill="none"/><path d="M441.76 340.65L440 342.7v-3.07l.24-.28zM552.14 217.3l-7.04-6.02 12.8-7.82z"/><path d="M552.53 218.96l-9.13-7.8L560 201zm-5.74-7.54l4.94 4.23 4.05-9.73z"/><path d="M138.67 201l128.2 144.04" fill="none"/><path d="M138.67 201l7.12 8m7.1 8l14.26 16m7.12 8l14.25 16.02m7.12 8l14.24 16m7.12 8l14.24 16m7.12 8l14.25 16.02m7.12 8l7.13 8" stroke="#000" stroke-width="2" fill="none"/><path d="M139.4 200.34l-1.48 1.32-1.48-1.66h2.68zM276.85 356.25l-12.95-7.57 6.93-6.17z"/><path d="M279 358.67l-16.8-9.83 9-8zm-13.4-10.16l9.1 5.33-4.24-9.66z"/><path d="M279 320l-87.34-104.98" stroke="#000" stroke-width="2" fill="none"/><path d="M280 319.64v3.13l-1.77-2.13 1.54-1.28zM194.76 211.5l-7.13 5.92-5.56-13.93z"/><path d="M196.45 211.38l-9.24 7.7L180 201zm-8.4 4.4l5-4.18-8.9-5.62z"/><defs><path d="M30-248c118-7 216 8 213 122C240-48 200 0 122 0H30v-248zM63-27c89 8 146-16 146-99s-60-101-146-95v194" id="n"/><use transform="matrix(0.08641975308641976,0,0,0.08641975308641976,0,0)" xlink:href="#n" id="a"/><path d="M160-131c35 5 61 23 61 61C221 17 115-2 30 0v-248c76 3 177-17 177 60 0 33-19 50-47 57zm-97-11c50-1 110 9 110-42 0-47-63-36-110-37v79zm0 115c55-2 124 14 124-45 0-56-70-42-124-44v89" id="o"/><use transform="matrix(0.08641975308641976,0,0,0.08641975308641976,0,0)" xlink:href="#o" id="b"/><path d="M212-179c-10-28-35-45-73-45-59 0-87 40-87 99 0 60 29 101 89 101 43 0 62-24 78-52l27 14C228-24 195 4 139 4 59 4 22-46 18-125c-6-104 99-153 187-111 19 9 31 26 39 46" id="p"/><use transform="matrix(0.08641975308641976,0,0,0.08641975308641976,0,0)" xlink:href="#p" id="c"/><path d="M18-150v-26h174v26H18zm0 90v-26h174v26H18" id="q"/><use transform="matrix(0.08641975308641976,0,0,0.08641975308641976,0,0)" xlink:href="#q" id="d"/><path d="M101-251c68 0 85 55 85 127S166 4 100 4C33 4 14-52 14-124c0-73 17-127 87-127zm-1 229c47 0 54-49 54-102s-4-102-53-102c-51 0-55 48-55 102 0 53 5 102 54 102" id="r"/><use transform="matrix(0.08641975308641976,0,0,0.08641975308641976,0,0)" xlink:href="#r" id="e"/><path d="M205 0l-28-72H64L36 0H1l101-248h38L239 0h-34zm-38-99l-47-123c-12 45-31 82-46 123h93" id="s"/><use transform="matrix(0.08641975308641976,0,0,0.08641975308641976,0,0)" xlink:href="#s" id="f"/><path d="M24-231v-30h32v30H24zM24 0v-190h32V0H24" id="t"/><path d="M135-143c-3-34-86-38-87 0 15 53 115 12 119 90S17 21 10-45l28-5c4 36 97 45 98 0-10-56-113-15-118-90-4-57 82-63 122-42 12 7 21 19 24 35" id="u"/><path d="M100-194c62-1 85 37 85 99 1 63-27 99-86 99S16-35 15-95c0-66 28-99 85-99zM99-20c44 1 53-31 53-75 0-43-8-75-51-75s-53 32-53 75 10 74 51 75" id="v"/><path d="M114-163C36-179 61-72 57 0H25l-1-190h30c1 12-1 29 2 39 6-27 23-49 58-41v29" id="w"/><path d="M85-194c31 0 48 13 60 33l-1-100h32l1 261h-30c-2-10 0-23-3-31C134-8 116 4 85 4 32 4 16-35 15-94c0-66 23-100 70-100zm9 24c-40 0-46 34-46 75 0 40 6 74 45 74 42 0 51-32 51-76 0-42-9-74-50-73" id="x"/><path d="M100-194c63 0 86 42 84 106H49c0 40 14 67 53 68 26 1 43-12 49-29l28 8c-11 28-37 45-77 45C44 4 14-33 15-96c1-61 26-98 85-98zm52 81c6-60-76-77-97-28-3 7-6 17-6 28h103" id="y"/><g id="g"><use transform="matrix(0.05,0,0,0.05,0,0)" xlink:href="#n"/><use transform="matrix(0.05,0,0,0.05,12.950000000000001,0)" xlink:href="#t"/><use transform="matrix(0.05,0,0,0.05,16.900000000000002,0)" xlink:href="#u"/><use transform="matrix(0.05,0,0,0.05,25.900000000000002,0)" xlink:href="#v"/><use transform="matrix(0.05,0,0,0.05,35.900000000000006,0)" xlink:href="#w"/><use transform="matrix(0.05,0,0,0.05,41.85000000000001,0)" xlink:href="#x"/><use transform="matrix(0.05,0,0,0.05,51.85,0)" xlink:href="#y"/><use transform="matrix(0.05,0,0,0.05,61.85,0)" xlink:href="#w"/></g><path d="M210-169c-67 3-38 105-44 169h-31v-121c0-29-5-50-35-48C34-165 62-65 56 0H25l-1-190h30c1 10-1 24 2 32 10-44 99-50 107 0 11-21 27-35 58-36 85-2 47 119 55 194h-31v-121c0-29-5-49-35-48" id="z"/><g id="h"><use transform="matrix(0.05,0,0,0.05,0,0)" xlink:href="#p"/><use transform="matrix(0.05,0,0,0.05,12.950000000000001,0)" xlink:href="#w"/><use transform="matrix(0.05,0,0,0.05,18.900000000000002,0)" xlink:href="#t"/><use transform="matrix(0.05,0,0,0.05,22.85,0)" xlink:href="#z"/><use transform="matrix(0.05,0,0,0.05,37.800000000000004,0)" xlink:href="#y"/></g><path d="M0 4l72-265h28L28 4H0" id="A"/><use transform="matrix(0.05,0,0,0.05,0,0)" xlink:href="#A" id="i"/><path d="M190 0L58-211 59 0H30v-248h39L202-35l-2-213h31V0h-41" id="B"/><g id="j"><use transform="matrix(0.05,0,0,0.05,0,0)" xlink:href="#B"/><use transform="matrix(0.05,0,0,0.05,12.950000000000001,0)" xlink:href="#v"/><use transform="matrix(0.05,0,0,0.05,22.950000000000003,0)" xlink:href="#w"/><use transform="matrix(0.05,0,0,0.05,28.900000000000002,0)" xlink:href="#z"/></g><path d="M137 0h-34L2-248h35l83 218 83-218h36" id="C"/><path d="M24 0v-261h32V0H24" id="D"/><path d="M141-36C126-15 110 5 73 4 37 3 15-17 15-53c-1-64 63-63 125-63 3-35-9-54-41-54-24 1-41 7-42 31l-33-3c5-37 33-52 76-52 45 0 72 20 72 64v82c-1 20 7 32 28 27v20c-31 9-61-2-59-35zM48-53c0 20 12 33 32 33 41-3 63-29 60-74-43 2-92-5-92 41" id="E"/><path d="M59-47c-2 24 18 29 38 22v24C64 9 27 4 27-40v-127H5v-23h24l9-43h21v43h35v23H59v120" id="F"/><path d="M117-194c89-4 53 116 60 194h-32v-121c0-31-8-49-39-48C34-167 62-67 57 0H25l-1-190h30c1 10-1 24 2 32 11-22 29-35 61-36" id="G"/><g id="k"><use transform="matrix(0.05,0,0,0.05,0,0)" xlink:href="#C"/><use transform="matrix(0.05,0,0,0.05,11.65,0)" xlink:href="#t"/><use transform="matrix(0.05,0,0,0.05,15.600000000000001,0)" xlink:href="#v"/><use transform="matrix(0.05,0,0,0.05,25.6,0)" xlink:href="#D"/><use transform="matrix(0.05,0,0,0.05,29.55,0)" xlink:href="#E"/><use transform="matrix(0.05,0,0,0.05,39.55,0)" xlink:href="#F"/><use transform="matrix(0.05,0,0,0.05,44.55,0)" xlink:href="#t"/><use transform="matrix(0.05,0,0,0.05,48.5,0)" xlink:href="#v"/><use transform="matrix(0.05,0,0,0.05,58.5,0)" xlink:href="#G"/></g><path d="M185-189c-5-48-123-54-124 2 14 75 158 14 163 119 3 78-121 87-175 55-17-10-28-26-33-46l33-7c5 56 141 63 141-1 0-78-155-14-162-118-5-82 145-84 179-34 5 7 8 16 11 25" id="H"/><path d="M96-169c-40 0-48 33-48 73s9 75 48 75c24 0 41-14 43-38l32 2c-6 37-31 61-74 61-59 0-76-41-82-99-10-93 101-131 147-64 4 7 5 14 7 22l-32 3c-4-21-16-35-41-35" id="I"/><g id="l"><use transform="matrix(0.05,0,0,0.05,0,0)" xlink:href="#H"/><use transform="matrix(0.05,0,0,0.05,12,0)" xlink:href="#v"/><use transform="matrix(0.05,0,0,0.05,22,0)" xlink:href="#I"/><use transform="matrix(0.05,0,0,0.05,31,0)" xlink:href="#t"/><use transform="matrix(0.05,0,0,0.05,34.95,0)" xlink:href="#E"/><use transform="matrix(0.05,0,0,0.05,44.95,0)" xlink:href="#D"/></g><g id="m"><use transform="matrix(0.05,0,0,0.05,0,0)" xlink:href="#p"/><use transform="matrix(0.05,0,0,0.05,12.950000000000001,0)" xlink:href="#v"/><use transform="matrix(0.05,0,0,0.05,22.950000000000003,0)" xlink:href="#G"/><use transform="matrix(0.05,0,0,0.05,32.95,0)" xlink:href="#F"/><use transform="matrix(0.05,0,0,0.05,37.95,0)" xlink:href="#w"/><use transform="matrix(0.05,0,0,0.05,43.900000000000006,0)" xlink:href="#v"/><use transform="matrix(0.05,0,0,0.05,53.900000000000006,0)" xlink:href="#D"/></g></defs></g></svg>