<?xml version="1.0" encoding="UTF-8" standalone="no"?>
<svg
   width="718.88196"
   height="285.6889"
   version="1.1"
   id="svg5560"
   sodipodi:docname="coleman-boat - general.svg"
   inkscape:version="1.3 (0e150ed6c4, 2023-07-21)"
   xmlns:inkscape="http://www.inkscape.org/namespaces/inkscape"
   xmlns:sodipodi="http://sodipodi.sourceforge.net/DTD/sodipodi-0.dtd"
   xmlns="http://www.w3.org/2000/svg"
   xmlns:svg="http://www.w3.org/2000/svg"
   xmlns:rdf="http://www.w3.org/1999/02/22-rdf-syntax-ns#"
   xmlns:cc="http://creativecommons.org/ns#"
   xmlns:dc="http://purl.org/dc/elements/1.1/">
  <metadata
     id="metadata5566">
    <rdf:RDF>
      <cc:Work
         rdf:about="">
        <dc:format>image/svg+xml</dc:format>
        <dc:type
           rdf:resource="http://purl.org/dc/dcmitype/StillImage" />
      </cc:Work>
    </rdf:RDF>
  </metadata>
  <defs
     id="defs5564">
    <marker
       inkscape:stockid="Arrow2Lstart"
       orient="auto"
       refY="0"
       refX="0"
       id="Arrow2Lstart"
       style="overflow:visible"
       inkscape:isstock="true">
      <path
         id="path4580"
         style="fill:#000000;fill-opacity:1;fill-rule:evenodd;stroke:#000000;stroke-width:0.625;stroke-linejoin:round;stroke-opacity:1"
         d="M 8.7185878,4.0337352 -2.2072895,0.01601326 8.7185884,-4.0017078 c -1.7454984,2.3720609 -1.7354408,5.6174519 -6e-7,8.035443 z"
         transform="matrix(1.1,0,0,1.1,1.1,0)"
         inkscape:connector-curvature="0" />
    </marker>
    <marker
       inkscape:stockid="Arrow2Lend"
       orient="auto"
       refY="0"
       refX="0"
       id="marker4512"
       style="overflow:visible"
       inkscape:isstock="true">
      <path
         inkscape:connector-curvature="0"
         id="path4510"
         style="fill:#000000;fill-opacity:1;fill-rule:evenodd;stroke:#000000;stroke-width:0.625;stroke-linejoin:round;stroke-opacity:1"
         d="M 8.7185878,4.0337352 -2.2072895,0.01601326 8.7185884,-4.0017078 c -1.7454984,2.3720609 -1.7354408,5.6174519 -6e-7,8.035443 z"
         transform="matrix(-1.1,0,0,-1.1,-1.1,0)" />
    </marker>
    <inkscape:path-effect
       effect="bspline"
       id="path-effect4496"
       is_visible="true"
       weight="33.333333"
       steps="2"
       helper_size="0"
       apply_no_weight="true"
       apply_with_weight="true"
       only_selected="false"
       lpeversion="0"
       uniform="false" />
    <marker
       inkscape:isstock="true"
       style="overflow:visible"
       id="marker6123"
       refX="0"
       refY="0"
       orient="auto"
       inkscape:stockid="Arrow2Lend">
      <path
         transform="matrix(-1.1,0,0,-1.1,-1.1,0)"
         d="M 8.7185878,4.0337352 -2.2072895,0.01601326 8.7185884,-4.0017078 c -1.7454984,2.3720609 -1.7354408,5.6174519 -6e-7,8.035443 z"
         style="fill:#000000;fill-opacity:1;fill-rule:evenodd;stroke:#000000;stroke-width:0.625;stroke-linejoin:round;stroke-opacity:1"
         id="path6121"
         inkscape:connector-curvature="0" />
    </marker>
    <marker
       inkscape:isstock="true"
       style="overflow:visible"
       id="marker6123-9"
       refX="0"
       refY="0"
       orient="auto"
       inkscape:stockid="Arrow2Lend">
      <path
         transform="matrix(-1.1,0,0,-1.1,-1.1,0)"
         d="M 8.7185878,4.0337352 -2.2072895,0.01601326 8.7185884,-4.0017078 c -1.7454984,2.3720609 -1.7354408,5.6174519 -6e-7,8.035443 z"
         style="fill:#000000;fill-opacity:1;fill-rule:evenodd;stroke:#000000;stroke-width:0.625;stroke-linejoin:round;stroke-opacity:1"
         id="path6121-8"
         inkscape:connector-curvature="0" />
    </marker>
    <marker
       inkscape:isstock="true"
       style="overflow:visible"
       id="marker6089-7"
       refX="0"
       refY="0"
       orient="auto"
       inkscape:stockid="Arrow2Lend">
      <path
         transform="matrix(-1.1,0,0,-1.1,-1.1,0)"
         d="M 8.7185878,4.0337352 -2.2072895,0.01601326 8.7185884,-4.0017078 c -1.7454984,2.3720609 -1.7354408,5.6174519 -6e-7,8.035443 z"
         style="fill:#000000;fill-opacity:1;fill-rule:evenodd;stroke:#000000;stroke-width:0.625;stroke-linejoin:round;stroke-opacity:1"
         id="path6087-2"
         inkscape:connector-curvature="0" />
    </marker>
    <marker
       inkscape:isstock="true"
       style="overflow:visible"
       id="marker6123-9-3"
       refX="0"
       refY="0"
       orient="auto"
       inkscape:stockid="Arrow2Lend">
      <path
         transform="matrix(-1.1,0,0,-1.1,-1.1,0)"
         d="M 8.7185878,4.0337352 -2.2072895,0.01601326 8.7185884,-4.0017078 c -1.7454984,2.3720609 -1.7354408,5.6174519 -6e-7,8.035443 z"
         style="fill:#000000;fill-opacity:1;fill-rule:evenodd;stroke:#000000;stroke-width:0.625;stroke-linejoin:round;stroke-opacity:1"
         id="path6121-8-8"
         inkscape:connector-curvature="0" />
    </marker>
    <marker
       inkscape:isstock="true"
       style="overflow:visible"
       id="marker6089-7-0"
       refX="0"
       refY="0"
       orient="auto"
       inkscape:stockid="Arrow2Lend">
      <path
         transform="matrix(-1.1,0,0,-1.1,-1.1,0)"
         d="M 8.7185878,4.0337352 -2.2072895,0.01601326 8.7185884,-4.0017078 c -1.7454984,2.3720609 -1.7354408,5.6174519 -6e-7,8.035443 z"
         style="fill:#000000;fill-opacity:1;fill-rule:evenodd;stroke:#000000;stroke-width:0.625;stroke-linejoin:round;stroke-opacity:1"
         id="path6087-2-4"
         inkscape:connector-curvature="0" />
    </marker>
    <marker
       inkscape:isstock="true"
       style="overflow:visible"
       id="marker6089-7-0-3"
       refX="0"
       refY="0"
       orient="auto"
       inkscape:stockid="Arrow2Lend">
      <path
         transform="matrix(-1.1,0,0,-1.1,-1.1,0)"
         d="M 8.7185878,4.0337352 -2.2072895,0.01601326 8.7185884,-4.0017078 c -1.7454984,2.3720609 -1.7354408,5.6174519 -6e-7,8.035443 z"
         style="fill:#000000;fill-opacity:1;fill-rule:evenodd;stroke:#000000;stroke-width:0.625;stroke-linejoin:round;stroke-opacity:1"
         id="path6087-2-4-2"
         inkscape:connector-curvature="0" />
    </marker>
    <marker
       inkscape:isstock="true"
       style="overflow:visible"
       id="marker6089-7-2"
       refX="0"
       refY="0"
       orient="auto"
       inkscape:stockid="Arrow2Lend">
      <path
         transform="matrix(-1.1,0,0,-1.1,-1.1,0)"
         d="M 8.7185878,4.0337352 -2.2072895,0.01601326 8.7185884,-4.0017078 c -1.7454984,2.3720609 -1.7354408,5.6174519 -6e-7,8.035443 z"
         style="fill:#000000;fill-opacity:1;fill-rule:evenodd;stroke:#000000;stroke-width:0.625;stroke-linejoin:round;stroke-opacity:1"
         id="path6087-2-6"
         inkscape:connector-curvature="0" />
    </marker>
    <marker
       inkscape:isstock="true"
       style="overflow:visible"
       id="marker6123-9-3-9"
       refX="0"
       refY="0"
       orient="auto"
       inkscape:stockid="Arrow2Lend">
      <path
         transform="matrix(-1.1,0,0,-1.1,-1.1,0)"
         d="M 8.7185878,4.0337352 -2.2072895,0.01601326 8.7185884,-4.0017078 c -1.7454984,2.3720609 -1.7354408,5.6174519 -6e-7,8.035443 z"
         style="fill:#000000;fill-opacity:1;fill-rule:evenodd;stroke:#000000;stroke-width:0.625;stroke-linejoin:round;stroke-opacity:1"
         id="path6121-8-8-8"
         inkscape:connector-curvature="0" />
    </marker>
    <marker
       inkscape:isstock="true"
       style="overflow:visible"
       id="marker6123-9-3-9-4"
       refX="0"
       refY="0"
       orient="auto"
       inkscape:stockid="Arrow2Lend">
      <path
         transform="matrix(-1.1,0,0,-1.1,-1.1,0)"
         d="M 8.7185878,4.0337352 -2.2072895,0.01601326 8.7185884,-4.0017078 c -1.7454984,2.3720609 -1.7354408,5.6174519 -6e-7,8.035443 z"
         style="fill:#000000;fill-opacity:1;fill-rule:evenodd;stroke:#000000;stroke-width:0.625;stroke-linejoin:round;stroke-opacity:1"
         id="path6121-8-8-8-7"
         inkscape:connector-curvature="0" />
    </marker>
    <marker
       inkscape:isstock="true"
       style="overflow:visible"
       id="marker6123-9-3-9-4-8"
       refX="0"
       refY="0"
       orient="auto"
       inkscape:stockid="Arrow2Lend">
      <path
         transform="matrix(-1.1,0,0,-1.1,-1.1,0)"
         d="M 8.7185878,4.0337352 -2.2072895,0.01601326 8.7185884,-4.0017078 c -1.7454984,2.3720609 -1.7354408,5.6174519 -6e-7,8.035443 z"
         style="fill:#000000;fill-opacity:1;fill-rule:evenodd;stroke:#000000;stroke-width:0.625;stroke-linejoin:round;stroke-opacity:1"
         id="path6121-8-8-8-7-7"
         inkscape:connector-curvature="0" />
    </marker>
    <marker
       inkscape:isstock="true"
       style="overflow:visible"
       id="marker6123-9-3-9-2"
       refX="0"
       refY="0"
       orient="auto"
       inkscape:stockid="Arrow2Lend">
      <path
         transform="matrix(-1.1,0,0,-1.1,-1.1,0)"
         d="M 8.7185878,4.0337352 -2.2072895,0.01601326 8.7185884,-4.0017078 c -1.7454984,2.3720609 -1.7354408,5.6174519 -6e-7,8.035443 z"
         style="fill:#000000;fill-opacity:1;fill-rule:evenodd;stroke:#000000;stroke-width:0.625;stroke-linejoin:round;stroke-opacity:1"
         id="path6121-8-8-8-4"
         inkscape:connector-curvature="0" />
    </marker>
    <marker
       inkscape:isstock="true"
       style="overflow:visible"
       id="marker6123-9-3-9-26"
       refX="0"
       refY="0"
       orient="auto"
       inkscape:stockid="Arrow2Lend">
      <path
         transform="matrix(-1.1,0,0,-1.1,-1.1,0)"
         d="M 8.7185878,4.0337352 -2.2072895,0.01601326 8.7185884,-4.0017078 c -1.7454984,2.3720609 -1.7354408,5.6174519 -6e-7,8.035443 z"
         style="fill:#000000;fill-opacity:1;fill-rule:evenodd;stroke:#000000;stroke-width:0.625;stroke-linejoin:round;stroke-opacity:1"
         id="path6121-8-8-8-5"
         inkscape:connector-curvature="0" />
    </marker>
    <marker
       inkscape:isstock="true"
       style="overflow:visible"
       id="marker6123-9-3-9-4-5"
       refX="0"
       refY="0"
       orient="auto"
       inkscape:stockid="Arrow2Lend">
      <path
         transform="matrix(-1.1,0,0,-1.1,-1.1,0)"
         d="M 8.7185878,4.0337352 -2.2072895,0.01601326 8.7185884,-4.0017078 c -1.7454984,2.3720609 -1.7354408,5.6174519 -6e-7,8.035443 z"
         style="fill:#000000;fill-opacity:1;fill-rule:evenodd;stroke:#000000;stroke-width:0.625;stroke-linejoin:round;stroke-opacity:1"
         id="path6121-8-8-8-7-4"
         inkscape:connector-curvature="0" />
    </marker>
    <marker
       inkscape:isstock="true"
       style="overflow:visible"
       id="marker6123-9-3-9-3"
       refX="0"
       refY="0"
       orient="auto"
       inkscape:stockid="Arrow2Lend">
      <path
         transform="matrix(-1.1,0,0,-1.1,-1.1,0)"
         d="M 8.7185878,4.0337352 -2.2072895,0.01601326 8.7185884,-4.0017078 c -1.7454984,2.3720609 -1.7354408,5.6174519 -6e-7,8.035443 z"
         style="fill:#000000;fill-opacity:1;fill-rule:evenodd;stroke:#000000;stroke-width:0.625;stroke-linejoin:round;stroke-opacity:1"
         id="path6121-8-8-8-6"
         inkscape:connector-curvature="0" />
    </marker>
    <marker
       inkscape:isstock="true"
       style="overflow:visible"
       id="marker6123-9-3-9-8"
       refX="0"
       refY="0"
       orient="auto"
       inkscape:stockid="Arrow2Lend">
      <path
         transform="matrix(-1.1,0,0,-1.1,-1.1,0)"
         d="M 8.7185878,4.0337352 -2.2072895,0.01601326 8.7185884,-4.0017078 c -1.7454984,2.3720609 -1.7354408,5.6174519 -6e-7,8.035443 z"
         style="fill:#000000;fill-opacity:1;fill-rule:evenodd;stroke:#000000;stroke-width:0.625;stroke-linejoin:round;stroke-opacity:1"
         id="path6121-8-8-8-41"
         inkscape:connector-curvature="0" />
    </marker>
    <marker
       inkscape:isstock="true"
       style="overflow:visible"
       id="marker6123-9-3-9-4-0"
       refX="0"
       refY="0"
       orient="auto"
       inkscape:stockid="Arrow2Lend">
      <path
         transform="matrix(-1.1,0,0,-1.1,-1.1,0)"
         d="M 8.7185878,4.0337352 -2.2072895,0.01601326 8.7185884,-4.0017078 c -1.7454984,2.3720609 -1.7354408,5.6174519 -6e-7,8.035443 z"
         style="fill:#000000;fill-opacity:1;fill-rule:evenodd;stroke:#000000;stroke-width:0.625;stroke-linejoin:round;stroke-opacity:1"
         id="path6121-8-8-8-7-48"
         inkscape:connector-curvature="0" />
    </marker>
    <marker
       inkscape:isstock="true"
       style="overflow:visible"
       id="marker6123-9-3-9-0"
       refX="0"
       refY="0"
       orient="auto"
       inkscape:stockid="Arrow2Lend">
      <path
         transform="matrix(-1.1,0,0,-1.1,-1.1,0)"
         d="M 8.7185878,4.0337352 -2.2072895,0.01601326 8.7185884,-4.0017078 c -1.7454984,2.3720609 -1.7354408,5.6174519 -6e-7,8.035443 z"
         style="fill:#000000;fill-opacity:1;fill-rule:evenodd;stroke:#000000;stroke-width:0.625;stroke-linejoin:round;stroke-opacity:1"
         id="path6121-8-8-8-45"
         inkscape:connector-curvature="0" />
    </marker>
  </defs>
  <sodipodi:namedview
     pagecolor="#ffffff"
     bordercolor="#666666"
     borderopacity="1"
     objecttolerance="10"
     gridtolerance="10"
     guidetolerance="10"
     inkscape:pageopacity="0"
     inkscape:pageshadow="2"
     inkscape:window-width="2560"
     inkscape:window-height="1377"
     id="namedview5562"
     showgrid="false"
     inkscape:zoom="1.375862"
     inkscape:cx="446.6291"
     inkscape:cy="-17.807018"
     inkscape:window-x="-8"
     inkscape:window-y="-8"
     inkscape:window-maximized="1"
     inkscape:current-layer="svg5560"
     inkscape:showpageshadow="2"
     inkscape:pagecheckerboard="0"
     inkscape:deskcolor="#d1d1d1" />
  <g
     id="g5079"
     transform="translate(666.16963,451.61183)" />
  <flowRoot
     xml:space="preserve"
     id="flowRoot3587"
     style="font-style:normal;font-weight:normal;font-size:18.6667px;line-height:1.25;font-family:sans-serif;letter-spacing:0px;word-spacing:0px;fill:#000000;fill-opacity:1;stroke:none"
     transform="translate(584.26848,240.99198)"><flowRegion
       id="flowRegion3589"><rect
         id="rect3591"
         width="71.951218"
         height="33.919861"
         x="49.337978"
         y="49.613239" /></flowRegion><flowPara
       id="flowPara3593" /></flowRoot>
  <path
     inkscape:connector-curvature="0"
     style="fill:none;stroke:#000000;stroke-width:2;stroke-miterlimit:4;stroke-dasharray:none;stroke-dashoffset:0;marker-end:url(#marker6123-9-3-9)"
     d="M 94.474485,63.37047 176.21542,217.1609"
     id="path260-8-3-9"
     sodipodi:nodetypes="cc" />
  <path
     inkscape:connector-curvature="0"
     style="fill:none;stroke:#000000;stroke-width:2;stroke-miterlimit:4;stroke-dasharray:none;stroke-dashoffset:0;marker-end:url(#marker6123-9-3-9-0)"
     d="M 534.47714,219.7243 616.21808,65.933866"
     id="path260-8-3-9-60"
     sodipodi:nodetypes="cc" />
  <path
     inkscape:connector-curvature="0"
     style="fill:none;stroke:#000000;stroke-width:2;stroke-miterlimit:4;stroke-dasharray:6, 6;stroke-dashoffset:0;marker-end:url(#marker6123-9-3-9-4)"
     d="M 175.22013,24.212322 H 534.31055"
     id="path260-8-3-9-7"
     sodipodi:nodetypes="cc" />
  <path
     inkscape:connector-curvature="0"
     style="fill:none;stroke:#000000;stroke-width:2;stroke-miterlimit:4;stroke-dasharray:6, 6;stroke-dashoffset:0;marker-end:url(#marker6123-9-3-9-4-0)"
     d="m 157.84713,54.83521 273.326,166.44111"
     id="path260-8-3-9-7-1"
     sodipodi:nodetypes="cc" />
  <path
     inkscape:connector-curvature="0"
     style="fill:none;stroke:#000000;stroke-width:2;stroke-miterlimit:4;stroke-dasharray:none;stroke-dashoffset:0;marker-end:url(#marker6123-9-3-9-4-5)"
     d="M 286.86869,260.09747 H 427.18717"
     id="path260-8-3-9-7-0"
     sodipodi:nodetypes="cc" />
  <g
     id="text4126-2-1-5-6"
     style="font-size:26.6667px;line-height:1.25;font-family:Montserrat;-inkscape-font-specification:'Montserrat, @wght=700';font-variation-settings:'wght' 700;text-align:center;letter-spacing:0px;word-spacing:0px;text-anchor:middle"
     aria-label="Neighborhood&#10;Characteristics&#10;(Environment)"
     transform="translate(-138.35405,144.79923)">
    <g
       id="text1"
       style="font-size:32px;line-height:0.95;fill:#003c71;stroke:#000000;stroke-width:3"
       aria-label="Macro-Level&#10;Context">
      <path
         style="font-size:26.6667px;-inkscape-font-specification:'Montserrat, @wght=600';font-variation-settings:'wght' 600;fill:#000000;stroke:none"
         d="m 138.35405,-125.01254 v -18.66669 h 2.85334 l 8.16001,13.62668 h -1.49334 l 8.02668,-13.62668 h 2.85334 l 0.0267,18.66669 h -3.28001 l -0.0267,-13.52002 h 0.69334 l -6.82668,11.38668 h -1.54667 l -6.93334,-11.38668 h 0.8 v 13.52002 z m 33.92004,0 v -2.88001 l -0.18666,-0.61333 v -5.04001 q 0,-1.46667 -0.88,-2.26667 -0.88,-0.82666 -2.66667,-0.82666 -1.20001,0 -2.37334,0.37333 -1.14667,0.37333 -1.94667,1.04 l -1.30667,-2.42667 q 1.14667,-0.88 2.72001,-1.30667 1.6,-0.45333 3.30667,-0.45333 3.09333,0 4.77334,1.49333 1.70666,1.46667 1.70666,4.56001 v 8.34668 z m -4.48,0.18666 q -1.6,0 -2.8,-0.53333 -1.20001,-0.56 -1.86667,-1.52 -0.64,-0.98667 -0.64,-2.21334 0,-1.2 0.56,-2.16 0.58666,-0.96 1.89333,-1.52 1.30667,-0.56 3.46667,-0.56 h 4.13334 v 2.21333 h -3.89334 q -1.70667,0 -2.29333,0.56 -0.58667,0.53334 -0.58667,1.33334 0,0.90667 0.72,1.44 0.72,0.53333 2,0.53333 1.22667,0 2.18667,-0.56 0.98667,-0.56 1.41334,-1.65333 l 0.56,2 q -0.48,1.25334 -1.73334,1.94667 -1.22667,0.69333 -3.12,0.69333 z m 18.46119,0 q -2.24001,0 -4.00001,-0.93333 -1.73334,-0.96 -2.72,-2.61334 -0.98667,-1.65333 -0.98667,-3.76 0,-2.13334 0.98667,-3.76001 0.98666,-1.65333 2.72,-2.58667 1.76,-0.93333 4.00001,-0.93333 2.08,0 3.65333,0.85333 1.60001,0.82667 2.42667,2.45334 l -2.56,1.49334 q -0.64,-1.01334 -1.57334,-1.49334 -0.90666,-0.48 -1.97333,-0.48 -1.22667,0 -2.21334,0.53333 -0.98667,0.53334 -1.54667,1.54667 -0.56,0.98667 -0.56,2.37334 0,1.38667 0.56,2.4 0.56,0.98667 1.54667,1.52 0.98667,0.53334 2.21334,0.53334 1.06667,0 1.97333,-0.48 0.93334,-0.48 1.57334,-1.49334 l 2.56,1.49334 q -0.82666,1.6 -2.42667,2.48 -1.57333,0.85333 -3.65333,0.85333 z m 8.95999,-0.18666 v -14.24002 h 3.17334 v 3.92 l -0.37334,-1.14666 q 0.64,-1.44001 2.00001,-2.18667 1.38666,-0.74667 3.44,-0.74667 v 3.17334 q -0.21333,-0.0533 -0.4,-0.0533 -0.18667,-0.0267 -0.37333,-0.0267 -1.89334,0 -3.01334,1.12 -1.12,1.09333 -1.12,3.28 v 6.90668 z m 17.3274,0.18666 q -2.18667,0 -3.89334,-0.93333 -1.70666,-0.96 -2.69333,-2.61334 -0.98667,-1.65333 -0.98667,-3.76 0,-2.13334 0.98667,-3.76001 0.98667,-1.65333 2.69333,-2.58667 1.70667,-0.93333 3.89334,-0.93333 2.21334,0 3.92001,0.93333 1.73333,0.93334 2.69333,2.56001 0.98667,1.62667 0.98667,3.78667 0,2.10667 -0.98667,3.76 -0.96,1.65334 -2.69333,2.61334 -1.70667,0.93333 -3.92001,0.93333 z m 0,-2.85333 q 1.22667,0 2.18667,-0.53334 0.96,-0.53333 1.49334,-1.54667 0.56,-1.01333 0.56,-2.37333 0,-1.38667 -0.56,-2.37334 -0.53334,-1.01333 -1.49334,-1.54667 -0.96,-0.53333 -2.16,-0.53333 -1.22667,0 -2.18667,0.53333 -0.93333,0.53334 -1.49334,1.54667 -0.56,0.98667 -0.56,2.37334 0,1.36 0.56,2.37333 0.56001,1.01334 1.49334,1.54667 0.96,0.53334 2.16,0.53334 z m 10.3467,-3.36001 v -2.77333 h 7.33334 v 2.77333 z m 11.30669,6.02668 v -18.66669 h 3.46667 v 15.73335 h 9.76001 v 2.93334 z m 22.2074,0.18666 q -2.37334,0 -4.16001,-0.93333 -1.76,-0.96 -2.74667,-2.61334 -0.96,-1.65333 -0.96,-3.76 0,-2.13334 0.93334,-3.76001 0.96,-1.65333 2.61333,-2.58667 1.68,-0.93333 3.81334,-0.93333 2.08,0 3.70667,0.90667 1.62667,0.90666 2.56,2.56 0.93334,1.65334 0.93334,3.89334 0,0.21333 -0.0267,0.48 0,0.26667 -0.0267,0.50667 h -11.86669 v -2.21334 h 10.10668 l -1.30666,0.69333 q 0.0267,-1.22666 -0.50667,-2.16 -0.53334,-0.93333 -1.46667,-1.46667 -0.90667,-0.53333 -2.10667,-0.53333 -1.22667,0 -2.16,0.53333 -0.90667,0.53334 -1.44,1.49334 -0.50667,0.93333 -0.50667,2.21333 v 0.53334 q 0,1.28 0.58667,2.26667 0.58666,0.98667 1.65333,1.52 1.06667,0.53333 2.45334,0.53333 1.2,0 2.16,-0.37333 0.96,-0.37333 1.70667,-1.17333 l 1.78667,2.05333 q -0.96,1.12 -2.42667,1.73334 -1.44,0.58666 -3.30667,0.58666 z m 13.41333,-0.18666 -6.10667,-14.24002 h 3.46667 l 5.25334,12.56002 h -1.70667 l 5.44001,-12.56002 h 3.2 l -6.10667,14.24002 z m 17.92002,0.18666 q -2.37334,0 -4.16001,-0.93333 -1.76,-0.96 -2.74667,-2.61334 -0.96,-1.65333 -0.96,-3.76 0,-2.13334 0.93334,-3.76001 0.96,-1.65333 2.61333,-2.58667 1.68001,-0.93333 3.81334,-0.93333 2.08,0 3.70667,0.90667 1.62667,0.90666 2.56001,2.56 0.93333,1.65334 0.93333,3.89334 0,0.21333 -0.0267,0.48 0,0.26667 -0.0267,0.50667 h -11.86668 v -2.21334 h 10.10667 l -1.30666,0.69333 q 0.0267,-1.22666 -0.50667,-2.16 -0.53333,-0.93333 -1.46667,-1.46667 -0.90667,-0.53333 -2.10667,-0.53333 -1.22667,0 -2.16,0.53333 -0.90667,0.53334 -1.44,1.49334 -0.50667,0.93333 -0.50667,2.21333 v 0.53334 q 0,1.28 0.58667,2.26667 0.58666,0.98667 1.65333,1.52 1.06667,0.53333 2.45334,0.53333 1.2,0 2.16,-0.37333 0.96,-0.37333 1.70667,-1.17333 l 1.78667,2.05333 q -0.96,1.12 -2.42667,1.73334 -1.44,0.58666 -3.30667,0.58666 z m 9.89334,-0.18666 v -19.78669 h 3.33334 v 19.78669 z"
         id="path4" />
      <path
         style="font-size:26.6667px;-inkscape-font-specification:'Montserrat, @wght=600';font-variation-settings:'wght' 600;fill:#000000;stroke:none"
         d="m 176.6832,-94.345876 q -2.13333,0 -3.97334,-0.693334 -1.81333,-0.720001 -3.17333,-2.000003 -1.33334,-1.306668 -2.08001,-3.066667 -0.74666,-1.76001 -0.74666,-3.84001 0,-2.08 0.74666,-3.84 0.74667,-1.76001 2.10667,-3.04001 1.36001,-1.30667 3.17334,-2 1.81334,-0.72 3.97334,-0.72 2.29334,0 4.18667,0.8 1.89334,0.77333 3.20001,2.32 l -2.24001,2.10667 q -1.01333,-1.09333 -2.26667,-1.62667 -1.25333,-0.56 -2.72,-0.56 -1.46667,0 -2.69334,0.48 -1.2,0.48 -2.10667,1.36001 -0.88,0.88 -1.38666,2.08 -0.48001,1.2 -0.48001,2.64 0,1.44 0.48001,2.64001 0.50666,1.2 1.38666,2.079998 0.90667,0.880001 2.10667,1.360001 1.22667,0.480001 2.69334,0.480001 1.46667,0 2.72,-0.533334 1.25334,-0.560001 2.26667,-1.680002 l 2.24001,2.133336 q -1.30667,1.520002 -3.20001,2.320003 -1.89333,0.800001 -4.21334,0.800001 z m 16.28737,-0.08 q -2.18667,0 -3.89333,-0.933335 -1.70667,-0.960001 -2.69334,-2.613336 -0.98667,-1.653336 -0.98667,-3.760003 0,-2.13334 0.98667,-3.76001 0.98667,-1.65333 2.69334,-2.58667 1.70666,-0.93333 3.89333,-0.93333 2.21334,0 3.92001,0.93333 1.73333,0.93334 2.69334,2.56001 0.98666,1.62667 0.98666,3.78667 0,2.106667 -0.98666,3.760003 -0.96001,1.653335 -2.69334,2.613336 -1.70667,0.933335 -3.92001,0.933335 z m 0,-2.853337 q 1.22667,0 2.18667,-0.533334 0.96,-0.533334 1.49334,-1.546669 0.56,-1.013334 0.56,-2.373334 0,-1.38667 -0.56,-2.37334 -0.53334,-1.01333 -1.49334,-1.54667 -0.96,-0.53333 -2.16,-0.53333 -1.22667,0 -2.18667,0.53333 -0.93333,0.53334 -1.49333,1.54667 -0.56,0.98667 -0.56,2.37334 0,1.36 0.56,2.373334 0.56,1.013335 1.49333,1.546669 0.96,0.533334 2.16,0.533334 z m 18.88004,-11.733347 q 1.70667,0 3.04,0.66667 1.36001,0.66666 2.13334,2.05333 0.77334,1.36 0.77334,3.52001 v 8.160007 h -3.33334 v -7.733347 q 0,-1.89333 -0.90667,-2.82667 -0.88,-0.93333 -2.48,-0.93333 -1.17334,0 -2.08001,0.48 -0.90666,0.48 -1.41333,1.44 -0.48,0.93334 -0.48,2.37334 v 7.200007 h -3.33334 v -14.240017 h 3.17334 v 3.84 l -0.56,-1.17333 q 0.74667,-1.36 2.16,-2.08 1.44,-0.74667 3.30667,-0.74667 z m 15.54667,14.586684 q -2.34667,0 -3.62667,-1.200002 -1.28,-1.226668 -1.28,-3.600004 v -12.773348 h 3.33334 v 12.693348 q 0,1.013334 0.50666,1.573335 0.53334,0.560001 1.46667,0.560001 1.12,0 1.86667,-0.586668 l 0.93334,2.373337 q -0.58667,0.48 -1.44001,0.72 -0.85333,0.240001 -1.76,0.240001 z m -7.25334,-11.653344 v -2.66667 h 9.49334 v 2.66667 z m 19.42369,11.653344 q -2.37334,0 -4.16001,-0.933335 -1.76,-0.960001 -2.74667,-2.613336 -0.96,-1.653336 -0.96,-3.760003 0,-2.13334 0.93333,-3.76001 0.96001,-1.65333 2.61334,-2.58667 1.68,-0.93333 3.81334,-0.93333 2.08,0 3.70667,0.90667 1.62667,0.90666 2.56,2.56 0.93334,1.65334 0.93334,3.89334 0,0.21333 -0.0267,0.48 0,0.26667 -0.0267,0.50667 h -11.86668 v -2.21334 h 10.10668 l -1.30667,0.69333 q 0.0267,-1.22666 -0.50666,-2.16 -0.53334,-0.93333 -1.46667,-1.46667 -0.90667,-0.53333 -2.10667,-0.53333 -1.22667,0 -2.16,0.53333 -0.90667,0.53334 -1.44001,1.49334 -0.50666,0.93333 -0.50666,2.21333 v 0.53334 q 0,1.28 0.58666,2.266668 0.58667,0.986668 1.65334,1.520002 1.06667,0.533334 2.45334,0.533334 1.2,0 2.16,-0.373334 0.96,-0.373334 1.70667,-1.173335 l 1.78667,2.053336 q -0.96,1.120001 -2.42667,1.733335 -1.44,0.586668 -3.30667,0.586668 z m 7.54668,-0.186667 6.26668,-8.160007 -0.0533,1.78667 -5.97335,-7.86668 h 3.70668 l 4.18667,5.60001 h -1.41334 l 4.21334,-5.60001 h 3.60001 l -6.02668,7.86668 0.0267,-1.78667 6.24001,8.160007 h -3.76001 l -4.4,-5.946677 1.38666,0.18667 -4.32,5.760007 z m 22.58669,0.186667 q -2.34667,0 -3.62667,-1.200002 -1.28,-1.226668 -1.28,-3.600004 v -12.773348 h 3.33334 v 12.693348 q 0,1.013334 0.50667,1.573335 0.53333,0.560001 1.46666,0.560001 1.12001,0 1.86667,-0.586668 l 0.93334,2.373337 q -0.58667,0.48 -1.44,0.72 -0.85334,0.240001 -1.76001,0.240001 z m -7.25334,-11.653344 v -2.66667 h 9.49335 v 2.66667 z"
         id="path5" />
    </g>
  </g>
  <g
     id="text4126-2-1-5-6-8"
     style="font-size:26.6667px;line-height:1.25;font-family:Montserrat;-inkscape-font-specification:'Montserrat, @wght=700';font-variation-settings:'wght' 700;text-align:center;letter-spacing:0px;word-spacing:0px;text-anchor:middle"
     aria-label="Neighborhood&#10;Characteristics&#10;(Environment)"
     transform="translate(417.91848,144.79923)">
    <g
       id="text1-5"
       style="font-size:32px;line-height:0.95;fill:#003c71;stroke:#000000;stroke-width:3"
       aria-label="Macro-Level&#10;Outcome">
      <path
         style="font-size:26.6667px;-inkscape-font-specification:'Montserrat, @wght=600';font-variation-settings:'wght' 600;fill:#000000;stroke:none"
         d="m 138.35405,-125.01254 v -18.66669 h 2.85334 l 8.16001,13.62668 h -1.49334 l 8.02668,-13.62668 h 2.85334 l 0.0267,18.66669 h -3.28001 l -0.0267,-13.52002 h 0.69334 l -6.82668,11.38668 h -1.54667 l -6.93334,-11.38668 h 0.8 v 13.52002 z m 33.92004,0 v -2.88001 l -0.18666,-0.61333 v -5.04001 q 0,-1.46667 -0.88,-2.26667 -0.88,-0.82666 -2.66667,-0.82666 -1.20001,0 -2.37334,0.37333 -1.14667,0.37333 -1.94667,1.04 l -1.30667,-2.42667 q 1.14667,-0.88 2.72001,-1.30667 1.6,-0.45333 3.30667,-0.45333 3.09333,0 4.77334,1.49333 1.70666,1.46667 1.70666,4.56001 v 8.34668 z m -4.48,0.18666 q -1.6,0 -2.8,-0.53333 -1.20001,-0.56 -1.86667,-1.52 -0.64,-0.98667 -0.64,-2.21334 0,-1.2 0.56,-2.16 0.58666,-0.96 1.89333,-1.52 1.30667,-0.56 3.46667,-0.56 h 4.13334 v 2.21333 h -3.89334 q -1.70667,0 -2.29333,0.56 -0.58667,0.53334 -0.58667,1.33334 0,0.90667 0.72,1.44 0.72,0.53333 2,0.53333 1.22667,0 2.18667,-0.56 0.98667,-0.56 1.41334,-1.65333 l 0.56,2 q -0.48,1.25334 -1.73334,1.94667 -1.22667,0.69333 -3.12,0.69333 z m 18.46119,0 q -2.24001,0 -4.00001,-0.93333 -1.73334,-0.96 -2.72,-2.61334 -0.98667,-1.65333 -0.98667,-3.76 0,-2.13334 0.98667,-3.76001 0.98666,-1.65333 2.72,-2.58667 1.76,-0.93333 4.00001,-0.93333 2.08,0 3.65333,0.85333 1.60001,0.82667 2.42667,2.45334 l -2.56,1.49334 q -0.64,-1.01334 -1.57334,-1.49334 -0.90666,-0.48 -1.97333,-0.48 -1.22667,0 -2.21334,0.53333 -0.98667,0.53334 -1.54667,1.54667 -0.56,0.98667 -0.56,2.37334 0,1.38667 0.56,2.4 0.56,0.98667 1.54667,1.52 0.98667,0.53334 2.21334,0.53334 1.06667,0 1.97333,-0.48 0.93334,-0.48 1.57334,-1.49334 l 2.56,1.49334 q -0.82666,1.6 -2.42667,2.48 -1.57333,0.85333 -3.65333,0.85333 z m 8.95999,-0.18666 v -14.24002 h 3.17334 v 3.92 l -0.37334,-1.14666 q 0.64,-1.44001 2.00001,-2.18667 1.38666,-0.74667 3.44,-0.74667 v 3.17334 q -0.21333,-0.0533 -0.4,-0.0533 -0.18667,-0.0267 -0.37333,-0.0267 -1.89334,0 -3.01334,1.12 -1.12,1.09333 -1.12,3.28 v 6.90668 z m 17.3274,0.18666 q -2.18667,0 -3.89334,-0.93333 -1.70666,-0.96 -2.69333,-2.61334 -0.98667,-1.65333 -0.98667,-3.76 0,-2.13334 0.98667,-3.76001 0.98667,-1.65333 2.69333,-2.58667 1.70667,-0.93333 3.89334,-0.93333 2.21334,0 3.92001,0.93333 1.73333,0.93334 2.69333,2.56001 0.98667,1.62667 0.98667,3.78667 0,2.10667 -0.98667,3.76 -0.96,1.65334 -2.69333,2.61334 -1.70667,0.93333 -3.92001,0.93333 z m 0,-2.85333 q 1.22667,0 2.18667,-0.53334 0.96,-0.53333 1.49334,-1.54667 0.56,-1.01333 0.56,-2.37333 0,-1.38667 -0.56,-2.37334 -0.53334,-1.01333 -1.49334,-1.54667 -0.96,-0.53333 -2.16,-0.53333 -1.22667,0 -2.18667,0.53333 -0.93333,0.53334 -1.49334,1.54667 -0.56,0.98667 -0.56,2.37334 0,1.36 0.56,2.37333 0.56001,1.01334 1.49334,1.54667 0.96,0.53334 2.16,0.53334 z m 10.3467,-3.36001 v -2.77333 h 7.33334 v 2.77333 z m 11.30669,6.02668 v -18.66669 h 3.46667 v 15.73335 h 9.76001 v 2.93334 z m 22.2074,0.18666 q -2.37334,0 -4.16001,-0.93333 -1.76,-0.96 -2.74667,-2.61334 -0.96,-1.65333 -0.96,-3.76 0,-2.13334 0.93334,-3.76001 0.96,-1.65333 2.61333,-2.58667 1.68,-0.93333 3.81334,-0.93333 2.08,0 3.70667,0.90667 1.62667,0.90666 2.56,2.56 0.93334,1.65334 0.93334,3.89334 0,0.21333 -0.0267,0.48 0,0.26667 -0.0267,0.50667 h -11.86669 v -2.21334 h 10.10668 l -1.30666,0.69333 q 0.0267,-1.22666 -0.50667,-2.16 -0.53334,-0.93333 -1.46667,-1.46667 -0.90667,-0.53333 -2.10667,-0.53333 -1.22667,0 -2.16,0.53333 -0.90667,0.53334 -1.44,1.49334 -0.50667,0.93333 -0.50667,2.21333 v 0.53334 q 0,1.28 0.58667,2.26667 0.58666,0.98667 1.65333,1.52 1.06667,0.53333 2.45334,0.53333 1.2,0 2.16,-0.37333 0.96,-0.37333 1.70667,-1.17333 l 1.78667,2.05333 q -0.96,1.12 -2.42667,1.73334 -1.44,0.58666 -3.30667,0.58666 z m 13.41333,-0.18666 -6.10667,-14.24002 h 3.46667 l 5.25334,12.56002 h -1.70667 l 5.44001,-12.56002 h 3.2 l -6.10667,14.24002 z m 17.92002,0.18666 q -2.37334,0 -4.16001,-0.93333 -1.76,-0.96 -2.74667,-2.61334 -0.96,-1.65333 -0.96,-3.76 0,-2.13334 0.93334,-3.76001 0.96,-1.65333 2.61333,-2.58667 1.68001,-0.93333 3.81334,-0.93333 2.08,0 3.70667,0.90667 1.62667,0.90666 2.56001,2.56 0.93333,1.65334 0.93333,3.89334 0,0.21333 -0.0267,0.48 0,0.26667 -0.0267,0.50667 h -11.86668 v -2.21334 h 10.10667 l -1.30666,0.69333 q 0.0267,-1.22666 -0.50667,-2.16 -0.53333,-0.93333 -1.46667,-1.46667 -0.90667,-0.53333 -2.10667,-0.53333 -1.22667,0 -2.16,0.53333 -0.90667,0.53334 -1.44,1.49334 -0.50667,0.93333 -0.50667,2.21333 v 0.53334 q 0,1.28 0.58667,2.26667 0.58666,0.98667 1.65333,1.52 1.06667,0.53333 2.45334,0.53333 1.2,0 2.16,-0.37333 0.96,-0.37333 1.70667,-1.17333 l 1.78667,2.05333 q -0.96,1.12 -2.42667,1.73334 -1.44,0.58666 -3.30667,0.58666 z m 9.89334,-0.18666 v -19.78669 h 3.33334 v 19.78669 z"
         id="path8" />
      <path
         style="font-size:26.6667px;-inkscape-font-specification:'Montserrat, @wght=600';font-variation-settings:'wght' 600;fill:#000000;stroke:none"
         d="m 166.43112,-94.345876 q -2.18667,0 -4.02667,-0.720001 -1.84,-0.720001 -3.2,-2.000003 -1.36,-1.306668 -2.10667,-3.04 -0.74667,-1.76001 -0.74667,-3.84001 0,-2.08 0.74667,-3.81334 0.74667,-1.76 2.10667,-3.04 1.36,-1.30667 3.2,-2.02667 1.84,-0.72 4.00001,-0.72 2.18667,0 4,0.72 1.84,0.72 3.20001,2.02667 1.36,1.28 2.10666,3.04 0.74667,1.73334 0.74667,3.81334 0,2.08 -0.74667,3.84001 -0.74666,1.759999 -2.10666,3.04 -1.36001,1.280002 -3.20001,2.000003 -1.81333,0.720001 -3.97334,0.720001 z m -0.0267,-3.040004 q 1.41333,0 2.61333,-0.480001 1.2,-0.48 2.08001,-1.360001 0.88,-0.906668 1.36,-2.079998 0.50666,-1.20001 0.50666,-2.64001 0,-1.44 -0.50666,-2.61333 -0.48,-1.20001 -1.36,-2.08001 -0.88001,-0.90667 -2.08001,-1.38667 -1.2,-0.48 -2.61333,-0.48 -1.41334,0 -2.61334,0.48 -1.17334,0.48 -2.08,1.38667 -0.88,0.88 -1.38667,2.08001 -0.48,1.17333 -0.48,2.61333 0,1.41334 0.48,2.61334 0.50667,1.2 1.38667,2.106668 0.88,0.880001 2.08,1.360001 1.2,0.480001 2.61334,0.480001 z m 19.44005,2.960004 q -1.81334,0 -3.20001,-0.666668 -1.38667,-0.693334 -2.16,-2.080002 -0.77333,-1.413335 -0.77333,-3.546674 v -8.13334 h 3.33333 v 7.68001 q 0,1.920001 0.85334,2.880002 0.88,0.933335 2.48,0.933335 1.17334,0 2.02667,-0.480001 0.88,-0.48 1.36,-1.440002 0.50667,-0.960004 0.50667,-2.373334 v -7.20001 h 3.33334 v 14.240017 h -3.17334 v -3.840005 l 0.56,1.173335 q -0.72,1.386668 -2.10667,2.133336 -1.38667,0.720001 -3.04,0.720001 z m 17.49334,0 q -2.34666,0 -3.62667,-1.200002 -1.28,-1.226668 -1.28,-3.600004 v -12.773348 h 3.33334 v 12.693348 q 0,1.013334 0.50667,1.573335 0.53333,0.560001 1.46667,0.560001 1.12,0 1.86666,-0.586668 l 0.93334,2.373337 q -0.58667,0.48 -1.44,0.72 -0.85334,0.240001 -1.76001,0.240001 z m -7.25334,-11.653344 v -2.66667 h 9.49335 v 2.66667 z m 19.26369,11.653344 q -2.24,0 -4,-0.933335 -1.73334,-0.960001 -2.72001,-2.613336 -0.98666,-1.653336 -0.98666,-3.760003 0,-2.13334 0.98666,-3.76001 0.98667,-1.65333 2.72001,-2.58667 1.76,-0.93333 4,-0.93333 2.08001,0 3.65334,0.85333 1.6,0.82667 2.42667,2.45334 l -2.56,1.49333 q -0.64,-1.01333 -1.57334,-1.49333 -0.90667,-0.48 -1.97333,-0.48 -1.22667,0 -2.21334,0.53333 -0.98667,0.53334 -1.54667,1.54667 -0.56,0.98667 -0.56,2.37334 0,1.38667 0.56,2.400001 0.56,0.986668 1.54667,1.520002 0.98667,0.533334 2.21334,0.533334 1.06666,0 1.97333,-0.480001 0.93334,-0.48 1.57334,-1.493335 l 2.56,1.493335 q -0.82667,1.600002 -2.42667,2.480003 -1.57333,0.853335 -3.65334,0.853335 z m 15.15701,0 q -2.18667,0 -3.89333,-0.933335 -1.70667,-0.960001 -2.69334,-2.613336 -0.98667,-1.653336 -0.98667,-3.760003 0,-2.13334 0.98667,-3.76001 0.98667,-1.65333 2.69334,-2.58667 1.70666,-0.93333 3.89333,-0.93333 2.21334,0 3.92001,0.93333 1.73333,0.93334 2.69334,2.56001 0.98666,1.62667 0.98666,3.78667 0,2.106667 -0.98666,3.760003 -0.96001,1.653335 -2.69334,2.613336 -1.70667,0.933335 -3.92001,0.933335 z m 0,-2.853337 q 1.22667,0 2.18667,-0.533334 0.96,-0.533334 1.49334,-1.546669 0.56,-1.013334 0.56,-2.373334 0,-1.38667 -0.56,-2.37334 -0.53334,-1.01333 -1.49334,-1.54667 -0.96,-0.53333 -2.16,-0.53333 -1.22667,0 -2.18667,0.53333 -0.93333,0.53334 -1.49333,1.54667 -0.56001,0.98667 -0.56001,2.37334 0,1.36 0.56001,2.373334 0.56,1.013335 1.49333,1.546669 0.96,0.533334 2.16,0.533334 z m 28.77338,-11.733347 q 1.70667,0 3.01334,0.66667 1.33333,0.66666 2.08,2.05333 0.74667,1.36 0.74667,3.52001 v 8.160007 h -3.33334 v -7.733347 q 0,-1.89333 -0.82667,-2.82667 -0.82667,-0.93333 -2.37334,-0.93333 -1.09333,0 -1.94666,0.48 -0.82667,0.48 -1.30667,1.41333 -0.45334,0.93334 -0.45334,2.37334 v 7.226677 h -3.33333 v -7.733347 q 0,-1.89333 -0.82667,-2.82667 -0.82667,-0.93333 -2.37334,-0.93333 -1.09333,0 -1.94667,0.48 -0.82667,0.48 -1.30667,1.41333 -0.45333,0.93334 -0.45333,2.37334 v 7.226677 h -3.33334 v -14.240017 h 3.17334 v 3.78667 l -0.56,-1.12 q 0.72,-1.38667 2.08,-2.10667 1.38667,-0.72 3.14667,-0.72 2.00001,0 3.46667,0.98667 1.49334,0.98666 1.97334,2.98667 l -1.30667,-0.45334 q 0.69334,-1.6 2.29334,-2.56 1.6,-0.96 3.70667,-0.96 z m 16.83449,14.586684 q -2.37333,0 -4.16,-0.933335 -1.76,-0.960001 -2.74667,-2.613336 -0.96,-1.653336 -0.96,-3.760003 0,-2.13334 0.93333,-3.76001 0.96,-1.65333 2.61334,-2.58667 1.68,-0.93333 3.81334,-0.93333 2.08,0 3.70667,0.90667 1.62667,0.90666 2.56,2.56 0.93334,1.65334 0.93334,3.89334 0,0.21333 -0.0267,0.48 0,0.26667 -0.0267,0.50667 h -11.86668 v -2.21334 h 10.10668 l -1.30667,0.69333 q 0.0267,-1.22666 -0.50667,-2.16 -0.53333,-0.93333 -1.46666,-1.46667 -0.90667,-0.53333 -2.10667,-0.53333 -1.22667,0 -2.16001,0.53333 -0.90666,0.53334 -1.44,1.49334 -0.50666,0.93333 -0.50666,2.21333 v 0.53334 q 0,1.28 0.58666,2.266668 0.58667,0.986668 1.65334,1.520002 1.06667,0.533334 2.45333,0.533334 1.20001,0 2.16001,-0.373334 0.96,-0.373334 1.70667,-1.173335 l 1.78666,2.053336 q -0.96,1.120001 -2.42666,1.733335 -1.44001,0.586668 -3.30668,0.586668 z"
         id="path9" />
    </g>
  </g>
  <g
     id="text1-0"
     style="font-size:32px;line-height:0.95;font-family:Montserrat;-inkscape-font-specification:'Montserrat, @wght=700';font-variation-settings:'wght' 700;text-align:center;letter-spacing:0px;word-spacing:0px;text-anchor:middle;fill:#003c71;stroke:#000000;stroke-width:3"
     aria-label="Micro-Level&#10;Predictor">
    <path
       style="font-size:26.6667px;-inkscape-font-specification:'Montserrat, @wght=600';font-variation-settings:'wght' 600;fill:#000000;stroke:none"
       d="m 120.41788,255.06226 v -18.66669 h 2.85333 l 8.16001,13.62668 h -1.49333 l 8.02667,-13.62668 h 2.85334 l 0.0267,18.66669 h -3.28001 l -0.0267,-13.52002 h 0.69333 l -6.82667,11.38668 h -1.54667 l -6.93334,-11.38668 h 0.8 v 13.52002 z m 25.14669,0 v -14.24002 h 3.33334 v 14.24002 z m 1.68,-16.58669 q -0.93333,0 -1.54666,-0.58667 -0.58667,-0.58667 -0.58667,-1.41333 0,-0.85334 0.58667,-1.41334 0.61333,-0.58667 1.54666,-0.58667 0.93334,0 1.52001,0.56 0.61333,0.53334 0.61333,1.36001 0,0.88 -0.58667,1.49333 -0.58666,0.58667 -1.54667,0.58667 z m 12.56001,16.77335 q -2.24,0 -4.00001,-0.93333 -1.73333,-0.96 -2.72,-2.61334 -0.98667,-1.65333 -0.98667,-3.76 0,-2.13334 0.98667,-3.76001 0.98667,-1.65333 2.72,-2.58667 1.76001,-0.93333 4.00001,-0.93333 2.08,0 3.65334,0.85333 1.6,0.82667 2.42667,2.45334 l -2.56001,1.49333 q -0.64,-1.01333 -1.57333,-1.49333 -0.90667,-0.48 -1.97334,-0.48 -1.22667,0 -2.21333,0.53333 -0.98667,0.53334 -1.54667,1.54667 -0.56,0.98667 -0.56,2.37334 0,1.38667 0.56,2.4 0.56,0.98667 1.54667,1.52 0.98666,0.53334 2.21333,0.53334 1.06667,0 1.97334,-0.48 0.93333,-0.48001 1.57333,-1.49334 l 2.56001,1.49334 q -0.82667,1.6 -2.42667,2.48 -1.57334,0.85333 -3.65334,0.85333 z m 8.95999,-0.18666 v -14.24002 h 3.17334 v 3.92 l -0.37333,-1.14667 q 0.64,-1.44 2,-2.18666 1.38667,-0.74667 3.44,-0.74667 v 3.17334 q -0.21333,-0.0533 -0.4,-0.0533 -0.18666,-0.0267 -0.37333,-0.0267 -1.89334,0 -3.01334,1.12001 -1.12,1.09333 -1.12,3.28 v 6.90668 z m 17.3274,0.18666 q -2.18667,0 -3.89334,-0.93333 -1.70666,-0.96 -2.69333,-2.61334 -0.98667,-1.65333 -0.98667,-3.76 0,-2.13334 0.98667,-3.76001 0.98667,-1.65333 2.69333,-2.58667 1.70667,-0.93333 3.89334,-0.93333 2.21334,0 3.92001,0.93333 1.73333,0.93334 2.69333,2.56001 0.98667,1.62666 0.98667,3.78667 0,2.10667 -0.98667,3.76 -0.96,1.65334 -2.69333,2.61334 -1.70667,0.93333 -3.92001,0.93333 z m 0,-2.85333 q 1.22667,0 2.18667,-0.53334 0.96,-0.53333 1.49334,-1.54667 0.56,-1.01333 0.56,-2.37333 0,-1.38667 -0.56,-2.37334 -0.53334,-1.01333 -1.49334,-1.54667 -0.96,-0.53333 -2.16,-0.53333 -1.22667,0 -2.18667,0.53333 -0.93333,0.53334 -1.49334,1.54667 -0.56,0.98667 -0.56,2.37334 0,1.36 0.56,2.37333 0.56001,1.01334 1.49334,1.54667 0.96,0.53334 2.16,0.53334 z m 10.3467,-3.36001 v -2.77334 h 7.33335 v 2.77334 z m 11.30669,6.02668 v -18.66669 h 3.46667 v 15.73335 h 9.76001 v 2.93334 z m 22.20741,0.18666 q -2.37334,0 -4.16001,-0.93333 -1.76,-0.96 -2.74667,-2.61334 -0.96,-1.65333 -0.96,-3.76 0,-2.13334 0.93334,-3.76001 0.96,-1.65333 2.61333,-2.58667 1.68001,-0.93333 3.81334,-0.93333 2.08,0 3.70667,0.90667 1.62667,0.90666 2.56001,2.56 0.93333,1.65333 0.93333,3.89334 0,0.21333 -0.0267,0.48 0,0.26666 -0.0267,0.50666 H 224.7261 v -2.21333 h 10.10668 l -1.30667,0.69333 q 0.0267,-1.22667 -0.50667,-2.16 -0.53333,-0.93333 -1.46667,-1.46667 -0.90667,-0.53333 -2.10667,-0.53333 -1.22667,0 -2.16,0.53333 -0.90667,0.53334 -1.44,1.49334 -0.50667,0.93333 -0.50667,2.21333 v 0.53334 q 0,1.28 0.58667,2.26667 0.58666,0.98666 1.65333,1.52 1.06667,0.53333 2.45334,0.53333 1.2,0 2.16,-0.37333 0.96,-0.37334 1.70667,-1.17334 l 1.78667,2.05334 q -0.96,1.12 -2.42667,1.73334 -1.44,0.58666 -3.30667,0.58666 z m 13.41334,-0.18666 -6.10668,-14.24002 h 3.46667 l 5.25334,12.56001 h -1.70667 l 5.44001,-12.56001 h 3.2 l -6.10667,14.24002 z m 17.92001,0.18666 q -2.37334,0 -4.16001,-0.93333 -1.76,-0.96 -2.74667,-2.61334 -0.96,-1.65333 -0.96,-3.76 0,-2.13334 0.93334,-3.76001 0.96,-1.65333 2.61333,-2.58667 1.68001,-0.93333 3.81334,-0.93333 2.08001,0 3.70667,0.90667 1.62667,0.90666 2.56001,2.56 0.93333,1.65333 0.93333,3.89334 0,0.21333 -0.0267,0.48 0,0.26666 -0.0267,0.50666 h -11.86668 v -2.21333 h 10.10668 l -1.30667,0.69333 q 0.0267,-1.22667 -0.50667,-2.16 -0.53333,-0.93333 -1.46667,-1.46667 -0.90667,-0.53333 -2.10667,-0.53333 -1.22667,0 -2.16,0.53333 -0.90667,0.53334 -1.44,1.49334 -0.50667,0.93333 -0.50667,2.21333 v 0.53334 q 0,1.28 0.58667,2.26667 0.58667,0.98666 1.65333,1.52 1.06667,0.53333 2.45334,0.53333 1.2,0 2.16,-0.37333 0.96,-0.37334 1.70667,-1.17334 l 1.78667,2.05334 q -0.96,1.12 -2.42667,1.73334 -1.44,0.58666 -3.30667,0.58666 z m 9.89334,-0.18666 v -19.7867 h 3.33334 v 19.7867 z"
       id="path6" />
    <path
       style="font-size:26.6667px;-inkscape-font-specification:'Montserrat, @wght=600';font-variation-settings:'wght' 600;fill:#000000;stroke:none"
       d="m 136.09528,285.46226 v -18.66669 h 7.68001 q 2.48001,0 4.24001,0.8 1.78667,0.8 2.74667,2.29333 0.96,1.49334 0.96,3.54667 0,2.05334 -0.96,3.54667 -0.96,1.49334 -2.74667,2.29334 -1.76,0.8 -4.24001,0.8 h -5.76 l 1.54666,-1.62667 v 7.01335 z m 3.46667,-6.64001 -1.54666,-1.68001 h 5.6 q 2.29334,0 3.44001,-0.96 1.17333,-0.98666 1.17333,-2.74667 0,-1.78667 -1.17333,-2.74667 -1.14667,-0.96 -3.44001,-0.96 h -5.6 l 1.54666,-1.70667 z m 15.17861,6.64001 v -14.24002 h 3.17334 v 3.92 l -0.37334,-1.14667 q 0.64,-1.44 2,-2.18667 1.38667,-0.74666 3.44001,-0.74666 v 3.17333 q -0.21334,-0.0533 -0.4,-0.0533 -0.18667,-0.0267 -0.37334,-0.0267 -1.89333,0 -3.01333,1.12001 -1.12,1.09333 -1.12,3.28 v 6.90668 z m 17.62073,0.18666 q -2.37334,0 -4.16,-0.93333 -1.76001,-0.96 -2.74667,-2.61334 -0.96001,-1.65333 -0.96001,-3.76 0,-2.13334 0.93334,-3.76001 0.96,-1.65333 2.61334,-2.58667 1.68,-0.93333 3.81333,-0.93333 2.08001,0 3.70667,0.90667 1.62667,0.90666 2.56001,2.56 0.93333,1.65333 0.93333,3.89334 0,0.21333 -0.0267,0.48 0,0.26666 -0.0267,0.50666 h -11.86668 v -2.21333 h 10.10668 l -1.30667,0.69333 q 0.0267,-1.22667 -0.50667,-2.16 -0.53333,-0.93333 -1.46667,-1.46667 -0.90666,-0.53333 -2.10667,-0.53333 -1.22666,0 -2.16,0.53333 -0.90667,0.53334 -1.44,1.49334 -0.50667,0.93333 -0.50667,2.21333 v 0.53334 q 0,1.28 0.58667,2.26667 0.58667,0.98666 1.65333,1.52 1.06667,0.53333 2.45334,0.53333 1.2,0 2.16,-0.37333 0.96,-0.37334 1.70667,-1.17334 l 1.78667,2.05334 q -0.96,1.12 -2.42667,1.73333 -1.44,0.58667 -3.30667,0.58667 z m 15.92001,0 q -2.05333,0 -3.70667,-0.90667 -1.62667,-0.93333 -2.56,-2.56 -0.93333,-1.62667 -0.93333,-3.84 0,-2.21334 0.93333,-3.84001 0.93333,-1.62667 2.56,-2.53333 1.65334,-0.90667 3.70667,-0.90667 1.78667,0 3.20001,0.8 1.41333,0.77333 2.24,2.37333 0.82667,1.60001 0.82667,4.10668 0,2.48 -0.8,4.10667 -0.8,1.6 -2.21334,2.4 -1.41333,0.8 -3.25334,0.8 z m 0.40001,-2.85333 q 1.2,0 2.13333,-0.53334 0.96,-0.53333 1.52,-1.54667 0.58667,-1.01333 0.58667,-2.37333 0,-1.38667 -0.58667,-2.37334 -0.56,-1.01333 -1.52,-1.54667 -0.93333,-0.53333 -2.13333,-0.53333 -1.20001,0 -2.16001,0.53333 -0.93333,0.53334 -1.52,1.54667 -0.56,0.98667 -0.56,2.37334 0,1.36 0.56,2.37333 0.58667,1.01334 1.52,1.54667 0.96,0.53334 2.16001,0.53334 z m 4.32,2.66667 v -3.36001 l 0.13333,-3.78667 -0.26666,-3.78667 v -8.85335 h 3.30667 v 19.7867 z m 7.57335,0 v -14.24002 h 3.33334 v 14.24002 z m 1.68,-16.58669 q -0.93333,0 -1.54667,-0.58667 -0.58666,-0.58667 -0.58666,-1.41333 0,-0.85334 0.58666,-1.41334 0.61334,-0.58667 1.54667,-0.58667 0.93334,0 1.52,0.56 0.61334,0.53334 0.61334,1.36001 0,0.88 -0.58667,1.49333 -0.58667,0.58667 -1.54667,0.58667 z m 12.56001,16.77335 q -2.24001,0 -4.00001,-0.93333 -1.73333,-0.96 -2.72,-2.61334 -0.98667,-1.65333 -0.98667,-3.76 0,-2.13334 0.98667,-3.76001 0.98667,-1.65333 2.72,-2.58667 1.76,-0.93333 4.00001,-0.93333 2.08,0 3.65334,0.85333 1.6,0.82667 2.42666,2.45334 l -2.56,1.49333 q -0.64,-1.01333 -1.57333,-1.49333 -0.90667,-0.48 -1.97334,-0.48 -1.22667,0 -2.21334,0.53333 -0.98666,0.53334 -1.54666,1.54667 -0.56,0.98667 -0.56,2.37334 0,1.38666 0.56,2.4 0.56,0.98667 1.54666,1.52 0.98667,0.53334 2.21334,0.53334 1.06667,0 1.97334,-0.48001 0.93333,-0.48 1.57333,-1.49333 l 2.56,1.49333 q -0.82666,1.60001 -2.42666,2.48001 -1.57334,0.85333 -3.65334,0.85333 z m 14.51699,0 q -2.34667,0 -3.62667,-1.2 -1.28,-1.22667 -1.28,-3.6 v -12.77335 h 3.33334 v 12.69335 q 0,1.01333 0.50666,1.57333 0.53334,0.56 1.46667,0.56 1.12,0 1.86667,-0.58667 l 0.93334,2.37334 q -0.58667,0.48 -1.44,0.72 -0.85334,0.24 -1.76001,0.24 z m -7.25334,-11.65335 v -2.66667 h 9.49335 v 2.66667 z m 19.13035,11.65335 q -2.18667,0 -3.89334,-0.93333 -1.70667,-0.96 -2.69334,-2.61334 -0.98666,-1.65333 -0.98666,-3.76 0,-2.13334 0.98666,-3.76001 0.98667,-1.65333 2.69334,-2.58667 1.70667,-0.93333 3.89334,-0.93333 2.21334,0 3.92,0.93333 1.73334,0.93334 2.69334,2.56001 0.98667,1.62666 0.98667,3.78667 0,2.10667 -0.98667,3.76 -0.96,1.65334 -2.69334,2.61334 -1.70666,0.93333 -3.92,0.93333 z m 0,-2.85333 q 1.22667,0 2.18667,-0.53334 0.96,-0.53333 1.49333,-1.54667 0.56001,-1.01333 0.56001,-2.37333 0,-1.38667 -0.56001,-2.37334 -0.53333,-1.01333 -1.49333,-1.54667 -0.96,-0.53333 -2.16,-0.53333 -1.22667,0 -2.18667,0.53333 -0.93334,0.53334 -1.49334,1.54667 -0.56,0.98667 -0.56,2.37334 0,1.36 0.56,2.37333 0.56,1.01334 1.49334,1.54667 0.96,0.53334 2.16,0.53334 z m 10.80003,2.66667 v -14.24002 h 3.17333 v 3.92 l -0.37333,-1.14667 q 0.64,-1.44 2,-2.18667 1.38667,-0.74666 3.44001,-0.74666 v 3.17333 q -0.21334,-0.0533 -0.4,-0.0533 -0.18667,-0.0267 -0.37334,-0.0267 -1.89333,0 -3.01333,1.12001 -1.12001,1.09333 -1.12001,3.28 v 6.90668 z"
       id="path7" />
  </g>
  <g
     id="text1-0-9"
     style="font-size:32px;line-height:0.95;font-family:Montserrat;-inkscape-font-specification:'Montserrat, @wght=700';font-variation-settings:'wght' 700;text-align:center;letter-spacing:0px;word-spacing:0px;text-anchor:middle;fill:#003c71;stroke:#000000;stroke-width:3"
     aria-label="Micro-Level&#10;Outcome">
    <path
       style="font-size:26.6667px;-inkscape-font-specification:'Montserrat, @wght=600';font-variation-settings:'wght' 600;fill:#000000;stroke:none"
       d="m 444.36914,255.02225 v -18.66669 h 2.85334 l 8.16001,13.62668 h -1.49334 l 8.02668,-13.62668 h 2.85333 l 0.0267,18.66669 h -3.28 l -0.0267,-13.52002 h 0.69333 l -6.82667,11.38668 h -1.54667 l -6.93334,-11.38668 h 0.8 v 13.52002 z m 25.1467,0 v -14.24002 h 3.33333 v 14.24002 z m 1.68,-16.58669 q -0.93334,0 -1.54667,-0.58667 -0.58667,-0.58667 -0.58667,-1.41333 0,-0.85334 0.58667,-1.41334 0.61333,-0.58667 1.54667,-0.58667 0.93333,0 1.52,0.56001 0.61333,0.53333 0.61333,1.36 0,0.88 -0.58666,1.49333 -0.58667,0.58667 -1.54667,0.58667 z m 12.56,16.77335 q -2.24,0 -4,-0.93333 -1.73334,-0.96 -2.72001,-2.61334 -0.98666,-1.65333 -0.98666,-3.76 0,-2.13334 0.98666,-3.76001 0.98667,-1.65333 2.72001,-2.58667 1.76,-0.93333 4,-0.93333 2.08001,0 3.65334,0.85333 1.6,0.82667 2.42667,2.45334 l -2.56,1.49334 q -0.64,-1.01334 -1.57334,-1.49334 -0.90667,-0.48 -1.97333,-0.48 -1.22667,0 -2.21334,0.53333 -0.98667,0.53334 -1.54667,1.54667 -0.56,0.98667 -0.56,2.37334 0,1.38667 0.56,2.4 0.56,0.98667 1.54667,1.52 0.98667,0.53334 2.21334,0.53334 1.06666,0 1.97333,-0.48 0.93334,-0.48 1.57334,-1.49334 l 2.56,1.49334 q -0.82667,1.6 -2.42667,2.48 -1.57333,0.85333 -3.65334,0.85333 z m 8.96,-0.18666 v -14.24002 h 3.17333 v 3.92 l -0.37333,-1.14666 q 0.64,-1.44001 2,-2.18667 1.38667,-0.74667 3.44001,-0.74667 v 3.17334 q -0.21334,-0.0533 -0.4,-0.0533 -0.18667,-0.0267 -0.37334,-0.0267 -1.89333,0 -3.01333,1.12 -1.12001,1.09333 -1.12001,3.28 v 6.90668 z m 17.3274,0.18666 q -2.18667,0 -3.89334,-0.93333 -1.70667,-0.96 -2.69334,-2.61334 -0.98667,-1.65333 -0.98667,-3.76 0,-2.13334 0.98667,-3.76001 0.98667,-1.65333 2.69334,-2.58667 1.70667,-0.93333 3.89334,-0.93333 2.21333,0 3.92,0.93333 1.73334,0.93334 2.69334,2.56001 0.98667,1.62667 0.98667,3.78667 0,2.10667 -0.98667,3.76 -0.96,1.65334 -2.69334,2.61334 -1.70667,0.93333 -3.92,0.93333 z m 0,-2.85333 q 1.22666,0 2.18667,-0.53334 0.96,-0.53333 1.49333,-1.54667 0.56,-1.01333 0.56,-2.37333 0,-1.38667 -0.56,-2.37334 -0.53333,-1.01333 -1.49333,-1.54667 -0.96001,-0.53333 -2.16001,-0.53333 -1.22667,0 -2.18667,0.53333 -0.93333,0.53334 -1.49333,1.54667 -0.56,0.98667 -0.56,2.37334 0,1.36 0.56,2.37333 0.56,1.01334 1.49333,1.54667 0.96,0.53334 2.16001,0.53334 z m 10.3467,-3.36001 v -2.77333 h 7.33334 v 2.77333 z m 11.30668,6.02668 v -18.66669 h 3.46667 v 15.73335 h 9.76002 v 2.93334 z m 22.20741,0.18666 q -2.37333,0 -4.16,-0.93333 -1.76,-0.96 -2.74667,-2.61334 -0.96,-1.65333 -0.96,-3.76 0,-2.13334 0.93333,-3.76001 0.96,-1.65333 2.61334,-2.58667 1.68,-0.93333 3.81334,-0.93333 2.08,0 3.70667,0.90667 1.62667,0.90666 2.56,2.56 0.93333,1.65334 0.93333,3.89334 0,0.21333 -0.0267,0.48 0,0.26667 -0.0267,0.50667 h -11.86668 v -2.21334 h 10.10668 l -1.30667,0.69333 q 0.0267,-1.22666 -0.50667,-2.16 -0.53333,-0.93333 -1.46667,-1.46667 -0.90666,-0.53333 -2.10666,-0.53333 -1.22667,0 -2.16001,0.53333 -0.90667,0.53334 -1.44,1.49334 -0.50667,0.93333 -0.50667,2.21333 v 0.53334 q 0,1.28 0.58667,2.26667 0.58667,0.98667 1.65334,1.52 1.06666,0.53333 2.45333,0.53333 1.2,0 2.16001,-0.37333 0.96,-0.37333 1.70666,-1.17333 l 1.78667,2.05333 q -0.96,1.12 -2.42667,1.73334 -1.44,0.58666 -3.30667,0.58666 z m 13.41334,-0.18666 -6.10667,-14.24002 h 3.46667 l 5.25334,12.56002 h -1.70667 l 5.44,-12.56002 h 3.20001 l -6.10668,14.24002 z m 17.92001,0.18666 q -2.37333,0 -4.16,-0.93333 -1.76,-0.96 -2.74667,-2.61334 -0.96,-1.65333 -0.96,-3.76 0,-2.13334 0.93333,-3.76001 0.96,-1.65333 2.61334,-2.58667 1.68,-0.93333 3.81334,-0.93333 2.08,0 3.70667,0.90667 1.62667,0.90666 2.56,2.56 0.93334,1.65334 0.93334,3.89334 0,0.21333 -0.0267,0.48 0,0.26667 -0.0267,0.50667 h -11.86668 v -2.21334 h 10.10668 l -1.30667,0.69333 q 0.0267,-1.22666 -0.50667,-2.16 -0.53333,-0.93333 -1.46666,-1.46667 -0.90667,-0.53333 -2.10667,-0.53333 -1.22667,0 -2.16001,0.53333 -0.90666,0.53334 -1.44,1.49334 -0.50667,0.93333 -0.50667,2.21333 v 0.53334 q 0,1.28 0.58667,2.26667 0.58667,0.98667 1.65334,1.52 1.06667,0.53333 2.45333,0.53333 1.20001,0 2.16001,-0.37333 0.96,-0.37333 1.70667,-1.17333 l 1.78666,2.05333 q -0.96,1.12 -2.42667,1.73334 -1.44,0.58666 -3.30667,0.58666 z m 9.89335,-0.18666 v -19.78669 h 3.33333 v 19.78669 z"
       id="path10" />
    <path
       style="font-size:26.6667px;-inkscape-font-specification:'Montserrat, @wght=600';font-variation-settings:'wght' 600;fill:#000000;stroke:none"
       d="m 468.18895,285.68891 q -2.18667,0 -4.02667,-0.72 -1.84,-0.72 -3.20001,-2 -1.36,-1.30667 -2.10666,-3.04 -0.74667,-1.76001 -0.74667,-3.84001 0,-2.08 0.74667,-3.81334 0.74666,-1.76 2.10666,-3.04 1.36001,-1.30667 3.20001,-2.02667 1.84,-0.72 4,-0.72 2.18667,0 4.00001,0.72 1.84,0.72 3.2,2.02667 1.36,1.28 2.10667,3.04 0.74667,1.73334 0.74667,3.81334 0,2.08 -0.74667,3.84001 -0.74667,1.76 -2.10667,3.04 -1.36,1.28 -3.2,2 -1.81334,0.72 -3.97334,0.72 z m -0.0267,-3.04 q 1.41334,0 2.61334,-0.48 1.2,-0.48 2.08,-1.36 0.88,-0.90667 1.36,-2.08 0.50667,-1.20001 0.50667,-2.64001 0,-1.44 -0.50667,-2.61333 -0.48,-1.20001 -1.36,-2.08001 -0.88,-0.90667 -2.08,-1.38667 -1.2,-0.48 -2.61334,-0.48 -1.41333,0 -2.61333,0.48 -1.17334,0.48 -2.08001,1.38667 -0.88,0.88 -1.38666,2.08001 -0.48,1.17333 -0.48,2.61333 0,1.41334 0.48,2.61334 0.50666,1.2 1.38666,2.10667 0.88001,0.88 2.08001,1.36 1.2,0.48 2.61333,0.48 z m 19.44005,2.96 q -1.81333,0 -3.2,-0.66666 -1.38667,-0.69334 -2.16,-2.08001 -0.77334,-1.41333 -0.77334,-3.54667 v -8.13334 h 3.33334 v 7.68001 q 0,1.92 0.85334,2.88 0.88,0.93334 2.48,0.93334 1.17333,0 2.02667,-0.48 0.88,-0.48 1.36,-1.44001 0.50667,-0.96 0.50667,-2.37333 v -7.20001 h 3.33333 v 14.24002 h -3.17333 v -3.84001 l 0.56,1.17334 q -0.72,1.38667 -2.10667,2.13333 -1.38667,0.72 -3.04001,0.72 z m 17.49335,0 q -2.34667,0 -3.62667,-1.2 -1.28,-1.22667 -1.28,-3.6 v -12.77335 h 3.33334 v 12.69335 q 0,1.01333 0.50666,1.57333 0.53334,0.56 1.46667,0.56 1.12,0 1.86667,-0.58666 l 0.93334,2.37333 q -0.58667,0.48 -1.44001,0.72 -0.85333,0.24 -1.76,0.24 z m -7.25334,-11.65334 v -2.66667 h 9.49335 v 2.66667 z m 19.26369,11.65334 q -2.24,0 -4,-0.93333 -1.73334,-0.96 -2.72001,-2.61334 -0.98667,-1.65333 -0.98667,-3.76 0,-2.13334 0.98667,-3.76001 0.98667,-1.65333 2.72001,-2.58667 1.76,-0.93333 4,-0.93333 2.08,0 3.65334,0.85333 1.6,0.82667 2.42667,2.45334 l -2.56001,1.49333 q -0.64,-1.01333 -1.57333,-1.49333 -0.90667,-0.48 -1.97334,-0.48 -1.22666,0 -2.21333,0.53333 -0.98667,0.53334 -1.54667,1.54667 -0.56,0.98667 -0.56,2.37334 0,1.38667 0.56,2.4 0.56,0.98667 1.54667,1.52 0.98667,0.53334 2.21333,0.53334 1.06667,0 1.97334,-0.48 0.93333,-0.48 1.57333,-1.49334 l 2.56001,1.49334 q -0.82667,1.6 -2.42667,2.48 -1.57334,0.85333 -3.65334,0.85333 z m 15.15701,0 q -2.18667,0 -3.89334,-0.93333 -1.70667,-0.96 -2.69333,-2.61334 -0.98667,-1.65333 -0.98667,-3.76 0,-2.13334 0.98667,-3.76001 0.98666,-1.65333 2.69333,-2.58667 1.70667,-0.93333 3.89334,-0.93333 2.21334,0 3.92001,0.93333 1.73333,0.93334 2.69333,2.56001 0.98667,1.62667 0.98667,3.78667 0,2.10667 -0.98667,3.76 -0.96,1.65334 -2.69333,2.61334 -1.70667,0.93333 -3.92001,0.93333 z m 0,-2.85333 q 1.22667,0 2.18667,-0.53334 0.96,-0.53333 1.49334,-1.54667 0.56,-1.01333 0.56,-2.37333 0,-1.38667 -0.56,-2.37334 -0.53334,-1.01333 -1.49334,-1.54667 -0.96,-0.53333 -2.16,-0.53333 -1.22667,0 -2.18667,0.53333 -0.93334,0.53334 -1.49334,1.54667 -0.56,0.98667 -0.56,2.37334 0,1.36 0.56,2.37333 0.56,1.01334 1.49334,1.54667 0.96,0.53334 2.16,0.53334 z m 28.77338,-11.73335 q 1.70667,0 3.01333,0.66667 1.33334,0.66666 2.08001,2.05333 0.74666,1.36 0.74666,3.52001 v 8.16001 h -3.33333 v -7.73335 q 0,-1.89333 -0.82667,-2.82667 -0.82667,-0.93333 -2.37334,-0.93333 -1.09333,0 -1.94667,0.48 -0.82666,0.48 -1.30666,1.41333 -0.45334,0.93334 -0.45334,2.37334 v 7.22668 h -3.33334 v -7.73335 q 0,-1.89333 -0.82666,-2.82667 -0.82667,-0.93333 -2.37334,-0.93333 -1.09334,0 -1.94667,0.48 -0.82667,0.48 -1.30667,1.41333 -0.45333,0.93334 -0.45333,2.37334 v 7.22668 h -3.33334 v -14.24002 h 3.17334 v 3.78667 l -0.56,-1.12 q 0.72,-1.38667 2.08,-2.10667 1.38667,-0.72 3.14667,-0.72 2,0 3.46667,0.98667 1.49334,0.98666 1.97334,2.98667 l -1.30667,-0.45334 q 0.69333,-1.6 2.29334,-2.56 1.6,-0.96 3.70667,-0.96 z m 16.83449,14.58668 q -2.37333,0 -4.16,-0.93333 -1.76001,-0.96 -2.74667,-2.61334 -0.96,-1.65333 -0.96,-3.76 0,-2.13334 0.93333,-3.76001 0.96,-1.65333 2.61334,-2.58667 1.68,-0.93333 3.81333,-0.93333 2.08001,0 3.70668,0.90667 1.62666,0.90666 2.56,2.56 0.93333,1.65334 0.93333,3.89334 0,0.21333 -0.0267,0.48 0,0.26667 -0.0267,0.50667 h -11.86668 v -2.21334 h 10.10668 l -1.30667,0.69333 q 0.0267,-1.22666 -0.50667,-2.16 -0.53333,-0.93333 -1.46667,-1.46667 -0.90666,-0.53333 -2.10667,-0.53333 -1.22666,0 -2.16,0.53333 -0.90667,0.53334 -1.44,1.49334 -0.50667,0.93333 -0.50667,2.21333 v 0.53334 q 0,1.28 0.58667,2.26667 0.58667,0.98667 1.65334,1.52 1.06666,0.53333 2.45333,0.53333 1.2,0 2.16,-0.37333 0.96001,-0.37333 1.70667,-1.17334 l 1.78667,2.05334 q -0.96,1.12 -2.42667,1.73334 -1.44,0.58666 -3.30667,0.58666 z"
       id="path11" />
  </g>
</svg>
