<?xml version="1.0" encoding="UTF-8" standalone="no"?>
<svg
   width="592"
   height="349"
   version="1.1"
   id="svg413"
   sodipodi:docname="keizer.svg"
   inkscape:version="1.2.2 (732a01da63, 2022-12-09)"
   xmlns:inkscape="http://www.inkscape.org/namespaces/inkscape"
   xmlns:sodipodi="http://sodipodi.sourceforge.net/DTD/sodipodi-0.dtd"
   xmlns:xlink="http://www.w3.org/1999/xlink"
   xmlns="http://www.w3.org/2000/svg"
   xmlns:svg="http://www.w3.org/2000/svg"
   xmlns:rdf="http://www.w3.org/1999/02/22-rdf-syntax-ns#"
   xmlns:cc="http://creativecommons.org/ns#"
   xmlns:dc="http://purl.org/dc/elements/1.1/"
   xmlns:lucid="lucid">
  <metadata
     id="metadata419">
    <rdf:RDF>
      <cc:Work
         rdf:about="">
        <dc:format>image/svg+xml</dc:format>
        <dc:type
           rdf:resource="http://purl.org/dc/dcmitype/StillImage" />
        <dc:title />
      </cc:Work>
    </rdf:RDF>
  </metadata>
  <defs
     id="defs417" />
  <sodipodi:namedview
     pagecolor="#ffffff"
     bordercolor="#666666"
     borderopacity="1"
     objecttolerance="10"
     gridtolerance="10"
     guidetolerance="10"
     inkscape:pageopacity="0"
     inkscape:pageshadow="2"
     inkscape:window-width="1920"
     inkscape:window-height="1112"
     id="namedview415"
     showgrid="false"
     inkscape:snap-text-baseline="false"
     inkscape:zoom="2.7424276"
     inkscape:cx="322.15983"
     inkscape:cy="88.789947"
     inkscape:window-x="-8"
     inkscape:window-y="1432"
     inkscape:window-maximized="1"
     inkscape:current-layer="g411"
     inkscape:showpageshadow="2"
     inkscape:pagecheckerboard="0"
     inkscape:deskcolor="#d1d1d1" />
  <g
     transform="translate(-64 -64)"
     lucid:page-tab-id="0_0"
     id="g411">
    <path
       d="M80 80h160v120H80z"
       id="path230"
       stroke-width="2"
       stroke="#000"
       fill="#fff" />
    <path
       d="M480 80h160v120H480z"
       id="path234"
       stroke-width="2"
       stroke="#000"
       fill="#fff" />
    <path
       d="M241 140h219.76"
       stroke="#000"
       stroke-width="2"
       fill="none"
       id="path250" />
    <path
       d="M241 141h-1v-2h1zM475.76 140l-14.26 4.64v-9.28z"
       id="path252" />
    <path
       d="M479 140l-18.5 6v-12zm-16.5 3.26l10.03-3.26-10.03-3.26z"
       id="path254" />
    <path
       d="M240 80h240v60H240z"
       stroke="#000"
       stroke-opacity="0"
       stroke-width="2"
       fill="#fff"
       fill-opacity="0"
       id="path272" />
    <g
       id="g296" />
    <defs
       id="defs409">
      <path
         d="M30-248c118-7 216 8 213 122C240-48 200 0 122 0H30v-248zM63-27c89 8 146-16 146-99s-60-101-146-95v194"
         id="m" />
      <path
         d="M24-231v-30h32v30H24zM24 0v-190h32V0H24"
         id="n" />
      <path
         d="M135-143c-3-34-86-38-87 0 15 53 115 12 119 90S17 21 10-45l28-5c4 36 97 45 98 0-10-56-113-15-118-90-4-57 82-63 122-42 12 7 21 19 24 35"
         id="o" />
      <path
         d="M100-194c62-1 85 37 85 99 1 63-27 99-86 99S16-35 15-95c0-66 28-99 85-99zM99-20c44 1 53-31 53-75 0-43-8-75-51-75s-53 32-53 75 10 74 51 75"
         id="p" />
      <path
         d="M114-163C36-179 61-72 57 0H25l-1-190h30c1 12-1 29 2 39 6-27 23-49 58-41v29"
         id="q" />
      <path
         d="M85-194c31 0 48 13 60 33l-1-100h32l1 261h-30c-2-10 0-23-3-31C134-8 116 4 85 4 32 4 16-35 15-94c0-66 23-100 70-100zm9 24c-40 0-46 34-46 75 0 40 6 74 45 74 42 0 51-32 51-76 0-42-9-74-50-73"
         id="r" />
      <path
         d="M100-194c63 0 86 42 84 106H49c0 40 14 67 53 68 26 1 43-12 49-29l28 8c-11 28-37 45-77 45C44 4 14-33 15-96c1-61 26-98 85-98zm52 81c6-60-76-77-97-28-3 7-6 17-6 28h103"
         id="s" />
      <g
         id="a">
        <use
           transform="matrix(0.05,0,0,0.05,0,0)"
           xlink:href="#m"
           id="use305" />
        <use
           transform="matrix(0.05,0,0,0.05,12.950000000000001,0)"
           xlink:href="#n"
           id="use307" />
        <use
           transform="matrix(0.05,0,0,0.05,16.900000000000002,0)"
           xlink:href="#o"
           id="use309" />
        <use
           transform="matrix(0.05,0,0,0.05,25.900000000000002,0)"
           xlink:href="#p"
           id="use311" />
        <use
           transform="matrix(0.05,0,0,0.05,35.900000000000006,0)"
           xlink:href="#q"
           id="use313" />
        <use
           transform="matrix(0.05,0,0,0.05,41.85000000000001,0)"
           xlink:href="#r"
           id="use315" />
        <use
           transform="matrix(0.05,0,0,0.05,51.85,0)"
           xlink:href="#s"
           id="use317" />
        <use
           transform="matrix(0.05,0,0,0.05,61.85,0)"
           xlink:href="#q"
           id="use319" />
      </g>
      <path
         d="M212-179c-10-28-35-45-73-45-59 0-87 40-87 99 0 60 29 101 89 101 43 0 62-24 78-52l27 14C228-24 195 4 139 4 59 4 22-46 18-125c-6-104 99-153 187-111 19 9 31 26 39 46"
         id="t" />
      <path
         d="M210-169c-67 3-38 105-44 169h-31v-121c0-29-5-50-35-48C34-165 62-65 56 0H25l-1-190h30c1 10-1 24 2 32 10-44 99-50 107 0 11-21 27-35 58-36 85-2 47 119 55 194h-31v-121c0-29-5-49-35-48"
         id="u" />
      <g
         id="b">
        <use
           transform="matrix(0.05,0,0,0.05,0,0)"
           xlink:href="#t"
           id="use324" />
        <use
           transform="matrix(0.05,0,0,0.05,12.950000000000001,0)"
           xlink:href="#q"
           id="use326" />
        <use
           transform="matrix(0.05,0,0,0.05,18.900000000000002,0)"
           xlink:href="#n"
           id="use328" />
        <use
           transform="matrix(0.05,0,0,0.05,22.85,0)"
           xlink:href="#u"
           id="use330" />
        <use
           transform="matrix(0.05,0,0,0.05,37.800000000000004,0)"
           xlink:href="#s"
           id="use332" />
      </g>
      <path
         d="M0 4l72-265h28L28 4H0"
         id="v" />
      <use
         transform="matrix(0.05,0,0,0.05,0,0)"
         xlink:href="#v"
         id="c" />
      <path
         d="M190 0L58-211 59 0H30v-248h39L202-35l-2-213h31V0h-41"
         id="w" />
      <g
         id="d">
        <use
           transform="matrix(0.05,0,0,0.05,0,0)"
           xlink:href="#w"
           id="use338" />
        <use
           transform="matrix(0.05,0,0,0.05,12.950000000000001,0)"
           xlink:href="#p"
           id="use340" />
        <use
           transform="matrix(0.05,0,0,0.05,22.950000000000003,0)"
           xlink:href="#q"
           id="use342" />
        <use
           transform="matrix(0.05,0,0,0.05,28.900000000000002,0)"
           xlink:href="#u"
           id="use344" />
      </g>
      <path
         d="M137 0h-34L2-248h35l83 218 83-218h36"
         id="x" />
      <path
         d="M24 0v-261h32V0H24"
         id="y" />
      <path
         d="M141-36C126-15 110 5 73 4 37 3 15-17 15-53c-1-64 63-63 125-63 3-35-9-54-41-54-24 1-41 7-42 31l-33-3c5-37 33-52 76-52 45 0 72 20 72 64v82c-1 20 7 32 28 27v20c-31 9-61-2-59-35zM48-53c0 20 12 33 32 33 41-3 63-29 60-74-43 2-92-5-92 41"
         id="z" />
      <path
         d="M59-47c-2 24 18 29 38 22v24C64 9 27 4 27-40v-127H5v-23h24l9-43h21v43h35v23H59v120"
         id="A" />
      <path
         d="M117-194c89-4 53 116 60 194h-32v-121c0-31-8-49-39-48C34-167 62-67 57 0H25l-1-190h30c1 10-1 24 2 32 11-22 29-35 61-36"
         id="B" />
      <g
         id="e">
        <use
           transform="matrix(0.05,0,0,0.05,0,0)"
           xlink:href="#x"
           id="use352" />
        <use
           transform="matrix(0.05,0,0,0.05,11.65,0)"
           xlink:href="#n"
           id="use354" />
        <use
           transform="matrix(0.05,0,0,0.05,15.600000000000001,0)"
           xlink:href="#p"
           id="use356" />
        <use
           transform="matrix(0.05,0,0,0.05,25.6,0)"
           xlink:href="#y"
           id="use358" />
        <use
           transform="matrix(0.05,0,0,0.05,29.55,0)"
           xlink:href="#z"
           id="use360" />
        <use
           transform="matrix(0.05,0,0,0.05,39.55,0)"
           xlink:href="#A"
           id="use362" />
        <use
           transform="matrix(0.05,0,0,0.05,44.55,0)"
           xlink:href="#n"
           id="use364" />
        <use
           transform="matrix(0.05,0,0,0.05,48.5,0)"
           xlink:href="#p"
           id="use366" />
        <use
           transform="matrix(0.05,0,0,0.05,58.5,0)"
           xlink:href="#B"
           id="use368" />
      </g>
      <path
         d="M185-189c-5-48-123-54-124 2 14 75 158 14 163 119 3 78-121 87-175 55-17-10-28-26-33-46l33-7c5 56 141 63 141-1 0-78-155-14-162-118-5-82 145-84 179-34 5 7 8 16 11 25"
         id="C" />
      <path
         d="M96-169c-40 0-48 33-48 73s9 75 48 75c24 0 41-14 43-38l32 2c-6 37-31 61-74 61-59 0-76-41-82-99-10-93 101-131 147-64 4 7 5 14 7 22l-32 3c-4-21-16-35-41-35"
         id="D" />
      <g
         id="f">
        <use
           transform="matrix(0.05,0,0,0.05,0,0)"
           xlink:href="#C"
           id="use373" />
        <use
           transform="matrix(0.05,0,0,0.05,12,0)"
           xlink:href="#p"
           id="use375" />
        <use
           transform="matrix(0.05,0,0,0.05,22,0)"
           xlink:href="#D"
           id="use377" />
        <use
           transform="matrix(0.05,0,0,0.05,31,0)"
           xlink:href="#n"
           id="use379" />
        <use
           transform="matrix(0.05,0,0,0.05,34.95,0)"
           xlink:href="#z"
           id="use381" />
        <use
           transform="matrix(0.05,0,0,0.05,44.95,0)"
           xlink:href="#y"
           id="use383" />
      </g>
      <g
         id="g">
        <use
           transform="matrix(0.05,0,0,0.05,0,0)"
           xlink:href="#t"
           id="use386" />
        <use
           transform="matrix(0.05,0,0,0.05,12.950000000000001,0)"
           xlink:href="#p"
           id="use388" />
        <use
           transform="matrix(0.05,0,0,0.05,22.950000000000003,0)"
           xlink:href="#B"
           id="use390" />
        <use
           transform="matrix(0.05,0,0,0.05,32.95,0)"
           xlink:href="#A"
           id="use392" />
        <use
           transform="matrix(0.05,0,0,0.05,37.95,0)"
           xlink:href="#q"
           id="use394" />
        <use
           transform="matrix(0.05,0,0,0.05,43.900000000000006,0)"
           xlink:href="#p"
           id="use396" />
        <use
           transform="matrix(0.05,0,0,0.05,53.900000000000006,0)"
           xlink:href="#y"
           id="use398" />
      </g>
      <path
         d="M205 0l-28-72H64L36 0H1l101-248h38L239 0h-34zm-38-99l-47-123c-12 45-31 82-46 123h93"
         id="E" />
      <use
         transform="matrix(0.08641975308641976,0,0,0.08641975308641976,0,0)"
         xlink:href="#E"
         id="h" />
      <use
         transform="matrix(0.08641975308641976,0,0,0.08641975308641976,0,0)"
         xlink:href="#m"
         id="i" />
      <path
         d="M160-131c35 5 61 23 61 61C221 17 115-2 30 0v-248c76 3 177-17 177 60 0 33-19 50-47 57zm-97-11c50-1 110 9 110-42 0-47-63-36-110-37v79zm0 115c55-2 124 14 124-45 0-56-70-42-124-44v89"
         id="F" />
      <use
         transform="matrix(0.08641975308641976,0,0,0.08641975308641976,0,0)"
         xlink:href="#F"
         id="j" />
      <use
         transform="matrix(0.08641975308641976,0,0,0.08641975308641976,0,0)"
         xlink:href="#t"
         id="k" />
      <path
         d="M30 0v-248h187v28H63v79h144v27H63v87h162V0H30"
         id="G" />
      <use
         transform="matrix(0.08641975308641976,0,0,0.08641975308641976,0,0)"
         xlink:href="#G"
         id="l" />
    </defs>
    <g
       aria-label="Disorder"
       style="font-style:normal;font-variant:normal;font-weight:normal;font-stretch:normal;font-size:32px;line-height:1.25;font-family:Quattrocento;-inkscape-font-specification:'Quattrocento, Normal';font-variant-ligatures:normal;font-variant-caps:normal;font-variant-numeric:normal;font-feature-settings:normal;text-align:start;letter-spacing:0px;word-spacing:0px;writing-mode:lr-tb;text-anchor:start;fill:#000000;fill-opacity:1;stroke:none"
       id="text4126">
      <path
         d="m 100.00412,133.78769 q -0.064,-0.8 -0.287998,-1.216 -0.224,-0.416 -0.512,-0.608 -0.288,-0.256 -0.608,-0.288 -0.288,-0.032 -1.088,-0.032 l -0.16,-0.128 -0.096,-1.216 0.064,-0.128 q 0.224,0 0.64,0.032 0.416,0.032 0.896,0.064 0.48,0.032 0.928,0.064 0.479998,0.032 0.831998,0.032 h 3.104 q 0.384,0 0.96,0 0.608,-0.032 1.216,-0.064 0.608,-0.032 1.152,-0.032 0.576,-0.032 0.96,-0.032 2.496,0 4.448,0.864 1.984,0.832 3.328,2.272 1.344,1.44 2.048,3.36 0.736,1.92 0.736,4.064 0,2.112 -0.704,4.032 -0.672,1.888 -2.016,3.36 -1.344,1.44 -3.36,2.304 -2.016,0.864 -4.672,0.864 -0.256,0 -0.8,-0.032 -0.512,0 -1.12,0 -0.576,0 -1.152,-0.032 -0.544,0 -0.864,0 h -2.976 q -0.224,0 -0.736,0.032 -0.511998,0.032 -1.055998,0.064 -0.544,0.032 -1.056,0.064 -0.512,0.032 -0.736,0.032 l -0.064,-0.128 0.096,-1.216 0.16,-0.128 q 0.384,0 0.896,-0.032 0.512,-0.064 0.8,-0.256 0.256,-0.192 0.48,-0.608 0.224,-0.416 0.319998,-1.248 0,-0.224 0,-0.512 0.032,-0.32 0.032,-0.768 0.032,-0.448 0.032,-1.088 0,-0.64 0,-1.6 v -5.216 q 0,-0.32 0,-0.96 0,-0.672 0,-1.408 0,-0.736 -0.032,-1.44 0,-0.704 -0.032,-1.088 z m 6.752,15.008 q 1.92,0 3.392,-0.608 1.472,-0.64 2.464,-1.728 1.024,-1.088 1.536,-2.528 0.544,-1.472 0.544,-3.136 0,-1.728 -0.544,-3.168 -0.544,-1.472 -1.6,-2.528 -1.024,-1.056 -2.528,-1.632 -1.504,-0.608 -3.424,-0.608 h -2.816 q -0.064,0.928 -0.096,1.568 0,0.608 -0.032,1.248 -0.032,0.64 -0.032,1.408 0,0.736 0,1.888 v 3.968 q 0,1.92 0,3.008 0.032,1.056 0.096,1.6 0.096,0.832 0.416,1.056 0.32,0.192 1.152,0.192 z"
         style="font-weight:bold"
         id="path932" />
      <path
         d="m 129.31312,151.41969 q -0.224,0 -0.672,-0.032 -0.448,-0.032 -0.96,-0.064 -0.512,0 -0.96,-0.032 -0.448,0 -0.672,0 h -1.728 q -0.224,0 -0.704,0 -0.448,0.032 -0.96,0.032 -0.48,0.032 -0.96,0.064 -0.448,0.032 -0.672,0.032 l -0.032,-0.128 0.064,-1.088 0.096,-0.128 q 0.48,0 0.992,-0.032 0.512,-0.064 0.768,-0.32 0.224,-0.224 0.32,-0.576 0.096,-0.352 0.16,-0.992 0.032,-0.224 0.032,-0.448 0.032,-0.224 0.032,-0.48 0.032,-0.256 0.032,-0.608 0,-0.352 0,-0.864 v -3.616 q 0,-0.608 0,-0.96 0,-0.384 -0.032,-0.64 0,-0.256 -0.032,-0.448 0,-0.224 -0.032,-0.512 -0.064,-0.32 -0.192,-0.608 -0.128,-0.288 -0.224,-0.384 -0.32,-0.416 -0.8,-0.48 -0.48,-0.064 -0.992,-0.064 l -0.128,-0.128 v -1.088 l 0.128,-0.096 h 1.632 q 0.736,0 1.568,0 0.832,-0.032 1.472,-0.128 l 1.12,-0.16 0.192,0.608 q -0.064,0.128 -0.128,0.416 -0.032,0.256 -0.064,0.576 0,0.288 -0.032,0.608 0,0.288 0,0.48 0,0.256 -0.032,0.48 0,0.192 0,0.48 0,0.256 -0.032,0.672 0,0.416 0,1.024 v 3.584 q 0,0.64 0,1.056 0.032,0.384 0.032,0.672 0.032,0.288 0.032,0.544 0.032,0.224 0.064,0.512 0.064,0.672 0.128,1.024 0.096,0.32 0.352,0.544 0.256,0.256 0.704,0.32 0.48,0.032 0.96,0.032 l 0.16,0.16 0.064,1.056 z m -6.496,-19.744 q 0,-0.384 0.16,-0.768 0.16,-0.384 0.448,-0.672 0.288,-0.32 0.64,-0.48 0.384,-0.192 0.8,-0.192 0.8,0 1.44,0.672 0.672,0.64 0.672,1.44 0,0.416 -0.192,0.8 -0.16,0.352 -0.48,0.64 -0.288,0.288 -0.672,0.448 -0.384,0.16 -0.768,0.16 -0.832,0 -1.44,-0.608 -0.608,-0.608 -0.608,-1.44 z"
         style="font-weight:bold"
         id="path934" />
      <path
         d="m 138.32562,142.33169 q 1.344,0.32 2.176,0.864 0.832,0.544 1.248,1.184 0.448,0.64 0.576,1.312 0.16,0.672 0.16,1.248 0,1.024 -0.416,1.888 -0.416,0.864 -1.216,1.504 -0.768,0.608 -1.888,0.96 -1.12,0.352 -2.528,0.352 -1.472,0 -2.752,-0.32 -1.28,-0.288 -2.016,-0.704 l -0.384,-0.416 0.48,-3.936 h 1.056 l 0.096,0.128 q 0,1.408 0.864,2.24 0.864,0.8 2.56,0.8 0.896,0 1.504,-0.16 0.64,-0.192 0.992,-0.448 0.384,-0.288 0.544,-0.608 0.16,-0.352 0.16,-0.64 0,-0.224 -0.032,-0.48 -0.032,-0.256 -0.192,-0.512 -0.16,-0.288 -0.48,-0.544 -0.32,-0.288 -0.928,-0.48 l -3.072,-0.768 q -1.056,-0.256 -1.728,-0.736 -0.672,-0.48 -1.088,-1.056 -0.384,-0.608 -0.544,-1.28 -0.128,-0.672 -0.128,-1.344 0,-1.056 0.416,-1.856 0.416,-0.832 1.12,-1.344 0.736,-0.544 1.696,-0.8 0.96,-0.288 2.08,-0.288 1.408,0 2.592,0.352 1.184,0.32 1.824,0.704 l 0.416,0.384 -0.352,3.104 h -0.992 l -0.128,-0.096 q 0,-0.704 -0.384,-1.152 -0.352,-0.48 -0.896,-0.736 -0.512,-0.288 -1.088,-0.384 -0.576,-0.128 -1.024,-0.128 -1.28,0 -1.824,0.544 -0.544,0.544 -0.544,1.216 0,0.576 0.352,1.12 0.384,0.544 1.44,0.8 z"
         style="font-weight:bold"
         id="path936" />
      <path
         d="m 152.58912,136.09169 q 1.888,0 3.36,0.672 1.472,0.64 2.464,1.76 1.024,1.088 1.536,2.528 0.544,1.44 0.544,2.976 0,1.472 -0.48,2.848 -0.48,1.376 -1.472,2.432 -0.992,1.056 -2.464,1.696 -1.472,0.64 -3.424,0.64 -2.016,0 -3.52,-0.672 -1.504,-0.672 -2.496,-1.76 -0.96,-1.088 -1.44,-2.464 -0.48,-1.408 -0.48,-2.88 0,-1.568 0.544,-2.976 0.544,-1.408 1.536,-2.464 1.024,-1.088 2.464,-1.696 1.472,-0.64 3.328,-0.64 z m 0.032,13.344 q 0.992,0 1.728,-0.448 0.768,-0.48 1.28,-1.216 0.512,-0.768 0.736,-1.728 0.256,-0.992 0.256,-2.016 0,-0.992 -0.288,-1.984 -0.256,-1.024 -0.8,-1.824 -0.512,-0.8 -1.28,-1.312 -0.768,-0.512 -1.76,-0.512 -1.024,0 -1.792,0.48 -0.736,0.48 -1.216,1.248 -0.48,0.768 -0.736,1.728 -0.224,0.96 -0.224,1.952 0,1.024 0.256,2.016 0.288,0.992 0.8,1.824 0.544,0.8 1.312,1.312 0.768,0.48 1.728,0.48 z"
         style="font-weight:bold"
         id="path938" />
      <path
         d="m 168.09312,139.96369 q 0.32,-0.608 0.704,-1.28 0.416,-0.672 0.928,-1.248 0.512,-0.576 1.152,-0.96 0.672,-0.384 1.504,-0.384 0.256,0 0.608,0.064 0.384,0.032 0.736,0.128 0.384,0.096 0.736,0.224 0.352,0.128 0.544,0.288 l 0.224,0.192 -0.384,3.456 h -1.376 q -0.096,-0.384 -0.512,-0.768 -0.384,-0.416 -1.216,-0.416 -0.736,0 -1.344,0.384 -0.608,0.352 -1.056,0.896 -0.448,0.544 -0.704,1.184 -0.256,0.608 -0.256,1.12 v 2.208 q 0,1.216 0,1.824 0.032,0.608 0.064,1.056 0.064,0.704 0.16,1.152 0.128,0.416 0.384,0.64 0.128,0.128 0.384,0.224 0.288,0.064 0.576,0.096 0.288,0.032 0.544,0.032 0.288,0 0.448,0 l 0.16,0.16 0.064,1.056 -0.064,0.128 q -0.192,0 -0.64,-0.032 -0.448,-0.032 -0.96,-0.064 -0.512,0 -0.96,-0.032 -0.448,0 -0.64,0 h -2.048 q -0.224,0 -0.704,0 -0.448,0.032 -0.96,0.032 -0.512,0.032 -0.992,0.064 -0.448,0.032 -0.672,0.032 l -0.032,-0.128 0.064,-1.088 0.096,-0.128 q 0.544,0 1.024,-0.032 0.48,-0.064 0.736,-0.32 0.256,-0.224 0.352,-0.576 0.128,-0.352 0.192,-1.216 0.032,-0.384 0.032,-1.024 0,-0.64 0,-1.792 v -2.336 q 0,-0.672 0,-1.12 0,-0.48 -0.032,-0.832 0,-0.352 -0.032,-0.64 0,-0.288 -0.032,-0.608 -0.064,-0.32 -0.192,-0.608 -0.128,-0.288 -0.224,-0.384 -0.32,-0.416 -0.8,-0.48 -0.48,-0.064 -0.992,-0.064 l -0.128,-0.128 v -1.088 l 0.128,-0.096 h 0.576 q 0.704,0 1.824,0 1.12,-0.032 1.952,-0.128 l 1.12,-0.16 0.192,0.608 q -0.192,0.608 -0.288,1.376 -0.064,0.768 -0.064,1.504 z"
         style="font-weight:bold"
         id="path940" />
      <path
         d="m 188.75062,150.74769 q 0,-0.224 0.096,-0.832 0.128,-0.64 0.192,-1.12 l -0.032,-0.128 q -0.832,1.472 -2.304,2.24 -1.472,0.736 -3.072,0.736 -1.76,0 -3.072,-0.64 -1.28,-0.64 -2.144,-1.696 -0.864,-1.056 -1.28,-2.432 -0.416,-1.376 -0.416,-2.848 0,-2.144 0.672,-3.648 0.704,-1.536 1.76,-2.464 1.056,-0.96 2.304,-1.376 1.28,-0.448 2.464,-0.448 1.44,0 2.848,0.672 1.408,0.672 2.304,2.208 l 0.064,-0.128 q -0.064,-0.928 -0.064,-1.888 0,-0.992 0,-1.92 0,-0.992 0,-1.632 0,-0.672 -0.032,-1.12 0,-0.448 -0.032,-0.8 0,-0.352 -0.032,-0.736 -0.032,-0.32 -0.224,-0.608 -0.192,-0.288 -0.288,-0.384 -0.448,-0.352 -0.896,-0.448 -0.416,-0.096 -0.992,-0.096 l -0.128,-0.128 v -1.056 l 0.128,-0.128 h 1.824 q 0.736,0 1.536,0 0.832,-0.032 1.472,-0.128 l 1.12,-0.16 0.192,0.608 q -0.064,0.128 -0.128,0.48 -0.032,0.32 -0.064,0.704 0,0.384 -0.032,0.736 0,0.352 0,0.544 0,0.48 -0.032,0.928 0,0.416 0,0.992 0,0.544 -0.032,1.376 0,0.8 0,2.08 v 6.976 q 0,1.344 0,2.176 0.032,0.8 0.032,1.344 0.032,0.544 0.032,0.96 0.032,0.384 0.064,0.96 0.064,0.576 0.16,0.832 0.128,0.256 0.352,0.416 0.256,0.256 0.704,0.32 0.448,0.032 0.832,0.032 l 0.128,0.128 0.064,1.088 -0.064,0.128 q -0.544,-0.064 -1.184,-0.096 -0.64,-0.032 -1.216,-0.032 -0.864,0 -1.728,0 -0.864,0.032 -1.632,0.096 z m -8.32,-6.752 q 0,0.96 0.224,1.888 0.256,0.896 0.736,1.632 0.48,0.704 1.216,1.152 0.768,0.416 1.792,0.416 1.088,0 1.92,-0.352 0.864,-0.384 1.44,-0.896 0.608,-0.544 0.928,-1.12 0.352,-0.576 0.384,-0.992 v -3.552 q -0.064,-0.416 -0.384,-0.992 -0.288,-0.608 -0.864,-1.152 -0.544,-0.544 -1.376,-0.928 -0.832,-0.416 -1.984,-0.416 -1.056,0 -1.824,0.48 -0.768,0.448 -1.28,1.184 -0.48,0.736 -0.704,1.696 -0.224,0.96 -0.224,1.952 z"
         style="font-weight:bold"
         id="path942" />
      <path
         d="m 210.35512,143.13169 -0.768,0.576 q -1.728,0 -3.424,0.032 -1.664,0.032 -3.424,0.032 h -2.624 q -0.032,0.224 -0.032,0.448 0,0.192 0,0.384 0,0.832 0.288,1.664 0.288,0.832 0.896,1.504 0.64,0.64 1.6,1.056 0.96,0.384 2.336,0.384 0.992,0 2.08,-0.256 1.12,-0.288 2.08,-0.736 l 0.544,0.224 v 1.152 l -0.32,0.352 q -0.768,0.608 -2.272,1.152 -1.472,0.544 -3.2,0.544 -1.696,0 -3.104,-0.544 -1.376,-0.576 -2.4,-1.6 -0.992,-1.024 -1.568,-2.432 -0.544,-1.408 -0.544,-3.136 0,-1.76 0.576,-3.2 0.576,-1.44 1.568,-2.464 1.024,-1.024 2.368,-1.6 1.376,-0.576 2.944,-0.576 0.832,0 1.856,0.224 1.056,0.224 2.016,0.864 0.96,0.608 1.728,1.76 0.768,1.12 1.056,2.976 z m -6.368,-4.64 q -1.568,0 -2.528,0.96 -0.928,0.928 -1.184,2.176 h 1.6 q 1.12,0 2.208,-0.032 1.088,-0.064 2.208,-0.064 0.416,0 0.608,-0.224 0.192,-0.256 0.192,-0.512 0,-0.96 -0.928,-1.632 -0.928,-0.672 -2.176,-0.672 z"
         style="font-weight:bold"
         id="path944" />
      <path
         d="m 218.09312,139.96369 q 0.32,-0.608 0.704,-1.28 0.416,-0.672 0.928,-1.248 0.512,-0.576 1.152,-0.96 0.672,-0.384 1.504,-0.384 0.256,0 0.608,0.064 0.384,0.032 0.736,0.128 0.384,0.096 0.736,0.224 0.352,0.128 0.544,0.288 l 0.224,0.192 -0.384,3.456 h -1.376 q -0.096,-0.384 -0.512,-0.768 -0.384,-0.416 -1.216,-0.416 -0.736,0 -1.344,0.384 -0.608,0.352 -1.056,0.896 -0.448,0.544 -0.704,1.184 -0.256,0.608 -0.256,1.12 v 2.208 q 0,1.216 0,1.824 0.032,0.608 0.064,1.056 0.064,0.704 0.16,1.152 0.128,0.416 0.384,0.64 0.128,0.128 0.384,0.224 0.288,0.064 0.576,0.096 0.288,0.032 0.544,0.032 0.288,0 0.448,0 l 0.16,0.16 0.064,1.056 -0.064,0.128 q -0.192,0 -0.64,-0.032 -0.448,-0.032 -0.96,-0.064 -0.512,0 -0.96,-0.032 -0.448,0 -0.64,0 h -2.048 q -0.224,0 -0.704,0 -0.448,0.032 -0.96,0.032 -0.512,0.032 -0.992,0.064 -0.448,0.032 -0.672,0.032 l -0.032,-0.128 0.064,-1.088 0.096,-0.128 q 0.544,0 1.024,-0.032 0.48,-0.064 0.736,-0.32 0.256,-0.224 0.352,-0.576 0.128,-0.352 0.192,-1.216 0.032,-0.384 0.032,-1.024 0,-0.64 0,-1.792 v -2.336 q 0,-0.672 0,-1.12 0,-0.48 -0.032,-0.832 0,-0.352 -0.032,-0.64 0,-0.288 -0.032,-0.608 -0.064,-0.32 -0.192,-0.608 -0.128,-0.288 -0.224,-0.384 -0.32,-0.416 -0.8,-0.48 -0.48,-0.064 -0.992,-0.064 l -0.128,-0.128 v -1.088 l 0.128,-0.096 h 0.576 q 0.704,0 1.824,0 1.12,-0.032 1.952,-0.128 l 1.12,-0.16 0.192,0.608 q -0.192,0.608 -0.288,1.376 -0.064,0.768 -0.064,1.504 z"
         style="font-weight:bold"
         id="path946" />
    </g>
    <g
       aria-label="Norm Violation"
       style="font-style:normal;font-variant:normal;font-weight:normal;font-stretch:normal;font-size:32px;line-height:1.25;font-family:Quattrocento;-inkscape-font-specification:'Quattrocento, Normal';font-variant-ligatures:normal;font-variant-caps:normal;font-variant-numeric:normal;font-feature-settings:normal;text-align:start;letter-spacing:0px;word-spacing:0px;writing-mode:lr-tb;text-anchor:start;fill:#000000;fill-opacity:1;stroke:none"
       id="text4126-2">
      <path
         d="m 543.05279,109.33968 -0.064,0.576 -0.16,0.128 q -0.512,0 -0.992,0.064 -0.448,0.032 -0.704,0.256 -0.256,0.224 -0.48,0.576 -0.192,0.352 -0.256,1.248 -0.032,0.448 -0.064,0.832 0,0.384 -0.032,0.896 0,0.512 0,1.248 0,0.736 0,1.888 v 5.632 q 0,1.792 0,2.944 0.032,1.152 0.032,1.984 0.032,0.8 0.064,1.44 0.064,0.64 0.128,1.408 l -0.256,0.16 -1.984,-0.128 -0.32,-0.384 -11.392,-17.056 q 0,0.32 -0.032,0.64 0,0.32 0,0.8 0,0.448 0,1.056 0,0.608 0,1.504 v 5.888 q 0,0.384 0,1.024 0,0.608 0,1.28 0.032,0.672 0.032,1.312 0.032,0.608 0.064,0.992 0.064,0.8 0.256,1.216 0.224,0.384 0.544,0.608 0.256,0.192 0.672,0.256 0.416,0.064 1.056,0.064 l 0.16,0.128 0.096,0.576 -0.064,0.128 q -0.224,0 -0.704,-0.032 -0.448,-0.032 -0.96,-0.064 -0.512,-0.032 -0.992,-0.064 -0.448,-0.032 -0.672,-0.032 h -0.608 q -0.224,0 -0.736,0.032 -0.512,0.032 -1.056,0.064 -0.544,0.032 -1.056,0.064 -0.512,0.032 -0.736,0.032 l -0.064,-0.128 0.096,-0.576 0.16,-0.128 q 0.576,0 0.96,-0.032 0.416,-0.064 0.736,-0.288 0.224,-0.16 0.448,-0.512 0.256,-0.384 0.352,-1.312 0.032,-0.224 0.032,-0.512 0.032,-0.32 0.032,-0.768 0,-0.448 0,-1.088 0,-0.64 0,-1.6 v -6.496 q 0,-1.12 0,-1.888 0,-0.768 0,-1.312 0,-0.544 -0.032,-0.928 0,-0.384 -0.032,-0.768 -0.064,-0.672 -0.288,-1.12 -0.224,-0.48 -0.512,-0.704 -0.288,-0.224 -0.736,-0.256 -0.416,-0.064 -0.96,-0.064 l -0.16,-0.128 -0.096,-0.576 0.064,-0.128 q 0.224,0 0.64,0.032 0.448,0.032 0.896,0.064 0.448,0.032 0.864,0.064 0.448,0.032 0.672,0.032 h 1.12 q 0.256,0 0.704,-0.032 0.48,-0.032 0.768,-0.096 l 0.16,0.096 q 0.128,0.448 0.512,1.248 0.416,0.768 0.96,1.728 0.576,0.96 1.216,2.048 0.672,1.088 1.344,2.144 2.432,3.904 4.224,6.368 1.824,2.464 2.336,3.2 0,-0.224 0,-0.416 0.032,-0.192 0.032,-0.448 0,-0.256 0,-0.64 0,-0.384 0,-1.024 v -6.496 q 0,-1.12 0,-1.888 0,-0.768 -0.032,-1.312 0,-0.544 -0.032,-0.928 0,-0.384 -0.032,-0.768 -0.064,-0.896 -0.288,-1.248 -0.224,-0.352 -0.48,-0.576 -0.288,-0.224 -0.768,-0.256 -0.448,-0.064 -0.96,-0.064 l -0.128,-0.128 -0.096,-0.576 0.064,-0.128 q 0.224,0 0.64,0.032 0.416,0.032 0.832,0.064 0.448,0.032 0.864,0.064 0.416,0.032 0.64,0.032 h 1.504 q 0.224,0 0.64,0 0.416,-0.032 0.864,-0.064 0.448,-0.032 0.864,-0.064 0.416,-0.032 0.64,-0.064 z"
         style="font-style:normal;font-variant:normal;font-weight:normal;font-stretch:normal;font-size:32px;font-family:Quattrocento;-inkscape-font-specification:'Quattrocento, Normal';font-variant-ligatures:normal;font-variant-caps:normal;font-variant-numeric:normal;font-feature-settings:normal;text-align:center;writing-mode:lr-tb;text-anchor:middle"
         id="path902" />
      <path
         d="m 552.89629,115.13168 q 1.888,0 3.36,0.672 1.472,0.64 2.464,1.76 1.024,1.088 1.536,2.528 0.544,1.44 0.544,2.976 0,1.472 -0.48,2.848 -0.48,1.376 -1.472,2.432 -0.992,1.056 -2.464,1.696 -1.472,0.64 -3.424,0.64 -2.016,0 -3.52,-0.672 -1.504,-0.672 -2.496,-1.76 -0.96,-1.088 -1.44,-2.464 -0.48,-1.408 -0.48,-2.88 0,-1.568 0.544,-2.976 0.544,-1.408 1.536,-2.464 1.024,-1.088 2.464,-1.696 1.472,-0.64 3.328,-0.64 z m 0.032,14.304 q 1.344,0 2.368,-0.544 1.024,-0.544 1.696,-1.44 0.672,-0.896 0.992,-2.016 0.352,-1.152 0.352,-2.368 0,-1.152 -0.384,-2.336 -0.352,-1.184 -1.056,-2.112 -0.704,-0.96 -1.728,-1.536 -1.024,-0.608 -2.368,-0.608 -1.408,0 -2.432,0.576 -0.992,0.544 -1.664,1.44 -0.64,0.896 -0.96,2.048 -0.32,1.152 -0.32,2.304 0,1.184 0.352,2.368 0.384,1.152 1.088,2.112 0.704,0.928 1.728,1.536 1.024,0.576 2.336,0.576 z"
         style="font-style:normal;font-variant:normal;font-weight:normal;font-stretch:normal;font-size:32px;font-family:Quattrocento;-inkscape-font-specification:'Quattrocento, Normal';font-variant-ligatures:normal;font-variant-caps:normal;font-variant-numeric:normal;font-feature-settings:normal;text-align:center;writing-mode:lr-tb;text-anchor:middle"
         id="path904" />
      <path
         d="m 567.93579,119.00368 q 0.32,-0.608 0.704,-1.28 0.416,-0.672 0.928,-1.248 0.512,-0.576 1.152,-0.96 0.672,-0.384 1.504,-0.384 0.576,0 1.28,0.192 0.736,0.16 0.992,0.448 l 0.256,0.288 -0.384,2.464 h -1.056 q -0.096,-0.448 -0.512,-0.8 -0.384,-0.384 -1.216,-0.384 -0.8,0 -1.472,0.48 -0.672,0.448 -1.184,1.152 -0.48,0.704 -0.768,1.504 -0.256,0.768 -0.256,1.408 v 2.848 q 0,0.704 0,1.152 0.032,0.416 0.032,0.736 0.032,0.288 0.032,0.512 0.032,0.192 0.032,0.416 l 0.032,0.288 q 0.064,0.48 0.128,0.928 0.096,0.416 0.352,0.64 0.16,0.128 0.448,0.192 0.32,0.064 0.64,0.096 0.352,0.032 0.672,0.064 0.32,0 0.512,0 l 0.16,0.16 0.064,0.416 -0.064,0.128 q -0.224,0 -0.736,-0.032 -0.48,-0.032 -1.024,-0.064 -0.544,0 -1.056,-0.032 -0.48,0 -0.704,0 h -0.768 q -0.224,0 -0.704,0 -0.448,0.032 -0.96,0.032 -0.512,0.032 -0.992,0.064 -0.448,0.032 -0.672,0.032 l -0.032,-0.128 0.032,-0.448 0.128,-0.128 q 0.512,0 0.992,-0.032 0.512,-0.064 0.768,-0.32 0.256,-0.224 0.32,-0.576 0.096,-0.352 0.16,-0.992 l 0.032,-0.288 q 0.032,-0.32 0.032,-0.8 0.032,-0.48 0.032,-1.632 v -3.936 q 0,-0.672 0,-1.12 0,-0.48 -0.032,-0.832 0,-0.352 -0.032,-0.64 0,-0.288 -0.032,-0.608 -0.064,-0.352 -0.192,-0.608 -0.128,-0.288 -0.224,-0.384 -0.32,-0.384 -0.8,-0.448 -0.48,-0.096 -0.992,-0.096 l -0.128,-0.128 v -0.448 l 0.128,-0.096 h 0.576 q 0.544,0 1.376,0 0.832,-0.032 1.44,-0.128 l 1.12,-0.16 0.192,0.288 q -0.192,0.672 -0.288,1.536 -0.064,0.864 -0.064,1.664 z"
         style="font-style:normal;font-variant:normal;font-weight:normal;font-stretch:normal;font-size:32px;font-family:Quattrocento;-inkscape-font-specification:'Quattrocento, Normal';font-variant-ligatures:normal;font-variant-caps:normal;font-variant-numeric:normal;font-feature-settings:normal;text-align:center;writing-mode:lr-tb;text-anchor:middle"
         id="path906" />
      <path
         d="m 576.42229,115.86768 0.128,-0.096 h 0.576 q 0.544,0 1.376,0 0.832,-0.032 1.44,-0.128 l 1.12,-0.16 0.192,0.288 q -0.064,0.192 -0.128,0.512 -0.032,0.288 -0.096,0.672 -0.032,0.352 -0.064,0.704 -0.032,0.352 -0.032,0.608 l 0.096,0.064 q 0.352,-0.64 0.8,-1.216 0.48,-0.608 1.088,-1.024 0.608,-0.448 1.376,-0.704 0.768,-0.256 1.76,-0.256 0.832,0 1.632,0.224 0.8,0.192 1.472,0.64 0.704,0.416 1.216,1.12 0.544,0.672 0.832,1.632 0.384,-0.704 0.832,-1.344 0.48,-0.672 1.088,-1.152 0.64,-0.512 1.44,-0.8 0.832,-0.32 1.888,-0.32 0.928,0 1.792,0.256 0.896,0.256 1.6,0.8 0.736,0.544 1.248,1.376 0.544,0.832 0.736,2.016 0.16,0.832 0.16,1.76 0.032,0.928 0.032,1.856 v 4.64 q 0,0.736 0.128,1.088 0.128,0.32 0.352,0.48 0.256,0.256 0.736,0.32 0.512,0.032 1.024,0.032 l 0.128,0.128 0.064,0.448 -0.064,0.128 q -0.576,-0.064 -1.248,-0.096 -0.64,-0.032 -1.312,-0.032 -1.184,0 -2.176,0.096 l -0.224,-0.32 q 0.128,-0.416 0.192,-1.088 0.064,-0.672 0.096,-1.184 0.032,-0.48 0.032,-1.184 0.032,-0.704 0.032,-1.408 0.032,-0.736 0.032,-1.376 0,-0.64 0,-0.992 0,-0.64 -0.064,-1.6 -0.032,-0.992 -0.192,-1.664 -0.32,-1.312 -1.312,-1.984 -0.96,-0.672 -2.176,-0.672 -0.896,0 -1.664,0.352 -0.736,0.32 -1.312,0.832 -0.576,0.48 -0.992,1.088 -0.384,0.608 -0.576,1.152 0.064,0.704 0.064,1.408 0.032,0.704 0.032,1.408 v 4.64 q 0,0.672 0.128,1.024 0.128,0.32 0.384,0.544 0.256,0.224 0.704,0.288 0.48,0.064 0.96,0.064 l 0.16,0.16 0.064,0.416 -0.064,0.128 q -0.224,0 -0.672,-0.032 -0.448,-0.032 -0.96,-0.064 -0.512,0 -0.96,-0.032 -0.448,0 -0.672,0 h -0.448 q -0.224,0 -0.704,0 -0.448,0.032 -0.96,0.032 -0.48,0.032 -0.96,0.064 -0.448,0.032 -0.672,0.032 l -0.064,-0.128 0.064,-0.448 0.128,-0.128 q 0.512,0 0.992,-0.032 0.512,-0.064 0.768,-0.32 0.256,-0.224 0.32,-0.576 0.064,-0.352 0.128,-0.992 0.032,-0.48 0.032,-1.184 0.032,-0.704 0.032,-1.408 0.032,-0.736 0.032,-1.376 0.032,-0.64 0.032,-0.992 0,-0.32 0,-0.736 0,-0.448 -0.032,-0.896 -0.032,-0.448 -0.096,-0.864 -0.032,-0.416 -0.128,-0.768 -0.352,-1.312 -1.312,-1.984 -0.96,-0.672 -2.176,-0.672 -1.056,0 -1.92,0.48 -0.864,0.448 -1.504,1.12 -0.608,0.64 -0.96,1.376 -0.32,0.704 -0.32,1.216 v 3.584 q 0,0.704 0,1.152 0.032,0.448 0.032,0.768 0.032,0.32 0.032,0.608 0.032,0.256 0.064,0.576 0.064,0.672 0.128,1.024 0.096,0.32 0.352,0.544 0.256,0.224 0.704,0.288 0.48,0.064 0.96,0.064 l 0.16,0.16 0.064,0.416 -0.064,0.128 q -0.224,0 -0.672,-0.032 -0.448,-0.032 -0.96,-0.064 -0.512,0 -0.96,-0.032 -0.448,0 -0.672,0 h -0.448 q -0.224,0 -0.704,0 -0.448,0.032 -0.96,0.032 -0.48,0.032 -0.96,0.064 -0.448,0.032 -0.672,0.032 l -0.032,-0.128 0.032,-0.448 0.128,-0.128 q 0.512,0 0.992,-0.032 0.512,-0.064 0.768,-0.32 0.256,-0.224 0.32,-0.576 0.096,-0.352 0.16,-0.992 0.032,-0.512 0.064,-1.024 0.032,-0.544 0.032,-1.696 v -3.936 q 0,-0.672 0,-1.12 0,-0.48 -0.032,-0.832 0,-0.352 -0.032,-0.64 0,-0.288 -0.032,-0.608 -0.064,-0.352 -0.192,-0.608 -0.128,-0.288 -0.224,-0.384 -0.32,-0.384 -0.8,-0.448 -0.48,-0.096 -0.992,-0.096 l -0.128,-0.128 z"
         style="font-style:normal;font-variant:normal;font-weight:normal;font-stretch:normal;font-size:32px;font-family:Quattrocento;-inkscape-font-specification:'Quattrocento, Normal';font-variant-ligatures:normal;font-variant-caps:normal;font-variant-numeric:normal;font-feature-settings:normal;text-align:center;writing-mode:lr-tb;text-anchor:middle"
         id="path908" />
      <path
         d="m 506.81079,170.68368 -5.216,-14.528 q -0.352,-0.96 -0.608,-1.6 -0.224,-0.64 -0.416,-1.088 -0.16,-0.448 -0.288,-0.736 -0.128,-0.288 -0.224,-0.544 -0.352,-0.8 -0.736,-1.216 -0.352,-0.448 -0.736,-0.64 -0.384,-0.224 -0.8,-0.256 -0.384,-0.032 -0.8,-0.032 l -0.16,-0.128 -0.064,-0.576 0.032,-0.128 q 0.224,0 0.64,0.032 0.448,0.032 0.928,0.064 0.48,0.032 0.928,0.064 0.448,0.032 0.672,0.032 h 1.088 q 0.224,0 0.736,-0.032 0.512,-0.032 1.056,-0.064 0.576,-0.032 1.088,-0.064 0.512,-0.032 0.736,-0.032 l 0.064,0.128 -0.096,0.576 -0.16,0.128 q -0.928,0 -1.44,0.224 -0.512,0.192 -0.512,1.12 0,0.736 0.48,2.08 0.512,1.312 1.248,3.328 l 2.176,5.888 q 0.608,1.664 1.056,3.008 0.48,1.312 0.864,2.272 0.352,-0.928 0.832,-2.208 0.512,-1.28 1.152,-3.072 l 2.176,-5.888 q 0.736,-2.016 1.216,-3.328 0.512,-1.344 0.512,-2.08 0,-0.928 -0.512,-1.12 -0.512,-0.224 -1.44,-0.224 l -0.16,-0.128 -0.064,-0.576 0.064,-0.128 q 0.224,0 0.704,0.032 0.48,0.032 0.992,0.064 0.512,0.032 0.992,0.064 0.48,0.032 0.704,0.032 h 0.608 q 0.224,0 0.64,-0.032 0.448,-0.032 0.928,-0.064 0.48,-0.032 0.928,-0.064 0.448,-0.032 0.672,-0.032 l 0.064,0.128 -0.096,0.576 -0.16,0.128 q -0.416,0 -0.8,0.032 -0.384,0.032 -0.768,0.256 -0.384,0.192 -0.768,0.64 -0.352,0.416 -0.736,1.216 -0.096,0.256 -0.288,0.64 -0.16,0.384 -0.576,1.44 -0.416,1.056 -1.216,3.04 -0.768,1.952 -2.08,5.344 -0.448,1.12 -0.928,2.336 -0.448,1.184 -0.896,2.272 -0.416,1.056 -0.736,1.888 -0.32,0.832 -0.448,1.184 l -1.664,0.352 z"
         style="font-style:normal;font-variant:normal;font-weight:normal;font-stretch:normal;font-size:32px;font-family:Quattrocento;-inkscape-font-specification:'Quattrocento, Normal';font-variant-ligatures:normal;font-variant-caps:normal;font-variant-numeric:normal;font-feature-settings:normal;text-align:center;writing-mode:lr-tb;text-anchor:middle"
         id="path910" />
      <path
         d="m 526.77329,170.45968 q -0.224,0 -0.672,-0.032 -0.448,-0.032 -0.96,-0.064 -0.512,0 -0.96,-0.032 -0.448,0 -0.672,0 h -0.448 q -0.224,0 -0.704,0 -0.448,0.032 -0.96,0.032 -0.48,0.032 -0.96,0.064 -0.448,0.032 -0.672,0.032 l -0.032,-0.128 0.032,-0.448 0.128,-0.128 q 0.512,0 0.992,-0.032 0.512,-0.064 0.768,-0.32 0.256,-0.224 0.32,-0.576 0.096,-0.352 0.16,-0.992 0.032,-0.512 0.064,-1.024 0.032,-0.544 0.032,-1.696 v -3.936 q 0,-0.672 0,-1.12 0,-0.48 -0.032,-0.832 0,-0.352 -0.032,-0.64 0,-0.288 -0.032,-0.608 -0.064,-0.352 -0.192,-0.608 -0.128,-0.288 -0.224,-0.384 -0.32,-0.384 -0.8,-0.448 -0.48,-0.096 -0.992,-0.096 l -0.128,-0.128 v -0.448 l 0.128,-0.096 h 0.576 q 0.544,0 1.376,0 0.832,-0.032 1.44,-0.128 l 1.12,-0.16 0.192,0.288 q -0.064,0.128 -0.128,0.448 -0.032,0.32 -0.064,0.704 0,0.352 -0.032,0.704 0,0.352 0,0.544 0,0.256 -0.032,0.512 0,0.224 0,0.544 0,0.32 -0.032,0.768 0,0.448 0,1.152 v 3.584 q 0,0.704 0,1.152 0.032,0.448 0.032,0.768 0.032,0.32 0.032,0.608 0.032,0.256 0.064,0.576 0.064,0.672 0.128,1.024 0.096,0.32 0.352,0.544 0.256,0.224 0.704,0.288 0.48,0.064 0.96,0.064 l 0.16,0.16 0.064,0.416 z m -5.376,-20.32 q 0,-0.64 0.416,-1.088 0.448,-0.48 1.088,-0.48 0.64,0 1.088,0.48 0.48,0.448 0.48,1.088 0,0.64 -0.48,1.088 -0.448,0.416 -1.088,0.416 -0.64,0 -1.088,-0.416 -0.416,-0.448 -0.416,-1.088 z"
         style="font-style:normal;font-variant:normal;font-weight:normal;font-stretch:normal;font-size:32px;font-family:Quattrocento;-inkscape-font-specification:'Quattrocento, Normal';font-variant-ligatures:normal;font-variant-caps:normal;font-variant-numeric:normal;font-feature-settings:normal;text-align:center;writing-mode:lr-tb;text-anchor:middle"
         id="path912" />
      <path
         d="m 536.83379,155.13168 q 1.888,0 3.36,0.672 1.472,0.64 2.464,1.76 1.024,1.088 1.536,2.528 0.544,1.44 0.544,2.976 0,1.472 -0.48,2.848 -0.48,1.376 -1.472,2.432 -0.992,1.056 -2.464,1.696 -1.472,0.64 -3.424,0.64 -2.016,0 -3.52,-0.672 -1.504,-0.672 -2.496,-1.76 -0.96,-1.088 -1.44,-2.464 -0.48,-1.408 -0.48,-2.88 0,-1.568 0.544,-2.976 0.544,-1.408 1.536,-2.464 1.024,-1.088 2.464,-1.696 1.472,-0.64 3.328,-0.64 z m 0.032,14.304 q 1.344,0 2.368,-0.544 1.024,-0.544 1.696,-1.44 0.672,-0.896 0.992,-2.016 0.352,-1.152 0.352,-2.368 0,-1.152 -0.384,-2.336 -0.352,-1.184 -1.056,-2.112 -0.704,-0.96 -1.728,-1.536 -1.024,-0.608 -2.368,-0.608 -1.408,0 -2.432,0.576 -0.992,0.544 -1.664,1.44 -0.64,0.896 -0.96,2.048 -0.32,1.152 -0.32,2.304 0,1.184 0.352,2.368 0.384,1.152 1.088,2.112 0.704,0.928 1.728,1.536 1.024,0.576 2.336,0.576 z"
         style="font-style:normal;font-variant:normal;font-weight:normal;font-stretch:normal;font-size:32px;font-family:Quattrocento;-inkscape-font-specification:'Quattrocento, Normal';font-variant-ligatures:normal;font-variant-caps:normal;font-variant-numeric:normal;font-feature-settings:normal;text-align:center;writing-mode:lr-tb;text-anchor:middle"
         id="path914" />
      <path
         d="m 547.04129,147.06768 0.128,-0.128 h 0.576 q 0.544,0 1.376,0 0.832,-0.032 1.44,-0.128 l 1.152,-0.16 0.192,0.288 q -0.064,0.128 -0.096,0.48 -0.032,0.32 -0.064,0.704 -0.032,0.384 -0.064,0.736 0,0.352 0,0.544 -0.032,0.512 -0.064,0.96 0,0.448 -0.032,1.056 0,0.608 0,1.472 0,0.864 0,2.208 v 6.976 q 0,1.344 0,2.208 0.032,0.864 0.032,1.472 0.032,0.608 0.032,1.056 0.032,0.448 0.064,1.024 0.064,0.672 0.128,1.024 0.096,0.32 0.352,0.544 0.256,0.224 0.704,0.288 0.48,0.064 0.96,0.064 l 0.16,0.16 0.064,0.416 -0.064,0.128 q -0.224,0 -0.672,-0.032 -0.448,-0.032 -0.96,-0.064 -0.512,0 -0.96,-0.032 -0.448,0 -0.672,0 h -0.448 q -0.224,0 -0.704,0 -0.448,0.032 -0.96,0.032 -0.48,0.032 -0.96,0.064 -0.448,0.032 -0.672,0.032 l -0.032,-0.128 0.032,-0.448 0.128,-0.128 q 0.512,0 0.992,-0.032 0.512,-0.064 0.768,-0.32 0.256,-0.224 0.32,-0.576 0.096,-0.352 0.16,-0.992 0.032,-0.416 0.032,-0.832 0.032,-0.416 0.032,-0.96 0.032,-0.576 0.032,-1.312 0,-0.768 0,-1.888 v -7.68 q 0,-1.312 0,-2.208 0,-0.928 -0.032,-1.6 0,-0.672 -0.032,-1.184 0,-0.512 -0.032,-1.024 -0.032,-0.352 -0.192,-0.608 -0.128,-0.256 -0.224,-0.384 -0.32,-0.352 -0.8,-0.448 -0.48,-0.096 -0.992,-0.096 l -0.128,-0.128 z"
         style="font-style:normal;font-variant:normal;font-weight:normal;font-stretch:normal;font-size:32px;font-family:Quattrocento;-inkscape-font-specification:'Quattrocento, Normal';font-variant-ligatures:normal;font-variant-caps:normal;font-variant-numeric:normal;font-feature-settings:normal;text-align:center;writing-mode:lr-tb;text-anchor:middle"
         id="path916" />
      <path
         d="m 565.20229,170.10768 q 0.096,-0.352 0.128,-1.056 0.064,-0.704 0.16,-1.312 l -0.032,-0.096 q -0.416,0.576 -0.992,1.12 -0.576,0.544 -1.28,0.992 -0.672,0.416 -1.472,0.672 -0.768,0.256 -1.632,0.256 -0.992,0 -1.76,-0.352 -0.768,-0.352 -1.28,-0.928 -0.512,-0.576 -0.768,-1.344 -0.256,-0.768 -0.256,-1.6 0,-1.184 0.544,-2.048 0.544,-0.896 1.44,-1.472 0.832,-0.512 1.952,-0.832 1.152,-0.32 2.208,-0.448 1.088,-0.16 1.952,-0.192 0.864,-0.064 1.152,-0.064 h 0.448 q -0.032,-1.184 -0.128,-1.856 -0.096,-0.704 -0.256,-1.152 -0.352,-0.96 -1.216,-1.376 -0.864,-0.448 -2.08,-0.448 -0.512,0 -1.12,0.096 -0.576,0.096 -1.12,0.352 -0.512,0.256 -0.896,0.736 -0.384,0.448 -0.448,1.184 l -0.128,0.096 h -0.704 l -0.288,-2.368 0.096,-0.192 q 0.16,-0.192 0.672,-0.416 0.512,-0.224 1.184,-0.416 0.704,-0.224 1.536,-0.352 0.864,-0.16 1.696,-0.16 1.152,0 2.144,0.32 0.992,0.288 1.696,0.896 0.736,0.608 1.152,1.536 0.416,0.896 0.416,2.112 0,1.344 -0.032,2.4 0,1.024 -0.032,1.92 -0.032,0.864 -0.064,1.728 0,0.832 0,1.792 0.064,0.736 0.16,1.088 0.096,0.32 0.32,0.48 0.256,0.256 0.736,0.32 0.512,0.032 1.024,0.032 l 0.128,0.128 0.032,0.448 -0.032,0.128 q -0.576,-0.064 -1.248,-0.096 -0.672,-0.032 -1.312,-0.032 -1.216,0 -2.208,0.096 z m 0,-3.456 q 0.096,-0.16 0.192,-0.384 0.128,-0.224 0.16,-0.544 l 0.16,-3.2 h -0.288 q -1.28,0 -2.56,0.16 -1.28,0.128 -2.304,0.544 -0.992,0.416 -1.632,1.152 -0.64,0.736 -0.64,1.888 0,1.216 0.704,1.952 0.704,0.704 1.824,0.704 0.672,0 1.344,-0.224 0.672,-0.224 1.248,-0.576 0.608,-0.352 1.056,-0.736 0.48,-0.384 0.736,-0.736 z"
         style="font-style:normal;font-variant:normal;font-weight:normal;font-stretch:normal;font-size:32px;font-family:Quattrocento;-inkscape-font-specification:'Quattrocento, Normal';font-variant-ligatures:normal;font-variant-caps:normal;font-variant-numeric:normal;font-feature-settings:normal;text-align:center;writing-mode:lr-tb;text-anchor:middle"
         id="path918" />
      <path
         d="m 580.18129,157.11568 h -4.16 q 0,2.08 -0.032,3.84 0,1.76 0,3.104 0,1.312 -0.032,2.112 0,0.8 0,0.992 0,1.248 0.48,1.664 0.48,0.416 1.12,0.416 0.544,0 1.248,-0.192 0.736,-0.224 1.184,-0.48 l 0.288,0.224 -0.288,0.896 q -0.736,0.512 -1.664,0.736 -0.896,0.256 -1.6,0.256 -1.632,0 -2.304,-0.896 -0.672,-0.896 -0.672,-2.304 0,-0.288 0.032,-1.184 0.032,-0.896 0.064,-2.24 0.032,-1.344 0.064,-3.104 0.032,-1.76 0.032,-3.84 h -2.304 l -0.128,-0.16 v -0.608 l 0.128,-0.128 2.304,-0.448 q 0,-1.12 -0.064,-2.272 -0.032,-1.184 -0.096,-2.304 l 0.224,-0.192 0.448,-0.032 q 0.256,-0.032 0.832,-0.128 0.576,-0.096 0.8,-0.224 l 0.288,0.128 q -0.096,0.448 -0.16,1.056 -0.064,0.576 -0.128,1.248 -0.032,0.672 -0.064,1.376 0,0.704 0,1.344 l 4.16,-0.192 0.16,0.128 v 1.248 z"
         style="font-style:normal;font-variant:normal;font-weight:normal;font-stretch:normal;font-size:32px;font-family:Quattrocento;-inkscape-font-specification:'Quattrocento, Normal';font-variant-ligatures:normal;font-variant-caps:normal;font-variant-numeric:normal;font-feature-settings:normal;text-align:center;writing-mode:lr-tb;text-anchor:middle"
         id="path920" />
      <path
         d="m 589.21079,170.45968 q -0.224,0 -0.672,-0.032 -0.448,-0.032 -0.96,-0.064 -0.512,0 -0.96,-0.032 -0.448,0 -0.672,0 h -0.448 q -0.224,0 -0.704,0 -0.448,0.032 -0.96,0.032 -0.48,0.032 -0.96,0.064 -0.448,0.032 -0.672,0.032 l -0.032,-0.128 0.032,-0.448 0.128,-0.128 q 0.512,0 0.992,-0.032 0.512,-0.064 0.768,-0.32 0.256,-0.224 0.32,-0.576 0.096,-0.352 0.16,-0.992 0.032,-0.512 0.064,-1.024 0.032,-0.544 0.032,-1.696 v -3.936 q 0,-0.672 0,-1.12 0,-0.48 -0.032,-0.832 0,-0.352 -0.032,-0.64 0,-0.288 -0.032,-0.608 -0.064,-0.352 -0.192,-0.608 -0.128,-0.288 -0.224,-0.384 -0.32,-0.384 -0.8,-0.448 -0.48,-0.096 -0.992,-0.096 l -0.128,-0.128 v -0.448 l 0.128,-0.096 h 0.576 q 0.544,0 1.376,0 0.832,-0.032 1.44,-0.128 l 1.12,-0.16 0.192,0.288 q -0.064,0.128 -0.128,0.448 -0.032,0.32 -0.064,0.704 0,0.352 -0.032,0.704 0,0.352 0,0.544 0,0.256 -0.032,0.512 0,0.224 0,0.544 0,0.32 -0.032,0.768 0,0.448 0,1.152 v 3.584 q 0,0.704 0,1.152 0.032,0.448 0.032,0.768 0.032,0.32 0.032,0.608 0.032,0.256 0.064,0.576 0.064,0.672 0.128,1.024 0.096,0.32 0.352,0.544 0.256,0.224 0.704,0.288 0.48,0.064 0.96,0.064 l 0.16,0.16 0.064,0.416 z m -5.376,-20.32 q 0,-0.64 0.416,-1.088 0.448,-0.48 1.088,-0.48 0.64,0 1.088,0.48 0.48,0.448 0.48,1.088 0,0.64 -0.48,1.088 -0.448,0.416 -1.088,0.416 -0.64,0 -1.088,-0.416 -0.416,-0.448 -0.416,-1.088 z"
         style="font-style:normal;font-variant:normal;font-weight:normal;font-stretch:normal;font-size:32px;font-family:Quattrocento;-inkscape-font-specification:'Quattrocento, Normal';font-variant-ligatures:normal;font-variant-caps:normal;font-variant-numeric:normal;font-feature-settings:normal;text-align:center;writing-mode:lr-tb;text-anchor:middle"
         id="path922" />
      <path
         d="m 599.27129,155.13168 q 1.888,0 3.36,0.672 1.472,0.64 2.464,1.76 1.024,1.088 1.536,2.528 0.544,1.44 0.544,2.976 0,1.472 -0.48,2.848 -0.48,1.376 -1.472,2.432 -0.992,1.056 -2.464,1.696 -1.472,0.64 -3.424,0.64 -2.016,0 -3.52,-0.672 -1.504,-0.672 -2.496,-1.76 -0.96,-1.088 -1.44,-2.464 -0.48,-1.408 -0.48,-2.88 0,-1.568 0.544,-2.976 0.544,-1.408 1.536,-2.464 1.024,-1.088 2.464,-1.696 1.472,-0.64 3.328,-0.64 z m 0.032,14.304 q 1.344,0 2.368,-0.544 1.024,-0.544 1.696,-1.44 0.672,-0.896 0.992,-2.016 0.352,-1.152 0.352,-2.368 0,-1.152 -0.384,-2.336 -0.352,-1.184 -1.056,-2.112 -0.704,-0.96 -1.728,-1.536 -1.024,-0.608 -2.368,-0.608 -1.408,0 -2.432,0.576 -0.992,0.544 -1.664,1.44 -0.64,0.896 -0.96,2.048 -0.32,1.152 -0.32,2.304 0,1.184 0.352,2.368 0.384,1.152 1.088,2.112 0.704,0.928 1.728,1.536 1.024,0.576 2.336,0.576 z"
         style="font-style:normal;font-variant:normal;font-weight:normal;font-stretch:normal;font-size:32px;font-family:Quattrocento;-inkscape-font-specification:'Quattrocento, Normal';font-variant-ligatures:normal;font-variant-caps:normal;font-variant-numeric:normal;font-feature-settings:normal;text-align:center;writing-mode:lr-tb;text-anchor:middle"
         id="path924" />
      <path
         d="m 614.34279,158.36368 q 0.832,-1.376 2.144,-2.304 1.312,-0.928 3.264,-0.928 0.896,0 1.792,0.256 0.896,0.256 1.632,0.8 0.768,0.544 1.248,1.408 0.512,0.832 0.672,1.984 0.096,0.832 0.096,1.76 0.032,0.928 0.032,1.856 0,1.152 0,2.336 0.032,1.152 0.032,2.304 0.064,0.736 0.16,1.088 0.096,0.32 0.288,0.48 0.288,0.256 0.768,0.32 0.512,0.032 1.024,0.032 l 0.096,0.128 0.064,0.448 -0.064,0.128 q -0.544,-0.064 -1.216,-0.096 -0.672,-0.032 -1.312,-0.032 -1.216,0 -2.208,0.096 l -0.224,-0.32 q 0.128,-0.416 0.192,-1.088 0.064,-0.672 0.096,-1.184 0.064,-1.344 0.096,-2.624 0.032,-1.312 0.032,-2.176 0,-0.736 -0.064,-1.6 -0.032,-0.864 -0.192,-1.504 -0.32,-1.504 -1.312,-2.24 -0.992,-0.736 -2.304,-0.736 -1.056,0 -1.984,0.448 -0.896,0.448 -1.536,1.12 -0.64,0.64 -1.024,1.376 -0.352,0.704 -0.352,1.216 v 3.616 q 0,0.704 0,1.152 0,0.448 0,0.768 0.032,0.32 0.064,0.608 0.032,0.256 0.064,0.576 0.064,0.672 0.128,1.024 0.096,0.32 0.352,0.544 0.256,0.224 0.704,0.288 0.48,0.064 0.96,0.064 l 0.16,0.16 0.064,0.416 -0.064,0.128 q -0.224,0 -0.672,-0.032 -0.448,-0.032 -0.96,-0.064 -0.512,0 -0.96,-0.032 -0.448,0 -0.672,0 h -0.448 q -0.224,0 -0.704,0 -0.448,0.032 -0.96,0.032 -0.48,0.032 -0.96,0.064 -0.448,0.032 -0.672,0.032 l -0.032,-0.128 0.032,-0.448 0.128,-0.128 q 0.512,0 0.992,-0.032 0.512,-0.064 0.768,-0.32 0.256,-0.224 0.32,-0.576 0.096,-0.352 0.16,-0.992 0.032,-0.512 0.064,-1.024 0.032,-0.544 0.032,-1.696 v -3.936 q 0,-0.672 0,-1.12 0,-0.48 -0.032,-0.832 0,-0.352 -0.032,-0.64 0,-0.288 -0.032,-0.608 -0.064,-0.352 -0.192,-0.608 -0.128,-0.288 -0.224,-0.384 -0.32,-0.384 -0.8,-0.448 -0.48,-0.096 -0.992,-0.096 l -0.128,-0.128 v -0.448 l 0.128,-0.096 h 0.576 q 0.544,0 1.376,0 0.832,-0.032 1.44,-0.128 l 1.12,-0.16 0.192,0.288 q -0.16,0.416 -0.224,1.152 -0.064,0.704 -0.096,1.376 z"
         style="font-style:normal;font-variant:normal;font-weight:normal;font-stretch:normal;font-size:32px;font-family:Quattrocento;-inkscape-font-specification:'Quattrocento, Normal';font-variant-ligatures:normal;font-variant-caps:normal;font-variant-numeric:normal;font-feature-settings:normal;text-align:center;writing-mode:lr-tb;text-anchor:middle"
         id="path926" />
    </g>
    <g
       aria-label="A"
       style="font-style:normal;font-weight:normal;font-size:40px;line-height:1.25;font-family:sans-serif;letter-spacing:0px;word-spacing:0px;fill:#000000;fill-opacity:1;stroke:none"
       id="text4179">
      <path
         d="m 356.81201,99.237818 6.12267,16.949332 q 0.37333,1.12 0.63466,1.86667 0.29867,0.74666 0.48534,1.26933 0.224,0.52267 0.37333,0.896 0.14933,0.336 0.26133,0.59733 0.41067,0.93334 0.82134,1.456 0.448,0.48534 0.896,0.74667 0.448,0.224 0.896,0.26133 0.48533,0.0373 0.97066,0.0373 l 0.18667,0.14933 0.112,0.672 -0.0747,0.14933 q -0.26133,0 -0.784,-0.0373 -0.52266,-0.0373 -1.08266,-0.0747 -0.56,-0.0373 -1.08267,-0.0747 -0.48533,-0.0373 -0.74667,-0.0373 h -1.232 q -0.26133,0 -0.85866,0.0373 -0.59734,0.0373 -1.26934,0.0747 -0.63466,0.0373 -1.232,0.0747 -0.59733,0.0373 -0.85866,0.0373 l -0.0747,-0.14933 0.112,-0.672 0.14933,-0.14933 q 1.08267,0 1.68,-0.224 0.59734,-0.26134 0.59734,-1.344 0,-0.85867 -0.59734,-2.38934 -0.56,-1.568 -1.41866,-3.92 l -0.63467,-1.792 h -8.36267 l -0.63466,1.792 q -0.85867,2.352 -1.456,3.92 -0.56,1.53067 -0.56,2.38934 0,1.08266 0.59733,1.344 0.59733,0.224 1.68,0.224 l 0.18667,0.14933 0.112,0.672 -0.0747,0.14933 q -0.26133,0 -0.82133,-0.0373 -0.56,-0.0373 -1.19467,-0.0747 -0.59733,-0.0373 -1.15733,-0.0747 -0.56,-0.0373 -0.82134,-0.0373 h -0.70933 q -0.26133,0 -0.784,0.0373 -0.52267,0.0373 -1.08267,0.0747 -0.56,0.0373 -1.08266,0.0747 -0.48534,0.0373 -0.74667,0.0373 l -0.0373,-0.14933 0.0747,-0.672 0.18667,-0.14933 q 0.48533,0 0.93333,-0.0373 0.448,-0.0373 0.896,-0.26133 0.448,-0.26133 0.85867,-0.74667 0.448,-0.52266 0.896,-1.456 0.112,-0.18666 0.18667,-0.41066 0.112,-0.26134 0.29866,-0.74667 0.224,-0.48533 0.52267,-1.26933 0.336,-0.82134 0.82133,-2.09067 0.52267,-1.30667 1.232,-3.17333 0.74667,-1.86667 1.792,-4.51734 0.48534,-1.30666 1.008,-2.576 0.52267,-1.30666 0.97067,-2.42666 0.448,-1.12 0.784,-1.97867 0.37333,-0.85867 0.52267,-1.26933 l 2.20266,-1.120002 z m -5.376,12.805332 h 7.13067 l -3.54667,-9.59467 z"
         style="font-style:normal;font-variant:normal;font-weight:normal;font-stretch:normal;font-size:37.33333206px;font-family:Quattrocento;-inkscape-font-specification:'Quattrocento, Normal';font-variant-ligatures:normal;font-variant-caps:normal;font-variant-numeric:normal;font-feature-settings:normal;text-align:start;writing-mode:lr-tb;text-anchor:start"
         id="path929" />
    </g>
    <rect
       id="rect4249"
       width="29.405384"
       height="24.795549"
       x="340.94849"
       y="127.61227"
       style="fill:#f0f1eb;fill-opacity:1;stroke:none;stroke-width:0;stroke-miterlimit:4;stroke-dasharray:none;stroke-opacity:1" />
    <g
       aria-label="+"
       style="font-style:normal;font-weight:normal;font-size:40px;line-height:1.25;font-family:sans-serif;letter-spacing:0px;word-spacing:0px;fill:#000000;fill-opacity:1;stroke:none"
       id="text4229">
      <path
         d="m 365.40903,141.10379 h -8.51563 v 8.51563 h -2.59375 v -8.51563 h -8.51562 v -2.5 h 8.51562 v -8.51562 h 2.59375 v 8.51562 h 8.51563 z"
         style="font-style:normal;font-variant:normal;font-weight:normal;font-stretch:normal;font-size:32px;font-family:sans-serif;-inkscape-font-specification:'sans-serif, Normal';font-variant-ligatures:normal;font-variant-caps:normal;font-variant-numeric:normal;font-feature-settings:normal;text-align:start;writing-mode:lr-tb;text-anchor:start"
         id="path2691" />
    </g>
  </g>
</svg>
