<?xml version="1.0" encoding="UTF-8" standalone="no"?>
<svg
   width="778.75848"
   height="494.51505"
   version="1.1"
   id="svg5560"
   sodipodi:docname="kornhauser_2.svg"
   inkscape:version="1.3 (0e150ed6c4, 2023-07-21)"
   xmlns:inkscape="http://www.inkscape.org/namespaces/inkscape"
   xmlns:sodipodi="http://sodipodi.sourceforge.net/DTD/sodipodi-0.dtd"
   xmlns="http://www.w3.org/2000/svg"
   xmlns:svg="http://www.w3.org/2000/svg"
   xmlns:rdf="http://www.w3.org/1999/02/22-rdf-syntax-ns#"
   xmlns:cc="http://creativecommons.org/ns#"
   xmlns:dc="http://purl.org/dc/elements/1.1/">
  <metadata
     id="metadata5566">
    <rdf:RDF>
      <cc:Work
         rdf:about="">
        <dc:format>image/svg+xml</dc:format>
        <dc:type
           rdf:resource="http://purl.org/dc/dcmitype/StillImage" />
        <dc:title />
      </cc:Work>
    </rdf:RDF>
  </metadata>
  <defs
     id="defs5564">
    <inkscape:path-effect
       effect="bspline"
       id="path-effect1825"
       is_visible="true"
       weight="33.333333"
       steps="2"
       helper_size="0"
       apply_no_weight="true"
       apply_with_weight="true"
       only_selected="false" />
    <marker
       inkscape:stockid="Arrow2Lstart"
       orient="auto"
       refY="0"
       refX="0"
       id="Arrow2Lstart"
       style="overflow:visible"
       inkscape:isstock="true">
      <path
         id="path4580"
         style="fill:#000000;fill-opacity:1;fill-rule:evenodd;stroke:#000000;stroke-width:0.625;stroke-linejoin:round;stroke-opacity:1"
         d="M 8.7185878,4.0337352 -2.2072895,0.01601326 8.7185884,-4.0017078 c -1.7454984,2.3720609 -1.7354408,5.6174519 -6e-7,8.035443 z"
         transform="matrix(1.1,0,0,1.1,1.1,0)"
         inkscape:connector-curvature="0" />
    </marker>
    <marker
       inkscape:stockid="Arrow2Lend"
       orient="auto"
       refY="0"
       refX="0"
       id="marker4512"
       style="overflow:visible"
       inkscape:isstock="true">
      <path
         inkscape:connector-curvature="0"
         id="path4510"
         style="fill:#000000;fill-opacity:1;fill-rule:evenodd;stroke:#000000;stroke-width:0.625;stroke-linejoin:round;stroke-opacity:1"
         d="M 8.7185878,4.0337352 -2.2072895,0.01601326 8.7185884,-4.0017078 c -1.7454984,2.3720609 -1.7354408,5.6174519 -6e-7,8.035443 z"
         transform="matrix(-1.1,0,0,-1.1,-1.1,0)" />
    </marker>
    <inkscape:path-effect
       effect="bspline"
       id="path-effect4496"
       is_visible="true"
       weight="33.333333"
       steps="2"
       helper_size="0"
       apply_no_weight="true"
       apply_with_weight="true"
       only_selected="false" />
    <marker
       inkscape:isstock="true"
       style="overflow:visible"
       id="marker6123"
       refX="0"
       refY="0"
       orient="auto"
       inkscape:stockid="Arrow2Lend">
      <path
         transform="matrix(-1.1,0,0,-1.1,-1.1,0)"
         d="M 8.7185878,4.0337352 -2.2072895,0.01601326 8.7185884,-4.0017078 c -1.7454984,2.3720609 -1.7354408,5.6174519 -6e-7,8.035443 z"
         style="fill:#000000;fill-opacity:1;fill-rule:evenodd;stroke:#000000;stroke-width:0.625;stroke-linejoin:round;stroke-opacity:1"
         id="path6121"
         inkscape:connector-curvature="0" />
    </marker>
    <marker
       inkscape:isstock="true"
       style="overflow:visible"
       id="marker6123-9"
       refX="0"
       refY="0"
       orient="auto"
       inkscape:stockid="Arrow2Lend">
      <path
         transform="matrix(-1.1,0,0,-1.1,-1.1,0)"
         d="M 8.7185878,4.0337352 -2.2072895,0.01601326 8.7185884,-4.0017078 c -1.7454984,2.3720609 -1.7354408,5.6174519 -6e-7,8.035443 z"
         style="fill:#000000;fill-opacity:1;fill-rule:evenodd;stroke:#000000;stroke-width:0.625;stroke-linejoin:round;stroke-opacity:1"
         id="path6121-8"
         inkscape:connector-curvature="0" />
    </marker>
    <marker
       inkscape:isstock="true"
       style="overflow:visible"
       id="marker6089-7"
       refX="0"
       refY="0"
       orient="auto"
       inkscape:stockid="Arrow2Lend">
      <path
         transform="matrix(-1.1,0,0,-1.1,-1.1,0)"
         d="M 8.7185878,4.0337352 -2.2072895,0.01601326 8.7185884,-4.0017078 c -1.7454984,2.3720609 -1.7354408,5.6174519 -6e-7,8.035443 z"
         style="fill:#000000;fill-opacity:1;fill-rule:evenodd;stroke:#000000;stroke-width:0.625;stroke-linejoin:round;stroke-opacity:1"
         id="path6087-2"
         inkscape:connector-curvature="0" />
    </marker>
    <marker
       inkscape:isstock="true"
       style="overflow:visible"
       id="marker6123-9-3"
       refX="0"
       refY="0"
       orient="auto"
       inkscape:stockid="Arrow2Lend">
      <path
         transform="matrix(-1.1,0,0,-1.1,-1.1,0)"
         d="M 8.7185878,4.0337352 -2.2072895,0.01601326 8.7185884,-4.0017078 c -1.7454984,2.3720609 -1.7354408,5.6174519 -6e-7,8.035443 z"
         style="fill:#000000;fill-opacity:1;fill-rule:evenodd;stroke:#000000;stroke-width:0.625;stroke-linejoin:round;stroke-opacity:1"
         id="path6121-8-8"
         inkscape:connector-curvature="0" />
    </marker>
    <marker
       inkscape:isstock="true"
       style="overflow:visible"
       id="marker6089-7-0"
       refX="0"
       refY="0"
       orient="auto"
       inkscape:stockid="Arrow2Lend">
      <path
         transform="matrix(-1.1,0,0,-1.1,-1.1,0)"
         d="M 8.7185878,4.0337352 -2.2072895,0.01601326 8.7185884,-4.0017078 c -1.7454984,2.3720609 -1.7354408,5.6174519 -6e-7,8.035443 z"
         style="fill:#000000;fill-opacity:1;fill-rule:evenodd;stroke:#000000;stroke-width:0.625;stroke-linejoin:round;stroke-opacity:1"
         id="path6087-2-4"
         inkscape:connector-curvature="0" />
    </marker>
    <marker
       inkscape:isstock="true"
       style="overflow:visible"
       id="marker6089-7-0-3"
       refX="0"
       refY="0"
       orient="auto"
       inkscape:stockid="Arrow2Lend">
      <path
         transform="matrix(-1.1,0,0,-1.1,-1.1,0)"
         d="M 8.7185878,4.0337352 -2.2072895,0.01601326 8.7185884,-4.0017078 c -1.7454984,2.3720609 -1.7354408,5.6174519 -6e-7,8.035443 z"
         style="fill:#000000;fill-opacity:1;fill-rule:evenodd;stroke:#000000;stroke-width:0.625;stroke-linejoin:round;stroke-opacity:1"
         id="path6087-2-4-2"
         inkscape:connector-curvature="0" />
    </marker>
    <marker
       inkscape:isstock="true"
       style="overflow:visible"
       id="marker6089-7-2"
       refX="0"
       refY="0"
       orient="auto"
       inkscape:stockid="Arrow2Lend">
      <path
         transform="matrix(-1.1,0,0,-1.1,-1.1,0)"
         d="M 8.7185878,4.0337352 -2.2072895,0.01601326 8.7185884,-4.0017078 c -1.7454984,2.3720609 -1.7354408,5.6174519 -6e-7,8.035443 z"
         style="fill:#000000;fill-opacity:1;fill-rule:evenodd;stroke:#000000;stroke-width:0.625;stroke-linejoin:round;stroke-opacity:1"
         id="path6087-2-6"
         inkscape:connector-curvature="0" />
    </marker>
    <marker
       inkscape:isstock="true"
       style="overflow:visible"
       id="marker6123-9-3-9"
       refX="0"
       refY="0"
       orient="auto"
       inkscape:stockid="Arrow2Lend">
      <path
         transform="matrix(-1.1,0,0,-1.1,-1.1,0)"
         d="M 8.7185878,4.0337352 -2.2072895,0.01601326 8.7185884,-4.0017078 c -1.7454984,2.3720609 -1.7354408,5.6174519 -6e-7,8.035443 z"
         style="fill:#000000;fill-opacity:1;fill-rule:evenodd;stroke:#000000;stroke-width:0.625;stroke-linejoin:round;stroke-opacity:1"
         id="path6121-8-8-8"
         inkscape:connector-curvature="0" />
    </marker>
    <marker
       inkscape:isstock="true"
       style="overflow:visible"
       id="marker6123-9-3-9-4"
       refX="0"
       refY="0"
       orient="auto"
       inkscape:stockid="Arrow2Lend">
      <path
         transform="matrix(-1.1,0,0,-1.1,-1.1,0)"
         d="M 8.7185878,4.0337352 -2.2072895,0.01601326 8.7185884,-4.0017078 c -1.7454984,2.3720609 -1.7354408,5.6174519 -6e-7,8.035443 z"
         style="fill:#000000;fill-opacity:1;fill-rule:evenodd;stroke:#000000;stroke-width:0.625;stroke-linejoin:round;stroke-opacity:1"
         id="path6121-8-8-8-7"
         inkscape:connector-curvature="0" />
    </marker>
    <marker
       inkscape:isstock="true"
       style="overflow:visible"
       id="marker6123-9-3-9-4-8"
       refX="0"
       refY="0"
       orient="auto"
       inkscape:stockid="Arrow2Lend">
      <path
         transform="matrix(-1.1,0,0,-1.1,-1.1,0)"
         d="M 8.7185878,4.0337352 -2.2072895,0.01601326 8.7185884,-4.0017078 c -1.7454984,2.3720609 -1.7354408,5.6174519 -6e-7,8.035443 z"
         style="fill:#000000;fill-opacity:1;fill-rule:evenodd;stroke:#000000;stroke-width:0.625;stroke-linejoin:round;stroke-opacity:1"
         id="path6121-8-8-8-7-7"
         inkscape:connector-curvature="0" />
    </marker>
    <marker
       inkscape:isstock="true"
       style="overflow:visible"
       id="marker6123-9-3-9-2"
       refX="0"
       refY="0"
       orient="auto"
       inkscape:stockid="Arrow2Lend">
      <path
         transform="matrix(-1.1,0,0,-1.1,-1.1,0)"
         d="M 8.7185878,4.0337352 -2.2072895,0.01601326 8.7185884,-4.0017078 c -1.7454984,2.3720609 -1.7354408,5.6174519 -6e-7,8.035443 z"
         style="fill:#000000;fill-opacity:1;fill-rule:evenodd;stroke:#000000;stroke-width:0.625;stroke-linejoin:round;stroke-opacity:1"
         id="path6121-8-8-8-4"
         inkscape:connector-curvature="0" />
    </marker>
    <marker
       inkscape:isstock="true"
       style="overflow:visible"
       id="marker6123-9-3-9-26"
       refX="0"
       refY="0"
       orient="auto"
       inkscape:stockid="Arrow2Lend">
      <path
         transform="matrix(-1.1,0,0,-1.1,-1.1,0)"
         d="M 8.7185878,4.0337352 -2.2072895,0.01601326 8.7185884,-4.0017078 c -1.7454984,2.3720609 -1.7354408,5.6174519 -6e-7,8.035443 z"
         style="fill:#000000;fill-opacity:1;fill-rule:evenodd;stroke:#000000;stroke-width:0.625;stroke-linejoin:round;stroke-opacity:1"
         id="path6121-8-8-8-5"
         inkscape:connector-curvature="0" />
    </marker>
    <marker
       inkscape:isstock="true"
       style="overflow:visible"
       id="marker6123-9-3-9-8"
       refX="0"
       refY="0"
       orient="auto"
       inkscape:stockid="Arrow2Lend">
      <path
         transform="matrix(-1.1,0,0,-1.1,-1.1,0)"
         d="M 8.7185878,4.0337352 -2.2072895,0.01601326 8.7185884,-4.0017078 c -1.7454984,2.3720609 -1.7354408,5.6174519 -6e-7,8.035443 z"
         style="fill:#000000;fill-opacity:1;fill-rule:evenodd;stroke:#000000;stroke-width:0.625;stroke-linejoin:round;stroke-opacity:1"
         id="path6121-8-8-8-45"
         inkscape:connector-curvature="0" />
    </marker>
    <marker
       inkscape:isstock="true"
       style="overflow:visible"
       id="marker6123-9-3-9-4-7"
       refX="0"
       refY="0"
       orient="auto"
       inkscape:stockid="Arrow2Lend">
      <path
         transform="matrix(-1.1,0,0,-1.1,-1.1,0)"
         d="M 8.7185878,4.0337352 -2.2072895,0.01601326 8.7185884,-4.0017078 c -1.7454984,2.3720609 -1.7354408,5.6174519 -6e-7,8.035443 z"
         style="fill:#000000;fill-opacity:1;fill-rule:evenodd;stroke:#000000;stroke-width:0.625;stroke-linejoin:round;stroke-opacity:1"
         id="path6121-8-8-8-7-3"
         inkscape:connector-curvature="0" />
    </marker>
    <marker
       inkscape:isstock="true"
       style="overflow:visible"
       id="marker6123-9-3-9-4-1"
       refX="0"
       refY="0"
       orient="auto"
       inkscape:stockid="Arrow2Lend">
      <path
         transform="matrix(-1.1,0,0,-1.1,-1.1,0)"
         d="M 8.7185878,4.0337352 -2.2072895,0.01601326 8.7185884,-4.0017078 c -1.7454984,2.3720609 -1.7354408,5.6174519 -6e-7,8.035443 z"
         style="fill:#000000;fill-opacity:1;fill-rule:evenodd;stroke:#000000;stroke-width:0.625;stroke-linejoin:round;stroke-opacity:1"
         id="path6121-8-8-8-7-75"
         inkscape:connector-curvature="0" />
    </marker>
    <marker
       inkscape:isstock="true"
       style="overflow:visible"
       id="marker6123-9-3-9-46"
       refX="0"
       refY="0"
       orient="auto"
       inkscape:stockid="Arrow2Lend">
      <path
         transform="matrix(-1.1,0,0,-1.1,-1.1,0)"
         d="M 8.7185878,4.0337352 -2.2072895,0.01601326 8.7185884,-4.0017078 c -1.7454984,2.3720609 -1.7354408,5.6174519 -6e-7,8.035443 z"
         style="fill:#000000;fill-opacity:1;fill-rule:evenodd;stroke:#000000;stroke-width:0.625;stroke-linejoin:round;stroke-opacity:1"
         id="path6121-8-8-8-9"
         inkscape:connector-curvature="0" />
    </marker>
    <marker
       inkscape:isstock="true"
       style="overflow:visible"
       id="marker6123-9-3-9-4-4"
       refX="0"
       refY="0"
       orient="auto"
       inkscape:stockid="Arrow2Lend">
      <path
         transform="matrix(-1.1,0,0,-1.1,-1.1,0)"
         d="M 8.7185878,4.0337352 -2.2072895,0.01601326 8.7185884,-4.0017078 c -1.7454984,2.3720609 -1.7354408,5.6174519 -6e-7,8.035443 z"
         style="fill:#000000;fill-opacity:1;fill-rule:evenodd;stroke:#000000;stroke-width:0.625;stroke-linejoin:round;stroke-opacity:1"
         id="path6121-8-8-8-7-6"
         inkscape:connector-curvature="0" />
    </marker>
    <marker
       inkscape:isstock="true"
       style="overflow:visible"
       id="marker6123-9-3-9-9"
       refX="0"
       refY="0"
       orient="auto"
       inkscape:stockid="Arrow2Lend">
      <path
         transform="matrix(-1.1,0,0,-1.1,-1.1,0)"
         d="M 8.7185878,4.0337352 -2.2072895,0.01601326 8.7185884,-4.0017078 c -1.7454984,2.3720609 -1.7354408,5.6174519 -6e-7,8.035443 z"
         style="fill:#000000;fill-opacity:1;fill-rule:evenodd;stroke:#000000;stroke-width:0.625;stroke-linejoin:round;stroke-opacity:1"
         id="path6121-8-8-8-3"
         inkscape:connector-curvature="0" />
    </marker>
    <marker
       inkscape:isstock="true"
       style="overflow:visible"
       id="marker6123-9-3-9-6"
       refX="0"
       refY="0"
       orient="auto"
       inkscape:stockid="Arrow2Lend">
      <path
         transform="matrix(-1.1,0,0,-1.1,-1.1,0)"
         d="M 8.7185878,4.0337352 -2.2072895,0.01601326 8.7185884,-4.0017078 c -1.7454984,2.3720609 -1.7354408,5.6174519 -6e-7,8.035443 z"
         style="fill:#000000;fill-opacity:1;fill-rule:evenodd;stroke:#000000;stroke-width:0.625;stroke-linejoin:round;stroke-opacity:1"
         id="path6121-8-8-8-74"
         inkscape:connector-curvature="0" />
    </marker>
    <marker
       inkscape:isstock="true"
       style="overflow:visible"
       id="marker6123-9-3-9-3"
       refX="0"
       refY="0"
       orient="auto"
       inkscape:stockid="Arrow2Lend">
      <path
         transform="matrix(-1.1,0,0,-1.1,-1.1,0)"
         d="M 8.7185878,4.0337352 -2.2072895,0.01601326 8.7185884,-4.0017078 c -1.7454984,2.3720609 -1.7354408,5.6174519 -6e-7,8.035443 z"
         style="fill:#000000;fill-opacity:1;fill-rule:evenodd;stroke:#000000;stroke-width:0.625;stroke-linejoin:round;stroke-opacity:1"
         id="path6121-8-8-8-49"
         inkscape:connector-curvature="0" />
    </marker>
    <marker
       inkscape:isstock="true"
       style="overflow:visible"
       id="marker6123-9-3-9-3-3"
       refX="0"
       refY="0"
       orient="auto"
       inkscape:stockid="Arrow2Lend">
      <path
         transform="matrix(-1.1,0,0,-1.1,-1.1,0)"
         d="M 8.7185878,4.0337352 -2.2072895,0.01601326 8.7185884,-4.0017078 c -1.7454984,2.3720609 -1.7354408,5.6174519 -6e-7,8.035443 z"
         style="fill:#000000;fill-opacity:1;fill-rule:evenodd;stroke:#000000;stroke-width:0.625;stroke-linejoin:round;stroke-opacity:1"
         id="path6121-8-8-8-49-2"
         inkscape:connector-curvature="0" />
    </marker>
    <marker
       inkscape:isstock="true"
       style="overflow:visible"
       id="marker6123-9-3-9-4-80"
       refX="0"
       refY="0"
       orient="auto"
       inkscape:stockid="Arrow2Lend">
      <path
         transform="matrix(-1.1,0,0,-1.1,-1.1,0)"
         d="M 8.7185878,4.0337352 -2.2072895,0.01601326 8.7185884,-4.0017078 c -1.7454984,2.3720609 -1.7354408,5.6174519 -6e-7,8.035443 z"
         style="fill:#000000;fill-opacity:1;fill-rule:evenodd;stroke:#000000;stroke-width:0.625;stroke-linejoin:round;stroke-opacity:1"
         id="path6121-8-8-8-7-1"
         inkscape:connector-curvature="0" />
    </marker>
    <marker
       inkscape:isstock="true"
       style="overflow:visible"
       id="marker6123-9-3-9-6-9"
       refX="0"
       refY="0"
       orient="auto"
       inkscape:stockid="Arrow2Lend">
      <path
         transform="matrix(-1.1,0,0,-1.1,-1.1,0)"
         d="M 8.7185878,4.0337352 -2.2072895,0.01601326 8.7185884,-4.0017078 c -1.7454984,2.3720609 -1.7354408,5.6174519 -6e-7,8.035443 z"
         style="fill:#000000;fill-opacity:1;fill-rule:evenodd;stroke:#000000;stroke-width:0.625;stroke-linejoin:round;stroke-opacity:1"
         id="path6121-8-8-8-74-3"
         inkscape:connector-curvature="0" />
    </marker>
    <marker
       inkscape:isstock="true"
       style="overflow:visible"
       id="marker6123-9-3-9-4-3"
       refX="0"
       refY="0"
       orient="auto"
       inkscape:stockid="Arrow2Lend">
      <path
         transform="matrix(-1.1,0,0,-1.1,-1.1,0)"
         d="M 8.7185878,4.0337352 -2.2072895,0.01601326 8.7185884,-4.0017078 c -1.7454984,2.3720609 -1.7354408,5.6174519 -6e-7,8.035443 z"
         style="fill:#000000;fill-opacity:1;fill-rule:evenodd;stroke:#000000;stroke-width:0.625;stroke-linejoin:round;stroke-opacity:1"
         id="path6121-8-8-8-7-36"
         inkscape:connector-curvature="0" />
    </marker>
    <marker
       inkscape:isstock="true"
       style="overflow:visible"
       id="marker6123-9-3-9-4-2"
       refX="0"
       refY="0"
       orient="auto"
       inkscape:stockid="Arrow2Lend">
      <path
         transform="matrix(-1.1,0,0,-1.1,-1.1,0)"
         d="M 8.7185878,4.0337352 -2.2072895,0.01601326 8.7185884,-4.0017078 c -1.7454984,2.3720609 -1.7354408,5.6174519 -6e-7,8.035443 z"
         style="fill:#000000;fill-opacity:1;fill-rule:evenodd;stroke:#000000;stroke-width:0.625;stroke-linejoin:round;stroke-opacity:1"
         id="path6121-8-8-8-7-5"
         inkscape:connector-curvature="0" />
    </marker>
    <marker
       inkscape:isstock="true"
       style="overflow:visible"
       id="marker6123-9-3-9-3-0"
       refX="0"
       refY="0"
       orient="auto"
       inkscape:stockid="Arrow2Lend">
      <path
         transform="matrix(-1.1,0,0,-1.1,-1.1,0)"
         d="M 8.7185878,4.0337352 -2.2072895,0.01601326 8.7185884,-4.0017078 c -1.7454984,2.3720609 -1.7354408,5.6174519 -6e-7,8.035443 z"
         style="fill:#000000;fill-opacity:1;fill-rule:evenodd;stroke:#000000;stroke-width:0.625;stroke-linejoin:round;stroke-opacity:1"
         id="path6121-8-8-8-49-4"
         inkscape:connector-curvature="0" />
    </marker>
    <marker
       inkscape:isstock="true"
       style="overflow:visible"
       id="marker6123-9-3-9-4-6"
       refX="0"
       refY="0"
       orient="auto"
       inkscape:stockid="Arrow2Lend">
      <path
         transform="matrix(-1.1,0,0,-1.1,-1.1,0)"
         d="M 8.7185878,4.0337352 -2.2072895,0.01601326 8.7185884,-4.0017078 c -1.7454984,2.3720609 -1.7354408,5.6174519 -6e-7,8.035443 z"
         style="fill:#000000;fill-opacity:1;fill-rule:evenodd;stroke:#000000;stroke-width:0.625;stroke-linejoin:round;stroke-opacity:1"
         id="path6121-8-8-8-7-65"
         inkscape:connector-curvature="0" />
    </marker>
    <marker
       inkscape:isstock="true"
       style="overflow:visible"
       id="marker6123-9-3-9-4-6-0"
       refX="0"
       refY="0"
       orient="auto"
       inkscape:stockid="Arrow2Lend">
      <path
         transform="matrix(-1.1,0,0,-1.1,-1.1,0)"
         d="M 8.7185878,4.0337352 -2.2072895,0.01601326 8.7185884,-4.0017078 c -1.7454984,2.3720609 -1.7354408,5.6174519 -6e-7,8.035443 z"
         style="fill:#000000;fill-opacity:1;fill-rule:evenodd;stroke:#000000;stroke-width:0.625;stroke-linejoin:round;stroke-opacity:1"
         id="path6121-8-8-8-7-65-3"
         inkscape:connector-curvature="0" />
    </marker>
    <marker
       inkscape:isstock="true"
       style="overflow:visible"
       id="marker6123-9-3-9-3-0-6"
       refX="0"
       refY="0"
       orient="auto"
       inkscape:stockid="Arrow2Lend">
      <path
         transform="matrix(-1.1,0,0,-1.1,-1.1,0)"
         d="M 8.7185878,4.0337352 -2.2072895,0.01601326 8.7185884,-4.0017078 c -1.7454984,2.3720609 -1.7354408,5.6174519 -6e-7,8.035443 z"
         style="fill:#000000;fill-opacity:1;fill-rule:evenodd;stroke:#000000;stroke-width:0.625;stroke-linejoin:round;stroke-opacity:1"
         id="path6121-8-8-8-49-4-0"
         inkscape:connector-curvature="0" />
    </marker>
    <marker
       inkscape:isstock="true"
       style="overflow:visible"
       id="marker6123-9-3-9-3-0-6-9"
       refX="0"
       refY="0"
       orient="auto"
       inkscape:stockid="Arrow2Lend">
      <path
         transform="matrix(-1.1,0,0,-1.1,-1.1,0)"
         d="M 8.7185878,4.0337352 -2.2072895,0.01601326 8.7185884,-4.0017078 c -1.7454984,2.3720609 -1.7354408,5.6174519 -6e-7,8.035443 z"
         style="fill:#000000;fill-opacity:1;fill-rule:evenodd;stroke:#000000;stroke-width:0.625;stroke-linejoin:round;stroke-opacity:1"
         id="path6121-8-8-8-49-4-0-0"
         inkscape:connector-curvature="0" />
    </marker>
    <marker
       inkscape:isstock="true"
       style="overflow:visible"
       id="marker6123-9-3-9-3-0-6-9-5"
       refX="0"
       refY="0"
       orient="auto"
       inkscape:stockid="Arrow2Lend">
      <path
         transform="matrix(-1.1,0,0,-1.1,-1.1,0)"
         d="M 8.7185878,4.0337352 -2.2072895,0.01601326 8.7185884,-4.0017078 c -1.7454984,2.3720609 -1.7354408,5.6174519 -6e-7,8.035443 z"
         style="fill:#000000;fill-opacity:1;fill-rule:evenodd;stroke:#000000;stroke-width:0.625;stroke-linejoin:round;stroke-opacity:1"
         id="path6121-8-8-8-49-4-0-0-8"
         inkscape:connector-curvature="0" />
    </marker>
    <marker
       inkscape:isstock="true"
       style="overflow:visible"
       id="marker6123-9-3-9-4-6-0-3"
       refX="0"
       refY="0"
       orient="auto"
       inkscape:stockid="Arrow2Lend">
      <path
         transform="matrix(-1.1,0,0,-1.1,-1.1,0)"
         d="M 8.7185878,4.0337352 -2.2072895,0.01601326 8.7185884,-4.0017078 c -1.7454984,2.3720609 -1.7354408,5.6174519 -6e-7,8.035443 z"
         style="fill:#000000;fill-opacity:1;fill-rule:evenodd;stroke:#000000;stroke-width:0.625;stroke-linejoin:round;stroke-opacity:1"
         id="path6121-8-8-8-7-65-3-7"
         inkscape:connector-curvature="0" />
    </marker>
    <marker
       inkscape:isstock="true"
       style="overflow:visible"
       id="marker6123-9-3-9-4-6-0-9"
       refX="0"
       refY="0"
       orient="auto"
       inkscape:stockid="Arrow2Lend">
      <path
         transform="matrix(-1.1,0,0,-1.1,-1.1,0)"
         d="M 8.7185878,4.0337352 -2.2072895,0.01601326 8.7185884,-4.0017078 c -1.7454984,2.3720609 -1.7354408,5.6174519 -6e-7,8.035443 z"
         style="fill:#000000;fill-opacity:1;fill-rule:evenodd;stroke:#000000;stroke-width:0.625;stroke-linejoin:round;stroke-opacity:1"
         id="path6121-8-8-8-7-65-3-6"
         inkscape:connector-curvature="0" />
    </marker>
    <marker
       inkscape:isstock="true"
       style="overflow:visible"
       id="marker6123-9-3-9-4-6-0-9-2"
       refX="0"
       refY="0"
       orient="auto"
       inkscape:stockid="Arrow2Lend">
      <path
         transform="matrix(-1.1,0,0,-1.1,-1.1,0)"
         d="M 8.7185878,4.0337352 -2.2072895,0.01601326 8.7185884,-4.0017078 c -1.7454984,2.3720609 -1.7354408,5.6174519 -6e-7,8.035443 z"
         style="fill:#000000;fill-opacity:1;fill-rule:evenodd;stroke:#000000;stroke-width:0.625;stroke-linejoin:round;stroke-opacity:1"
         id="path6121-8-8-8-7-65-3-6-1"
         inkscape:connector-curvature="0" />
    </marker>
    <marker
       inkscape:isstock="true"
       style="overflow:visible"
       id="marker6123-9-3-9-4-6-08"
       refX="0"
       refY="0"
       orient="auto"
       inkscape:stockid="Arrow2Lend">
      <path
         transform="matrix(-1.1,0,0,-1.1,-1.1,0)"
         d="M 8.7185878,4.0337352 -2.2072895,0.01601326 8.7185884,-4.0017078 c -1.7454984,2.3720609 -1.7354408,5.6174519 -6e-7,8.035443 z"
         style="fill:#000000;fill-opacity:1;fill-rule:evenodd;stroke:#000000;stroke-width:0.625;stroke-linejoin:round;stroke-opacity:1"
         id="path6121-8-8-8-7-65-1"
         inkscape:connector-curvature="0" />
    </marker>
  </defs>
  <sodipodi:namedview
     pagecolor="#ffffff"
     bordercolor="#666666"
     borderopacity="1"
     objecttolerance="10"
     gridtolerance="10"
     guidetolerance="10"
     inkscape:pageopacity="0"
     inkscape:pageshadow="2"
     inkscape:window-width="2560"
     inkscape:window-height="1377"
     id="namedview5562"
     showgrid="false"
     inkscape:zoom="0.97288135"
     inkscape:cx="637.79617"
     inkscape:cy="476.41986"
     inkscape:window-x="-8"
     inkscape:window-y="-8"
     inkscape:window-maximized="1"
     inkscape:current-layer="svg5560"
     showguides="false"
     inkscape:showpageshadow="2"
     inkscape:pagecheckerboard="0"
     inkscape:deskcolor="#d1d1d1" />
  <g
     id="g5079"
     transform="translate(542.133,1103.4293)" />
  <flowRoot
     xml:space="preserve"
     id="flowRoot3587"
     style="font-style:normal;font-weight:normal;font-size:18.6667px;line-height:1.25;font-family:sans-serif;letter-spacing:0px;word-spacing:0px;fill:#000000;fill-opacity:1;stroke:none"
     transform="translate(460.23185,892.80945)"><flowRegion
       id="flowRegion3589"><rect
         id="rect3591"
         width="71.951218"
         height="33.919861"
         x="49.337978"
         y="49.613239" /></flowRegion><flowPara
       id="flowPara3593" /></flowRoot>
  <path
     sodipodi:nodetypes="ccccc"
     id="path244-6-1-2-9-3-4"
     d="m 292.90264,123.31707 h 210.87979 v 93.69972 H 292.90264 Z"
     style="fill:#ffffff;stroke:#000000;stroke-width:2"
     inkscape:connector-curvature="0" />
  <g
     id="text4126-2-1-5-6-5-9-3-2"
     style="font-size:24px;line-height:1.25;font-family:Montserrat;-inkscape-font-specification:'Montserrat, @wght=700';font-variation-settings:'wght' 700;text-align:center;letter-spacing:0px;word-spacing:0px;text-anchor:middle"
     aria-label="Social&#10;Disorganization">
    <path
       d="m 368.29362,157.01493 q -2.016,0 -3.864,-0.528 -1.848,-0.552 -2.976,-1.416 l 1.32,-2.928 q 1.08,0.768 2.544,1.272 1.488,0.48 3,0.48 1.152,0 1.848,-0.216 0.72,-0.24 1.056,-0.648 0.336,-0.408 0.336,-0.936 0,-0.672 -0.528,-1.056 -0.528,-0.408 -1.392,-0.648 -0.864,-0.264 -1.92,-0.48 -1.032,-0.24 -2.088,-0.576 -1.032,-0.336 -1.896,-0.864 -0.864,-0.528 -1.416,-1.392 -0.528,-0.864 -0.528,-2.208 0,-1.44 0.768,-2.616 0.792,-1.2 2.352,-1.896 1.584,-0.72 3.96,-0.72 1.584,0 3.12,0.384 1.536,0.36 2.712,1.104 l -1.2,2.952 q -1.176,-0.672 -2.352,-0.984 -1.176,-0.336 -2.304,-0.336 -1.128,0 -1.848,0.264 -0.72,0.264 -1.032,0.696 -0.312,0.408 -0.312,0.96 0,0.648 0.528,1.056 0.528,0.384 1.392,0.624 0.864,0.24 1.896,0.48 1.056,0.24 2.088,0.552 1.056,0.312 1.92,0.84 0.864,0.528 1.392,1.392 0.552,0.864 0.552,2.184 0,1.416 -0.792,2.592 -0.792,1.176 -2.376,1.896 -1.56,0.72 -3.96,0.72 z m 15.67202,-0.096 q -2.064,0 -3.672,-0.864 -1.584,-0.864 -2.52,-2.352 -0.912,-1.512 -0.912,-3.432 0,-1.944 0.912,-3.432 0.936,-1.512 2.52,-2.352 1.608,-0.864 3.672,-0.864 2.04,0 3.648,0.864 1.608,0.84 2.52,2.328 0.912,1.488 0.912,3.456 0,1.92 -0.912,3.432 -0.912,1.488 -2.52,2.352 -1.608,0.864 -3.648,0.864 z m 0,-3.072 q 0.936,0 1.68,-0.432 0.744,-0.432 1.176,-1.224 0.432,-0.816 0.432,-1.92 0,-1.128 -0.432,-1.92 -0.432,-0.792 -1.176,-1.224 -0.744,-0.432 -1.68,-0.432 -0.936,0 -1.68,0.432 -0.744,0.432 -1.2,1.224 -0.432,0.792 -0.432,1.92 0,1.104 0.432,1.92 0.456,0.792 1.2,1.224 0.744,0.432 1.68,0.432 z m 15.81601,3.072 q -2.088,0 -3.72,-0.84 -1.632,-0.864 -2.568,-2.376 -0.912,-1.512 -0.912,-3.432 0,-1.944 0.912,-3.432 0.936,-1.512 2.568,-2.352 1.632,-0.864 3.72,-0.864 2.04,0 3.552,0.864 1.512,0.84 2.232,2.424 l -2.904,1.56 q -0.504,-0.912 -1.272,-1.344 -0.744,-0.432 -1.632,-0.432 -0.96,0 -1.728,0.432 -0.768,0.432 -1.224,1.224 -0.432,0.792 -0.432,1.92 0,1.128 0.432,1.92 0.456,0.792 1.224,1.224 0.768,0.432 1.728,0.432 0.888,0 1.632,-0.408 0.768,-0.432 1.272,-1.368 l 2.904,1.584 q -0.72,1.56 -2.232,2.424 -1.512,0.84 -3.552,0.84 z m 7.85711,-0.192 v -12.912 h 3.744 v 12.912 z m 1.872,-14.712 q -1.032,0 -1.68,-0.6 -0.648,-0.6 -0.648,-1.488 0,-0.888 0.648,-1.488 0.648,-0.6 1.68,-0.6 1.032,0 1.68,0.576 0.648,0.552 0.648,1.44 0,0.936 -0.648,1.56 -0.624,0.6 -1.68,0.6 z m 13.27201,14.712 v -2.52 l -0.24,-0.552 v -4.512 q 0,-1.2 -0.744,-1.872 -0.72,-0.672 -2.232,-0.672 -1.032,0 -2.04,0.336 -0.984,0.312 -1.68,0.864 l -1.344,-2.616 q 1.056,-0.744 2.544,-1.152 1.488,-0.408 3.024,-0.408 2.952,0 4.584,1.392 1.632,1.392 1.632,4.344 v 7.368 z m -3.936,0.192 q -1.512,0 -2.592,-0.504 -1.08,-0.528 -1.656,-1.416 -0.576,-0.888 -0.576,-1.992 0,-1.152 0.552,-2.016 0.576,-0.864 1.8,-1.344 1.224,-0.504 3.192,-0.504 h 3.432 v 2.184 h -3.024 q -1.32,0 -1.824,0.432 -0.48,0.432 -0.48,1.08 0,0.72 0.552,1.152 0.576,0.408 1.56,0.408 0.936,0 1.68,-0.432 0.744,-0.456 1.08,-1.32 l 0.576,1.728 q -0.408,1.248 -1.488,1.896 -1.08,0.648 -2.784,0.648 z m 10.82402,-0.192 v -17.808 h 3.744 v 17.808 z"
       id="path8" />
    <path
       d="m 300.5296,186.72693 v -16.8 h 7.632 q 2.736,0 4.824,1.056 2.088,1.032 3.264,2.904 1.176,1.872 1.176,4.44 0,2.544 -1.176,4.44 -1.176,1.872 -3.264,2.928 -2.088,1.032 -4.824,1.032 z m 3.888,-3.192 h 3.552 q 1.68,0 2.904,-0.624 1.248,-0.648 1.92,-1.824 0.696,-1.176 0.696,-2.76 0,-1.608 -0.696,-2.76 -0.672,-1.176 -1.92,-1.8 -1.224,-0.648 -2.904,-0.648 h -3.552 z m 15.672,3.192 v -12.912 h 3.744 v 12.912 z m 1.872,-14.712 q -1.032,0 -1.68,-0.6 -0.648,-0.6 -0.648,-1.488 0,-0.888 0.648,-1.488 0.648,-0.6 1.68,-0.6 1.032,0 1.68,0.576 0.648,0.552 0.648,1.44 0,0.936 -0.648,1.56 -0.624,0.6 -1.68,0.6 z m 9.69602,14.904 q -1.656,0 -3.192,-0.384 -1.512,-0.408 -2.4,-1.008 l 1.248,-2.688 q 0.888,0.552 2.088,0.912 1.224,0.336 2.4,0.336 1.296,0 1.824,-0.312 0.552,-0.312 0.552,-0.864 0,-0.456 -0.432,-0.672 -0.408,-0.24 -1.104,-0.36 -0.696,-0.12 -1.536,-0.24 -0.816,-0.12 -1.656,-0.312 -0.84,-0.216 -1.536,-0.624 -0.696,-0.408 -1.128,-1.104 -0.408,-0.696 -0.408,-1.8 0,-1.224 0.696,-2.16 0.72,-0.936 2.064,-1.464 1.344,-0.552 3.216,-0.552 1.32,0 2.688,0.288 1.368,0.288 2.28,0.84 l -1.248,2.664 q -0.936,-0.552 -1.896,-0.744 -0.936,-0.216 -1.824,-0.216 -1.248,0 -1.824,0.336 -0.576,0.336 -0.576,0.864 0,0.48 0.408,0.72 0.432,0.24 1.128,0.384 0.696,0.144 1.512,0.264 0.84,0.096 1.68,0.312 0.84,0.216 1.512,0.624 0.696,0.384 1.128,1.08 0.432,0.672 0.432,1.776 0,1.2 -0.72,2.136 -0.72,0.912 -2.088,1.44 -1.344,0.528 -3.288,0.528 z m 14.544,0 q -2.064,0 -3.672,-0.864 -1.584,-0.864 -2.52,-2.352 -0.912,-1.512 -0.912,-3.432 0,-1.944 0.912,-3.432 0.936,-1.512 2.52,-2.352 1.608,-0.864 3.672,-0.864 2.04,0 3.648,0.864 1.608,0.84 2.52,2.328 0.912,1.488 0.912,3.456 0,1.92 -0.912,3.432 -0.912,1.488 -2.52,2.352 -1.608,0.864 -3.648,0.864 z m 0,-3.072 q 0.936,0 1.68,-0.432 0.744,-0.432 1.176,-1.224 0.432,-0.816 0.432,-1.92 0,-1.128 -0.432,-1.92 -0.432,-0.792 -1.176,-1.224 -0.744,-0.432 -1.68,-0.432 -0.936,0 -1.68,0.432 -0.744,0.432 -1.2,1.224 -0.432,0.792 -0.432,1.92 0,1.104 0.432,1.92 0.456,0.792 1.2,1.224 0.744,0.432 1.68,0.432 z m 9.57602,2.88 v -12.912 h 3.576 v 3.648 l -0.504,-1.056 q 0.576,-1.368 1.848,-2.064 1.272,-0.72 3.096,-0.72 v 3.456 q -0.24,-0.024 -0.432,-0.024 -0.192,-0.024 -0.408,-0.024 -1.536,0 -2.496,0.888 -0.936,0.864 -0.936,2.712 v 6.096 z m 16.20913,4.848 q -1.824,0 -3.528,-0.456 -1.68,-0.432 -2.808,-1.32 l 1.488,-2.688 q 0.816,0.672 2.064,1.056 1.272,0.408 2.496,0.408 1.992,0 2.88,-0.888 0.912,-0.888 0.912,-2.64 v -1.944 l 0.24,-3.24 -0.048,-3.264 v -2.784 h 3.552 v 10.752 q 0,3.6 -1.872,5.304 -1.872,1.704 -5.376,1.704 z m -0.576,-5.472 q -1.8,0 -3.264,-0.768 -1.44,-0.792 -2.328,-2.184 -0.864,-1.416 -0.864,-3.288 0,-1.896 0.864,-3.288 0.888,-1.416 2.328,-2.184 1.464,-0.768 3.264,-0.768 1.632,0 2.88,0.672 1.248,0.648 1.944,2.04 0.696,1.368 0.696,3.528 0,2.136 -0.696,3.528 -0.696,1.368 -1.944,2.04 -1.248,0.672 -2.88,0.672 z m 0.744,-3.072 q 0.984,0 1.752,-0.384 0.768,-0.408 1.2,-1.128 0.432,-0.72 0.432,-1.656 0,-0.96 -0.432,-1.656 -0.432,-0.72 -1.2,-1.104 -0.768,-0.408 -1.752,-0.408 -0.984,0 -1.752,0.408 -0.768,0.384 -1.224,1.104 -0.432,0.696 -0.432,1.656 0,0.936 0.432,1.656 0.456,0.72 1.224,1.128 0.768,0.384 1.752,0.384 z m 18.48002,3.696 v -2.52 l -0.24,-0.552 v -4.512 q 0,-1.2 -0.744,-1.872 -0.72,-0.672 -2.232,-0.672 -1.032,0 -2.04,0.336 -0.984,0.312 -1.68,0.864 l -1.344,-2.616 q 1.056,-0.744 2.544,-1.152 1.488,-0.408 3.024,-0.408 2.952,0 4.584,1.392 1.632,1.392 1.632,4.344 v 7.368 z m -3.936,0.192 q -1.512,0 -2.592,-0.504 -1.08,-0.528 -1.656,-1.416 -0.576,-0.888 -0.576,-1.992 0,-1.152 0.552,-2.016 0.576,-0.864 1.8,-1.344 1.224,-0.504 3.192,-0.504 h 3.432 v 2.184 h -3.024 q -1.32,0 -1.824,0.432 -0.48,0.432 -0.48,1.08 0,0.72 0.552,1.152 0.576,0.408 1.56,0.408 0.936,0 1.68,-0.432 0.744,-0.456 1.08,-1.32 l 0.576,1.728 q -0.408,1.248 -1.488,1.896 -1.08,0.648 -2.784,0.648 z m 18.67201,-13.296 q 1.536,0 2.736,0.624 1.224,0.6 1.92,1.872 0.696,1.248 0.696,3.216 v 7.392 h -3.744 v -6.816 q 0,-1.56 -0.696,-2.304 -0.672,-0.744 -1.92,-0.744 -0.888,0 -1.608,0.384 -0.696,0.36 -1.104,1.128 -0.384,0.768 -0.384,1.968 v 6.384 h -3.744 v -12.912 h 3.576 v 3.576 l -0.672,-1.08 q 0.696,-1.296 1.992,-1.992 1.296,-0.696 2.952,-0.696 z m 8.736,13.104 v -12.912 h 3.744 v 12.912 z m 1.872,-14.712 q -1.032,0 -1.68,-0.6 -0.648,-0.6 -0.648,-1.488 0,-0.888 0.648,-1.488 0.648,-0.6 1.68,-0.6 1.032,0 1.68,0.576 0.648,0.552 0.648,1.44 0,0.936 -0.648,1.56 -0.624,0.6 -1.68,0.6 z m 4.46401,14.712 v -2.256 l 7.632,-9.024 0.648,1.248 h -8.112 v -2.88 h 11.136 v 2.256 l -7.632,9.024 -0.672,-1.248 h 8.52 v 2.88 z m 21.83999,0 v -2.52 l -0.24,-0.552 v -4.512 q 0,-1.2 -0.744,-1.872 -0.72,-0.672 -2.232,-0.672 -1.032,0 -2.04,0.336 -0.984,0.312 -1.68,0.864 l -1.344,-2.616 q 1.056,-0.744 2.544,-1.152 1.488,-0.408 3.024,-0.408 2.952,0 4.584,1.392 1.632,1.392 1.632,4.344 v 7.368 z m -3.936,0.192 q -1.512,0 -2.592,-0.504 -1.08,-0.528 -1.656,-1.416 -0.576,-0.888 -0.576,-1.992 0,-1.152 0.552,-2.016 0.576,-0.864 1.8,-1.344 1.224,-0.504 3.192,-0.504 h 3.432 v 2.184 h -3.024 q -1.32,0 -1.824,0.432 -0.48,0.432 -0.48,1.08 0,0.72 0.552,1.152 0.576,0.408 1.56,0.408 0.936,0 1.68,-0.432 0.744,-0.456 1.08,-1.32 l 0.576,1.728 q -0.408,1.248 -1.488,1.896 -1.08,0.648 -2.784,0.648 z m 16.10401,0 q -2.28,0 -3.552,-1.152 -1.272,-1.176 -1.272,-3.48 v -11.328 h 3.744 v 11.28 q 0,0.816 0.432,1.272 0.432,0.432 1.176,0.432 0.888,0 1.512,-0.48 l 1.008,2.64 q -0.576,0.408 -1.392,0.624 -0.792,0.192 -1.656,0.192 z m -6.816,-9.936 v -2.88 h 8.952 v 2.88 z m 11.97599,9.744 v -12.912 h 3.744 v 12.912 z m 1.872,-14.712 q -1.032,0 -1.68,-0.6 -0.648,-0.6 -0.648,-1.488 0,-0.888 0.648,-1.488 0.648,-0.6 1.68,-0.6 1.032,0 1.68,0.576 0.648,0.552 0.648,1.44 0,0.936 -0.648,1.56 -0.624,0.6 -1.68,0.6 z m 11.49601,14.904 q -2.064,0 -3.672,-0.864 -1.584,-0.864 -2.52,-2.352 -0.912,-1.512 -0.912,-3.432 0,-1.944 0.912,-3.432 0.936,-1.512 2.52,-2.352 1.608,-0.864 3.672,-0.864 2.04,0 3.648,0.864 1.608,0.84 2.52,2.328 0.912,1.488 0.912,3.456 0,1.92 -0.912,3.432 -0.912,1.488 -2.52,2.352 -1.608,0.864 -3.648,0.864 z m 0,-3.072 q 0.936,0 1.68,-0.432 0.744,-0.432 1.176,-1.224 0.432,-0.816 0.432,-1.92 0,-1.128 -0.432,-1.92 -0.432,-0.792 -1.176,-1.224 -0.744,-0.432 -1.68,-0.432 -0.936,0 -1.68,0.432 -0.744,0.432 -1.2,1.224 -0.432,0.792 -0.432,1.92 0,1.104 0.432,1.92 0.456,0.792 1.2,1.224 0.744,0.432 1.68,0.432 z m 17.42402,-10.224 q 1.536,0 2.736,0.624 1.224,0.6 1.92,1.872 0.696,1.248 0.696,3.216 v 7.392 h -3.744 v -6.816 q 0,-1.56 -0.696,-2.304 -0.672,-0.744 -1.92,-0.744 -0.888,0 -1.608,0.384 -0.696,0.36 -1.104,1.128 -0.384,0.768 -0.384,1.968 v 6.384 h -3.744 v -12.912 h 3.576 v 3.576 l -0.672,-1.08 q 0.696,-1.296 1.992,-1.992 1.296,-0.696 2.952,-0.696 z"
       id="path9" />
  </g>
  <path
     sodipodi:nodetypes="ccccc"
     id="path244-6-1-2-9-3-3"
     d="m 566.61972,123.31707 h 210.87979 v 93.69972 H 566.61972 Z"
     style="fill:#ffffff;stroke:#000000;stroke-width:2"
     inkscape:connector-curvature="0" />
  <g
     id="text4126-2-1-5-6-5-9-3-75"
     style="font-size:32px;line-height:1.25;font-family:Montserrat;-inkscape-font-specification:'Montserrat, Normal';text-align:center;letter-spacing:0px;word-spacing:0px;text-anchor:middle"
     aria-label="Crime&#10;Rate">
    <path
       d="m 636.20785,162.10292 q -2.528,0 -4.672,-0.832 -2.144,-0.864 -3.712,-2.4 -1.568,-1.536 -2.464,-3.616 -0.864,-2.08 -0.864,-4.544 0,-2.464 0.864,-4.544 0.896,-2.08 2.464,-3.616 1.6,-1.536 3.744,-2.368 2.144,-0.864 4.672,-0.864 2.432,0 4.576,0.832 2.144,0.8 3.616,2.432 l -1.504,1.504 q -1.376,-1.408 -3.04,-2.016 -1.664,-0.64 -3.584,-0.64 -2.016,0 -3.744,0.704 -1.728,0.672 -3.008,1.952 -1.28,1.248 -2.016,2.944 -0.704,1.664 -0.704,3.68 0,2.016 0.704,3.712 0.736,1.664 2.016,2.944 1.28,1.248 3.008,1.952 1.728,0.672 3.744,0.672 1.92,0 3.584,-0.64 1.664,-0.64 3.04,-2.048 l 1.504,1.504 q -1.472,1.632 -3.616,2.464 -2.144,0.832 -4.608,0.832 z m 12.79999,-0.192 v -16.8 h 2.176 v 4.576 l -0.224,-0.8 q 0.704,-1.92 2.368,-2.912 1.664,-1.024 4.128,-1.024 v 2.208 q -0.128,0 -0.256,0 -0.128,-0.032 -0.256,-0.032 -2.656,0 -4.16,1.632 -1.504,1.6 -1.504,4.576 v 8.576 z m 12.58448,0 v -16.8 h 2.272 v 16.8 z m 1.152,-20.512 q -0.704,0 -1.184,-0.48 -0.48,-0.48 -0.48,-1.152 0,-0.672 0.48,-1.12 0.48,-0.48 1.184,-0.48 0.704,0 1.184,0.448 0.48,0.448 0.48,1.12 0,0.704 -0.48,1.184 -0.448,0.48 -1.184,0.48 z m 28.44797,3.552 q 2.048,0 3.552,0.8 1.536,0.768 2.368,2.368 0.864,1.6 0.864,4.032 v 9.76 h -2.272 v -9.536 q 0,-2.656 -1.28,-4 -1.248,-1.376 -3.552,-1.376 -1.728,0 -3.008,0.736 -1.248,0.704 -1.952,2.08 -0.672,1.344 -0.672,3.264 v 8.832 h -2.272 v -9.536 q 0,-2.656 -1.28,-4 -1.28,-1.376 -3.584,-1.376 -1.696,0 -2.976,0.736 -1.28,0.704 -1.984,2.08 -0.672,1.344 -0.672,3.264 v 8.832 h -2.272 v -16.8 h 2.176 v 4.544 l -0.352,-0.8 q 0.768,-1.824 2.464,-2.848 1.728,-1.056 4.064,-1.056 2.464,0 4.192,1.248 1.728,1.216 2.24,3.68 l -0.896,-0.352 q 0.736,-2.048 2.592,-3.296 1.888,-1.28 4.512,-1.28 z m 20.09602,17.12 q -2.624,0 -4.608,-1.088 -1.984,-1.12 -3.104,-3.04 -1.12,-1.952 -1.12,-4.448 0,-2.496 1.056,-4.416 1.088,-1.92 2.944,-3.008 1.888,-1.12 4.224,-1.12 2.368,0 4.192,1.088 1.856,1.056 2.912,3.008 1.056,1.92 1.056,4.448 0,0.16 -0.032,0.352 0,0.16 0,0.352 h -14.624 v -1.696 h 13.408 l -0.896,0.672 q 0,-1.824 -0.8,-3.232 -0.768,-1.44 -2.112,-2.24 -1.344,-0.8 -3.104,-0.8 -1.728,0 -3.104,0.8 -1.376,0.8 -2.144,2.24 -0.768,1.44 -0.768,3.296 v 0.352 q 0,1.92 0.832,3.392 0.864,1.44 2.368,2.272 1.536,0.8 3.488,0.8 1.536,0 2.848,-0.544 1.344,-0.544 2.304,-1.664 l 1.28,1.472 q -1.12,1.344 -2.816,2.048 -1.664,0.704 -3.68,0.704 z"
       id="path12" />
    <path
       d="m 638.43395,201.91092 v -22.4 h 8.384 q 2.848,0 4.896,0.928 2.048,0.896 3.136,2.624 1.12,1.696 1.12,4.128 0,2.368 -1.12,4.096 -1.088,1.696 -3.136,2.624 -2.048,0.896 -4.896,0.896 h -7.072 l 1.056,-1.088 v 8.192 z m 15.296,0 -5.76,-8.128 h 2.56 l 5.792,8.128 z m -12.928,-8 -1.056,-1.12 h 7.008 q 3.36,0 5.088,-1.472 1.76,-1.472 1.76,-4.128 0,-2.688 -1.76,-4.16 -1.728,-1.472 -5.088,-1.472 h -7.008 l 1.056,-1.12 z m 30.65601,8 v -3.712 l -0.096,-0.608 v -6.208 q 0,-2.144 -1.216,-3.296 -1.184,-1.152 -3.552,-1.152 -1.632,0 -3.104,0.544 -1.472,0.544 -2.496,1.44 l -1.024,-1.696 q 1.28,-1.088 3.072,-1.664 1.792,-0.608 3.776,-0.608 3.264,0 5.024,1.632 1.792,1.6 1.792,4.896 v 10.432 z m -5.792,0.16 q -1.888,0 -3.296,-0.608 -1.376,-0.64 -2.112,-1.728 -0.736,-1.12 -0.736,-2.56 0,-1.312 0.608,-2.368 0.64,-1.088 2.048,-1.728 1.44,-0.672 3.84,-0.672 h 5.792 v 1.696 h -5.728 q -2.432,0 -3.392,0.864 -0.928,0.864 -0.928,2.144 0,1.44 1.12,2.304 1.12,0.864 3.136,0.864 1.92,0 3.296,-0.864 1.408,-0.896 2.048,-2.56 l 0.512,1.568 q -0.64,1.664 -2.24,2.656 -1.568,0.992 -3.968,0.992 z m 19.45601,0 q -2.368,0 -3.648,-1.28 -1.28,-1.28 -1.28,-3.616 v -15.776 h 2.272 v 15.648 q 0,1.472 0.736,2.272 0.768,0.8 2.176,0.8 1.504,0 2.496,-0.864 l 0.8,1.632 q -0.672,0.608 -1.632,0.896 -0.928,0.288 -1.92,0.288 z m -7.936,-15.072 v -1.888 h 10.4 v 1.888 z m 22.14824,15.072 q -2.624,0 -4.608,-1.088 -1.984,-1.12 -3.104,-3.04 -1.12,-1.952 -1.12,-4.448 0,-2.496 1.056,-4.416 1.088,-1.92 2.944,-3.008 1.888,-1.12 4.224,-1.12 2.368,0 4.192,1.088 1.856,1.056 2.912,3.008 1.056,1.92 1.056,4.448 0,0.16 -0.032,0.352 0,0.16 0,0.352 h -14.624 v -1.696 h 13.408 l -0.896,0.672 q 0,-1.824 -0.8,-3.232 -0.768,-1.44 -2.112,-2.24 -1.344,-0.8 -3.104,-0.8 -1.728,0 -3.104,0.8 -1.376,0.8 -2.144,2.24 -0.768,1.44 -0.768,3.296 v 0.352 q 0,1.92 0.832,3.392 0.864,1.44 2.368,2.272 1.536,0.8 3.488,0.8 1.536,0 2.848,-0.544 1.344,-0.544 2.304,-1.664 l 1.28,1.472 q -1.12,1.344 -2.816,2.048 -1.664,0.704 -3.68,0.704 z"
       id="path13" />
  </g>
  <g
     id="text4126-2-1-5-6-5-9-3-75-16"
     style="font-size:32px;line-height:1.25;font-family:Montserrat;-inkscape-font-specification:'Montserrat, @wght=700';font-variation-settings:'wght' 700;text-align:center;letter-spacing:0px;word-spacing:0px;text-anchor:middle"
     aria-label="Neighborhood&#10;Level">
    <path
       d="m 398.84948,52.48386 v -22.4 h 4.288 l 13.216,16.128 h -2.08 v -16.128 h 5.12 v 22.4 h -4.256 l -13.248,-16.128 h 2.08 v 16.128 z m 34.04802,0.256 q -2.944,0 -5.184,-1.152 -2.208,-1.152 -3.424,-3.136 -1.216,-2.016 -1.216,-4.576 0,-2.592 1.184,-4.576 1.216,-2.016 3.296,-3.136 2.08,-1.152 4.704,-1.152 2.528,0 4.544,1.088 2.048,1.056 3.232,3.072 1.184,1.984 1.184,4.768 0,0.288 -0.032,0.672 -0.032,0.352 -0.064,0.672 h -13.984 v -2.912 h 11.36 l -1.92,0.864 q 0,-1.344 -0.544,-2.336 -0.544,-0.992 -1.504,-1.536 -0.96,-0.576 -2.24,-0.576 -1.28,0 -2.272,0.576 -0.96,0.544 -1.504,1.568 -0.544,0.992 -0.544,2.368 v 0.768 q 0,1.408 0.608,2.496 0.64,1.056 1.76,1.632 1.152,0.544 2.688,0.544 1.376,0 2.4,-0.416 1.056,-0.416 1.92,-1.248 l 2.656,2.88 q -1.184,1.344 -2.976,2.08 -1.792,0.704 -4.128,0.704 z m 11.64802,-0.256 v -17.216 h 4.992 v 17.216 z m 2.496,-19.616 q -1.376,0 -2.24,-0.8 -0.864,-0.8 -0.864,-1.984 0,-1.184 0.864,-1.984 0.864,-0.8 2.24,-0.8 1.376,0 2.24,0.768 0.864,0.736 0.864,1.92 0,1.248 -0.864,2.08 -0.832,0.8 -2.24,0.8 z m 15.23202,26.08 q -2.432,0 -4.704,-0.608 -2.24,-0.576 -3.744,-1.76 l 1.984,-3.584 q 1.088,0.896 2.752,1.408 1.696,0.544 3.328,0.544 2.656,0 3.84,-1.184 1.216,-1.184 1.216,-3.52 v -2.592 l 0.32,-4.32 -0.064,-4.352 v -3.712 h 4.736 v 14.336 q 0,4.8 -2.496,7.072 -2.496,2.272 -7.168,2.272 z m -0.768,-7.296 q -2.4,0 -4.352,-1.024 -1.92,-1.056 -3.104,-2.912 -1.152,-1.888 -1.152,-4.384 0,-2.528 1.152,-4.384 1.184,-1.888 3.104,-2.912 1.952,-1.024 4.352,-1.024 2.176,0 3.84,0.896 1.664,0.864 2.592,2.72 0.928,1.824 0.928,4.704 0,2.848 -0.928,4.704 -0.928,1.824 -2.592,2.72 -1.664,0.896 -3.84,0.896 z m 0.992,-4.096 q 1.312,0 2.336,-0.512 1.024,-0.544 1.6,-1.504 0.576,-0.96 0.576,-2.208 0,-1.28 -0.576,-2.208 -0.576,-0.96 -1.6,-1.472 -1.024,-0.544 -2.336,-0.544 -1.312,0 -2.336,0.544 -1.024,0.512 -1.632,1.472 -0.576,0.928 -0.576,2.208 0,1.248 0.576,2.208 0.608,0.96 1.632,1.504 1.024,0.512 2.336,0.512 z m 24.54402,-12.544 q 2.048,0 3.648,0.832 1.632,0.8 2.56,2.496 0.928,1.664 0.928,4.288 v 9.856 h -4.992 v -9.088 q 0,-2.08 -0.928,-3.072 -0.896,-0.992 -2.56,-0.992 -1.184,0 -2.144,0.512 -0.928,0.48 -1.472,1.504 -0.512,1.024 -0.512,2.624 v 8.512 h -4.992 v -23.744 h 4.992 v 11.296 l -1.12,-1.44 q 0.928,-1.728 2.656,-2.656 1.728,-0.928 3.936,-0.928 z m 21.824,17.728 q -2.272,0 -3.904,-0.96 -1.632,-0.96 -2.496,-2.912 -0.864,-1.984 -0.864,-4.992 0,-3.04 0.896,-4.992 0.928,-1.952 2.56,-2.912 1.632,-0.96 3.808,-0.96 2.432,0 4.352,1.088 1.952,1.088 3.072,3.072 1.152,1.984 1.152,4.704 0,2.688 -1.152,4.672 -1.12,1.984 -3.072,3.104 -1.92,1.088 -4.352,1.088 z m -10.176,-0.256 v -23.744 h 4.992 v 10.016 l -0.32,5.088 0.096,5.12 v 3.52 z m 9.312,-3.84 q 1.248,0 2.208,-0.576 0.992,-0.576 1.568,-1.632 0.608,-1.088 0.608,-2.56 0,-1.504 -0.608,-2.56 -0.576,-1.056 -1.568,-1.632 -0.96,-0.576 -2.208,-0.576 -1.248,0 -2.24,0.576 -0.992,0.576 -1.568,1.632 -0.576,1.056 -0.576,2.56 0,1.472 0.576,2.56 0.576,1.056 1.568,1.632 0.992,0.576 2.24,0.576 z m 20.96002,4.096 q -2.752,0 -4.896,-1.152 -2.112,-1.152 -3.36,-3.136 -1.216,-2.016 -1.216,-4.576 0,-2.592 1.216,-4.576 1.248,-2.016 3.36,-3.136 2.144,-1.152 4.896,-1.152 2.72,0 4.864,1.152 2.144,1.12 3.36,3.104 1.216,1.984 1.216,4.608 0,2.56 -1.216,4.576 -1.216,1.984 -3.36,3.136 -2.144,1.152 -4.864,1.152 z m 0,-4.096 q 1.248,0 2.24,-0.576 0.992,-0.576 1.568,-1.632 0.576,-1.088 0.576,-2.56 0,-1.504 -0.576,-2.56 -0.576,-1.056 -1.568,-1.632 -0.992,-0.576 -2.24,-0.576 -1.248,0 -2.24,0.576 -0.992,0.576 -1.6,1.632 -0.576,1.056 -0.576,2.56 0,1.472 0.576,2.56 0.608,1.056 1.6,1.632 0.992,0.576 2.24,0.576 z m 12.76802,3.84 v -17.216 h 4.768 v 4.864 l -0.672,-1.408 q 0.768,-1.824 2.464,-2.752 1.696,-0.96 4.128,-0.96 v 4.608 q -0.32,-0.032 -0.576,-0.032 -0.256,-0.032 -0.544,-0.032 -2.048,0 -3.328,1.184 -1.248,1.152 -1.248,3.616 v 8.128 z m 24.14015,-17.472 q 2.048,0 3.648,0.832 1.632,0.8 2.56,2.496 0.928,1.664 0.928,4.288 v 9.856 h -4.992 v -9.088 q 0,-2.08 -0.928,-3.072 -0.896,-0.992 -2.56,-0.992 -1.184,0 -2.144,0.512 -0.928,0.48 -1.472,1.504 -0.512,1.024 -0.512,2.624 v 8.512 h -4.992 v -23.744 h 4.992 v 11.296 l -1.12,-1.44 q 0.928,-1.728 2.656,-2.656 1.728,-0.928 3.936,-0.928 z m 19.96689,17.728 q -2.752,0 -4.896,-1.152 -2.112,-1.152 -3.36,-3.136 -1.216,-2.016 -1.216,-4.576 0,-2.592 1.216,-4.576 1.248,-2.016 3.36,-3.136 2.144,-1.152 4.896,-1.152 2.72,0 4.864,1.152 2.144,1.12 3.36,3.104 1.216,1.984 1.216,4.608 0,2.56 -1.216,4.576 -1.216,1.984 -3.36,3.136 -2.144,1.152 -4.864,1.152 z m 0,-4.096 q 1.248,0 2.24,-0.576 0.992,-0.576 1.568,-1.632 0.576,-1.088 0.576,-2.56 0,-1.504 -0.576,-2.56 -0.576,-1.056 -1.568,-1.632 -0.992,-0.576 -2.24,-0.576 -1.248,0 -2.24,0.576 -0.992,0.576 -1.6,1.632 -0.576,1.056 -0.576,2.56 0,1.472 0.576,2.56 0.608,1.056 1.6,1.632 0.992,0.576 2.24,0.576 z m 20.96002,4.096 q -2.752,0 -4.896,-1.152 -2.112,-1.152 -3.36,-3.136 -1.216,-2.016 -1.216,-4.576 0,-2.592 1.216,-4.576 1.248,-2.016 3.36,-3.136 2.144,-1.152 4.896,-1.152 2.72,0 4.864,1.152 2.144,1.12 3.36,3.104 1.216,1.984 1.216,4.608 0,2.56 -1.216,4.576 -1.216,1.984 -3.36,3.136 -2.144,1.152 -4.864,1.152 z m 0,-4.096 q 1.248,0 2.24,-0.576 0.992,-0.576 1.568,-1.632 0.576,-1.088 0.576,-2.56 0,-1.504 -0.576,-2.56 -0.576,-1.056 -1.568,-1.632 -0.992,-0.576 -2.24,-0.576 -1.248,0 -2.24,0.576 -0.992,0.576 -1.6,1.632 -0.576,1.056 -0.576,2.56 0,1.472 0.576,2.56 0.608,1.056 1.6,1.632 0.992,0.576 2.24,0.576 z m 20.16002,4.096 q -2.432,0 -4.384,-1.088 -1.952,-1.12 -3.104,-3.104 -1.12,-1.984 -1.12,-4.672 0,-2.72 1.12,-4.704 1.152,-1.984 3.104,-3.072 1.952,-1.088 4.384,-1.088 2.176,0 3.808,0.96 1.632,0.96 2.528,2.912 0.896,1.952 0.896,4.992 0,3.008 -0.864,4.992 -0.864,1.952 -2.496,2.912 -1.6,0.96 -3.872,0.96 z m 0.864,-4.096 q 1.216,0 2.208,-0.576 0.992,-0.576 1.568,-1.632 0.608,-1.088 0.608,-2.56 0,-1.504 -0.608,-2.56 -0.576,-1.056 -1.568,-1.632 -0.992,-0.576 -2.208,-0.576 -1.248,0 -2.24,0.576 -0.992,0.576 -1.6,1.632 -0.576,1.056 -0.576,2.56 0,1.472 0.576,2.56 0.608,1.056 1.6,1.632 0.992,0.576 2.24,0.576 z m 4.512,3.84 v -3.52 l 0.096,-5.12 -0.32,-5.088 v -10.016 h 4.992 v 23.744 z"
       id="path10" />
    <path
       d="m 476.67297,92.48386 v -22.4 h 5.184 v 18.176 h 11.232 v 4.224 z m 27.40416,0.256 q -2.944,0 -5.184,-1.152 -2.208,-1.152 -3.424,-3.136 -1.216,-2.016 -1.216,-4.576 0,-2.592 1.184,-4.576 1.216,-2.016 3.296,-3.136 2.08,-1.152 4.704,-1.152 2.528,0 4.544,1.088 2.048,1.056 3.232,3.072 1.184,1.984 1.184,4.768 0,0.288 -0.032,0.672 -0.032,0.352 -0.064,0.672 h -13.984 v -2.912 h 11.36 l -1.92,0.864 q 0,-1.344 -0.544,-2.336 -0.544,-0.992 -1.504,-1.536 -0.96,-0.576 -2.24,-0.576 -1.28,0 -2.272,0.576 -0.96,0.544 -1.504,1.568 -0.544,0.992 -0.544,2.368 v 0.768 q 0,1.408 0.608,2.496 0.64,1.056 1.76,1.632 1.152,0.544 2.688,0.544 1.376,0 2.4,-0.416 1.056,-0.416 1.92,-1.248 l 2.656,2.88 q -1.184,1.344 -2.976,2.08 -1.792,0.704 -4.128,0.704 z m 16.00001,-0.256 -7.232,-17.216 h 5.152 l 6.016,14.816 h -2.56 l 6.24,-14.816 h 4.8 l -7.264,17.216 z m 22.528,0.256 q -2.944,0 -5.184,-1.152 -2.208,-1.152 -3.424,-3.136 -1.216,-2.016 -1.216,-4.576 0,-2.592 1.184,-4.576 1.216,-2.016 3.296,-3.136 2.08,-1.152 4.704,-1.152 2.528,0 4.544,1.088 2.048,1.056 3.232,3.072 1.184,1.984 1.184,4.768 0,0.288 -0.032,0.672 -0.032,0.352 -0.064,0.672 h -13.984 v -2.912 h 11.36 l -1.92,0.864 q 0,-1.344 -0.544,-2.336 -0.544,-0.992 -1.504,-1.536 -0.96,-0.576 -2.24,-0.576 -1.28,0 -2.272,0.576 -0.96,0.544 -1.504,1.568 -0.544,0.992 -0.544,2.368 v 0.768 q 0,1.408 0.608,2.496 0.64,1.056 1.76,1.632 1.152,0.544 2.688,0.544 1.376,0 2.4,-0.416 1.056,-0.416 1.92,-1.248 l 2.656,2.88 q -1.184,1.344 -2.976,2.08 -1.792,0.704 -4.128,0.704 z m 11.64802,-0.256 v -23.744 h 4.992 v 23.744 z"
       id="path11" />
  </g>
  <g
     id="text4126-2-1-5-6-5-9-3-75-16-3"
     style="font-size:32px;line-height:1.25;font-family:Montserrat;-inkscape-font-specification:'Montserrat, @wght=700';font-variation-settings:'wght' 700;text-align:center;letter-spacing:0px;word-spacing:0px;text-anchor:middle"
     aria-label="Individual&#10;Level">
    <path
       d="m 47.442118,432.49158 v -22.4 h 5.184 v 22.4 z m 20.607971,-17.472 q 2.048,0 3.648,0.832 1.632,0.8 2.56,2.496 0.928,1.664 0.928,4.288 v 9.856 h -4.992 v -9.088 q 0,-2.08 -0.928,-3.072 -0.896,-0.992 -2.56,-0.992 -1.184,0 -2.144,0.512 -0.928,0.48 -1.472,1.504 -0.512,1.024 -0.512,2.624 v 8.512 h -4.992 v -17.216 h 4.768 v 4.768 l -0.896,-1.44 q 0.928,-1.728 2.656,-2.656 1.728,-0.928 3.936,-0.928 z m 19.166892,17.728 q -2.432,0 -4.384,-1.088 -1.952,-1.12 -3.104,-3.104 -1.12,-1.984 -1.12,-4.672 0,-2.72 1.12,-4.704 1.152,-1.984 3.104,-3.072 1.952,-1.088 4.384,-1.088 2.176,0 3.808,0.96 1.632,0.96 2.528,2.912 0.896,1.952 0.896,4.992 0,3.008 -0.864,4.992 -0.864,1.952 -2.496,2.912 -1.6,0.96 -3.872,0.96 z m 0.864,-4.096 q 1.216,0 2.208,-0.576 0.992,-0.576 1.568,-1.632 0.608,-1.088 0.608,-2.56 0,-1.504 -0.608,-2.56 -0.576,-1.056 -1.568,-1.632 -0.992,-0.576 -2.208,-0.576 -1.248,0 -2.24,0.576 -0.992,0.576 -1.6,1.632 -0.576,1.056 -0.576,2.56 0,1.472 0.576,2.56 0.608,1.056 1.6,1.632 0.992,0.576 2.24,0.576 z m 4.512,3.84 v -3.52 l 0.096,-5.12 -0.32,-5.088 v -10.016 h 4.992 v 23.744 z m 9.375979,0 v -17.216 h 4.992 v 17.216 z m 2.496,-19.616 q -1.376,0 -2.24,-0.8 -0.864,-0.8 -0.864,-1.984 0,-1.184 0.864,-1.984 0.864,-0.8 2.24,-0.8 1.376,0 2.24,0.768 0.864,0.736 0.864,1.92 0,1.248 -0.864,2.08 -0.832,0.8 -2.24,0.8 z m 11.80802,19.616 -7.232,-17.216 h 5.152 l 6.016,14.816 h -2.56 l 6.24,-14.816 h 4.8 l -7.264,17.216 z m 14.46399,0 v -17.216 h 4.992 v 17.216 z m 2.496,-19.616 q -1.376,0 -2.24,-0.8 -0.864,-0.8 -0.864,-1.984 0,-1.184 0.864,-1.984 0.864,-0.8 2.24,-0.8 1.376,0 2.24,0.768 0.864,0.736 0.864,1.92 0,1.248 -0.864,2.08 -0.832,0.8 -2.24,0.8 z m 14.52802,19.872 q -2.432,0 -4.384,-1.088 -1.952,-1.12 -3.104,-3.104 -1.12,-1.984 -1.12,-4.672 0,-2.72 1.12,-4.704 1.152,-1.984 3.104,-3.072 1.952,-1.088 4.384,-1.088 2.176,0 3.808,0.96 1.632,0.96 2.528,2.912 0.896,1.952 0.896,4.992 0,3.008 -0.864,4.992 -0.864,1.952 -2.496,2.912 -1.6,0.96 -3.872,0.96 z m 0.864,-4.096 q 1.216,0 2.208,-0.576 0.992,-0.576 1.568,-1.632 0.608,-1.088 0.608,-2.56 0,-1.504 -0.608,-2.56 -0.576,-1.056 -1.568,-1.632 -0.992,-0.576 -2.208,-0.576 -1.248,0 -2.24,0.576 -0.992,0.576 -1.6,1.632 -0.576,1.056 -0.576,2.56 0,1.472 0.576,2.56 0.608,1.056 1.6,1.632 0.992,0.576 2.24,0.576 z m 4.512,3.84 v -3.52 l 0.096,-5.12 -0.32,-5.088 v -10.016 h 4.992 v 23.744 z m 16.63998,0.256 q -2.144,0 -3.84,-0.832 -1.664,-0.832 -2.592,-2.528 -0.928,-1.728 -0.928,-4.384 v -9.728 h 4.992 v 8.992 q 0,2.144 0.896,3.168 0.928,0.992 2.592,0.992 1.152,0 2.048,-0.48 0.896,-0.512 1.408,-1.536 0.512,-1.056 0.512,-2.624 v -8.512 h 4.992 v 17.216 h -4.736 v -4.736 l 0.864,1.376 q -0.864,1.792 -2.56,2.72 -1.664,0.896 -3.648,0.896 z m 25.28001,-0.256 v -3.36 l -0.32,-0.736 v -6.016 q 0,-1.6 -0.992,-2.496 -0.96,-0.896 -2.976,-0.896 -1.376,0 -2.72,0.448 -1.312,0.416 -2.24,1.152 l -1.792,-3.488 q 1.408,-0.992 3.392,-1.536 1.984,-0.544 4.032,-0.544 3.936,0 6.112,1.856 2.176,1.856 2.176,5.792 v 9.824 z m -5.248,0.256 q -2.016,0 -3.456,-0.672 -1.44,-0.704 -2.208,-1.888 -0.768,-1.184 -0.768,-2.656 0,-1.536 0.736,-2.688 0.768,-1.152 2.4,-1.792 1.632,-0.672 4.256,-0.672 h 4.576 v 2.912 h -4.032 q -1.76,0 -2.432,0.576 -0.64,0.576 -0.64,1.44 0,0.96 0.736,1.536 0.768,0.544 2.08,0.544 1.248,0 2.24,-0.576 0.992,-0.608 1.44,-1.76 l 0.768,2.304 q -0.544,1.664 -1.984,2.528 -1.44,0.864 -3.712,0.864 z m 14.43202,-0.256 v -23.744 h 4.992 v 23.744 z"
       id="path6" />
    <path
       d="m 87.051462,472.49158 v -22.4 h 5.184 v 18.176 h 11.231998 v 4.224 z m 27.404158,0.256 q -2.944,0 -5.184,-1.152 -2.208,-1.152 -3.424,-3.136 -1.216,-2.016 -1.216,-4.576 0,-2.592 1.184,-4.576 1.216,-2.016 3.296,-3.136 2.08,-1.152 4.704,-1.152 2.528,0 4.544,1.088 2.048,1.056 3.232,3.072 1.184,1.984 1.184,4.768 0,0.288 -0.032,0.672 -0.032,0.352 -0.064,0.672 h -13.984 v -2.912 h 11.36 l -1.92,0.864 q 0,-1.344 -0.544,-2.336 -0.544,-0.992 -1.504,-1.536 -0.96,-0.576 -2.24,-0.576 -1.28,0 -2.272,0.576 -0.96,0.544 -1.504,1.568 -0.544,0.992 -0.544,2.368 v 0.768 q 0,1.408 0.608,2.496 0.64,1.056 1.76,1.632 1.152,0.544 2.688,0.544 1.376,0 2.4,-0.416 1.056,-0.416 1.92,-1.248 l 2.656,2.88 q -1.184,1.344 -2.976,2.08 -1.792,0.704 -4.128,0.704 z m 16.00001,-0.256 -7.232,-17.216 h 5.152 l 6.016,14.816 h -2.56 l 6.24,-14.816 h 4.8 l -7.264,17.216 z m 22.52801,0.256 q -2.944,0 -5.184,-1.152 -2.208,-1.152 -3.424,-3.136 -1.216,-2.016 -1.216,-4.576 0,-2.592 1.184,-4.576 1.216,-2.016 3.296,-3.136 2.08,-1.152 4.704,-1.152 2.528,0 4.544,1.088 2.048,1.056 3.232,3.072 1.184,1.984 1.184,4.768 0,0.288 -0.032,0.672 -0.032,0.352 -0.064,0.672 h -13.984 v -2.912 h 11.36 l -1.92,0.864 q 0,-1.344 -0.544,-2.336 -0.544,-0.992 -1.504,-1.536 -0.96,-0.576 -2.24,-0.576 -1.28,0 -2.272,0.576 -0.96,0.544 -1.504,1.568 -0.544,0.992 -0.544,2.368 v 0.768 q 0,1.408 0.608,2.496 0.64,1.056 1.76,1.632 1.152,0.544 2.688,0.544 1.376,0 2.4,-0.416 1.056,-0.416 1.92,-1.248 l 2.656,2.88 q -1.184,1.344 -2.976,2.08 -1.792,0.704 -4.128,0.704 z m 11.64801,-0.256 v -23.744 h 4.992 v 23.744 z"
       id="path7" />
  </g>
  <path
     sodipodi:nodetypes="ccccc"
     id="path244-6-1-2-9-3-9-2"
     d="M 1,1 H 229.35366 V 339.33386 H 1 Z"
     style="fill:#ffffff;stroke:#000000;stroke-width:2"
     inkscape:connector-curvature="0" />
  <path
     sodipodi:nodetypes="ccccc"
     id="path244-6-1-2-9-3"
     d="m 9.73694,123.31705 h 210.87979 v 93.69972 H 9.73694 Z"
     style="fill:#ffffff;stroke:#000000;stroke-width:2"
     inkscape:connector-curvature="0" />
  <g
     id="text4126-2-1-5-6-5-9-3"
     style="font-size:32px;line-height:1.25;font-family:Montserrat;-inkscape-font-specification:'Montserrat, Normal';text-align:center;letter-spacing:0px;word-spacing:0px;text-anchor:middle"
     aria-label="Residential&#10;Turnover">
    <path
       d="m 30.050428,161.84344 v -22.4 h 8.384 q 2.848,0 4.896,0.928 2.048,0.896 3.136,2.624 1.12,1.696 1.12,4.128 0,2.368 -1.12,4.096 -1.088,1.696 -3.136,2.624 -2.048,0.896 -4.896,0.896 h -7.072 l 1.056,-1.088 v 8.192 z m 15.296,0 -5.76,-8.128 h 2.56 l 5.792,8.128 z m -12.928,-8 -1.056,-1.12 h 7.008 q 3.36,0 5.088,-1.472 1.76,-1.472 1.76,-4.128 0,-2.688 -1.76,-4.16 -1.728,-1.472 -5.088,-1.472 h -7.008 l 1.056,-1.12 z m 27.423986,8.16 q -2.624,0 -4.608,-1.088 -1.984,-1.12 -3.104,-3.04 -1.12,-1.952 -1.12,-4.448 0,-2.496 1.056,-4.416 1.088,-1.92 2.944,-3.008 1.888,-1.12 4.224,-1.12 2.368,0 4.192,1.088 1.856,1.056 2.912,3.008 1.056,1.92 1.056,4.448 0,0.16 -0.032,0.352 0,0.16 0,0.352 h -14.624 v -1.696 h 13.408 l -0.896,0.672 q 0,-1.824 -0.8,-3.232 -0.768,-1.44 -2.112,-2.24 -1.344,-0.8 -3.104,-0.8 -1.728,0 -3.104,0.8 -1.376,0.8 -2.144,2.24 -0.768,1.44 -0.768,3.296 v 0.352 q 0,1.92 0.832,3.392 0.864,1.44 2.368,2.272 1.536,0.8 3.488,0.8 1.536,0 2.848,-0.544 1.344,-0.544 2.304,-1.664 l 1.28,1.472 q -1.12,1.344 -2.816,2.048 -1.664,0.704 -3.68,0.704 z m 16.704003,0 q -2.08,0 -3.936,-0.576 -1.856,-0.608 -2.912,-1.504 l 1.024,-1.792 q 1.024,0.768 2.624,1.344 1.6,0.544 3.36,0.544 2.4,0 3.456,-0.736 1.056,-0.768 1.056,-2.016 0,-0.928 -0.608,-1.44 -0.576,-0.544 -1.536,-0.8 -0.96,-0.288 -2.144,-0.48 -1.184,-0.192 -2.368,-0.448 -1.152,-0.256 -2.112,-0.736 -0.96,-0.512 -1.568,-1.376 -0.576,-0.864 -0.576,-2.304 0,-1.376 0.768,-2.464 0.768,-1.088 2.24,-1.696 1.504,-0.64 3.648,-0.64 1.632,0 3.264,0.448 1.632,0.416 2.688,1.12 l -0.992,1.824 q -1.12,-0.768 -2.4,-1.088 -1.28,-0.352 -2.56,-0.352 -2.272,0 -3.36,0.8 -1.056,0.768 -1.056,1.984 0,0.96 0.576,1.504 0.608,0.544 1.568,0.864 0.992,0.288 2.144,0.48 1.184,0.192 2.336,0.48 1.184,0.256 2.144,0.736 0.992,0.448 1.568,1.312 0.608,0.832 0.608,2.208 0,1.472 -0.832,2.56 -0.8,1.056 -2.368,1.664 -1.536,0.576 -3.744,0.576 z m 11.104028,-0.16 v -16.8 h 2.272 v 16.8 z m 1.152,-20.512 q -0.704,0 -1.184,-0.48 -0.48,-0.48 -0.48,-1.152 0,-0.672 0.48,-1.12 0.48,-0.48 1.184,-0.48 0.704,0 1.184,0.448 0.48,0.448 0.48,1.12 0,0.704 -0.48,1.184 -0.448,0.48 -1.184,0.48 z m 14.143975,20.672 q -2.4,0 -4.320004,-1.088 -1.888,-1.088 -2.976,-3.008 -1.088,-1.952 -1.088,-4.48 0,-2.56 1.088,-4.48 1.088,-1.92 2.976,-2.976 1.920004,-1.088 4.320004,-1.088 2.208,0 3.936,0.992 1.76,0.992 2.784,2.912 1.056,1.888 1.056,4.64 0,2.72 -1.024,4.64 -1.024,1.92 -2.784,2.944 -1.728,0.992 -3.968,0.992 z m 0.16,-2.016 q 1.792,0 3.2,-0.8 1.44,-0.832 2.24,-2.304 0.832,-1.504 0.832,-3.456 0,-1.984 -0.832,-3.456 -0.8,-1.472 -2.24,-2.272 -1.408,-0.832 -3.2,-0.832 -1.76,0 -3.168004,0.832 -1.408,0.8 -2.24,2.272 -0.832,1.472 -0.832,3.456 0,1.952 0.832,3.456 0.832,1.472 2.24,2.304 1.408004,0.8 3.168004,0.8 z m 6.336,1.856 v -5.056 l 0.224,-3.392 -0.32,-3.392 v -11.904 h 2.272 v 23.744 z m 15.64798,0.16 q -2.624,0 -4.608,-1.088 -1.984,-1.12 -3.104,-3.04 -1.12,-1.952 -1.12,-4.448 0,-2.496 1.056,-4.416 1.088,-1.92 2.944,-3.008 1.888,-1.12 4.224,-1.12 2.368,0 4.192,1.088 1.856,1.056 2.912,3.008 1.056,1.92 1.056,4.448 0,0.16 -0.032,0.352 0,0.16 0,0.352 h -14.624 v -1.696 h 13.408 l -0.896,0.672 q 0,-1.824 -0.8,-3.232 -0.768,-1.44 -2.112,-2.24 -1.344,-0.8 -3.104,-0.8 -1.728,0 -3.104,0.8 -1.376,0.8 -2.144,2.24 -0.768,1.44 -0.768,3.296 v 0.352 q 0,1.92 0.832,3.392 0.864,1.44 2.368,2.272 1.536,0.8 3.488,0.8 1.536,0 2.848,-0.544 1.344,-0.544 2.304,-1.664 l 1.28,1.472 q -1.12,1.344 -2.816,2.048 -1.664,0.704 -3.68,0.704 z m 20.768,-17.12 q 2.048,0 3.584,0.8 1.568,0.768 2.432,2.368 0.896,1.6 0.896,4.032 v 9.76 h -2.272 v -9.536 q 0,-2.656 -1.344,-4 -1.312,-1.376 -3.712,-1.376 -1.792,0 -3.136,0.736 -1.312,0.704 -2.048,2.08 -0.704,1.344 -0.704,3.264 v 8.832 h -2.272 v -16.8 h 2.176 v 4.608 l -0.352,-0.864 q 0.8,-1.824 2.56,-2.848 1.76,-1.056 4.192,-1.056 z m 18.36802,17.12 q -2.368,0 -3.648,-1.28 -1.28,-1.28 -1.28,-3.616 v -15.776 h 2.272 v 15.648 q 0,1.472 0.736,2.272 0.768,0.8 2.176,0.8 1.504,0 2.496,-0.864 l 0.8,1.632 q -0.672,0.608 -1.632,0.896 -0.928,0.288 -1.92,0.288 z m -7.936,-15.072 v -1.888 h 10.4 v 1.888 z m 15.61601,14.912 v -16.8 h 2.272 v 16.8 z m 1.152,-20.512 q -0.704,0 -1.184,-0.48 -0.48,-0.48 -0.48,-1.152 0,-0.672 0.48,-1.12 0.48,-0.48 1.184,-0.48 0.704,0 1.184,0.448 0.48,0.448 0.48,1.12 0,0.704 -0.48,1.184 -0.448,0.48 -1.184,0.48 z m 17.98397,20.512 v -3.712 l -0.096,-0.608 v -6.208 q 0,-2.144 -1.216,-3.296 -1.184,-1.152 -3.552,-1.152 -1.632,0 -3.104,0.544 -1.472,0.544 -2.496,1.44 l -1.024,-1.696 q 1.28,-1.088 3.072,-1.664 1.792,-0.608 3.776,-0.608 3.264,0 5.024,1.632 1.792,1.6 1.792,4.896 v 10.432 z m -5.792,0.16 q -1.888,0 -3.296,-0.608 -1.376,-0.64 -2.112,-1.728 -0.736,-1.12 -0.736,-2.56 0,-1.312 0.608,-2.368 0.64,-1.088 2.048,-1.728 1.44,-0.672 3.84,-0.672 h 5.792 v 1.696 h -5.728 q -2.432,0 -3.392,0.864 -0.928,0.864 -0.928,2.144 0,1.44 1.12,2.304 1.12,0.864 3.136,0.864 1.92,0 3.296,-0.864 1.408,-0.896 2.048,-2.56 l 0.512,1.568 q -0.64,1.664 -2.24,2.656 -1.568,0.992 -3.968,0.992 z m 14.144,-0.16 v -23.744 h 2.272 v 23.744 z"
       id="path2" />
    <path
       d="m 52.491997,201.84344 v -20.352 h -7.872 v -2.048 h 18.112 v 2.048 h -7.872 v 20.352 z m 20.036255,0.16 q -2.144,0 -3.744,-0.8 -1.6,-0.8 -2.496,-2.4 -0.864,-1.6 -0.864,-4 v -9.76 h 2.272 v 9.504 q 0,2.688 1.312,4.064 1.344,1.344 3.744,1.344 1.76,0 3.04,-0.704 1.312,-0.736 1.984,-2.112 0.704,-1.376 0.704,-3.296 v -8.8 h 2.272 v 16.8 h -2.176 v -4.608 l 0.352,0.832 q -0.8,1.856 -2.496,2.912 -1.664,1.024 -3.904,1.024 z m 14.560028,-0.16 v -16.8 h 2.176 v 4.576 l -0.224,-0.8 q 0.704,-1.92 2.368,-2.912 1.664,-1.024 4.128,-1.024 v 2.208 q -0.128,0 -0.256,0 -0.128,-0.032 -0.256,-0.032 -2.656,0 -4.16,1.632 -1.504,1.6 -1.504,4.576 v 8.576 z m 21.16047,-16.96 q 2.048,0 3.584,0.8 1.568,0.768 2.432,2.368 0.896,1.6 0.896,4.032 v 9.76 h -2.272 v -9.536 q 0,-2.656 -1.344,-4 -1.312,-1.376 -3.712,-1.376 -1.792,0 -3.136,0.736 -1.312,0.704 -2.048,2.08 -0.704,1.344 -0.704,3.264 v 8.832 h -2.271997 v -16.8 h 2.175997 v 4.608 l -0.352,-0.864 q 0.8,-1.824 2.56,-2.848 1.76,-1.056 4.192,-1.056 z m 19.90402,17.12 q -2.432,0 -4.384,-1.088 -1.92,-1.12 -3.04,-3.04 -1.12,-1.952 -1.12,-4.448 0,-2.528 1.12,-4.448 1.12,-1.92 3.04,-3.008 1.92,-1.088 4.384,-1.088 2.496,0 4.416,1.088 1.952,1.088 3.04,3.008 1.12,1.92 1.12,4.448 0,2.496 -1.12,4.448 -1.088,1.92 -3.04,3.04 -1.952,1.088 -4.416,1.088 z m 0,-2.016 q 1.824,0 3.232,-0.8 1.408,-0.832 2.208,-2.304 0.832,-1.504 0.832,-3.456 0,-1.984 -0.832,-3.456 -0.8,-1.472 -2.208,-2.272 -1.408,-0.832 -3.2,-0.832 -1.792,0 -3.2,0.832 -1.408,0.8 -2.24,2.272 -0.832,1.472 -0.832,3.456 0,1.952 0.832,3.456 0.832,1.472 2.24,2.304 1.408,0.8 3.168,0.8 z m 17.05605,1.856 -7.456,-16.8 h 2.368 l 6.848,15.584 h -1.12 l 6.944,-15.584 h 2.24 l -7.488,16.8 z m 19.68001,0.16 q -2.624,0 -4.608,-1.088 -1.984,-1.12 -3.104,-3.04 -1.12,-1.952 -1.12,-4.448 0,-2.496 1.056,-4.416 1.088,-1.92 2.944,-3.008 1.888,-1.12 4.224,-1.12 2.368,0 4.192,1.088 1.856,1.056 2.912,3.008 1.056,1.92 1.056,4.448 0,0.16 -0.032,0.352 0,0.16 0,0.352 h -14.624 v -1.696 h 13.408 l -0.896,0.672 q 0,-1.824 -0.8,-3.232 -0.768,-1.44 -2.112,-2.24 -1.344,-0.8 -3.104,-0.8 -1.728,0 -3.104,0.8 -1.376,0.8 -2.144,2.24 -0.768,1.44 -0.768,3.296 v 0.352 q 0,1.92 0.832,3.392 0.864,1.44 2.368,2.272 1.536,0.8 3.488,0.8 1.536,0 2.848,-0.544 1.344,-0.544 2.304,-1.664 l 1.28,1.472 q -1.12,1.344 -2.816,2.048 -1.664,0.704 -3.68,0.704 z m 12.192,-0.16 v -16.8 h 2.176 v 4.576 l -0.224,-0.8 q 0.704,-1.92 2.368,-2.912 1.664,-1.024 4.128,-1.024 v 2.208 q -0.128,0 -0.256,0 -0.128,-0.032 -0.256,-0.032 -2.656,0 -4.16,1.632 -1.504,1.6 -1.504,4.576 v 8.576 z"
       id="path3" />
  </g>
  <path
     sodipodi:nodetypes="ccccc"
     id="path244-6-1-2-9-3-9"
     d="m 9.73694,9.9336 h 210.87979 v 93.69972 H 9.73694 Z"
     style="fill:#ffffff;stroke:#000000;stroke-width:2"
     inkscape:connector-curvature="0" />
  <path
     d="m 57.297452,63.183468 v -22.4 h 8.384 q 2.848,0 4.896,0.928 2.048,0.896 3.136,2.624 1.12,1.696 1.12,4.128 0,2.368 -1.12,4.096 -1.088,1.696 -3.136,2.624 -2.048,0.928 -4.896,0.928 h -7.072 l 1.056,-1.12 v 8.192 z m 2.368,-8 -1.056,-1.152 h 7.008 q 3.36,0 5.088,-1.44 1.76,-1.472 1.76,-4.128 0,-2.688 -1.76,-4.16 -1.728,-1.472 -5.088,-1.472 h -7.008 l 1.056,-1.12 z m 26.56427,8.16 q -2.432,0 -4.384,-1.088 -1.92,-1.12 -3.04,-3.04 -1.12,-1.952 -1.12,-4.448 0,-2.528 1.12,-4.448 1.12,-1.92 3.04,-3.008 1.92,-1.088 4.384,-1.088 2.496,0 4.416,1.088 1.952,1.088 3.04,3.008 1.12,1.92 1.12,4.448 0,2.496 -1.12,4.448 -1.088,1.92 -3.04,3.04 -1.952,1.088 -4.416,1.088 z m 0,-2.016 q 1.824,0 3.232,-0.8 1.408,-0.832 2.208,-2.304 0.832,-1.504 0.832,-3.456 0,-1.984 -0.832,-3.456 -0.8,-1.472 -2.208,-2.272 -1.408,-0.832 -3.2,-0.832 -1.792,0 -3.2,0.832 -1.408,0.8 -2.24,2.272 -0.832,1.472 -0.832,3.456 0,1.952 0.832,3.456 0.832,1.472 2.24,2.304 1.408,0.8 3.168,0.8 z m 17.056048,1.856 -7.456002,-16.8 h 2.368 l 6.848002,15.584 h -1.12 l 6.944,-15.584 h 2.24 l -7.488,16.8 z m 19.68001,0.16 q -2.624,0 -4.608,-1.088 -1.984,-1.12 -3.104,-3.04 -1.12,-1.952 -1.12,-4.448 0,-2.496 1.056,-4.416 1.088,-1.92 2.944,-3.008 1.888,-1.12 4.224,-1.12 2.368,0 4.192,1.088 1.856,1.056 2.912,3.008 1.056,1.92 1.056,4.448 0,0.16 -0.032,0.352 0,0.16 0,0.352 h -14.624 v -1.696 h 13.408 l -0.896,0.672 q 0,-1.824 -0.8,-3.232 -0.768,-1.44 -2.112,-2.24 -1.344,-0.8 -3.104,-0.8 -1.728,0 -3.104,0.8 -1.376,0.8 -2.144,2.24 -0.768,1.44 -0.768,3.296 v 0.352 q 0,1.92 0.832,3.392 0.864,1.44 2.368,2.272 1.536,0.8 3.488,0.8 1.536,0 2.848,-0.544 1.344,-0.544 2.304,-1.664 l 1.28,1.472 q -1.12,1.344 -2.816,2.048 -1.664,0.704 -3.68,0.704 z m 12.192,-0.16 v -16.8 h 2.176 v 4.576 l -0.224,-0.8 q 0.704,-1.92 2.368,-2.912 1.664,-1.024 4.128,-1.024 v 2.208 q -0.128,0 -0.256,0 -0.128,-0.032 -0.256,-0.032 -2.656,0 -4.16,1.632 -1.504,1.6 -1.504,4.576 v 8.576 z m 18.62395,0.16 q -2.368,0 -3.648,-1.28 -1.28,-1.28 -1.28,-3.616 v -15.776 h 2.272 v 15.648 q 0,1.472 0.736,2.272 0.768,0.8 2.176,0.8 1.504,0 2.496,-0.864 l 0.8,1.632 q -0.672,0.608 -1.632,0.896 -0.928,0.288 -1.92,0.288 z m -7.936,-15.072 v -1.888 h 10.4 v 1.888 z m 15.424,21.28 q -1.184,0 -2.272,-0.384 -1.056,-0.384 -1.824,-1.152 l 1.056,-1.696 q 0.64,0.608 1.376,0.928 0.768,0.352 1.696,0.352 1.12,0 1.92,-0.64 0.832,-0.608 1.568,-2.176 l 1.088,-2.464 0.256,-0.352 6.912,-15.584 h 2.24 l -8.416,18.816 q -0.704,1.632 -1.568,2.592 -0.832,0.96 -1.824,1.344 -0.992,0.416 -2.208,0.416 z m 4.48,-5.888 -7.744,-17.28 h 2.368 l 6.848,15.424 z"
     id="text4126-2-1-5-6-5-9-3-7"
     style="font-size:32px;line-height:1.25;font-family:Montserrat;-inkscape-font-specification:'Montserrat, Normal';text-align:center;letter-spacing:0px;word-spacing:0px;text-anchor:middle"
     aria-label="Poverty" />
  <path
     inkscape:connector-curvature="0"
     style="fill:#ffffff;stroke:#000000;stroke-width:2"
     d="m 9.73693,236.70053 h 210.87979 v 93.69972 H 9.73693 Z"
     id="path244-6-1-2-9-3-97"
     sodipodi:nodetypes="ccccc" />
  <g
     id="text4126-2-1-5-6-5-9-3-3"
     style="font-size:26.6667px;line-height:1.25;font-family:Montserrat;-inkscape-font-specification:'Montserrat, @wght=400';font-variation-settings:'wght' 400;text-align:center;letter-spacing:0px;word-spacing:0px;text-anchor:middle"
     aria-label="Ethnic&#10;Heterogeneity">
    <path
       style="font-size:26.6667px"
       d="m 77.16372,264.90693 h 9.866666 v 1.68 H 77.16372 Z m 0.213333,8.61333 h 11.226666 v 1.70667 H 75.40372 v -18.66667 h 12.799999 v 1.70667 H 77.377053 Z m 19.49601,1.84 q -1.973334,0 -3.04,-1.06666 -1.066667,-1.06667 -1.066667,-3.01334 V 258.1336 h 1.893333 v 13.04 q 0,1.22666 0.613334,1.89333 0.64,0.66667 1.813333,0.66667 1.253333,0 2.08,-0.72 l 0.666667,1.36 q -0.56,0.50666 -1.36,0.74666 -0.773334,0.24 -1.6,0.24 z m -6.613333,-12.56 v -1.57333 h 8.666666 v 1.57333 z m 20.16,-1.70666 q 1.70667,0 2.98667,0.66666 1.30667,0.64 2.02667,1.97334 0.74666,1.33333 0.74666,3.36 v 8.13333 h -1.89333 v -7.94667 q 0,-2.21333 -1.12,-3.33333 -1.09333,-1.14667 -3.09333,-1.14667 -1.49334,0 -2.61334,0.61334 -1.09333,0.58666 -1.70666,1.73333 -0.58667,1.12 -0.58667,2.72 v 7.36 h -1.89333 v -19.78667 h 1.89333 v 9.62667 l -0.37333,-0.72 q 0.66666,-1.52 2.13333,-2.37333 1.46667,-0.88 3.49333,-0.88 z m 18.02668,0 q 1.70667,0 2.98667,0.66666 1.30667,0.64 2.02667,1.97334 0.74666,1.33333 0.74666,3.36 v 8.13333 h -1.89333 v -7.94667 q 0,-2.21333 -1.12,-3.33333 -1.09333,-1.14667 -3.09333,-1.14667 -1.49334,0 -2.61334,0.61334 -1.09333,0.58666 -1.70666,1.73333 -0.58667,1.12 -0.58667,2.72 v 7.36 h -1.89333 v -14 h 1.81333 v 3.84 l -0.29333,-0.72 q 0.66666,-1.52 2.13333,-2.37333 1.46667,-0.88 3.49333,-0.88 z m 10.88002,14.13333 v -14 h 1.89333 v 14 z m 0.96,-17.09333 q -0.58667,0 -0.98667,-0.4 -0.4,-0.4 -0.4,-0.96 0,-0.56 0.4,-0.93334 0.4,-0.4 0.98667,-0.4 0.58666,0 0.98666,0.37334 0.4,0.37333 0.4,0.93333 0,0.58667 -0.4,0.98667 -0.37333,0.4 -0.98666,0.4 z m 12.02664,17.22666 q -2.08,0 -3.73333,-0.90666 -1.62667,-0.93334 -2.56,-2.53334 -0.93334,-1.62666 -0.93334,-3.70666 0,-2.10667 0.93334,-3.70667 0.93333,-1.6 2.56,-2.50667 1.65333,-0.90666 3.73333,-0.90666 1.78667,0 3.22667,0.69333 1.44,0.69333 2.26666,2.08 l -1.41333,0.96 q -0.72,-1.06667 -1.78667,-1.57333 -1.06666,-0.50667 -2.32,-0.50667 -1.49333,0 -2.69333,0.69333 -1.2,0.66667 -1.89333,1.89334 -0.69334,1.22666 -0.69334,2.88 0,1.65333 0.69334,2.88 0.69333,1.22666 1.89333,1.92 1.2,0.66666 2.69333,0.66666 1.25334,0 2.32,-0.50666 1.06667,-0.50667 1.78667,-1.54667 l 1.41333,0.96 q -0.82666,1.36 -2.26666,2.08 -1.44,0.69333 -3.22667,0.69333 z"
       id="path4" />
    <path
       style="font-size:26.6667px"
       d="m 36.319754,289.89364 h 1.946667 V 308.5603 H 36.319754 Z M 24.639755,308.5603 h -1.973334 v -18.66666 h 1.973334 z m 11.866666,-8.61333 h -12.08 v -1.73333 h 12.08 z m 13.386659,8.74667 q -2.186666,0 -3.839999,-0.90667 -1.653334,-0.93333 -2.586667,-2.53333 -0.933333,-1.62667 -0.933333,-3.70667 0,-2.08 0.88,-3.68 0.906666,-1.6 2.453333,-2.50667 1.573333,-0.93333 3.52,-0.93333 1.973333,0 3.493333,0.90667 1.546667,0.88 2.426667,2.50666 0.88,1.6 0.88,3.70667 0,0.13333 -0.02667,0.29333 0,0.13334 0,0.29334 H 43.973081 v -1.41334 h 11.173333 l -0.746667,0.56 q 0,-1.52 -0.666667,-2.69333 -0.64,-1.2 -1.76,-1.86667 -1.12,-0.66666 -2.586666,-0.66666 -1.44,0 -2.586667,0.66666 -1.146666,0.66667 -1.786666,1.86667 -0.64,1.2 -0.64,2.74667 v 0.29333 q 0,1.6 0.693333,2.82667 0.72,1.2 1.973333,1.89333 1.28,0.66667 2.906667,0.66667 1.28,0 2.373333,-0.45334 1.12,-0.45333 1.92,-1.38666 l 1.066667,1.22666 q -0.933334,1.12 -2.346667,1.70667 -1.386667,0.58667 -3.066667,0.58667 z m 14.586667,0 q -1.973333,0 -3.04,-1.06667 -1.066666,-1.06667 -1.066666,-3.01333 v -13.14667 h 1.893333 v 13.04 q 0,1.22667 0.613333,1.89333 0.64,0.66667 1.813333,0.66667 1.253334,0 2.08,-0.72 l 0.666667,1.36 q -0.56,0.50667 -1.36,0.74667 -0.773333,0.24 -1.6,0.24 z m -6.613333,-12.56 v -1.57334 h 8.666666 v 1.57334 z m 18.456873,12.56 q -2.186667,0 -3.84,-0.90667 -1.653333,-0.93333 -2.586667,-2.53333 -0.933333,-1.62667 -0.933333,-3.70667 0,-2.08 0.88,-3.68 0.906667,-1.6 2.453333,-2.50667 1.573334,-0.93333 3.52,-0.93333 1.973333,0 3.493333,0.90667 1.546667,0.88 2.426667,2.50666 0.88,1.6 0.88,3.70667 0,0.13333 -0.02667,0.29333 0,0.13334 0,0.29334 H 70.403287 V 300.7203 H 81.57662 l -0.746667,0.56 q 0,-1.52 -0.666666,-2.69333 -0.64,-1.2 -1.76,-1.86667 -1.12,-0.66666 -2.586667,-0.66666 -1.44,0 -2.586666,0.66666 -1.146667,0.66667 -1.786667,1.86667 -0.64,1.2 -0.64,2.74667 v 0.29333 q 0,1.6 0.693333,2.82667 0.72,1.2 1.973334,1.89333 1.279999,0.66667 2.906666,0.66667 1.28,0 2.373333,-0.45334 1.12,-0.45333 1.92,-1.38666 l 1.066667,1.22666 q -0.933333,1.12 -2.346667,1.70667 -1.386666,0.58667 -3.066666,0.58667 z m 10.16,-0.13334 v -14 h 1.813333 v 3.81334 l -0.186667,-0.66667 q 0.586667,-1.6 1.973334,-2.42667 1.386666,-0.85333 3.44,-0.85333 v 1.84 q -0.106667,0 -0.213334,0 -0.106666,-0.0267 -0.213333,-0.0267 -2.213333,0 -3.466667,1.36 -1.253333,1.33334 -1.253333,3.81334 v 7.14666 z m 16.060423,0.13334 q -2.02667,0 -3.653338,-0.90667 -1.6,-0.93333 -2.533333,-2.53333 -0.933333,-1.62667 -0.933333,-3.70667 0,-2.10667 0.933333,-3.70667 0.933333,-1.6 2.533333,-2.50666 1.599998,-0.90667 3.653338,-0.90667 2.08,0 3.68,0.90667 1.62666,0.90666 2.53333,2.50666 0.93333,1.6 0.93333,3.70667 0,2.08 -0.93333,3.70667 -0.90667,1.6 -2.53333,2.53333 -1.62667,0.90667 -3.68,0.90667 z m 0,-1.68 q 1.52,0 2.69333,-0.66667 1.17333,-0.69333 1.84,-1.92 0.69333,-1.25333 0.69333,-2.88 0,-1.65333 -0.69333,-2.88 -0.66667,-1.22667 -1.84,-1.89333 -1.17333,-0.69334 -2.66667,-0.69334 -1.49333,0 -2.666664,0.69334 -1.173334,0.66666 -1.866667,1.89333 -0.693333,1.22667 -0.693333,2.88 0,1.62667 0.693333,2.88 0.693333,1.22667 1.866667,1.92 1.173334,0.66667 2.640004,0.66667 z m 16.98668,6.85333 q -1.92,0 -3.68,-0.56 -1.76,-0.56 -2.85333,-1.6 l 0.96,-1.44 q 0.98666,0.88 2.42666,1.38667 1.46667,0.53333 3.09334,0.53333 2.66666,0 3.92,-1.25333 1.25333,-1.22667 1.25333,-3.84 v -3.49334 l 0.26667,-2.4 -0.18667,-2.4 v -4.24 h 1.81333 v 12.29334 q 0,3.62666 -1.78666,5.30666 -1.76,1.70667 -5.22667,1.70667 z m -0.34667,-5.84 q -2,0 -3.6,-0.85333 -1.6,-0.88 -2.53333,-2.42667 -0.90667,-1.54667 -0.90667,-3.54667 0,-2 0.90667,-3.52 0.93333,-1.54666 2.53333,-2.4 1.6,-0.85333 3.6,-0.85333 1.86667,0 3.36,0.77333 1.49334,0.77334 2.37334,2.29334 0.88,1.52 0.88,3.70666 0,2.18667 -0.88,3.70667 -0.88,1.52 -2.37334,2.32 -1.49333,0.8 -3.36,0.8 z m 0.18667,-1.68 q 1.54667,0 2.74667,-0.64 1.2,-0.66667 1.89333,-1.81333 0.69333,-1.17334 0.69333,-2.69334 0,-1.52 -0.69333,-2.66666 -0.69333,-1.14667 -1.89333,-1.78667 -1.2,-0.66667 -2.74667,-0.66667 -1.52,0 -2.74667,0.66667 -1.2,0.64 -1.89333,1.78667 -0.66667,1.14666 -0.66667,2.66666 0,1.52 0.66667,2.69334 0.69333,1.14666 1.89333,1.81333 1.22667,0.64 2.74667,0.64 z m 18.39999,2.34667 q -2.18667,0 -3.84,-0.90667 -1.65334,-0.93333 -2.58667,-2.53333 -0.93333,-1.62667 -0.93333,-3.70667 0,-2.08 0.88,-3.68 0.90666,-1.6 2.45333,-2.50667 1.57333,-0.93333 3.52,-0.93333 1.97333,0 3.49333,0.90667 1.54667,0.88 2.42667,2.50666 0.88,1.6 0.88,3.70667 0,0.13333 -0.0267,0.29333 0,0.13334 0,0.29334 h -12.18666 v -1.41334 h 11.17333 l -0.74667,0.56 q 0,-1.52 -0.66666,-2.69333 -0.64,-1.2 -1.76,-1.86667 -1.12,-0.66666 -2.58667,-0.66666 -1.44,0 -2.58667,0.66666 -1.14666,0.66667 -1.78666,1.86667 -0.64,1.2 -0.64,2.74667 v 0.29333 q 0,1.6 0.69333,2.82667 0.72,1.2 1.97333,1.89333 1.28,0.66667 2.90667,0.66667 1.28,0 2.37333,-0.45334 1.12,-0.45333 1.92,-1.38666 l 1.06667,1.22666 q -0.93333,1.12 -2.34667,1.70667 -1.38666,0.58667 -3.06666,0.58667 z m 17.30666,-14.26667 q 1.70667,0 2.98667,0.66667 1.30667,0.64 2.02667,1.97333 0.74666,1.33333 0.74666,3.36 v 8.13333 h -1.89333 v -7.94666 q 0,-2.21334 -1.12,-3.33334 -1.09333,-1.14666 -3.09333,-1.14666 -1.49334,0 -2.61334,0.61333 -1.09333,0.58667 -1.70666,1.73333 -0.58667,1.12 -0.58667,2.72 v 7.36 h -1.89333 v -14 h 1.81333 v 3.84 l -0.29333,-0.72 q 0.66666,-1.52 2.13333,-2.37333 1.46667,-0.88 3.49333,-0.88 z m 16.82669,14.26667 q -2.18667,0 -3.84,-0.90667 -1.65333,-0.93333 -2.58667,-2.53333 -0.93333,-1.62667 -0.93333,-3.70667 0,-2.08 0.88,-3.68 0.90667,-1.6 2.45333,-2.50667 1.57334,-0.93333 3.52,-0.93333 1.97334,0 3.49334,0.90667 1.54666,0.88 2.42666,2.50666 0.88,1.6 0.88,3.70667 0,0.13333 -0.0267,0.29333 0,0.13334 0,0.29334 h -12.18667 v -1.41334 h 11.17333 l -0.74666,0.56 q 0,-1.52 -0.66667,-2.69333 -0.64,-1.2 -1.76,-1.86667 -1.12,-0.66666 -2.58667,-0.66666 -1.44,0 -2.58666,0.66666 -1.14667,0.66667 -1.78667,1.86667 -0.64,1.2 -0.64,2.74667 v 0.29333 q 0,1.6 0.69333,2.82667 0.72,1.2 1.97334,1.89333 1.28,0.66667 2.90666,0.66667 1.28,0 2.37334,-0.45334 1.12,-0.45333 1.92,-1.38666 l 1.06666,1.22666 q -0.93333,1.12 -2.34666,1.70667 -1.38667,0.58667 -3.06667,0.58667 z m 10.15999,-0.13334 v -14 h 1.89334 v 14 z m 0.96,-17.09333 q -0.58666,0 -0.98666,-0.4 -0.4,-0.4 -0.4,-0.96 0,-0.56 0.4,-0.93333 0.4,-0.4 0.98666,-0.4 0.58667,0 0.98667,0.37333 0.4,0.37333 0.4,0.93333 0,0.58667 -0.4,0.98667 -0.37333,0.4 -0.98667,0.4 z m 10.63998,17.22667 q -1.97333,0 -3.04,-1.06667 -1.06667,-1.06667 -1.06667,-3.01333 v -13.14667 h 1.89334 v 13.04 q 0,1.22667 0.61333,1.89333 0.64,0.66667 1.81333,0.66667 1.25334,0 2.08,-0.72 l 0.66667,1.36 q -0.56,0.50667 -1.36,0.74667 -0.77333,0.24 -1.6,0.24 z m -6.61333,-12.56 v -1.57334 h 8.66666 v 1.57334 z m 12.85333,17.73333 q -0.98667,0 -1.89334,-0.32 -0.88,-0.32 -1.52,-0.96 l 0.88,-1.41333 q 0.53334,0.50666 1.14667,0.77333 0.64,0.29333 1.41333,0.29333 0.93334,0 1.6,-0.53333 0.69334,-0.50667 1.30667,-1.81333 l 0.90667,-2.05334 0.21333,-0.29333 5.76,-12.98667 h 1.86667 l -7.01334,15.68 q -0.58666,1.36 -1.30666,2.16 -0.69334,0.8 -1.52,1.12 -0.82667,0.34667 -1.84,0.34667 z m 3.73333,-4.90667 -6.45333,-14.4 h 1.97333 l 5.70667,12.85334 z"
       id="path5" />
  </g>
  <path
     inkscape:connector-curvature="0"
     style="fill:none;stroke:#000000;stroke-width:2;stroke-miterlimit:4;stroke-dasharray:none;stroke-dashoffset:0;marker-end:url(#marker6123-9-3-9-4-6)"
     d="m 229.42631,170.89352 h 58.10777"
     id="path260-8-3-9-7-2"
     sodipodi:nodetypes="cc" />
  <path
     inkscape:connector-curvature="0"
     style="fill:none;stroke:#000000;stroke-width:2;stroke-miterlimit:4;stroke-dasharray:none;stroke-dashoffset:0;marker-end:url(#marker6123-9-3-9-4-6-0)"
     d="m 504.20229,172.87496 h 58.10777"
     id="path260-8-3-9-7-2-8"
     sodipodi:nodetypes="cc" />
  <path
     inkscape:connector-curvature="0"
     style="fill:#ffffff;stroke:#000000;stroke-width:2"
     d="m 292.90264,399.81533 h 210.87979 v 93.69972 H 292.90264 Z"
     id="path244-6-1-2-9-3-4-1"
     sodipodi:nodetypes="ccccc" />
  <g
     id="text4126-2-1-5-6-5-9-3-2-5"
     style="font-size:32px;line-height:1.25;font-family:Montserrat;-inkscape-font-specification:'Montserrat, Normal';text-align:center;letter-spacing:0px;word-spacing:0px;text-anchor:middle"
     aria-label="Weak&#10;Controls">
    <path
       d="m 361.33421,437.3367 -7.552,-22.4 h 2.432 l 7.072,21.088 h -1.216 l 7.296,-21.088 h 2.176 l 7.2,21.088 h -1.152 l 7.136,-21.088 h 2.272 l -7.552,22.4 h -2.496 l -6.88,-20 h 0.64 l -6.912,20 z m 35.35999,0.16 q -2.624,0 -4.608,-1.088 -1.984,-1.12 -3.104,-3.04 -1.12,-1.952 -1.12,-4.448 0,-2.496 1.056,-4.416 1.088,-1.92 2.944,-3.008 1.888,-1.12 4.224,-1.12 2.368,0 4.192,1.088 1.856,1.056 2.912,3.008 1.056,1.92 1.056,4.448 0,0.16 -0.032,0.352 0,0.16 0,0.352 h -14.624 v -1.696 h 13.408 l -0.896,0.672 q 0,-1.824 -0.8,-3.232 -0.768,-1.44 -2.112,-2.24 -1.344,-0.8 -3.104,-0.8 -1.728,0 -3.104,0.8 -1.376,0.8 -2.144,2.24 -0.768,1.44 -0.768,3.296 v 0.352 q 0,1.92 0.832,3.392 0.864,1.44 2.368,2.272 1.536,0.8 3.488,0.8 1.536,0 2.848,-0.544 1.344,-0.544 2.304,-1.664 l 1.28,1.472 q -1.12,1.344 -2.816,2.048 -1.664,0.704 -3.68,0.704 z m 22.24002,-0.16 v -3.712 l -0.096,-0.608 v -6.208 q 0,-2.144 -1.216,-3.296 -1.184,-1.152 -3.552,-1.152 -1.632,0 -3.104,0.544 -1.472,0.544 -2.496,1.44 l -1.024,-1.696 q 1.28,-1.088 3.072,-1.664 1.792,-0.608 3.776,-0.608 3.264,0 5.024,1.632 1.792,1.6 1.792,4.896 v 10.432 z m -5.792,0.16 q -1.888,0 -3.296,-0.608 -1.376,-0.64 -2.112,-1.728 -0.736,-1.12 -0.736,-2.56 0,-1.312 0.608,-2.368 0.64,-1.088 2.048,-1.728 1.44,-0.672 3.84,-0.672 h 5.792 v 1.696 h -5.728 q -2.432,0 -3.392,0.864 -0.928,0.864 -0.928,2.144 0,1.44 1.12,2.304 1.12,0.864 3.136,0.864 1.92,0 3.296,-0.864 1.408,-0.896 2.048,-2.56 l 0.512,1.568 q -0.64,1.664 -2.24,2.656 -1.568,0.992 -3.968,0.992 z m 15.93601,-4.512 0.064,-2.912 10.464,-9.536 h 2.784 l -7.392,7.072 -1.28,1.088 z m -1.792,4.352 v -23.744 h 2.272 v 23.744 z m 13.024,0 -7.008,-8.736 1.472,-1.76 8.32,10.496 z"
       id="path16" />
    <path
       d="m 344.50967,477.5287 q -2.528,0 -4.672,-0.832 -2.144,-0.864 -3.712,-2.4 -1.568,-1.536 -2.464,-3.616 -0.864,-2.08 -0.864,-4.544 0,-2.464 0.864,-4.544 0.896,-2.08 2.464,-3.616 1.6,-1.536 3.744,-2.368 2.144,-0.864 4.672,-0.864 2.432,0 4.576,0.832 2.144,0.8 3.616,2.432 l -1.504,1.504 q -1.376,-1.408 -3.04,-2.016 -1.664,-0.64 -3.584,-0.64 -2.016,0 -3.744,0.704 -1.728,0.672 -3.008,1.952 -1.28,1.248 -2.016,2.944 -0.704,1.664 -0.704,3.68 0,2.016 0.704,3.712 0.736,1.664 2.016,2.944 1.28,1.248 3.008,1.952 1.728,0.672 3.744,0.672 1.92,0 3.584,-0.64 1.664,-0.64 3.04,-2.048 l 1.504,1.504 q -1.472,1.632 -3.616,2.464 -2.144,0.832 -4.608,0.832 z m 18.92051,-0.032 q -2.432,0 -4.384,-1.088 -1.92,-1.12 -3.04,-3.04 -1.12,-1.952 -1.12,-4.448 0,-2.528 1.12,-4.448 1.12,-1.92 3.04,-3.008 1.92,-1.088 4.384,-1.088 2.496,0 4.416,1.088 1.952,1.088 3.04,3.008 1.12,1.92 1.12,4.448 0,2.496 -1.12,4.448 -1.088,1.92 -3.04,3.04 -1.952,1.088 -4.416,1.088 z m 0,-2.016 q 1.824,0 3.232,-0.8 1.408,-0.832 2.208,-2.304 0.832,-1.504 0.832,-3.456 0,-1.984 -0.832,-3.456 -0.8,-1.472 -2.208,-2.272 -1.408,-0.832 -3.2,-0.832 -1.792,0 -3.2,0.832 -1.408,0.8 -2.24,2.272 -0.832,1.472 -0.832,3.456 0,1.952 0.832,3.456 0.832,1.472 2.24,2.304 1.408,0.8 3.168,0.8 z m 21.79203,-15.104 q 2.048,0 3.584,0.8 1.568,0.768 2.432,2.368 0.896,1.6 0.896,4.032 v 9.76 h -2.272 v -9.536 q 0,-2.656 -1.344,-4 -1.312,-1.376 -3.712,-1.376 -1.792,0 -3.136,0.736 -1.312,0.704 -2.048,2.08 -0.704,1.344 -0.704,3.264 v 8.832 h -2.272 v -16.8 h 2.176 v 4.608 l -0.352,-0.864 q 0.8,-1.824 2.56,-2.848 1.76,-1.056 4.192,-1.056 z m 18.36802,17.12 q -2.368,0 -3.648,-1.28 -1.28,-1.28 -1.28,-3.616 v -15.776 h 2.272 v 15.648 q 0,1.472 0.736,2.272 0.768,0.8 2.176,0.8 1.504,0 2.496,-0.864 l 0.8,1.632 q -0.672,0.608 -1.632,0.896 -0.928,0.288 -1.92,0.288 z m -7.936,-15.072 v -1.888 h 10.4 v 1.888 z m 15.616,14.912 v -16.8 h 2.176 v 4.576 l -0.224,-0.8 q 0.704,-1.92 2.368,-2.912 1.664,-1.024 4.128,-1.024 v 2.208 q -0.128,0 -0.256,0 -0.128,-0.032 -0.256,-0.032 -2.656,0 -4.16,1.632 -1.504,1.6 -1.504,4.576 v 8.576 z m 19.2725,0.16 q -2.432,0 -4.384,-1.088 -1.92,-1.12 -3.04,-3.04 -1.12,-1.952 -1.12,-4.448 0,-2.528 1.12,-4.448 1.12,-1.92 3.04,-3.008 1.92,-1.088 4.384,-1.088 2.496,0 4.416,1.088 1.952,1.088 3.04,3.008 1.12,1.92 1.12,4.448 0,2.496 -1.12,4.448 -1.088,1.92 -3.04,3.04 -1.952,1.088 -4.416,1.088 z m 0,-2.016 q 1.824,0 3.232,-0.8 1.408,-0.832 2.208,-2.304 0.832,-1.504 0.832,-3.456 0,-1.984 -0.832,-3.456 -0.8,-1.472 -2.208,-2.272 -1.408,-0.832 -3.2,-0.832 -1.792,0 -3.2,0.832 -1.408,0.8 -2.24,2.272 -0.832,1.472 -0.832,3.456 0,1.952 0.832,3.456 0.832,1.472 2.24,2.304 1.408,0.8 3.168,0.8 z m 13.21603,1.856 v -23.744 h 2.272 v 23.744 z m 13.11997,0.16 q -2.08,0 -3.936,-0.576 -1.856,-0.608 -2.912,-1.504 l 1.024,-1.792 q 1.024,0.768 2.624,1.344 1.6,0.544 3.36,0.544 2.4,0 3.456,-0.736 1.056,-0.768 1.056,-2.016 0,-0.928 -0.608,-1.44 -0.576,-0.544 -1.536,-0.8 -0.96,-0.288 -2.144,-0.48 -1.184,-0.192 -2.368,-0.448 -1.152,-0.256 -2.112,-0.736 -0.96,-0.512 -1.568,-1.376 -0.576,-0.864 -0.576,-2.304 0,-1.376 0.768,-2.464 0.768,-1.088 2.24,-1.696 1.504,-0.64 3.648,-0.64 1.632,0 3.264,0.448 1.632,0.416 2.688,1.12 l -0.992,1.824 q -1.12,-0.768 -2.4,-1.088 -1.28,-0.352 -2.56,-0.352 -2.272,0 -3.36,0.8 -1.056,0.768 -1.056,1.984 0,0.96 0.576,1.504 0.608,0.544 1.568,0.864 0.992,0.288 2.144,0.48 1.184,0.192 2.336,0.48 1.184,0.256 2.144,0.736 0.992,0.448 1.568,1.312 0.608,0.832 0.608,2.208 0,1.472 -0.832,2.56 -0.8,1.056 -2.368,1.664 -1.536,0.576 -3.744,0.576 z"
       id="path17" />
  </g>
  <path
     sodipodi:nodetypes="ccccc"
     id="path244-6-1-2-9-3-3-8"
     d="m 566.61972,399.81533 h 210.87979 v 93.69972 H 566.61972 Z"
     style="fill:#ffffff;stroke:#000000;stroke-width:2"
     inkscape:connector-curvature="0" />
  <g
     id="text4126-2-1-5-6-5-9-3-75-1"
     style="font-size:32px;line-height:1.25;font-family:Montserrat;-inkscape-font-specification:'Montserrat, Normal';text-align:center;letter-spacing:0px;word-spacing:0px;text-anchor:middle"
     aria-label="Criminal&#10;Behavior">
    <path
       d="m 617.00787,436.54542 q -2.528,0 -4.672,-0.832 -2.144,-0.864 -3.712,-2.4 -1.568,-1.536 -2.464,-3.616 -0.864,-2.08 -0.864,-4.544 0,-2.464 0.864,-4.544 0.896,-2.08 2.464,-3.616 1.6,-1.536 3.744,-2.368 2.144,-0.864 4.672,-0.864 2.432,0 4.576,0.832 2.144,0.8 3.616,2.432 l -1.504,1.504 q -1.376,-1.408 -3.04,-2.016 -1.664,-0.64 -3.584,-0.64 -2.016,0 -3.744,0.704 -1.728,0.672 -3.008,1.952 -1.28,1.248 -2.016,2.944 -0.704,1.664 -0.704,3.68 0,2.016 0.704,3.712 0.736,1.664 2.016,2.944 1.28,1.248 3.008,1.952 1.728,0.672 3.744,0.672 1.92,0 3.584,-0.64 1.664,-0.64 3.04,-2.048 l 1.504,1.504 q -1.472,1.632 -3.616,2.464 -2.144,0.832 -4.608,0.832 z m 12.79999,-0.192 v -16.8 h 2.176 v 4.576 l -0.224,-0.8 q 0.704,-1.92 2.368,-2.912 1.664,-1.024 4.128,-1.024 v 2.208 q -0.128,0 -0.256,0 -0.128,-0.032 -0.256,-0.032 -2.656,0 -4.16,1.632 -1.504,1.6 -1.504,4.576 v 8.576 z m 12.58447,0 v -16.8 h 2.272 v 16.8 z m 1.152,-20.512 q -0.704,0 -1.184,-0.48 -0.48,-0.48 -0.48,-1.152 0,-0.672 0.48,-1.12 0.48,-0.48 1.184,-0.48 0.704,0 1.184,0.448 0.48,0.448 0.48,1.12 0,0.704 -0.48,1.184 -0.448,0.48 -1.184,0.48 z m 28.44798,3.552 q 2.048,0 3.552,0.8 1.536,0.768 2.368,2.368 0.864,1.6 0.864,4.032 v 9.76 h -2.272 v -9.536 q 0,-2.656 -1.28,-4 -1.248,-1.376 -3.552,-1.376 -1.728,0 -3.008,0.736 -1.248,0.704 -1.952,2.08 -0.672,1.344 -0.672,3.264 v 8.832 h -2.272 v -9.536 q 0,-2.656 -1.28,-4 -1.28,-1.376 -3.584,-1.376 -1.696,0 -2.976,0.736 -1.28,0.704 -1.984,2.08 -0.672,1.344 -0.672,3.264 v 8.832 h -2.272 v -16.8 h 2.176 v 4.544 l -0.352,-0.8 q 0.768,-1.824 2.464,-2.848 1.728,-1.056 4.064,-1.056 2.464,0 4.192,1.248 1.728,1.216 2.24,3.68 l -0.896,-0.352 q 0.736,-2.048 2.592,-3.296 1.888,-1.28 4.512,-1.28 z m 12.96002,16.96 v -16.8 h 2.272 v 16.8 z m 1.152,-20.512 q -0.704,0 -1.184,-0.48 -0.48,-0.48 -0.48,-1.152 0,-0.672 0.48,-1.12 0.48,-0.48 1.184,-0.48 0.704,0 1.184,0.448 0.48,0.448 0.48,1.12 0,0.704 -0.48,1.184 -0.448,0.48 -1.184,0.48 z m 16.03197,3.552 q 2.048,0 3.584,0.8 1.568,0.768 2.432,2.368 0.896,1.6 0.896,4.032 v 9.76 h -2.272 v -9.536 q 0,-2.656 -1.344,-4 -1.312,-1.376 -3.712,-1.376 -1.792,0 -3.136,0.736 -1.312,0.704 -2.048,2.08 -0.704,1.344 -0.704,3.264 v 8.832 h -2.272 v -16.8 h 2.176 v 4.608 l -0.352,-0.864 q 0.8,-1.824 2.56,-2.848 1.76,-1.056 4.192,-1.056 z m 23.58402,16.96 v -3.712 l -0.096,-0.608 v -6.208 q 0,-2.144 -1.216,-3.296 -1.184,-1.152 -3.552,-1.152 -1.632,0 -3.104,0.544 -1.472,0.544 -2.496,1.44 l -1.024,-1.696 q 1.28,-1.088 3.072,-1.664 1.792,-0.608 3.776,-0.608 3.264,0 5.024,1.632 1.792,1.6 1.792,4.896 v 10.432 z m -5.792,0.16 q -1.888,0 -3.296,-0.608 -1.376,-0.64 -2.112,-1.728 -0.736,-1.12 -0.736,-2.56 0,-1.312 0.608,-2.368 0.64,-1.088 2.048,-1.728 1.44,-0.672 3.84,-0.672 h 5.792 v 1.696 h -5.728 q -2.432,0 -3.392,0.864 -0.928,0.864 -0.928,2.144 0,1.44 1.12,2.304 1.12,0.864 3.136,0.864 1.92,0 3.296,-0.864 1.408,-0.896 2.048,-2.56 l 0.512,1.568 q -0.64,1.664 -2.24,2.656 -1.568,0.992 -3.968,0.992 z m 14.14401,-0.16 v -23.744 h 2.272 v 23.744 z"
       id="path14" />
    <path
       d="m 603.9721,476.35342 v -22.4 h 9.664 q 3.744,0 5.792,1.504 2.08,1.504 2.08,4.256 0,1.824 -0.864,3.072 -0.832,1.248 -2.304,1.888 -1.44,0.64 -3.168,0.64 l 0.544,-0.768 q 2.144,0 3.68,0.672 1.568,0.64 2.432,1.952 0.864,1.28 0.864,3.2 0,2.848 -2.112,4.416 -2.08,1.568 -6.304,1.568 z m 2.368,-1.952 h 7.904 q 2.944,0 4.512,-0.992 1.568,-1.024 1.568,-3.232 0,-2.176 -1.568,-3.168 -1.568,-1.024 -4.512,-1.024 h -8.16 v -1.952 h 7.392 q 2.688,0 4.16,-1.024 1.504,-1.024 1.504,-3.04 0,-2.048 -1.504,-3.04 -1.472,-1.024 -4.16,-1.024 h -7.136 z m 28.41599,2.112 q -2.624,0 -4.608,-1.088 -1.984,-1.12 -3.104,-3.04 -1.12,-1.952 -1.12,-4.448 0,-2.496 1.056,-4.416 1.088,-1.92 2.944,-3.008 1.888,-1.12 4.224,-1.12 2.368,0 4.192,1.088 1.856,1.056 2.912,3.008 1.056,1.92 1.056,4.448 0,0.16 -0.032,0.352 0,0.16 0,0.352 h -14.624 v -1.696 h 13.408 l -0.896,0.672 q 0,-1.824 -0.8,-3.232 -0.768,-1.44 -2.112,-2.24 -1.344,-0.8 -3.104,-0.8 -1.728,0 -3.104,0.8 -1.376,0.8 -2.144,2.24 -0.768,1.44 -0.768,3.296 v 0.352 q 0,1.92 0.832,3.392 0.864,1.44 2.368,2.272 1.536,0.8 3.488,0.8 1.536,0 2.848,-0.544 1.344,-0.544 2.304,-1.664 l 1.28,1.472 q -1.12,1.344 -2.816,2.048 -1.664,0.704 -3.68,0.704 z m 20.768,-17.12 q 2.048,0 3.584,0.8 1.568,0.768 2.432,2.368 0.896,1.6 0.896,4.032 v 9.76 h -2.272 v -9.536 q 0,-2.656 -1.344,-4 -1.312,-1.376 -3.712,-1.376 -1.792,0 -3.136,0.736 -1.312,0.704 -2.048,2.08 -0.704,1.344 -0.704,3.264 v 8.832 h -2.272 v -23.744 h 2.272 v 11.552 l -0.448,-0.864 q 0.8,-1.824 2.56,-2.848 1.76,-1.056 4.192,-1.056 z m 23.58402,16.96 v -3.712 l -0.096,-0.608 v -6.208 q 0,-2.144 -1.216,-3.296 -1.184,-1.152 -3.552,-1.152 -1.632,0 -3.104,0.544 -1.472,0.544 -2.496,1.44 l -1.024,-1.696 q 1.28,-1.088 3.072,-1.664 1.792,-0.608 3.776,-0.608 3.264,0 5.024,1.632 1.792,1.6 1.792,4.896 v 10.432 z m -5.792,0.16 q -1.888,0 -3.296,-0.608 -1.376,-0.64 -2.112,-1.728 -0.736,-1.12 -0.736,-2.56 0,-1.312 0.608,-2.368 0.64,-1.088 2.048,-1.728 1.44,-0.672 3.84,-0.672 h 5.792 v 1.696 h -5.728 q -2.432,0 -3.392,0.864 -0.928,0.864 -0.928,2.144 0,1.44 1.12,2.304 1.12,0.864 3.136,0.864 1.92,0 3.296,-0.864 1.408,-0.896 2.048,-2.56 l 0.512,1.568 q -0.64,1.664 -2.24,2.656 -1.568,0.992 -3.968,0.992 z m 18.144,-0.16 -7.456,-16.8 h 2.368 l 6.848,15.584 h -1.12 l 6.944,-15.584 h 2.24 l -7.488,16.8 z m 13.02399,0 v -16.8 h 2.272 v 16.8 z m 1.152,-20.512 q -0.704,0 -1.184,-0.48 -0.48,-0.48 -0.48,-1.152 0,-0.672 0.48,-1.12 0.48,-0.48 1.184,-0.48 0.704,0 1.184,0.448 0.48,0.448 0.48,1.12 0,0.704 -0.48,1.184 -0.448,0.48 -1.184,0.48 z m 14.30397,20.672 q -2.432,0 -4.384,-1.088 -1.92,-1.12 -3.04,-3.04 -1.12,-1.952 -1.12,-4.448 0,-2.528 1.12,-4.448 1.12,-1.92 3.04,-3.008 1.92,-1.088 4.384,-1.088 2.496,0 4.416,1.088 1.952,1.088 3.04,3.008 1.12,1.92 1.12,4.448 0,2.496 -1.12,4.448 -1.088,1.92 -3.04,3.04 -1.952,1.088 -4.416,1.088 z m 0,-2.016 q 1.824,0 3.232,-0.8 1.408,-0.832 2.208,-2.304 0.832,-1.504 0.832,-3.456 0,-1.984 -0.832,-3.456 -0.8,-1.472 -2.208,-2.272 -1.408,-0.832 -3.2,-0.832 -1.792,0 -3.2,0.832 -1.408,0.8 -2.24,2.272 -0.832,1.472 -0.832,3.456 0,1.952 0.832,3.456 0.832,1.472 2.24,2.304 1.408,0.8 3.168,0.8 z m 13.21603,1.856 v -16.8 h 2.176 v 4.576 l -0.224,-0.8 q 0.704,-1.92 2.368,-2.912 1.664,-1.024 4.128,-1.024 v 2.208 q -0.128,0 -0.256,0 -0.128,-0.032 -0.256,-0.032 -2.656,0 -4.16,1.632 -1.504,1.6 -1.504,4.576 v 8.576 z"
       id="path15" />
  </g>
  <path
     inkscape:connector-curvature="0"
     style="fill:none;stroke:#000000;stroke-width:2;stroke-miterlimit:4;stroke-dasharray:none;stroke-dashoffset:0;marker-end:url(#marker6123-9-3-9-4-6-0-3)"
     d="m 503.76919,448.29593 h 58.10777"
     id="path260-8-3-9-7-2-8-8"
     sodipodi:nodetypes="cc" />
  <path
     inkscape:connector-curvature="0"
     style="fill:none;stroke:#000000;stroke-width:2;stroke-miterlimit:4;stroke-dasharray:none;stroke-dashoffset:0;marker-end:url(#marker6123-9-3-9-4-6-0-9)"
     d="M 397.14362,216.75074 V 394.09196"
     id="path260-8-3-9-7-2-8-84"
     sodipodi:nodetypes="cc" />
  <path
     inkscape:connector-curvature="0"
     style="fill:none;stroke:#000000;stroke-width:2;stroke-miterlimit:4;stroke-dasharray:none;stroke-dashoffset:0;marker-end:url(#marker6123-9-3-9-4-6-0-9-2)"
     d="M 673.64188,399.61582 V 222.2746"
     id="path260-8-3-9-7-2-8-84-5"
     sodipodi:nodetypes="cc" />
  <path
     inkscape:connector-curvature="0"
     style="fill:none;stroke:#000000;stroke-width:2;stroke-miterlimit:4;stroke-dasharray:6, 6;stroke-dashoffset:0"
     d="M 1.1385244,370.17745 H 778.75849"
     id="path260-8-3-9-7-2-0"
     sodipodi:nodetypes="cc" />
</svg>
