<svg xmlns="http://www.w3.org/2000/svg" xmlns:xlink="http://www.w3.org/1999/xlink" xmlns:lucid="lucid" width="592" height="352"><g transform="translate(-744 -64)" lucid:page-tab-id="0_0"><path d="M960 80h160v120H960z" fill="#fff"/><path d="M995.56 80h35.55m17.8 0h35.54m17.78 0H1120v20m0 20v40m0 20v20h-17.78m-17.78 0h-35.55m-17.8 0h-35.54m-17.78 0H960v-20m0-20v-40m0-20V80h17.78" stroke="#000" stroke-width="2" fill="none"/><use xlink:href="#a" transform="matrix(1,0,0,1,965,85) translate(0.4749999999999943 37)"/><use xlink:href="#b" transform="matrix(1,0,0,1,965,85) translate(83.275 37)"/><use xlink:href="#c" transform="matrix(1,0,0,1,965,85) translate(32.025 58.6)"/><use xlink:href="#d" transform="matrix(1,0,0,1,965,85) translate(20.599999999999994 80.20000000000002)"/><path d="M760 280h160v120H760z" stroke="#000" stroke-width="2" fill="#fff"/><use xlink:href="#a" transform="matrix(1,0,0,1,765,285) translate(0.4749999999999943 47.8)"/><use xlink:href="#b" transform="matrix(1,0,0,1,765,285) translate(83.275 47.8)"/><use xlink:href="#e" transform="matrix(1,0,0,1,765,285) translate(32.025 69.4)"/><path d="M1160 280h160v120h-160z" stroke="#000" stroke-width="2" fill="#fff"/><use xlink:href="#f" transform="matrix(1,0,0,1,1165,285) translate(33.599999999999994 37)"/><use xlink:href="#g" transform="matrix(1,0,0,1,1165,285) translate(39.55 58.6)"/><use xlink:href="#h" transform="matrix(1,0,0,1,1165,285) translate(2.125 80.20000000000002)"/><use xlink:href="#i" transform="matrix(1,0,0,1,1165,285) translate(86.97500000000001 80.20000000000002)"/><path d="M921 318.95l87.46-104" stroke="#000" stroke-width="2" fill="none"/><path d="M921.77 319.6l-1.77 2.1v-3.12l.23-.27zM1012.48 217.38l-7.1-5.97 12.73-7.92z"/><path d="M1012.9 219.03l-9.2-7.74 16.5-10.3zm-5.82-7.5l5 4.2 3.95-9.78z"/><path d="M1060 201l87.28 103.98" stroke="#000" stroke-width="2" fill="none"/><path d="M1060.77 200.36l-1.54 1.28-1.37-1.64h2.6zM1156.92 316.47l-12.72-7.95 7.1-5.96z"/><path d="M1159 318.95l-16.5-10.3 9.2-7.74zm-13.1-10.55l8.94 5.6-3.95-9.8z"/><path d="M920 220h40v60h-40z" stroke="#000" stroke-opacity="0" stroke-width="2" fill="#fff" fill-opacity="0"/><use xlink:href="#j" transform="matrix(1,0,0,1,925,225) translate(5.537037037037036 31.22222222222222)"/><path d="M1120 220h40v60h-40z" stroke="#000" stroke-opacity="0" stroke-width="2" fill="#fff" fill-opacity="0"/><use xlink:href="#k" transform="matrix(1,0,0,1,1125,225) translate(2.901234567901234 31.22222222222222)"/><path d="M933.47 352.3l.93.8 5.1 4.05 4.43 3.22 3.95 2.62 3.64 2.2 3.43 1.9 3.3 1.63 3.25 1.45 3.26 1.3 3.33 1.15 3.47 1.05 3.72.96 4.08.87 4.7.8 5.65.72 7.52.62 12.5.5 30.95.13 41.8-.27 8.8-.55 6.17-.65 4.92-.73 4.16-.8 3.7-.87 3.34-.94 3.12-1.02 2.95-1.1 2.85-1.22 2.8-1.33 2.75-1.47 2.78-1.62 2.84-1.8 2.92-2.07 3.07-2.37 3.28-2.75 3.57-3.26.07-.06" fill="none"/><path d="M933.47 352.3l.93.8 5.1 4.05 4.43 3.22 3.95 2.62.73.44m16.87 8.28l2.62.9 3.47 1.06 3.72.96 4.08.87 4.7.8 5.65.72 7.52.62 5.2.2m18.82.35l19.43.07 18.22-.12m18.82-.12l4.76-.03 8.8-.55 6.17-.65 4.92-.73 4.16-.8 3.7-.87 3.34-.94 1.3-.43m17-8l1.8-1.14 2.92-2.07 3.07-2.37 3.28-2.75 3.57-3.26.07-.06" stroke="#000" stroke-width="2" fill="none"/><path d="M922.4 342.18l13.66 6.2-6.25 6.84z" stroke="#000" stroke-width="2"/><path d="M1150.5 356l-6.8-6.3 13.1-7.33z"/><path d="M1150.84 357.66l-8.82-8.16L1159 340zm-5.44-7.76l4.78 4.42 4.42-9.57z"/><path d="M1020 320h40v60h-40z" stroke="#000" stroke-opacity="0" stroke-width="2" fill="#fff" fill-opacity="0"/><g><use xlink:href="#l" transform="matrix(1,0,0,1,1025,325) translate(3.8086419753086407 31.22222222222222)"/></g><defs><path d="M212-179c-10-28-35-45-73-45-59 0-87 40-87 99 0 60 29 101 89 101 43 0 62-24 78-52l27 14C228-24 195 4 139 4 59 4 22-46 18-125c-6-104 99-153 187-111 19 9 31 26 39 46" id="m"/><path d="M100-194c62-1 85 37 85 99 1 63-27 99-86 99S16-35 15-95c0-66 28-99 85-99zM99-20c44 1 53-31 53-75 0-43-8-75-51-75s-53 32-53 75 10 74 51 75" id="n"/><path d="M24 0v-261h32V0H24" id="o"/><path d="M100-194c63 0 86 42 84 106H49c0 40 14 67 53 68 26 1 43-12 49-29l28 8c-11 28-37 45-77 45C44 4 14-33 15-96c1-61 26-98 85-98zm52 81c6-60-76-77-97-28-3 7-6 17-6 28h103" id="p"/><path d="M96-169c-40 0-48 33-48 73s9 75 48 75c24 0 41-14 43-38l32 2c-6 37-31 61-74 61-59 0-76-41-82-99-10-93 101-131 147-64 4 7 5 14 7 22l-32 3c-4-21-16-35-41-35" id="q"/><path d="M59-47c-2 24 18 29 38 22v24C64 9 27 4 27-40v-127H5v-23h24l9-43h21v43h35v23H59v120" id="r"/><path d="M24-231v-30h32v30H24zM24 0v-190h32V0H24" id="s"/><path d="M108 0H70L1-190h34L89-25l56-165h34" id="t"/><g id="a"><use transform="matrix(0.05,0,0,0.05,0,0)" xlink:href="#m"/><use transform="matrix(0.05,0,0,0.05,12.950000000000001,0)" xlink:href="#n"/><use transform="matrix(0.05,0,0,0.05,22.950000000000003,0)" xlink:href="#o"/><use transform="matrix(0.05,0,0,0.05,26.900000000000002,0)" xlink:href="#o"/><use transform="matrix(0.05,0,0,0.05,30.85,0)" xlink:href="#p"/><use transform="matrix(0.05,0,0,0.05,40.85,0)" xlink:href="#q"/><use transform="matrix(0.05,0,0,0.05,49.85,0)" xlink:href="#r"/><use transform="matrix(0.05,0,0,0.05,54.85,0)" xlink:href="#s"/><use transform="matrix(0.05,0,0,0.05,58.800000000000004,0)" xlink:href="#t"/><use transform="matrix(0.05,0,0,0.05,67.80000000000001,0)" xlink:href="#p"/></g><path d="M30 0v-248h187v28H63v79h144v27H63v87h162V0H30" id="u"/><path d="M101-234c-31-9-42 10-38 44h38v23H63V0H32v-167H5v-23h27c-7-52 17-82 69-68v24" id="v"/><path d="M141-36C126-15 110 5 73 4 37 3 15-17 15-53c-1-64 63-63 125-63 3-35-9-54-41-54-24 1-41 7-42 31l-33-3c5-37 33-52 76-52 45 0 72 20 72 64v82c-1 20 7 32 28 27v20c-31 9-61-2-59-35zM48-53c0 20 12 33 32 33 41-3 63-29 60-74-43 2-92-5-92 41" id="w"/><path d="M179-190L93 31C79 59 56 82 12 73V49c39 6 53-20 64-50L1-190h34L92-34l54-156h33" id="x"/><path d="M68-38c1 34 0 65-14 84H32c9-13 17-26 17-46H33v-38h35" id="y"/><g id="b"><use transform="matrix(0.05,0,0,0.05,0,0)" xlink:href="#u"/><use transform="matrix(0.05,0,0,0.05,12,0)" xlink:href="#v"/><use transform="matrix(0.05,0,0,0.05,16.65,0)" xlink:href="#v"/><use transform="matrix(0.05,0,0,0.05,21.65,0)" xlink:href="#s"/><use transform="matrix(0.05,0,0,0.05,25.599999999999998,0)" xlink:href="#q"/><use transform="matrix(0.05,0,0,0.05,34.599999999999994,0)" xlink:href="#w"/><use transform="matrix(0.05,0,0,0.05,44.599999999999994,0)" xlink:href="#q"/><use transform="matrix(0.05,0,0,0.05,53.599999999999994,0)" xlink:href="#x"/><use transform="matrix(0.05,0,0,0.05,61.24999999999999,0)" xlink:href="#y"/></g><path d="M101-251c82-7 93 87 43 132L82-64C71-53 59-42 53-27h129V0H18c2-99 128-94 128-182 0-28-16-43-45-43s-46 15-49 41l-32-3c6-41 34-60 81-64" id="z"/><path d="M101-251c68 0 85 55 85 127S166 4 100 4C33 4 14-52 14-124c0-73 17-127 87-127zm-1 229c47 0 54-49 54-102s-4-102-53-102c-51 0-55 48-55 102 0 53 5 102 54 102" id="A"/><path d="M27 0v-27h64v-190l-56 39v-29l58-41h29v221h61V0H27" id="B"/><path d="M155-56V0h-30v-56H8v-25l114-167h33v167h35v25h-35zm-30-156c-27 46-58 90-88 131h88v-131" id="C"/><path d="M16-82v-28h88v28H16" id="D"/><path d="M64 0c3-98 48-159 88-221H18v-27h164v26C143-157 98-101 97 0H64" id="E"/><g id="c"><use transform="matrix(0.05,0,0,0.05,0,0)" xlink:href="#z"/><use transform="matrix(0.05,0,0,0.05,10,0)" xlink:href="#A"/><use transform="matrix(0.05,0,0,0.05,20,0)" xlink:href="#B"/><use transform="matrix(0.05,0,0,0.05,30,0)" xlink:href="#C"/><use transform="matrix(0.05,0,0,0.05,40,0)" xlink:href="#D"/><use transform="matrix(0.05,0,0,0.05,45.95,0)" xlink:href="#z"/><use transform="matrix(0.05,0,0,0.05,55.95,0)" xlink:href="#A"/><use transform="matrix(0.05,0,0,0.05,65.95,0)" xlink:href="#B"/><use transform="matrix(0.05,0,0,0.05,75.95,0)" xlink:href="#E"/></g><path d="M87 75C49 33 22-17 22-94c0-76 28-126 65-167h31c-38 41-64 92-64 168S80 34 118 75H87" id="F"/><path d="M232-93c-1 65-40 97-104 97C67 4 28-28 28-90v-158h33c8 89-33 224 67 224 102 0 64-133 71-224h33v155" id="G"/><path d="M117-194c89-4 53 116 60 194h-32v-121c0-31-8-49-39-48C34-167 62-67 57 0H25l-1-190h30c1 10-1 24 2 32 11-22 29-35 61-36" id="H"/><path d="M115-194c53 0 69 39 70 98 0 66-23 100-70 100C84 3 66-7 56-30L54 0H23l1-261h32v101c10-23 28-34 59-34zm-8 174c40 0 45-34 45-75 0-40-5-75-45-74-42 0-51 32-51 76 0 43 10 73 51 73" id="I"/><path d="M135-143c-3-34-86-38-87 0 15 53 115 12 119 90S17 21 10-45l28-5c4 36 97 45 98 0-10-56-113-15-118-90-4-57 82-63 122-42 12 7 21 19 24 35" id="J"/><path d="M114-163C36-179 61-72 57 0H25l-1-190h30c1 12-1 29 2 39 6-27 23-49 58-41v29" id="K"/><path d="M85-194c31 0 48 13 60 33l-1-100h32l1 261h-30c-2-10 0-23-3-31C134-8 116 4 85 4 32 4 16-35 15-94c0-66 23-100 70-100zm9 24c-40 0-46 34-46 75 0 40 6 74 45 74 42 0 51-32 51-76 0-42-9-74-50-73" id="L"/><path d="M33-261c38 41 65 92 65 168S71 34 33 75H2C39 34 66-17 66-93S39-220 2-261h31" id="M"/><g id="d"><use transform="matrix(0.05,0,0,0.05,0,0)" xlink:href="#F"/><use transform="matrix(0.05,0,0,0.05,5.95,0)" xlink:href="#G"/><use transform="matrix(0.05,0,0,0.05,18.900000000000002,0)" xlink:href="#H"/><use transform="matrix(0.05,0,0,0.05,28.900000000000002,0)" xlink:href="#n"/><use transform="matrix(0.05,0,0,0.05,38.900000000000006,0)" xlink:href="#I"/><use transform="matrix(0.05,0,0,0.05,48.900000000000006,0)" xlink:href="#J"/><use transform="matrix(0.05,0,0,0.05,57.900000000000006,0)" xlink:href="#p"/><use transform="matrix(0.05,0,0,0.05,67.9,0)" xlink:href="#K"/><use transform="matrix(0.05,0,0,0.05,73.85000000000001,0)" xlink:href="#t"/><use transform="matrix(0.05,0,0,0.05,82.85000000000001,0)" xlink:href="#p"/><use transform="matrix(0.05,0,0,0.05,92.85000000000001,0)" xlink:href="#L"/><use transform="matrix(0.05,0,0,0.05,102.85000000000001,0)" xlink:href="#M"/></g><path d="M126-127c33 6 58 20 58 59 0 88-139 92-164 29-3-8-5-16-6-25l32-3c6 27 21 44 54 44 32 0 52-15 52-46 0-38-36-46-79-43v-28c39 1 72-4 72-42 0-27-17-43-46-43-28 0-47 15-49 41l-32-3c6-42 35-63 81-64 48-1 79 21 79 65 0 36-21 52-52 59" id="N"/><g id="e"><use transform="matrix(0.05,0,0,0.05,0,0)" xlink:href="#z"/><use transform="matrix(0.05,0,0,0.05,10,0)" xlink:href="#A"/><use transform="matrix(0.05,0,0,0.05,20,0)" xlink:href="#A"/><use transform="matrix(0.05,0,0,0.05,30,0)" xlink:href="#z"/><use transform="matrix(0.05,0,0,0.05,40,0)" xlink:href="#D"/><use transform="matrix(0.05,0,0,0.05,45.95,0)" xlink:href="#z"/><use transform="matrix(0.05,0,0,0.05,55.95,0)" xlink:href="#A"/><use transform="matrix(0.05,0,0,0.05,65.95,0)" xlink:href="#A"/><use transform="matrix(0.05,0,0,0.05,75.95,0)" xlink:href="#N"/></g><path d="M30-248c87 1 191-15 191 75 0 78-77 80-158 76V0H30v-248zm33 125c57 0 124 11 124-50 0-59-68-47-124-48v98" id="O"/><path d="M185-189c-5-48-123-54-124 2 14 75 158 14 163 119 3 78-121 87-175 55-17-10-28-26-33-46l33-7c5 56 141 63 141-1 0-78-155-14-162-118-5-82 145-84 179-34 5 7 8 16 11 25" id="P"/><g id="f"><use transform="matrix(0.05,0,0,0.05,0,0)" xlink:href="#O"/><use transform="matrix(0.05,0,0,0.05,12,0)" xlink:href="#K"/><use transform="matrix(0.05,0,0,0.05,17.95,0)" xlink:href="#n"/><use transform="matrix(0.05,0,0,0.05,27.950000000000003,0)" xlink:href="#D"/><use transform="matrix(0.05,0,0,0.05,33.9,0)" xlink:href="#P"/><use transform="matrix(0.05,0,0,0.05,45.9,0)" xlink:href="#n"/><use transform="matrix(0.05,0,0,0.05,55.900000000000006,0)" xlink:href="#q"/><use transform="matrix(0.05,0,0,0.05,64.9,0)" xlink:href="#s"/><use transform="matrix(0.05,0,0,0.05,68.85000000000001,0)" xlink:href="#w"/><use transform="matrix(0.05,0,0,0.05,78.85000000000001,0)" xlink:href="#o"/></g><path d="M160-131c35 5 61 23 61 61C221 17 115-2 30 0v-248c76 3 177-17 177 60 0 33-19 50-47 57zm-97-11c50-1 110 9 110-42 0-47-63-36-110-37v79zm0 115c55-2 124 14 124-45 0-56-70-42-124-44v89" id="Q"/><path d="M106-169C34-169 62-67 57 0H25v-261h32l-1 103c12-21 28-36 61-36 89 0 53 116 60 194h-32v-121c2-32-8-49-39-48" id="R"/><g id="g"><use transform="matrix(0.05,0,0,0.05,0,0)" xlink:href="#Q"/><use transform="matrix(0.05,0,0,0.05,12,0)" xlink:href="#p"/><use transform="matrix(0.05,0,0,0.05,22,0)" xlink:href="#R"/><use transform="matrix(0.05,0,0,0.05,32,0)" xlink:href="#w"/><use transform="matrix(0.05,0,0,0.05,42,0)" xlink:href="#t"/><use transform="matrix(0.05,0,0,0.05,51,0)" xlink:href="#s"/><use transform="matrix(0.05,0,0,0.05,54.95,0)" xlink:href="#n"/><use transform="matrix(0.05,0,0,0.05,64.95,0)" xlink:href="#K"/></g><path d="M233-177c-1 41-23 64-60 70L243 0h-38l-65-103H63V0H30v-248c88 3 205-21 203 71zM63-129c60-2 137 13 137-47 0-61-80-42-137-45v92" id="S"/><path d="M84 4C-5 8 30-112 23-190h32v120c0 31 7 50 39 49 72-2 45-101 50-169h31l1 190h-30c-1-10 1-25-2-33-11 22-28 36-60 37" id="T"/><g id="h"><use transform="matrix(0.05,0,0,0.05,0,0)" xlink:href="#F"/><use transform="matrix(0.05,0,0,0.05,5.95,0)" xlink:href="#S"/><use transform="matrix(0.05,0,0,0.05,18.900000000000002,0)" xlink:href="#p"/><use transform="matrix(0.05,0,0,0.05,28.900000000000002,0)" xlink:href="#r"/><use transform="matrix(0.05,0,0,0.05,33.900000000000006,0)" xlink:href="#T"/><use transform="matrix(0.05,0,0,0.05,43.900000000000006,0)" xlink:href="#K"/><use transform="matrix(0.05,0,0,0.05,49.85000000000001,0)" xlink:href="#H"/><use transform="matrix(0.05,0,0,0.05,59.85,0)" xlink:href="#p"/><use transform="matrix(0.05,0,0,0.05,69.85000000000001,0)" xlink:href="#L"/></g><path d="M30 0v-248h33v221h125V0H30" id="U"/><g id="i"><use transform="matrix(0.05,0,0,0.05,0,0)" xlink:href="#U"/><use transform="matrix(0.05,0,0,0.05,10,0)" xlink:href="#p"/><use transform="matrix(0.05,0,0,0.05,20,0)" xlink:href="#r"/><use transform="matrix(0.05,0,0,0.05,25,0)" xlink:href="#r"/><use transform="matrix(0.05,0,0,0.05,30,0)" xlink:href="#p"/><use transform="matrix(0.05,0,0,0.05,40,0)" xlink:href="#K"/><use transform="matrix(0.05,0,0,0.05,45.95,0)" xlink:href="#J"/><use transform="matrix(0.05,0,0,0.05,54.95,0)" xlink:href="#M"/></g><path d="M63-220v92h138v28H63V0H30v-248h175v28H63" id="V"/><use transform="matrix(0.08641975308641976,0,0,0.08641975308641976,0,0)" xlink:href="#V" id="j"/><path d="M143 4C61 4 22-44 18-125c-5-107 100-154 193-111 17 8 29 25 37 43l-32 9c-13-25-37-40-76-40-61 0-88 39-88 99 0 61 29 100 91 101 35 0 62-11 79-27v-45h-74v-28h105v86C228-13 192 4 143 4" id="W"/><use transform="matrix(0.08641975308641976,0,0,0.08641975308641976,0,0)" xlink:href="#W" id="k"/><path d="M197 0v-115H63V0H30v-248h33v105h134v-105h34V0h-34" id="X"/><use transform="matrix(0.08641975308641976,0,0,0.08641975308641976,0,0)" xlink:href="#X" id="l"/></defs></g></svg>