<?xml version="1.0" encoding="UTF-8" standalone="no"?>
<svg
   width="828.86536"
   height="475.7832"
   version="1.1"
   id="svg5560"
   sodipodi:docname="sampson_ce.svg"
   inkscape:version="1.3 (0e150ed6c4, 2023-07-21)"
   xmlns:inkscape="http://www.inkscape.org/namespaces/inkscape"
   xmlns:sodipodi="http://sodipodi.sourceforge.net/DTD/sodipodi-0.dtd"
   xmlns="http://www.w3.org/2000/svg"
   xmlns:svg="http://www.w3.org/2000/svg"
   xmlns:rdf="http://www.w3.org/1999/02/22-rdf-syntax-ns#"
   xmlns:cc="http://creativecommons.org/ns#"
   xmlns:dc="http://purl.org/dc/elements/1.1/">
  <metadata
     id="metadata5566">
    <rdf:RDF>
      <cc:Work
         rdf:about="">
        <dc:format>image/svg+xml</dc:format>
        <dc:type
           rdf:resource="http://purl.org/dc/dcmitype/StillImage" />
        <dc:title />
      </cc:Work>
    </rdf:RDF>
  </metadata>
  <defs
     id="defs5564">
    <marker
       inkscape:stockid="Arrow2Mend"
       orient="auto"
       refY="0"
       refX="0"
       id="Arrow2Mend"
       style="overflow:visible"
       inkscape:isstock="true">
      <path
         id="path1736"
         style="fill:#000000;fill-opacity:1;fill-rule:evenodd;stroke:#000000;stroke-width:0.625;stroke-linejoin:round;stroke-opacity:1"
         d="M 8.7185878,4.0337352 -2.2072895,0.01601326 8.7185884,-4.0017078 c -1.7454984,2.3720609 -1.7354408,5.6174519 -6e-7,8.035443 z"
         transform="scale(-0.6)"
         inkscape:connector-curvature="0" />
    </marker>
    <inkscape:path-effect
       effect="bspline"
       id="path-effect1825"
       is_visible="true"
       weight="33.333333"
       steps="2"
       helper_size="0"
       apply_no_weight="true"
       apply_with_weight="true"
       only_selected="false" />
    <marker
       inkscape:stockid="Arrow2Lstart"
       orient="auto"
       refY="0"
       refX="0"
       id="Arrow2Lstart"
       style="overflow:visible"
       inkscape:isstock="true">
      <path
         id="path4580"
         style="fill:#000000;fill-opacity:1;fill-rule:evenodd;stroke:#000000;stroke-width:0.625;stroke-linejoin:round;stroke-opacity:1"
         d="M 8.7185878,4.0337352 -2.2072895,0.01601326 8.7185884,-4.0017078 c -1.7454984,2.3720609 -1.7354408,5.6174519 -6e-7,8.035443 z"
         transform="matrix(1.1,0,0,1.1,1.1,0)"
         inkscape:connector-curvature="0" />
    </marker>
    <marker
       inkscape:stockid="Arrow2Lend"
       orient="auto"
       refY="0"
       refX="0"
       id="marker4512"
       style="overflow:visible"
       inkscape:isstock="true">
      <path
         inkscape:connector-curvature="0"
         id="path4510"
         style="fill:#000000;fill-opacity:1;fill-rule:evenodd;stroke:#000000;stroke-width:0.625;stroke-linejoin:round;stroke-opacity:1"
         d="M 8.7185878,4.0337352 -2.2072895,0.01601326 8.7185884,-4.0017078 c -1.7454984,2.3720609 -1.7354408,5.6174519 -6e-7,8.035443 z"
         transform="matrix(-1.1,0,0,-1.1,-1.1,0)" />
    </marker>
    <inkscape:path-effect
       effect="bspline"
       id="path-effect4496"
       is_visible="true"
       weight="33.333333"
       steps="2"
       helper_size="0"
       apply_no_weight="true"
       apply_with_weight="true"
       only_selected="false" />
    <marker
       inkscape:isstock="true"
       style="overflow:visible"
       id="marker6123"
       refX="0"
       refY="0"
       orient="auto"
       inkscape:stockid="Arrow2Lend">
      <path
         transform="matrix(-1.1,0,0,-1.1,-1.1,0)"
         d="M 8.7185878,4.0337352 -2.2072895,0.01601326 8.7185884,-4.0017078 c -1.7454984,2.3720609 -1.7354408,5.6174519 -6e-7,8.035443 z"
         style="fill:#000000;fill-opacity:1;fill-rule:evenodd;stroke:#000000;stroke-width:0.625;stroke-linejoin:round;stroke-opacity:1"
         id="path6121"
         inkscape:connector-curvature="0" />
    </marker>
    <marker
       inkscape:isstock="true"
       style="overflow:visible"
       id="marker6123-9"
       refX="0"
       refY="0"
       orient="auto"
       inkscape:stockid="Arrow2Lend">
      <path
         transform="matrix(-1.1,0,0,-1.1,-1.1,0)"
         d="M 8.7185878,4.0337352 -2.2072895,0.01601326 8.7185884,-4.0017078 c -1.7454984,2.3720609 -1.7354408,5.6174519 -6e-7,8.035443 z"
         style="fill:#000000;fill-opacity:1;fill-rule:evenodd;stroke:#000000;stroke-width:0.625;stroke-linejoin:round;stroke-opacity:1"
         id="path6121-8"
         inkscape:connector-curvature="0" />
    </marker>
    <marker
       inkscape:isstock="true"
       style="overflow:visible"
       id="marker6089-7"
       refX="0"
       refY="0"
       orient="auto"
       inkscape:stockid="Arrow2Lend">
      <path
         transform="matrix(-1.1,0,0,-1.1,-1.1,0)"
         d="M 8.7185878,4.0337352 -2.2072895,0.01601326 8.7185884,-4.0017078 c -1.7454984,2.3720609 -1.7354408,5.6174519 -6e-7,8.035443 z"
         style="fill:#000000;fill-opacity:1;fill-rule:evenodd;stroke:#000000;stroke-width:0.625;stroke-linejoin:round;stroke-opacity:1"
         id="path6087-2"
         inkscape:connector-curvature="0" />
    </marker>
    <marker
       inkscape:isstock="true"
       style="overflow:visible"
       id="marker6123-9-3"
       refX="0"
       refY="0"
       orient="auto"
       inkscape:stockid="Arrow2Lend">
      <path
         transform="matrix(-1.1,0,0,-1.1,-1.1,0)"
         d="M 8.7185878,4.0337352 -2.2072895,0.01601326 8.7185884,-4.0017078 c -1.7454984,2.3720609 -1.7354408,5.6174519 -6e-7,8.035443 z"
         style="fill:#000000;fill-opacity:1;fill-rule:evenodd;stroke:#000000;stroke-width:0.625;stroke-linejoin:round;stroke-opacity:1"
         id="path6121-8-8"
         inkscape:connector-curvature="0" />
    </marker>
    <marker
       inkscape:isstock="true"
       style="overflow:visible"
       id="marker6089-7-0"
       refX="0"
       refY="0"
       orient="auto"
       inkscape:stockid="Arrow2Lend">
      <path
         transform="matrix(-1.1,0,0,-1.1,-1.1,0)"
         d="M 8.7185878,4.0337352 -2.2072895,0.01601326 8.7185884,-4.0017078 c -1.7454984,2.3720609 -1.7354408,5.6174519 -6e-7,8.035443 z"
         style="fill:#000000;fill-opacity:1;fill-rule:evenodd;stroke:#000000;stroke-width:0.625;stroke-linejoin:round;stroke-opacity:1"
         id="path6087-2-4"
         inkscape:connector-curvature="0" />
    </marker>
    <marker
       inkscape:isstock="true"
       style="overflow:visible"
       id="marker6089-7-0-3"
       refX="0"
       refY="0"
       orient="auto"
       inkscape:stockid="Arrow2Lend">
      <path
         transform="matrix(-1.1,0,0,-1.1,-1.1,0)"
         d="M 8.7185878,4.0337352 -2.2072895,0.01601326 8.7185884,-4.0017078 c -1.7454984,2.3720609 -1.7354408,5.6174519 -6e-7,8.035443 z"
         style="fill:#000000;fill-opacity:1;fill-rule:evenodd;stroke:#000000;stroke-width:0.625;stroke-linejoin:round;stroke-opacity:1"
         id="path6087-2-4-2"
         inkscape:connector-curvature="0" />
    </marker>
    <marker
       inkscape:isstock="true"
       style="overflow:visible"
       id="marker6089-7-2"
       refX="0"
       refY="0"
       orient="auto"
       inkscape:stockid="Arrow2Lend">
      <path
         transform="matrix(-1.1,0,0,-1.1,-1.1,0)"
         d="M 8.7185878,4.0337352 -2.2072895,0.01601326 8.7185884,-4.0017078 c -1.7454984,2.3720609 -1.7354408,5.6174519 -6e-7,8.035443 z"
         style="fill:#000000;fill-opacity:1;fill-rule:evenodd;stroke:#000000;stroke-width:0.625;stroke-linejoin:round;stroke-opacity:1"
         id="path6087-2-6"
         inkscape:connector-curvature="0" />
    </marker>
    <marker
       inkscape:isstock="true"
       style="overflow:visible"
       id="marker6123-9-3-9"
       refX="0"
       refY="0"
       orient="auto"
       inkscape:stockid="Arrow2Lend">
      <path
         transform="matrix(-1.1,0,0,-1.1,-1.1,0)"
         d="M 8.7185878,4.0337352 -2.2072895,0.01601326 8.7185884,-4.0017078 c -1.7454984,2.3720609 -1.7354408,5.6174519 -6e-7,8.035443 z"
         style="fill:#000000;fill-opacity:1;fill-rule:evenodd;stroke:#000000;stroke-width:0.625;stroke-linejoin:round;stroke-opacity:1"
         id="path6121-8-8-8"
         inkscape:connector-curvature="0" />
    </marker>
    <marker
       inkscape:isstock="true"
       style="overflow:visible"
       id="marker6123-9-3-9-4"
       refX="0"
       refY="0"
       orient="auto"
       inkscape:stockid="Arrow2Lend">
      <path
         transform="matrix(-1.1,0,0,-1.1,-1.1,0)"
         d="M 8.7185878,4.0337352 -2.2072895,0.01601326 8.7185884,-4.0017078 c -1.7454984,2.3720609 -1.7354408,5.6174519 -6e-7,8.035443 z"
         style="fill:#000000;fill-opacity:1;fill-rule:evenodd;stroke:#000000;stroke-width:0.625;stroke-linejoin:round;stroke-opacity:1"
         id="path6121-8-8-8-7"
         inkscape:connector-curvature="0" />
    </marker>
    <marker
       inkscape:isstock="true"
       style="overflow:visible"
       id="marker6123-9-3-9-4-8"
       refX="0"
       refY="0"
       orient="auto"
       inkscape:stockid="Arrow2Lend">
      <path
         transform="matrix(-1.1,0,0,-1.1,-1.1,0)"
         d="M 8.7185878,4.0337352 -2.2072895,0.01601326 8.7185884,-4.0017078 c -1.7454984,2.3720609 -1.7354408,5.6174519 -6e-7,8.035443 z"
         style="fill:#000000;fill-opacity:1;fill-rule:evenodd;stroke:#000000;stroke-width:0.625;stroke-linejoin:round;stroke-opacity:1"
         id="path6121-8-8-8-7-7"
         inkscape:connector-curvature="0" />
    </marker>
    <marker
       inkscape:isstock="true"
       style="overflow:visible"
       id="marker6123-9-3-9-2"
       refX="0"
       refY="0"
       orient="auto"
       inkscape:stockid="Arrow2Lend">
      <path
         transform="matrix(-1.1,0,0,-1.1,-1.1,0)"
         d="M 8.7185878,4.0337352 -2.2072895,0.01601326 8.7185884,-4.0017078 c -1.7454984,2.3720609 -1.7354408,5.6174519 -6e-7,8.035443 z"
         style="fill:#000000;fill-opacity:1;fill-rule:evenodd;stroke:#000000;stroke-width:0.625;stroke-linejoin:round;stroke-opacity:1"
         id="path6121-8-8-8-4"
         inkscape:connector-curvature="0" />
    </marker>
    <marker
       inkscape:isstock="true"
       style="overflow:visible"
       id="marker6123-9-3-9-26"
       refX="0"
       refY="0"
       orient="auto"
       inkscape:stockid="Arrow2Lend">
      <path
         transform="matrix(-1.1,0,0,-1.1,-1.1,0)"
         d="M 8.7185878,4.0337352 -2.2072895,0.01601326 8.7185884,-4.0017078 c -1.7454984,2.3720609 -1.7354408,5.6174519 -6e-7,8.035443 z"
         style="fill:#000000;fill-opacity:1;fill-rule:evenodd;stroke:#000000;stroke-width:0.625;stroke-linejoin:round;stroke-opacity:1"
         id="path6121-8-8-8-5"
         inkscape:connector-curvature="0" />
    </marker>
    <marker
       inkscape:isstock="true"
       style="overflow:visible"
       id="marker6123-9-3-9-8"
       refX="0"
       refY="0"
       orient="auto"
       inkscape:stockid="Arrow2Lend">
      <path
         transform="matrix(-1.1,0,0,-1.1,-1.1,0)"
         d="M 8.7185878,4.0337352 -2.2072895,0.01601326 8.7185884,-4.0017078 c -1.7454984,2.3720609 -1.7354408,5.6174519 -6e-7,8.035443 z"
         style="fill:#000000;fill-opacity:1;fill-rule:evenodd;stroke:#000000;stroke-width:0.625;stroke-linejoin:round;stroke-opacity:1"
         id="path6121-8-8-8-45"
         inkscape:connector-curvature="0" />
    </marker>
    <marker
       inkscape:isstock="true"
       style="overflow:visible"
       id="marker6123-9-3-9-4-7"
       refX="0"
       refY="0"
       orient="auto"
       inkscape:stockid="Arrow2Lend">
      <path
         transform="matrix(-1.1,0,0,-1.1,-1.1,0)"
         d="M 8.7185878,4.0337352 -2.2072895,0.01601326 8.7185884,-4.0017078 c -1.7454984,2.3720609 -1.7354408,5.6174519 -6e-7,8.035443 z"
         style="fill:#000000;fill-opacity:1;fill-rule:evenodd;stroke:#000000;stroke-width:0.625;stroke-linejoin:round;stroke-opacity:1"
         id="path6121-8-8-8-7-3"
         inkscape:connector-curvature="0" />
    </marker>
    <marker
       inkscape:isstock="true"
       style="overflow:visible"
       id="marker6123-9-3-9-4-1"
       refX="0"
       refY="0"
       orient="auto"
       inkscape:stockid="Arrow2Lend">
      <path
         transform="matrix(-1.1,0,0,-1.1,-1.1,0)"
         d="M 8.7185878,4.0337352 -2.2072895,0.01601326 8.7185884,-4.0017078 c -1.7454984,2.3720609 -1.7354408,5.6174519 -6e-7,8.035443 z"
         style="fill:#000000;fill-opacity:1;fill-rule:evenodd;stroke:#000000;stroke-width:0.625;stroke-linejoin:round;stroke-opacity:1"
         id="path6121-8-8-8-7-75"
         inkscape:connector-curvature="0" />
    </marker>
    <marker
       inkscape:isstock="true"
       style="overflow:visible"
       id="marker6123-9-3-9-46"
       refX="0"
       refY="0"
       orient="auto"
       inkscape:stockid="Arrow2Lend">
      <path
         transform="matrix(-1.1,0,0,-1.1,-1.1,0)"
         d="M 8.7185878,4.0337352 -2.2072895,0.01601326 8.7185884,-4.0017078 c -1.7454984,2.3720609 -1.7354408,5.6174519 -6e-7,8.035443 z"
         style="fill:#000000;fill-opacity:1;fill-rule:evenodd;stroke:#000000;stroke-width:0.625;stroke-linejoin:round;stroke-opacity:1"
         id="path6121-8-8-8-9"
         inkscape:connector-curvature="0" />
    </marker>
    <marker
       inkscape:isstock="true"
       style="overflow:visible"
       id="marker6123-9-3-9-4-4"
       refX="0"
       refY="0"
       orient="auto"
       inkscape:stockid="Arrow2Lend">
      <path
         transform="matrix(-1.1,0,0,-1.1,-1.1,0)"
         d="M 8.7185878,4.0337352 -2.2072895,0.01601326 8.7185884,-4.0017078 c -1.7454984,2.3720609 -1.7354408,5.6174519 -6e-7,8.035443 z"
         style="fill:#000000;fill-opacity:1;fill-rule:evenodd;stroke:#000000;stroke-width:0.625;stroke-linejoin:round;stroke-opacity:1"
         id="path6121-8-8-8-7-6"
         inkscape:connector-curvature="0" />
    </marker>
    <marker
       inkscape:isstock="true"
       style="overflow:visible"
       id="marker6123-9-3-9-9"
       refX="0"
       refY="0"
       orient="auto"
       inkscape:stockid="Arrow2Lend">
      <path
         transform="matrix(-1.1,0,0,-1.1,-1.1,0)"
         d="M 8.7185878,4.0337352 -2.2072895,0.01601326 8.7185884,-4.0017078 c -1.7454984,2.3720609 -1.7354408,5.6174519 -6e-7,8.035443 z"
         style="fill:#000000;fill-opacity:1;fill-rule:evenodd;stroke:#000000;stroke-width:0.625;stroke-linejoin:round;stroke-opacity:1"
         id="path6121-8-8-8-3"
         inkscape:connector-curvature="0" />
    </marker>
    <marker
       inkscape:isstock="true"
       style="overflow:visible"
       id="marker6123-9-3-9-6"
       refX="0"
       refY="0"
       orient="auto"
       inkscape:stockid="Arrow2Lend">
      <path
         transform="matrix(-1.1,0,0,-1.1,-1.1,0)"
         d="M 8.7185878,4.0337352 -2.2072895,0.01601326 8.7185884,-4.0017078 c -1.7454984,2.3720609 -1.7354408,5.6174519 -6e-7,8.035443 z"
         style="fill:#000000;fill-opacity:1;fill-rule:evenodd;stroke:#000000;stroke-width:0.625;stroke-linejoin:round;stroke-opacity:1"
         id="path6121-8-8-8-74"
         inkscape:connector-curvature="0" />
    </marker>
    <marker
       inkscape:isstock="true"
       style="overflow:visible"
       id="marker6123-9-3-9-3"
       refX="0"
       refY="0"
       orient="auto"
       inkscape:stockid="Arrow2Lend">
      <path
         transform="matrix(-1.1,0,0,-1.1,-1.1,0)"
         d="M 8.7185878,4.0337352 -2.2072895,0.01601326 8.7185884,-4.0017078 c -1.7454984,2.3720609 -1.7354408,5.6174519 -6e-7,8.035443 z"
         style="fill:#000000;fill-opacity:1;fill-rule:evenodd;stroke:#000000;stroke-width:0.625;stroke-linejoin:round;stroke-opacity:1"
         id="path6121-8-8-8-49"
         inkscape:connector-curvature="0" />
    </marker>
    <marker
       inkscape:isstock="true"
       style="overflow:visible"
       id="marker6123-9-3-9-3-3"
       refX="0"
       refY="0"
       orient="auto"
       inkscape:stockid="Arrow2Lend">
      <path
         transform="matrix(-1.1,0,0,-1.1,-1.1,0)"
         d="M 8.7185878,4.0337352 -2.2072895,0.01601326 8.7185884,-4.0017078 c -1.7454984,2.3720609 -1.7354408,5.6174519 -6e-7,8.035443 z"
         style="fill:#000000;fill-opacity:1;fill-rule:evenodd;stroke:#000000;stroke-width:0.625;stroke-linejoin:round;stroke-opacity:1"
         id="path6121-8-8-8-49-2"
         inkscape:connector-curvature="0" />
    </marker>
    <marker
       inkscape:isstock="true"
       style="overflow:visible"
       id="marker6123-9-3-9-4-80"
       refX="0"
       refY="0"
       orient="auto"
       inkscape:stockid="Arrow2Lend">
      <path
         transform="matrix(-1.1,0,0,-1.1,-1.1,0)"
         d="M 8.7185878,4.0337352 -2.2072895,0.01601326 8.7185884,-4.0017078 c -1.7454984,2.3720609 -1.7354408,5.6174519 -6e-7,8.035443 z"
         style="fill:#000000;fill-opacity:1;fill-rule:evenodd;stroke:#000000;stroke-width:0.625;stroke-linejoin:round;stroke-opacity:1"
         id="path6121-8-8-8-7-1"
         inkscape:connector-curvature="0" />
    </marker>
    <marker
       inkscape:isstock="true"
       style="overflow:visible"
       id="marker6123-9-3-9-6-9"
       refX="0"
       refY="0"
       orient="auto"
       inkscape:stockid="Arrow2Lend">
      <path
         transform="matrix(-1.1,0,0,-1.1,-1.1,0)"
         d="M 8.7185878,4.0337352 -2.2072895,0.01601326 8.7185884,-4.0017078 c -1.7454984,2.3720609 -1.7354408,5.6174519 -6e-7,8.035443 z"
         style="fill:#000000;fill-opacity:1;fill-rule:evenodd;stroke:#000000;stroke-width:0.625;stroke-linejoin:round;stroke-opacity:1"
         id="path6121-8-8-8-74-3"
         inkscape:connector-curvature="0" />
    </marker>
    <marker
       inkscape:isstock="true"
       style="overflow:visible"
       id="marker6123-9-3-9-4-3"
       refX="0"
       refY="0"
       orient="auto"
       inkscape:stockid="Arrow2Lend">
      <path
         transform="matrix(-1.1,0,0,-1.1,-1.1,0)"
         d="M 8.7185878,4.0337352 -2.2072895,0.01601326 8.7185884,-4.0017078 c -1.7454984,2.3720609 -1.7354408,5.6174519 -6e-7,8.035443 z"
         style="fill:#000000;fill-opacity:1;fill-rule:evenodd;stroke:#000000;stroke-width:0.625;stroke-linejoin:round;stroke-opacity:1"
         id="path6121-8-8-8-7-36"
         inkscape:connector-curvature="0" />
    </marker>
    <marker
       inkscape:isstock="true"
       style="overflow:visible"
       id="marker6123-9-3-9-4-2"
       refX="0"
       refY="0"
       orient="auto"
       inkscape:stockid="Arrow2Lend">
      <path
         transform="matrix(-1.1,0,0,-1.1,-1.1,0)"
         d="M 8.7185878,4.0337352 -2.2072895,0.01601326 8.7185884,-4.0017078 c -1.7454984,2.3720609 -1.7354408,5.6174519 -6e-7,8.035443 z"
         style="fill:#000000;fill-opacity:1;fill-rule:evenodd;stroke:#000000;stroke-width:0.625;stroke-linejoin:round;stroke-opacity:1"
         id="path6121-8-8-8-7-5"
         inkscape:connector-curvature="0" />
    </marker>
    <marker
       inkscape:isstock="true"
       style="overflow:visible"
       id="marker6123-9-3-9-3-0"
       refX="0"
       refY="0"
       orient="auto"
       inkscape:stockid="Arrow2Lend">
      <path
         transform="matrix(-1.1,0,0,-1.1,-1.1,0)"
         d="M 8.7185878,4.0337352 -2.2072895,0.01601326 8.7185884,-4.0017078 c -1.7454984,2.3720609 -1.7354408,5.6174519 -6e-7,8.035443 z"
         style="fill:#000000;fill-opacity:1;fill-rule:evenodd;stroke:#000000;stroke-width:0.625;stroke-linejoin:round;stroke-opacity:1"
         id="path6121-8-8-8-49-4"
         inkscape:connector-curvature="0" />
    </marker>
    <marker
       inkscape:isstock="true"
       style="overflow:visible"
       id="marker6123-9-3-9-4-6"
       refX="0"
       refY="0"
       orient="auto"
       inkscape:stockid="Arrow2Lend">
      <path
         transform="matrix(-1.1,0,0,-1.1,-1.1,0)"
         d="M 8.7185878,4.0337352 -2.2072895,0.01601326 8.7185884,-4.0017078 c -1.7454984,2.3720609 -1.7354408,5.6174519 -6e-7,8.035443 z"
         style="fill:#000000;fill-opacity:1;fill-rule:evenodd;stroke:#000000;stroke-width:0.625;stroke-linejoin:round;stroke-opacity:1"
         id="path6121-8-8-8-7-65"
         inkscape:connector-curvature="0" />
    </marker>
    <marker
       inkscape:isstock="true"
       style="overflow:visible"
       id="marker6123-9-3-9-4-6-0"
       refX="0"
       refY="0"
       orient="auto"
       inkscape:stockid="Arrow2Lend">
      <path
         transform="matrix(-1.1,0,0,-1.1,-1.1,0)"
         d="M 8.7185878,4.0337352 -2.2072895,0.01601326 8.7185884,-4.0017078 c -1.7454984,2.3720609 -1.7354408,5.6174519 -6e-7,8.035443 z"
         style="fill:#000000;fill-opacity:1;fill-rule:evenodd;stroke:#000000;stroke-width:0.625;stroke-linejoin:round;stroke-opacity:1"
         id="path6121-8-8-8-7-65-3"
         inkscape:connector-curvature="0" />
    </marker>
    <marker
       inkscape:isstock="true"
       style="overflow:visible"
       id="marker6123-9-3-9-3-0-6"
       refX="0"
       refY="0"
       orient="auto"
       inkscape:stockid="Arrow2Lend">
      <path
         transform="matrix(-1.1,0,0,-1.1,-1.1,0)"
         d="M 8.7185878,4.0337352 -2.2072895,0.01601326 8.7185884,-4.0017078 c -1.7454984,2.3720609 -1.7354408,5.6174519 -6e-7,8.035443 z"
         style="fill:#000000;fill-opacity:1;fill-rule:evenodd;stroke:#000000;stroke-width:0.625;stroke-linejoin:round;stroke-opacity:1"
         id="path6121-8-8-8-49-4-0"
         inkscape:connector-curvature="0" />
    </marker>
    <marker
       inkscape:isstock="true"
       style="overflow:visible"
       id="marker6123-9-3-9-3-0-6-9"
       refX="0"
       refY="0"
       orient="auto"
       inkscape:stockid="Arrow2Lend">
      <path
         transform="matrix(-1.1,0,0,-1.1,-1.1,0)"
         d="M 8.7185878,4.0337352 -2.2072895,0.01601326 8.7185884,-4.0017078 c -1.7454984,2.3720609 -1.7354408,5.6174519 -6e-7,8.035443 z"
         style="fill:#000000;fill-opacity:1;fill-rule:evenodd;stroke:#000000;stroke-width:0.625;stroke-linejoin:round;stroke-opacity:1"
         id="path6121-8-8-8-49-4-0-0"
         inkscape:connector-curvature="0" />
    </marker>
    <marker
       inkscape:isstock="true"
       style="overflow:visible"
       id="marker6123-9-3-9-3-0-6-9-5"
       refX="0"
       refY="0"
       orient="auto"
       inkscape:stockid="Arrow2Lend">
      <path
         transform="matrix(-1.1,0,0,-1.1,-1.1,0)"
         d="M 8.7185878,4.0337352 -2.2072895,0.01601326 8.7185884,-4.0017078 c -1.7454984,2.3720609 -1.7354408,5.6174519 -6e-7,8.035443 z"
         style="fill:#000000;fill-opacity:1;fill-rule:evenodd;stroke:#000000;stroke-width:0.625;stroke-linejoin:round;stroke-opacity:1"
         id="path6121-8-8-8-49-4-0-0-8"
         inkscape:connector-curvature="0" />
    </marker>
    <marker
       inkscape:isstock="true"
       style="overflow:visible"
       id="marker6123-9-3-9-4-6-0-3"
       refX="0"
       refY="0"
       orient="auto"
       inkscape:stockid="Arrow2Lend">
      <path
         transform="matrix(-1.1,0,0,-1.1,-1.1,0)"
         d="M 8.7185878,4.0337352 -2.2072895,0.01601326 8.7185884,-4.0017078 c -1.7454984,2.3720609 -1.7354408,5.6174519 -6e-7,8.035443 z"
         style="fill:#000000;fill-opacity:1;fill-rule:evenodd;stroke:#000000;stroke-width:0.625;stroke-linejoin:round;stroke-opacity:1"
         id="path6121-8-8-8-7-65-3-7"
         inkscape:connector-curvature="0" />
    </marker>
    <marker
       inkscape:isstock="true"
       style="overflow:visible"
       id="marker6123-9-3-9-4-6-0-9"
       refX="0"
       refY="0"
       orient="auto"
       inkscape:stockid="Arrow2Lend">
      <path
         transform="matrix(-1.1,0,0,-1.1,-1.1,0)"
         d="M 8.7185878,4.0337352 -2.2072895,0.01601326 8.7185884,-4.0017078 c -1.7454984,2.3720609 -1.7354408,5.6174519 -6e-7,8.035443 z"
         style="fill:#000000;fill-opacity:1;fill-rule:evenodd;stroke:#000000;stroke-width:0.625;stroke-linejoin:round;stroke-opacity:1"
         id="path6121-8-8-8-7-65-3-6"
         inkscape:connector-curvature="0" />
    </marker>
    <marker
       inkscape:isstock="true"
       style="overflow:visible"
       id="marker6123-9-3-9-4-6-0-9-2"
       refX="0"
       refY="0"
       orient="auto"
       inkscape:stockid="Arrow2Lend">
      <path
         transform="matrix(-1.1,0,0,-1.1,-1.1,0)"
         d="M 8.7185878,4.0337352 -2.2072895,0.01601326 8.7185884,-4.0017078 c -1.7454984,2.3720609 -1.7354408,5.6174519 -6e-7,8.035443 z"
         style="fill:#000000;fill-opacity:1;fill-rule:evenodd;stroke:#000000;stroke-width:0.625;stroke-linejoin:round;stroke-opacity:1"
         id="path6121-8-8-8-7-65-3-6-1"
         inkscape:connector-curvature="0" />
    </marker>
    <marker
       inkscape:isstock="true"
       style="overflow:visible"
       id="marker6123-9-3-9-4-6-08"
       refX="0"
       refY="0"
       orient="auto"
       inkscape:stockid="Arrow2Lend">
      <path
         transform="matrix(-1.1,0,0,-1.1,-1.1,0)"
         d="M 8.7185878,4.0337352 -2.2072895,0.01601326 8.7185884,-4.0017078 c -1.7454984,2.3720609 -1.7354408,5.6174519 -6e-7,8.035443 z"
         style="fill:#000000;fill-opacity:1;fill-rule:evenodd;stroke:#000000;stroke-width:0.625;stroke-linejoin:round;stroke-opacity:1"
         id="path6121-8-8-8-7-65-1"
         inkscape:connector-curvature="0" />
    </marker>
    <marker
       inkscape:stockid="Arrow2Mend"
       orient="auto"
       refY="0"
       refX="0"
       id="Arrow2Mend-2"
       style="overflow:visible"
       inkscape:isstock="true">
      <path
         inkscape:connector-curvature="0"
         id="path1736-5"
         style="fill:#000000;fill-opacity:1;fill-rule:evenodd;stroke:#000000;stroke-width:0.625;stroke-linejoin:round;stroke-opacity:1"
         d="M 8.7185878,4.0337352 -2.2072895,0.01601326 8.7185884,-4.0017078 c -1.7454984,2.3720609 -1.7354408,5.6174519 -6e-7,8.035443 z"
         transform="scale(-0.6)" />
    </marker>
  </defs>
  <sodipodi:namedview
     pagecolor="#ffffff"
     bordercolor="#666666"
     borderopacity="1"
     objecttolerance="10"
     gridtolerance="10"
     guidetolerance="10"
     inkscape:pageopacity="0"
     inkscape:pageshadow="2"
     inkscape:window-width="2560"
     inkscape:window-height="1377"
     id="namedview5562"
     showgrid="false"
     inkscape:zoom="0.97288135"
     inkscape:cx="732.36063"
     inkscape:cy="305.79268"
     inkscape:window-x="-8"
     inkscape:window-y="-8"
     inkscape:window-maximized="1"
     inkscape:current-layer="svg5560"
     showguides="false"
     inkscape:showpageshadow="2"
     inkscape:pagecheckerboard="0"
     inkscape:deskcolor="#d1d1d1" />
  <g
     id="g5079"
     transform="translate(542.133,1506.3561)" />
  <flowRoot
     xml:space="preserve"
     id="flowRoot3587"
     style="font-style:normal;font-weight:normal;font-size:18.6667px;line-height:1.25;font-family:sans-serif;letter-spacing:0px;word-spacing:0px;fill:#000000;fill-opacity:1;stroke:none"
     transform="translate(460.23185,1295.7363)"><flowRegion
       id="flowRegion3589"><rect
         id="rect3591"
         width="71.951218"
         height="33.919861"
         x="49.337978"
         y="49.613239" /></flowRegion><flowPara
       id="flowPara3593" /></flowRoot>
  <path
     inkscape:connector-curvature="0"
     style="fill:#ffffff;stroke:#000000;stroke-width:2"
     d="M 616.98557,1 H 827.86536 V 94.69972 H 616.98557 Z"
     id="path244-6-1-2-9-3-3"
     sodipodi:nodetypes="ccccc" />
  <g
     id="text4126-2-1-5-6-5-9-3-75"
     style="font-size:26.6667px;line-height:1.25;font-family:Montserrat;-inkscape-font-specification:'Montserrat, @wght=400';font-variation-settings:'wght' 400;text-align:center;letter-spacing:0px;word-spacing:0px;text-anchor:middle"
     aria-label="Crime&#10;Rate">
    <path
       d="m 692.46773,39.753864 q -2.10666,0 -3.89333,-0.693333 -1.78667,-0.72 -3.09333,-2 -1.30667,-1.28 -2.05334,-3.013333 -0.72,-1.733333 -0.72,-3.786667 0,-2.053333 0.72,-3.786666 0.74667,-1.733334 2.05334,-3.013334 1.33333,-1.279999 3.12,-1.973333 1.78666,-0.72 3.89333,-0.72 2.02667,0 3.81333,0.693334 1.78667,0.666666 3.01334,2.026666 l -1.25334,1.253333 q -1.14666,-1.173333 -2.53333,-1.679999 -1.38667,-0.533334 -2.98667,-0.533334 -1.68,0 -3.12,0.586667 -1.44,0.56 -2.50666,1.626666 -1.06667,1.04 -1.68,2.453334 -0.58667,1.386666 -0.58667,3.066666 0,1.68 0.58667,3.093334 0.61333,1.386666 1.68,2.453333 1.06666,1.04 2.50666,1.626666 1.44,0.56 3.12,0.56 1.6,0 2.98667,-0.533333 1.38667,-0.533333 2.53333,-1.706666 l 1.25334,1.253333 q -1.22667,1.36 -3.01334,2.053333 -1.78666,0.693333 -3.84,0.693333 z m 10.66666,-0.16 V 25.593865 h 1.81334 v 3.813333 l -0.18667,-0.666667 q 0.58667,-1.6 1.97333,-2.426666 1.38667,-0.853334 3.44,-0.853334 v 1.84 q -0.10666,0 -0.21333,0 -0.10667,-0.02667 -0.21333,-0.02667 -2.21334,0 -3.46667,1.36 -1.25333,1.333333 -1.25333,3.813333 v 7.146666 z m 10.48707,0 V 25.593865 h 1.89333 v 13.999999 z m 0.96,-17.093332 q -0.58667,0 -0.98667,-0.4 -0.4,-0.4 -0.4,-0.96 0,-0.56 0.4,-0.933334 0.4,-0.4 0.98667,-0.4 0.58666,0 0.98666,0.373334 0.4,0.373333 0.4,0.933333 0,0.586667 -0.4,0.986667 -0.37333,0.4 -0.98666,0.4 z m 23.70664,2.959999 q 1.70666,0 2.96,0.666667 1.28,0.64 1.97333,1.973333 0.72,1.333334 0.72,3.36 v 8.133333 h -1.89333 v -7.946666 q 0,-2.213333 -1.06667,-3.333333 -1.04,-1.146667 -2.96,-1.146667 -1.44,0 -2.50667,0.613333 -1.04,0.586667 -1.62666,1.733334 -0.56,1.12 -0.56,2.72 v 7.359999 h -1.89334 v -7.946666 q 0,-2.213333 -1.06666,-3.333333 -1.06667,-1.146667 -2.98667,-1.146667 -1.41333,0 -2.48,0.613333 -1.06667,0.586667 -1.65333,1.733334 -0.56,1.12 -0.56,2.72 v 7.359999 h -1.89334 V 25.593865 h 1.81334 v 3.786666 l -0.29334,-0.666666 q 0.64,-1.52 2.05334,-2.373334 1.44,-0.88 3.38666,-0.88 2.05334,0 3.49334,1.04 1.44,1.013334 1.86666,3.066667 l -0.74666,-0.293333 q 0.61333,-1.706667 2.16,-2.746667 1.57333,-1.066667 3.76,-1.066667 z m 16.74669,14.266667 q -2.18667,0 -3.84,-0.906667 -1.65334,-0.933333 -2.58667,-2.533333 -0.93333,-1.626667 -0.93333,-3.706667 0,-2.08 0.88,-3.68 0.90666,-1.6 2.45333,-2.506666 1.57333,-0.933334 3.52,-0.933334 1.97333,0 3.49333,0.906667 1.54667,0.88 2.42667,2.506667 0.88,1.6 0.88,3.706666 0,0.133334 -0.0267,0.293334 0,0.133333 0,0.293333 h -12.18666 v -1.413333 h 11.17333 l -0.74667,0.56 q 0,-1.52 -0.66667,-2.693334 -0.64,-1.2 -1.76,-1.866666 -1.12,-0.666667 -2.58666,-0.666667 -1.44,0 -2.58667,0.666667 -1.14666,0.666666 -1.78666,1.866666 -0.64,1.2 -0.64,2.746667 v 0.293333 q 0,1.6 0.69333,2.826667 0.72,1.2 1.97333,1.893333 1.28,0.666667 2.90667,0.666667 1.28,0 2.37333,-0.453334 1.12,-0.453333 1.92,-1.386666 l 1.06667,1.226666 q -0.93334,1.12 -2.34667,1.706667 -1.38667,0.586667 -3.06666,0.586667 z"
       id="path11" />
    <path
       d="M 694.32282,72.927197 V 54.260531 h 6.98666 q 2.37334,0 4.08,0.773333 1.70667,0.746667 2.61334,2.186667 0.93333,1.413333 0.93333,3.44 0,1.973333 -0.93333,3.413333 -0.90667,1.413333 -2.61334,2.186666 -1.70666,0.746667 -4.08,0.746667 h -5.89333 l 0.88,-0.906667 v 6.826667 z m 12.74666,0 -4.8,-6.773333 h 2.13334 l 4.82666,6.773333 z m -10.77333,-6.666667 -0.88,-0.933333 h 5.84 q 2.8,0 4.24,-1.226666 1.46667,-1.226667 1.46667,-3.44 0,-2.24 -1.46667,-3.466667 -1.44,-1.226667 -4.24,-1.226667 h -5.84 l 0.88,-0.933333 z m 25.54668,6.666667 v -3.093333 l -0.08,-0.506667 v -5.173333 q 0,-1.786667 -1.01334,-2.746667 -0.98666,-0.96 -2.96,-0.96 -1.36,0 -2.58666,0.453334 -1.22667,0.453333 -2.08,1.2 l -0.85334,-1.413334 q 1.06667,-0.906666 2.56,-1.386666 1.49334,-0.506667 3.14667,-0.506667 2.72,0 4.18667,1.36 1.49333,1.333333 1.49333,4.08 v 8.693333 z m -4.82667,0.133333 q -1.57333,0 -2.74667,-0.506666 -1.14666,-0.533334 -1.76,-1.44 -0.61333,-0.933334 -0.61333,-2.133334 0,-1.093333 0.50667,-1.973333 0.53333,-0.906667 1.70666,-1.44 1.2,-0.56 3.2,-0.56 h 4.82667 v 1.413333 h -4.77333 q -2.02667,0 -2.82667,0.72 -0.77333,0.72 -0.77333,1.786667 0,1.2 0.93333,1.92 0.93333,0.72 2.61333,0.72 1.6,0 2.74667,-0.72 1.17333,-0.746667 1.70667,-2.133333 l 0.42666,1.306666 q -0.53333,1.386667 -1.86666,2.213334 -1.30667,0.826666 -3.30667,0.826666 z m 16.21334,0 q -1.97334,0 -3.04,-1.066666 -1.06667,-1.066667 -1.06667,-3.013334 V 55.833864 h 1.89333 v 13.04 q 0,1.226666 0.61334,1.893333 0.64,0.666667 1.81333,0.666667 1.25333,0 2.08,-0.72 l 0.66667,1.36 q -0.56,0.506666 -1.36,0.746666 -0.77334,0.24 -1.6,0.24 z m -6.61334,-12.559999 v -1.573334 h 8.66667 v 1.573334 z m 18.45688,12.559999 q -2.18667,0 -3.84,-0.906666 -1.65334,-0.933334 -2.58667,-2.533334 -0.93333,-1.626666 -0.93333,-3.706666 0,-2.08 0.88,-3.68 0.90666,-1.6 2.45333,-2.506667 1.57333,-0.933333 3.52,-0.933333 1.97333,0 3.49333,0.906667 1.54667,0.88 2.42667,2.506666 0.88,1.6 0.88,3.706667 0,0.133333 -0.0267,0.293333 0,0.133333 0,0.293333 h -12.18666 v -1.413333 h 11.17333 l -0.74667,0.56 q 0,-1.52 -0.66666,-2.693333 -0.64,-1.2 -1.76,-1.866667 -1.12,-0.666666 -2.58667,-0.666666 -1.44,0 -2.58667,0.666666 -1.14666,0.666667 -1.78666,1.866667 -0.64,1.2 -0.64,2.746666 v 0.293334 q 0,1.6 0.69333,2.826666 0.72,1.2 1.97333,1.893334 1.28,0.666666 2.90667,0.666666 1.28,0 2.37333,-0.453333 1.12,-0.453333 1.92,-1.386667 l 1.06667,1.226667 q -0.93333,1.12 -2.34667,1.706667 -1.38666,0.586666 -3.06666,0.586666 z"
       id="path12" />
  </g>
  <path
     sodipodi:nodetypes="ccccc"
     id="path244-6-1-2-9-3-9-2"
     d="M 1,1 H 229.35366 V 339.33386 H 1 Z"
     style="fill:#ffffff;stroke:#000000;stroke-width:2"
     inkscape:connector-curvature="0" />
  <path
     sodipodi:nodetypes="ccccc"
     id="path244-6-1-2-9-3"
     d="m 9.73694,123.31705 h 210.87979 v 93.69972 H 9.73694 Z"
     style="fill:#ffffff;stroke:#000000;stroke-width:2"
     inkscape:connector-curvature="0" />
  <g
     id="text4126-2-1-5-6-5-9-3"
     style="font-size:26.6667px;line-height:1.25;font-family:Montserrat;-inkscape-font-specification:'Montserrat, @wght=400';font-variation-settings:'wght' 400;text-align:center;letter-spacing:0px;word-spacing:0px;text-anchor:middle"
     aria-label="Residential&#10;Instability">
    <path
       d="m 44.311758,161.84344 v -18.66666 h 6.986667 q 2.373333,0 4.08,0.77333 1.706666,0.74667 2.613333,2.18667 0.933333,1.41333 0.933333,3.44 0,1.97333 -0.933333,3.41333 -0.906667,1.41334 -2.613333,2.18667 -1.706667,0.74666 -4.08,0.74666 h -5.893334 l 0.88,-0.90666 v 6.82666 z m 12.746667,0 -4.8,-6.77333 h 2.133333 l 4.826667,6.77333 z m -10.773334,-6.66666 -0.88,-0.93333 h 5.84 q 2.8,0 4.24,-1.22667 1.466667,-1.22667 1.466667,-3.44 0,-2.24 -1.466667,-3.46667 -1.44,-1.22666 -4.24,-1.22666 h -5.84 l 0.88,-0.93334 z m 22.853321,6.8 q -2.186667,0 -3.84,-0.90667 -1.653333,-0.93333 -2.586666,-2.53333 -0.933334,-1.62667 -0.933334,-3.70667 0,-2.08 0.88,-3.68 0.906667,-1.6 2.453333,-2.50666 1.573334,-0.93334 3.52,-0.93334 1.973334,0 3.493334,0.90667 1.546666,0.88 2.426666,2.50667 0.88,1.6 0.88,3.70666 0,0.13333 -0.02667,0.29333 0,0.13334 0,0.29334 H 63.218412 v -1.41333 h 11.173333 l -0.746666,0.55999 q 0,-1.51999 -0.666667,-2.69333 -0.64,-1.2 -1.76,-1.86666 -1.12,-0.66667 -2.586667,-0.66667 -1.44,0 -2.586666,0.66667 -1.146667,0.66666 -1.786667,1.86666 -0.64,1.2 -0.64,2.74667 v 0.29333 q 0,1.6 0.693334,2.82667 0.719999,1.2 1.973333,1.89333 1.28,0.66667 2.906666,0.66667 1.28,0 2.373334,-0.45334 1.12,-0.45333 1.92,-1.38666 l 1.066666,1.22666 q -0.933333,1.12 -2.346666,1.70667 -1.386667,0.58667 -3.066667,0.58667 z m 13.920004,0 q -1.733333,0 -3.28,-0.48 -1.546667,-0.50667 -2.426667,-1.25334 l 0.853334,-1.49333 q 0.853333,0.64 2.186666,1.12 1.333334,0.45333 2.8,0.45333 2,0 2.88,-0.61333 0.88,-0.64 0.88,-1.68 0,-0.77333 -0.506667,-1.2 -0.48,-0.45333 -1.28,-0.66667 -0.8,-0.24 -1.786666,-0.4 -0.986667,-0.16 -1.973333,-0.37333 -0.96,-0.21333 -1.76,-0.61333 -0.8,-0.42667 -1.306667,-1.14667 -0.48,-0.72 -0.48,-1.92 0,-1.14666 0.64,-2.05333 0.64,-0.90667 1.866667,-1.41333 1.253333,-0.53334 3.039999,-0.53334 1.36,0 2.72,0.37334 1.36,0.34666 2.24,0.93333 l -0.826666,1.52 q -0.933334,-0.64 -2,-0.90667 -1.066667,-0.29333 -2.133334,-0.29333 -1.893333,0 -2.799999,0.66667 -0.88,0.64 -0.88,1.65333 0,0.8 0.48,1.25333 0.506666,0.45334 1.306666,0.72 0.826667,0.24 1.786667,0.4 0.986666,0.16 1.946666,0.4 0.986667,0.21333 1.786667,0.61333 0.826667,0.37334 1.306667,1.09334 0.506666,0.69333 0.506666,1.84 0,1.22666 -0.693333,2.13333 -0.666667,0.88 -1.973333,1.38667 -1.28,0.48 -3.12,0.48 z m 9.253355,-0.13334 v -13.99999 h 1.893333 v 13.99999 z m 0.96,-17.09333 q -0.586667,0 -0.986666,-0.4 -0.4,-0.4 -0.4,-0.96 0,-0.56 0.4,-0.93333 0.399999,-0.4 0.986666,-0.4 0.586667,0 0.986667,0.37333 0.4,0.37334 0.4,0.93334 0,0.58666 -0.4,0.98666 -0.373334,0.4 -0.986667,0.4 z m 11.786639,17.22667 q -2,0 -3.6,-0.90667 -1.57333,-0.90667 -2.479996,-2.50667 -0.906667,-1.62666 -0.906667,-3.73333 0,-2.13333 0.906667,-3.73333 0.906666,-1.6 2.479996,-2.48 1.6,-0.90667 3.6,-0.90667 1.84,0 3.28,0.82667 1.46667,0.82667 2.32,2.42667 0.88,1.57333 0.88,3.86666 0,2.26667 -0.85333,3.86667 -0.85333,1.6 -2.32,2.45333 -1.44,0.82667 -3.30667,0.82667 z m 0.13334,-1.68 q 1.49333,0 2.66666,-0.66667 1.2,-0.69333 1.86667,-1.92 0.69333,-1.25333 0.69333,-2.88 0,-1.65333 -0.69333,-2.88 -0.66667,-1.22666 -1.86667,-1.89333 -1.17333,-0.69333 -2.66666,-0.69333 -1.46667,0 -2.64,0.69333 -1.17334,0.66667 -1.86667,1.89333 -0.693333,1.22667 -0.693333,2.88 0,1.62667 0.693333,2.88 0.69333,1.22667 1.86667,1.92 1.17333,0.66667 2.64,0.66667 z m 5.28,1.54666 v -4.21333 l 0.18666,-2.82667 -0.26666,-2.82666 v -9.92 h 1.89333 v 19.78666 z m 13.03998,0.13334 q -2.18667,0 -3.84,-0.90667 -1.65333,-0.93333 -2.58667,-2.53333 -0.93333,-1.62667 -0.93333,-3.70667 0,-2.08 0.88,-3.68 0.90667,-1.6 2.45333,-2.50666 1.57334,-0.93334 3.52,-0.93334 1.97334,0 3.49334,0.90667 1.54666,0.88 2.42666,2.50667 0.88,1.6 0.88,3.70666 0,0.13333 -0.0267,0.29333 0,0.13334 0,0.29334 h -12.18667 v -1.41333 h 11.17333 l -0.74666,0.55999 q 0,-1.51999 -0.66667,-2.69333 -0.64,-1.2 -1.76,-1.86666 -1.12,-0.66667 -2.58667,-0.66667 -1.44,0 -2.58666,0.66667 -1.14667,0.66666 -1.78667,1.86666 -0.64,1.2 -0.64,2.74667 v 0.29333 q 0,1.6 0.69333,2.82667 0.72,1.2 1.97334,1.89333 1.28,0.66667 2.90666,0.66667 1.28,0 2.37334,-0.45334 1.12,-0.45333 1.92,-1.38666 l 1.06666,1.22666 q -0.93333,1.12 -2.34666,1.70667 -1.38667,0.58667 -3.06667,0.58667 z m 17.30667,-14.26667 q 1.70667,0 2.98667,0.66667 1.30667,0.64 2.02667,1.97333 0.74666,1.33334 0.74666,3.36 v 8.13333 h -1.89333 v -7.94666 q 0,-2.21333 -1.12,-3.33333 -1.09333,-1.14667 -3.09333,-1.14667 -1.49334,0 -2.61334,0.61333 -1.09333,0.58667 -1.70666,1.73334 -0.58667,1.12 -0.58667,2.71999 v 7.36 h -1.89333 v -13.99999 h 1.81333 v 3.84 l -0.29333,-0.72 q 0.66666,-1.52 2.13333,-2.37334 1.46667,-0.88 3.49333,-0.88 z m 15.30668,14.26667 q -1.97333,0 -3.04,-1.06667 -1.06666,-1.06667 -1.06666,-3.01333 v -13.14667 h 1.89333 v 13.04 q 0,1.22667 0.61333,1.89333 0.64,0.66667 1.81334,0.66667 1.25333,0 2.08,-0.72 l 0.66666,1.36 q -0.56,0.50667 -1.36,0.74667 -0.77333,0.24 -1.6,0.24 z m -6.61333,-12.56 v -1.57333 h 8.66667 v 1.57333 z m 13.01334,12.42666 v -13.99999 h 1.89333 v 13.99999 z m 0.96,-17.09333 q -0.58667,0 -0.98667,-0.4 -0.4,-0.4 -0.4,-0.96 0,-0.56 0.4,-0.93333 0.4,-0.4 0.98667,-0.4 0.58666,0 0.98666,0.37333 0.4,0.37334 0.4,0.93334 0,0.58666 -0.4,0.98666 -0.37333,0.4 -0.98666,0.4 z m 14.98664,17.09333 v -3.09333 l -0.08,-0.50667 v -5.17333 q 0,-1.78666 -1.01334,-2.74666 -0.98666,-0.96 -2.96,-0.96 -1.36,0 -2.58666,0.45333 -1.22667,0.45333 -2.08,1.2 l -0.85334,-1.41333 q 1.06667,-0.90667 2.56,-1.38667 1.49334,-0.50667 3.14667,-0.50667 2.72,0 4.18667,1.36 1.49333,1.33334 1.49333,4.08 v 8.69333 z m -4.82667,0.13334 q -1.57333,0 -2.74667,-0.50667 -1.14666,-0.53333 -1.76,-1.44 -0.61333,-0.93333 -0.61333,-2.13333 0,-1.09334 0.50667,-1.97334 0.53333,-0.90666 1.70666,-1.44 1.2,-0.55999 3.2,-0.55999 h 4.82667 v 1.41333 h -4.77333 q -2.02667,0 -2.82667,0.72 -0.77333,0.72 -0.77333,1.78666 0,1.2 0.93333,1.92 0.93333,0.72 2.61333,0.72 1.6,0 2.74667,-0.72 1.17333,-0.74666 1.70667,-2.13333 l 0.42666,1.30667 q -0.53333,1.38666 -1.86666,2.21333 -1.30667,0.82667 -3.30667,0.82667 z m 11.78667,-0.13334 v -19.78666 h 1.89334 v 19.78666 z"
       id="path3" />
    <path
       d="m 53.525091,195.17678 v -18.66667 h 1.973333 v 18.66667 z m 14.800001,-14.13334 q 1.706666,0 2.986666,0.66667 1.306667,0.64 2.026667,1.97333 0.746667,1.33334 0.746667,3.36 v 8.13334 h -1.893334 v -7.94667 q 0,-2.21333 -1.12,-3.33333 -1.093333,-1.14667 -3.093333,-1.14667 -1.493333,0 -2.613333,0.61333 -1.093333,0.58667 -1.706667,1.73334 -0.586666,1.12 -0.586666,2.72 v 7.36 h -1.893334 v -14 h 1.813334 v 3.84 l -0.293334,-0.72 q 0.666667,-1.52 2.133334,-2.37334 1.466666,-0.88 3.493333,-0.88 z m 14.640016,14.26667 q -1.733333,0 -3.28,-0.48 -1.546666,-0.50667 -2.426666,-1.25333 l 0.853333,-1.49334 q 0.853333,0.64 2.186667,1.12 1.333333,0.45334 2.799999,0.45334 2,0 2.88,-0.61334 0.88,-0.64 0.88,-1.68 0,-0.77333 -0.506666,-1.2 -0.48,-0.45333 -1.28,-0.66666 -0.8,-0.24 -1.786667,-0.4 -0.986667,-0.16 -1.973333,-0.37334 -0.96,-0.21333 -1.76,-0.61333 -0.8,-0.42667 -1.306667,-1.14667 -0.48,-0.72 -0.48,-1.92 0,-1.14666 0.64,-2.05333 0.64,-0.90667 1.866667,-1.41333 1.253333,-0.53334 3.04,-0.53334 1.36,0 2.72,0.37334 1.36,0.34666 2.24,0.93333 l -0.826667,1.52 q -0.933333,-0.64 -2,-0.90667 -1.066667,-0.29333 -2.133333,-0.29333 -1.893334,0 -2.8,0.66667 -0.88,0.64 -0.88,1.65333 0,0.8 0.48,1.25333 0.506666,0.45334 1.306666,0.72 0.826667,0.24 1.786667,0.4 0.986667,0.16 1.946667,0.4 0.986666,0.21334 1.786666,0.61334 0.826667,0.37333 1.306667,1.09333 0.506667,0.69333 0.506667,1.84 0,1.22667 -0.693334,2.13333 -0.666666,0.88 -1.973333,1.38667 -1.28,0.48 -3.12,0.48 z m 13.680022,0 q -1.973333,0 -3.04,-1.06667 -1.066667,-1.06666 -1.066667,-3.01333 v -13.14667 h 1.893334 v 13.04 q 0,1.22667 0.613333,1.89334 0.64,0.66666 1.813333,0.66666 1.253334,0 2.08,-0.72 l 0.666667,1.36 q -0.56,0.50667 -1.36,0.74667 -0.773333,0.24 -1.6,0.24 z m -6.613333,-12.56 v -1.57333 h 8.666666 v 1.57333 z m 21.786673,12.42667 v -3.09334 l -0.08,-0.50666 v -5.17334 q 0,-1.78666 -1.01334,-2.74666 -0.98666,-0.96 -2.96,-0.96 -1.36,0 -2.58666,0.45333 -1.22667,0.45333 -2.08,1.2 l -0.85333,-1.41333 q 1.06666,-0.90667 2.56,-1.38667 1.49333,-0.50667 3.14666,-0.50667 2.72,0 4.18667,1.36 1.49333,1.33334 1.49333,4.08 v 8.69334 z m -4.82667,0.13333 q -1.57333,0 -2.74666,-0.50667 -1.14667,-0.53333 -1.76,-1.44 -0.61334,-0.93333 -0.61334,-2.13333 0,-1.09333 0.50667,-1.97333 0.53333,-0.90667 1.70667,-1.44 1.2,-0.56 3.19999,-0.56 h 4.82667 v 1.41333 h -4.77333 q -2.02667,0 -2.82667,0.72 -0.77333,0.72 -0.77333,1.78667 0,1.2 0.93333,1.92 0.93333,0.72 2.61333,0.72 1.6,0 2.74667,-0.72 1.17333,-0.74667 1.70667,-2.13334 l 0.42666,1.30667 q -0.53333,1.38667 -1.86666,2.21333 -1.30667,0.82667 -3.30667,0.82667 z m 19.01334,0 q -1.84,0 -3.30667,-0.82667 -1.46666,-0.85333 -2.32,-2.45333 -0.85333,-1.6 -0.85333,-3.86667 0,-2.29333 0.85333,-3.86666 0.88,-1.6 2.34667,-2.42667 1.46667,-0.82667 3.28,-0.82667 2,0 3.57333,0.90667 1.6,0.88 2.50667,2.48 0.90667,1.6 0.90667,3.73333 0,2.10667 -0.90667,3.73334 -0.90667,1.6 -2.50667,2.50666 -1.57333,0.90667 -3.57333,0.90667 z m -7.22667,-0.13333 v -19.78667 h 1.89334 v 9.92 l -0.26667,2.82667 0.18667,2.82666 v 4.21334 z m 7.09334,-1.54667 q 1.49333,0 2.66666,-0.66667 1.17334,-0.69333 1.86667,-1.92 0.69333,-1.25333 0.69333,-2.88 0,-1.65333 -0.69333,-2.88 -0.69333,-1.22666 -1.86667,-1.89333 -1.17333,-0.69333 -2.66666,-0.69333 -1.49334,0 -2.69334,0.69333 -1.17333,0.66667 -1.86666,1.89333 -0.66667,1.22667 -0.66667,2.88 0,1.62667 0.66667,2.88 0.69333,1.22667 1.86666,1.92 1.2,0.66667 2.69334,0.66667 z m 10.98665,1.54667 v -14 h 1.89333 v 14 z m 0.96,-17.09334 q -0.58667,0 -0.98667,-0.4 -0.4,-0.4 -0.4,-0.96 0,-0.56 0.4,-0.93333 0.4,-0.4 0.98667,-0.4 0.58667,0 0.98667,0.37333 0.4,0.37334 0.4,0.93334 0,0.58666 -0.4,0.98666 -0.37334,0.4 -0.98667,0.4 z m 6.21331,17.09334 v -19.78667 h 1.89333 v 19.78667 z m 7.17331,0 v -14 h 1.89333 v 14 z m 0.96,-17.09334 q -0.58667,0 -0.98667,-0.4 -0.4,-0.4 -0.4,-0.96 0,-0.56 0.4,-0.93333 0.4,-0.4 0.98667,-0.4 0.58666,0 0.98666,0.37333 0.4,0.37334 0.4,0.93334 0,0.58666 -0.4,0.98666 -0.37333,0.4 -0.98666,0.4 z m 10.63997,17.22667 q -1.97333,0 -3.04,-1.06667 -1.06666,-1.06666 -1.06666,-3.01333 v -13.14667 h 1.89333 v 13.04 q 0,1.22667 0.61333,1.89334 0.64,0.66666 1.81334,0.66666 1.25333,0 2.08,-0.72 l 0.66666,1.36 q -0.56,0.50667 -1.36,0.74667 -0.77333,0.24 -1.6,0.24 z m -6.61333,-12.56 v -1.57333 h 8.66667 v 1.57333 z m 12.85333,17.73333 q -0.98667,0 -1.89333,-0.32 -0.88,-0.32 -1.52,-0.96 l 0.88,-1.41333 q 0.53333,0.50667 1.14666,0.77333 0.64,0.29334 1.41334,0.29334 0.93333,0 1.6,-0.53334 0.69333,-0.50666 1.30666,-1.81333 l 0.90667,-2.05333 0.21333,-0.29334 5.76,-12.98666 h 1.86667 l -7.01333,15.68 q -0.58667,1.36 -1.30667,2.16 -0.69333,0.8 -1.52,1.12 -0.82667,0.34666 -1.84,0.34666 z m 3.73333,-4.90666 -6.45333,-14.4 h 1.97333 l 5.70667,12.85333 z"
       id="path4" />
  </g>
  <path
     sodipodi:nodetypes="ccccc"
     id="path244-6-1-2-9-3-9"
     d="m 9.73694,9.9336 h 210.87979 v 93.69972 H 9.73694 Z"
     style="fill:#ffffff;stroke:#000000;stroke-width:2"
     inkscape:connector-curvature="0" />
  <g
     id="text4126-2-1-5-6-5-9-3-7"
     style="font-size:26.6667px;line-height:1.25;font-family:Montserrat;-inkscape-font-specification:'Montserrat, @wght=400';font-variation-settings:'wght' 400;text-align:center;letter-spacing:0px;word-spacing:0px;text-anchor:middle"
     aria-label="Concentrated&#10;Disadvantage">
    <path
       d="m 34.265385,45.869591 q -2.106667,0 -3.893334,-0.693333 -1.786666,-0.72 -3.093333,-2 -1.306667,-1.28 -2.053333,-3.013334 -0.72,-1.733333 -0.72,-3.786666 0,-2.053333 0.72,-3.786667 0.746666,-1.733333 2.053333,-3.013333 1.333333,-1.28 3.12,-1.973333 1.786667,-0.72 3.893333,-0.72 2.026667,0 3.813333,0.693333 1.786667,0.666667 3.013334,2.026667 l -1.253334,1.253333 q -1.146666,-1.173333 -2.533333,-1.68 -1.386667,-0.533333 -2.986667,-0.533333 -1.679999,0 -3.119999,0.586666 -1.44,0.56 -2.506667,1.626667 -1.066667,1.04 -1.68,2.453333 -0.586667,1.386667 -0.586667,3.066667 0,1.68 0.586667,3.093333 0.613333,1.386667 1.68,2.453333 1.066667,1.04 2.506667,1.626667 1.44,0.56 3.119999,0.56 1.6,0 2.986667,-0.533333 1.386667,-0.533334 2.533333,-1.706667 l 1.253334,1.253333 q -1.226667,1.36 -3.013334,2.053334 -1.786666,0.693333 -3.839999,0.693333 z m 15.767096,-0.02667 q -2.026666,0 -3.653333,-0.906666 -1.6,-0.933334 -2.533333,-2.533334 -0.933334,-1.626666 -0.933334,-3.706666 0,-2.106667 0.933334,-3.706667 0.933333,-1.6 2.533333,-2.506666 1.6,-0.906667 3.653333,-0.906667 2.08,0 3.68,0.906667 1.626667,0.906666 2.533333,2.506666 0.933334,1.6 0.933334,3.706667 0,2.08 -0.933334,3.706666 -0.906666,1.6 -2.533333,2.533334 -1.626666,0.906666 -3.68,0.906666 z m 0,-1.68 q 1.52,0 2.693334,-0.666666 1.173333,-0.693334 1.84,-1.92 0.693333,-1.253334 0.693333,-2.88 0,-1.653334 -0.693333,-2.88 -0.666667,-1.226667 -1.84,-1.893333 -1.173334,-0.693334 -2.666667,-0.693334 -1.493333,0 -2.666667,0.693334 -1.173333,0.666666 -1.866666,1.893333 -0.693334,1.226666 -0.693334,2.88 0,1.626666 0.693334,2.88 0.693333,1.226666 1.866666,1.92 1.173334,0.666666 2.64,0.666666 z M 68.192502,31.576258 q 1.706666,0 2.986666,0.666667 1.306667,0.64 2.026667,1.973333 0.746666,1.333333 0.746666,3.36 v 8.133333 h -1.893333 v -7.946667 q 0,-2.213333 -1.12,-3.333333 -1.093333,-1.146666 -3.093333,-1.146666 -1.493333,0 -2.613333,0.613333 -1.093334,0.586667 -1.706667,1.733333 -0.586667,1.12 -0.586667,2.72 v 7.36 h -1.893333 v -14 h 1.813333 v 3.84 l -0.293333,-0.72 q 0.666667,-1.52 2.133333,-2.373333 1.466667,-0.88 3.493334,-0.88 z m 16.693346,14.266666 q -2.08,0 -3.733333,-0.906666 -1.626667,-0.933334 -2.56,-2.533334 -0.933333,-1.626666 -0.933333,-3.706666 0,-2.106667 0.933333,-3.706667 0.933333,-1.6 2.56,-2.506666 1.653333,-0.906667 3.733333,-0.906667 1.786667,0 3.226667,0.693333 1.44,0.693334 2.266666,2.08 l -1.413333,0.96 q -0.72,-1.066666 -1.786666,-1.573333 -1.066667,-0.506667 -2.32,-0.506667 -1.493334,0 -2.693334,0.693334 -1.2,0.666666 -1.893333,1.893333 -0.693333,1.226666 -0.693333,2.88 0,1.653333 0.693333,2.88 0.693333,1.226666 1.893333,1.92 1.2,0.666666 2.693334,0.666666 1.253333,0 2.32,-0.506666 1.066666,-0.506667 1.786666,-1.546667 l 1.413333,0.96 q -0.826666,1.36 -2.266666,2.08 -1.44,0.693333 -3.226667,0.693333 z m 14.910204,0 q -2.186666,0 -3.84,-0.906666 -1.653333,-0.933334 -2.586666,-2.533334 -0.933334,-1.626666 -0.933334,-3.706666 0,-2.08 0.88,-3.68 0.906667,-1.6 2.453334,-2.506667 1.573333,-0.933333 3.52,-0.933333 1.973334,0 3.493334,0.906667 1.54667,0.88 2.42667,2.506666 0.88,1.6 0.88,3.706667 0,0.133333 -0.0267,0.293333 0,0.133333 0,0.293333 H 93.876052 v -1.413333 h 11.173338 l -0.74667,0.56 q 0,-1.52 -0.66667,-2.693333 -0.64,-1.2 -1.76,-1.866667 -1.12,-0.666666 -2.586664,-0.666666 -1.44,0 -2.586667,0.666666 -1.146667,0.666667 -1.786667,1.866667 -0.64,1.2 -0.64,2.746666 v 0.293334 q 0,1.6 0.693334,2.826666 0.72,1.2 1.973333,1.893334 1.28,0.666666 2.906667,0.666666 1.280004,0 2.373334,-0.453333 1.12,-0.453333 1.92,-1.386667 l 1.06667,1.226667 q -0.93334,1.12 -2.34667,1.706667 -1.38667,0.586666 -3.066668,0.586666 z M 117.10272,31.576258 q 1.70667,0 2.98667,0.666667 1.30666,0.64 2.02666,1.973333 0.74667,1.333333 0.74667,3.36 v 8.133333 h -1.89333 v -7.946667 q 0,-2.213333 -1.12,-3.333333 -1.09334,-1.146666 -3.09334,-1.146666 -1.49333,0 -2.61333,0.613333 -1.09333,0.586667 -1.70667,1.733333 -0.58666,1.12 -0.58666,2.72 v 7.36 h -1.89334 v -14 h 1.81334 v 3.84 l -0.29334,-0.72 q 0.66667,-1.52 2.13334,-2.373333 1.46666,-0.88 3.49333,-0.88 z m 15.30668,14.266666 q -1.97333,0 -3.04,-1.066666 -1.06667,-1.066667 -1.06667,-3.013334 V 28.616258 h 1.89334 v 13.04 q 0,1.226666 0.61333,1.893333 0.64,0.666667 1.81333,0.666667 1.25334,0 2.08,-0.72 l 0.66667,1.36 q -0.56,0.506666 -1.36,0.746666 -0.77333,0.24 -1.6,0.24 z m -6.61333,-12.559999 v -1.573334 h 8.66666 v 1.573334 z m 13.01333,12.426666 v -14 h 1.81333 v 3.813333 l -0.18666,-0.666666 q 0.58666,-1.6 1.97333,-2.426667 1.38667,-0.853333 3.44,-0.853333 v 1.84 q -0.10667,0 -0.21333,0 -0.10667,-0.02667 -0.21334,-0.02667 -2.21333,0 -3.46666,1.36 -1.25334,1.333333 -1.25334,3.813333 v 7.146667 z m 18.20886,0 v -3.093333 l -0.08,-0.506667 v -5.173333 q 0,-1.786667 -1.01334,-2.746667 -0.98666,-0.96 -2.96,-0.96 -1.36,0 -2.58666,0.453334 -1.22667,0.453333 -2.08,1.2 l -0.85334,-1.413334 q 1.06667,-0.906666 2.56,-1.386666 1.49334,-0.506667 3.14667,-0.506667 2.72,0 4.18667,1.36 1.49333,1.333333 1.49333,4.08 v 8.693333 z m -4.82667,0.133333 q -1.57333,0 -2.74667,-0.506666 -1.14666,-0.533334 -1.76,-1.44 -0.61333,-0.933334 -0.61333,-2.133334 0,-1.093333 0.50667,-1.973333 0.53333,-0.906667 1.70666,-1.44 1.2,-0.56 3.2,-0.56 h 4.82667 v 1.413333 h -4.77333 q -2.02667,0 -2.82667,0.72 -0.77333,0.72 -0.77333,1.786667 0,1.2 0.93333,1.92 0.93333,0.72 2.61333,0.72 1.6,0 2.74667,-0.72 1.17333,-0.746667 1.70667,-2.133333 l 0.42666,1.306666 q -0.53333,1.386667 -1.86666,2.213334 -1.30667,0.826666 -3.30667,0.826666 z m 16.21334,0 q -1.97334,0 -3.04,-1.066666 -1.06667,-1.066667 -1.06667,-3.013334 V 28.616258 h 1.89333 v 13.04 q 0,1.226666 0.61334,1.893333 0.64,0.666667 1.81333,0.666667 1.25333,0 2.08,-0.72 l 0.66667,1.36 q -0.56,0.506666 -1.36,0.746666 -0.77334,0.24 -1.6,0.24 z m -6.61334,-12.559999 v -1.573334 h 8.66667 v 1.573334 z m 18.45689,12.559999 q -2.18667,0 -3.84,-0.906666 -1.65334,-0.933334 -2.58667,-2.533334 -0.93333,-1.626666 -0.93333,-3.706666 0,-2.08 0.88,-3.68 0.90666,-1.6 2.45333,-2.506667 1.57333,-0.933333 3.52,-0.933333 1.97333,0 3.49333,0.906667 1.54667,0.88 2.42667,2.506666 0.88,1.6 0.88,3.706667 0,0.133333 -0.0267,0.293333 0,0.133333 0,0.293333 h -12.18666 v -1.413333 h 11.17333 l -0.74667,0.56 q 0,-1.52 -0.66666,-2.693333 -0.64,-1.2 -1.76,-1.866667 -1.12,-0.666666 -2.58667,-0.666666 -1.44,0 -2.58667,0.666666 -1.14666,0.666667 -1.78666,1.866667 -0.64,1.2 -0.64,2.746666 v 0.293334 q 0,1.6 0.69333,2.826666 0.72,1.2 1.97333,1.893334 1.28,0.666666 2.90667,0.666666 1.28,0 2.37333,-0.453333 1.12,-0.453333 1.92,-1.386667 l 1.06667,1.226667 q -0.93333,1.12 -2.34667,1.706667 -1.38666,0.586666 -3.06666,0.586666 z m 15.73332,0 q -2,0 -3.6,-0.906666 -1.57333,-0.906667 -2.48,-2.506667 -0.90667,-1.626667 -0.90667,-3.733333 0,-2.133334 0.90667,-3.733333 0.90667,-1.6 2.48,-2.48 1.6,-0.906667 3.6,-0.906667 1.84,0 3.28,0.826667 1.46667,0.826666 2.32,2.426666 0.88,1.573333 0.88,3.866667 0,2.266666 -0.85333,3.866666 -0.85334,1.6 -2.32,2.453334 -1.44,0.826666 -3.30667,0.826666 z m 0.13333,-1.68 q 1.49334,0 2.66667,-0.666666 1.2,-0.693334 1.86667,-1.92 0.69333,-1.253334 0.69333,-2.88 0,-1.653334 -0.69333,-2.88 -0.66667,-1.226667 -1.86667,-1.893333 -1.17333,-0.693334 -2.66667,-0.693334 -1.46666,0 -2.64,0.693334 -1.17333,0.666666 -1.86666,1.893333 -0.69334,1.226666 -0.69334,2.88 0,1.626666 0.69334,2.88 0.69333,1.226666 1.86666,1.92 1.17334,0.666666 2.64,0.666666 z m 5.28,1.546667 v -4.213333 l 0.18667,-2.826667 -0.26667,-2.826667 v -9.919999 h 1.89334 v 19.786666 z"
       id="path1" />
    <path
       d="M 25.152019,79.042923 V 60.376257 h 7.6 q 2.986667,0 5.226667,1.2 2.266666,1.173334 3.52,3.28 1.253333,2.106667 1.253333,4.853333 0,2.746667 -1.253333,4.853334 -1.253334,2.106666 -3.52,3.306666 -2.24,1.173333 -5.226667,1.173333 z m 1.973334,-1.706666 h 5.52 q 2.48,0 4.293333,-0.96 1.84,-0.986667 2.853333,-2.693333 1.013333,-1.733334 1.013333,-3.973334 0,-2.266666 -1.013333,-3.973333 -1.013333,-1.706667 -2.853333,-2.666667 -1.813333,-0.986666 -4.293333,-0.986666 h -5.52 z m 19.653339,1.706666 V 65.042924 h 1.893333 v 13.999999 z m 0.96,-17.093332 q -0.586667,0 -0.986667,-0.4 -0.4,-0.4 -0.4,-0.96 0,-0.56 0.4,-0.933334 0.4,-0.4 0.986667,-0.4 0.586666,0 0.986666,0.373334 0.4,0.373333 0.4,0.933333 0,0.586667 -0.4,0.986667 -0.373333,0.4 -0.986666,0.4 z m 9.973309,17.226666 q -1.733333,0 -3.28,-0.48 -1.546666,-0.506667 -2.426666,-1.253334 l 0.853333,-1.493333 q 0.853333,0.64 2.186666,1.12 1.333334,0.453333 2.8,0.453333 2,0 2.88,-0.613333 0.88,-0.64 0.88,-1.68 0,-0.773333 -0.506666,-1.2 -0.48,-0.453333 -1.28,-0.666666 -0.8,-0.24 -1.786667,-0.4 -0.986667,-0.16 -1.973333,-0.373334 -0.96,-0.213333 -1.76,-0.613333 -0.8,-0.426667 -1.306667,-1.146667 -0.48,-0.72 -0.48,-1.92 0,-1.146666 0.64,-2.053333 0.64,-0.906667 1.866667,-1.413333 1.253333,-0.533334 3.04,-0.533334 1.36,0 2.72,0.373334 1.36,0.346666 2.24,0.933333 l -0.826667,1.52 q -0.933333,-0.64 -2,-0.906667 -1.066667,-0.293333 -2.133333,-0.293333 -1.893334,0 -2.8,0.666667 -0.88,0.64 -0.88,1.653333 0,0.8 0.48,1.253333 0.506666,0.453334 1.306666,0.72 0.826667,0.24 1.786667,0.4 0.986667,0.16 1.946667,0.4 0.986666,0.213334 1.786666,0.613334 0.826667,0.373333 1.306667,1.093333 0.506667,0.693333 0.506667,1.84 0,1.226667 -0.693334,2.133333 -0.666666,0.88 -1.973333,1.386667 -1.28,0.48 -3.12,0.48 z M 75.73869,79.042923 V 75.94959 l -0.08,-0.506666 V 70.26959 q 0,-1.786666 -1.013334,-2.746666 -0.986666,-0.96 -2.96,-0.96 -1.36,0 -2.586666,0.453333 -1.226667,0.453333 -2.08,1.2 l -0.853334,-1.413333 q 1.066667,-0.906667 2.56,-1.386667 1.493334,-0.506667 3.146667,-0.506667 2.72,0 4.186667,1.36 1.493333,1.333334 1.493333,4.08 v 8.693333 z m -4.826667,0.133334 q -1.573333,0 -2.746667,-0.506667 -1.146666,-0.533333 -1.76,-1.44 -0.613333,-0.933333 -0.613333,-2.133333 0,-1.093333 0.506667,-1.973333 0.533333,-0.906667 1.706666,-1.44 1.2,-0.56 3.2,-0.56 h 4.826667 v 1.413333 H 71.25869 q -2.026667,0 -2.826667,0.72 -0.773333,0.72 -0.773333,1.786667 0,1.2 0.933333,1.92 0.933333,0.719999 2.613333,0.719999 1.6,0 2.746667,-0.719999 1.173333,-0.746667 1.706667,-2.133334 l 0.426666,1.306667 q -0.533333,1.386666 -1.866666,2.213333 -1.306667,0.826667 -3.306667,0.826667 z m 17.360004,0 q -2,0 -3.6,-0.906667 -1.573333,-0.906667 -2.48,-2.506666 -0.906666,-1.626667 -0.906666,-3.733334 0,-2.133333 0.906666,-3.733333 0.906667,-1.6 2.48,-2.48 1.6,-0.906667 3.6,-0.906667 1.84,0 3.28,0.826667 1.466667,0.826667 2.32,2.426667 0.88,1.573333 0.88,3.866666 0,2.266667 -0.853333,3.866667 -0.853334,1.6 -2.32,2.453333 -1.44,0.826667 -3.306667,0.826667 z m 0.133333,-1.68 q 1.493334,0 2.666667,-0.666667 1.2,-0.693333 1.866667,-1.92 0.693333,-1.253333 0.693333,-2.88 0,-1.653333 -0.693333,-2.88 -0.666667,-1.226666 -1.866667,-1.893333 -1.173333,-0.693333 -2.666667,-0.693333 -1.466666,0 -2.64,0.693333 -1.173333,0.666667 -1.866666,1.893333 -0.693334,1.226667 -0.693334,2.88 0,1.626667 0.693334,2.88 0.693333,1.226667 1.866666,1.92 1.173334,0.666667 2.64,0.666667 z m 5.28,1.546666 V 74.82959 l 0.186667,-2.826666 -0.266667,-2.826667 v -9.92 h 1.893333 v 19.786666 z m 10.69332,0 -6.213329,-13.999999 h 1.973329 l 5.70667,12.986666 h -0.93333 l 5.78666,-12.986666 h 1.86667 l -6.24,13.999999 z m 19.19647,0 V 75.94959 l -0.08,-0.506666 V 70.26959 q 0,-1.786666 -1.01333,-2.746666 -0.98667,-0.96 -2.96,-0.96 -1.36,0 -2.58667,0.453333 -1.22667,0.453333 -2.08,1.2 l -0.85333,-1.413333 q 1.06666,-0.906667 2.56,-1.386667 1.49333,-0.506667 3.14666,-0.506667 2.72,0 4.18667,1.36 1.49333,1.333334 1.49333,4.08 v 8.693333 z m -4.82667,0.133334 q -1.57333,0 -2.74666,-0.506667 -1.14667,-0.533333 -1.76,-1.44 -0.61334,-0.933333 -0.61334,-2.133333 0,-1.093333 0.50667,-1.973333 0.53333,-0.906667 1.70667,-1.44 1.2,-0.56 3.2,-0.56 h 4.82666 v 1.413333 h -4.77333 q -2.02667,0 -2.82667,0.72 -0.77333,0.72 -0.77333,1.786667 0,1.2 0.93333,1.92 0.93334,0.719999 2.61334,0.719999 1.6,0 2.74666,-0.719999 1.17334,-0.746667 1.70667,-2.133334 l 0.42667,1.306667 q -0.53334,1.386666 -1.86667,2.213333 -1.30667,0.826667 -3.30667,0.826667 z M 137.68182,64.90959 q 1.70667,0 2.98667,0.666667 1.30666,0.64 2.02666,1.973333 0.74667,1.333334 0.74667,3.36 v 8.133333 h -1.89333 v -7.946666 q 0,-2.213333 -1.12,-3.333333 -1.09334,-1.146667 -3.09334,-1.146667 -1.49333,0 -2.61333,0.613333 -1.09333,0.586667 -1.70667,1.733334 -0.58666,1.12 -0.58666,2.72 v 7.359999 h -1.89334 V 65.042924 h 1.81334 v 3.84 l -0.29334,-0.72 q 0.66667,-1.52 2.13334,-2.373334 1.46666,-0.88 3.49333,-0.88 z m 15.30668,14.266667 q -1.97333,0 -3.04,-1.066667 -1.06667,-1.066667 -1.06667,-3.013333 V 61.949591 h 1.89334 V 74.98959 q 0,1.226667 0.61333,1.893334 0.64,0.666666 1.81333,0.666666 1.25334,0 2.08,-0.72 l 0.66667,1.36 q -0.56,0.506667 -1.36,0.746667 -0.77333,0.24 -1.6,0.24 z m -6.61333,-12.56 v -1.573333 h 8.66666 v 1.573333 z m 21.78667,12.426666 V 75.94959 l -0.08,-0.506666 V 70.26959 q 0,-1.786666 -1.01333,-2.746666 -0.98667,-0.96 -2.96,-0.96 -1.36,0 -2.58667,0.453333 -1.22666,0.453333 -2.08,1.2 l -0.85333,-1.413333 q 1.06667,-0.906667 2.56,-1.386667 1.49333,-0.506667 3.14667,-0.506667 2.72,0 4.18666,1.36 1.49334,1.333334 1.49334,4.08 v 8.693333 z m -4.82666,0.133334 q -1.57334,0 -2.74667,-0.506667 -1.14667,-0.533333 -1.76,-1.44 -0.61333,-0.933333 -0.61333,-2.133333 0,-1.093333 0.50666,-1.973333 0.53334,-0.906667 1.70667,-1.44 1.2,-0.56 3.2,-0.56 h 4.82667 v 1.413333 h -4.77334 q -2.02666,0 -2.82666,0.72 -0.77334,0.72 -0.77334,1.786667 0,1.2 0.93334,1.92 0.93333,0.719999 2.61333,0.719999 1.6,0 2.74667,-0.719999 1.17333,-0.746667 1.70666,-2.133334 l 0.42667,1.306667 q -0.53333,1.386666 -1.86667,2.213333 -1.30666,0.826667 -3.30666,0.826667 z m 17.76,5.173333 q -1.92,0 -3.68,-0.56 -1.76,-0.56 -2.85333,-1.6 l 0.96,-1.44 q 0.98666,0.88 2.42666,1.386667 1.46667,0.533333 3.09334,0.533333 2.66666,0 3.92,-1.253333 1.25333,-1.226667 1.25333,-3.84 v -3.493333 l 0.26667,-2.4 -0.18667,-2.4 v -4.24 h 1.81333 v 12.293333 q 0,3.626666 -1.78666,5.306666 -1.76,1.706667 -5.22667,1.706667 z m -0.34667,-5.84 q -2,0 -3.6,-0.853333 -1.6,-0.88 -2.53333,-2.426667 -0.90667,-1.546666 -0.90667,-3.546666 0,-2 0.90667,-3.52 0.93333,-1.546667 2.53333,-2.4 1.6,-0.853334 3.6,-0.853334 1.86667,0 3.36,0.773334 1.49334,0.773333 2.37334,2.293333 0.88,1.52 0.88,3.706667 0,2.186666 -0.88,3.706666 -0.88,1.52 -2.37334,2.32 -1.49333,0.8 -3.36,0.8 z m 0.18667,-1.68 q 1.54667,0 2.74667,-0.64 1.2,-0.666666 1.89333,-1.813333 0.69333,-1.173333 0.69333,-2.693333 0,-1.52 -0.69333,-2.666667 -0.69333,-1.146667 -1.89333,-1.786667 -1.2,-0.666666 -2.74667,-0.666666 -1.52,0 -2.74667,0.666666 -1.2,0.64 -1.89333,1.786667 -0.66667,1.146667 -0.66667,2.666667 0,1.52 0.66667,2.693333 0.69333,1.146667 1.89333,1.813333 1.22667,0.64 2.74667,0.64 z m 18.39998,2.346667 q -2.18667,0 -3.84,-0.906667 -1.65333,-0.933333 -2.58667,-2.533333 -0.93333,-1.626667 -0.93333,-3.706667 0,-2.08 0.88,-3.68 0.90667,-1.6 2.45333,-2.506666 1.57334,-0.933334 3.52,-0.933334 1.97334,0 3.49334,0.906667 1.54666,0.88 2.42666,2.506667 0.88,1.6 0.88,3.706666 0,0.133334 -0.0267,0.293334 0,0.133333 0,0.293333 h -12.18667 v -1.413333 h 11.17333 l -0.74666,0.56 q 0,-1.52 -0.66667,-2.693334 -0.64,-1.2 -1.76,-1.866666 -1.12,-0.666667 -2.58667,-0.666667 -1.44,0 -2.58666,0.666667 -1.14667,0.666666 -1.78667,1.866666 -0.64,1.2 -0.64,2.746667 v 0.293333 q 0,1.6 0.69333,2.826667 0.72,1.2 1.97334,1.893333 1.28,0.666667 2.90666,0.666667 1.28,0 2.37334,-0.453334 1.12,-0.453333 1.92,-1.386666 l 1.06666,1.226667 q -0.93333,1.119999 -2.34666,1.706666 -1.38667,0.586667 -3.06667,0.586667 z"
       id="path2" />
  </g>
  <path
     inkscape:connector-curvature="0"
     style="fill:#ffffff;stroke:#000000;stroke-width:2"
     d="m 9.73693,236.70053 h 210.87979 v 93.69972 H 9.73693 Z"
     id="path244-6-1-2-9-3-97"
     sodipodi:nodetypes="ccccc" />
  <path
     d="m 36.319754,275.062 h 1.946667 v 18.66667 H 36.319754 Z M 24.639755,293.72867 H 22.666421 V 275.062 h 1.973334 z m 11.866666,-8.61333 h -12.08 V 283.382 h 12.08 z M 49.89308,293.862 q -2.186666,0 -3.839999,-0.90667 -1.653334,-0.93333 -2.586667,-2.53333 -0.933333,-1.62667 -0.933333,-3.70666 0,-2.08 0.88,-3.68 0.906666,-1.6 2.453333,-2.50667 1.573333,-0.93333 3.52,-0.93333 1.973333,0 3.493333,0.90666 1.546667,0.88 2.426667,2.50667 0.88,1.6 0.88,3.70667 0,0.13333 -0.02667,0.29333 0,0.13333 0,0.29333 H 43.973081 v -1.41333 h 11.173333 l -0.746667,0.56 q 0,-1.52 -0.666667,-2.69333 -0.64,-1.2 -1.76,-1.86667 -1.12,-0.66667 -2.586666,-0.66667 -1.44,0 -2.586667,0.66667 -1.146666,0.66667 -1.786666,1.86667 -0.64,1.2 -0.64,2.74666 v 0.29334 q 0,1.6 0.693333,2.82666 0.72,1.2 1.973333,1.89333 1.28,0.66667 2.906667,0.66667 1.28,0 2.373333,-0.45333 1.12,-0.45334 1.92,-1.38667 l 1.066667,1.22667 q -0.933334,1.12 -2.346667,1.70666 -1.386667,0.58667 -3.066667,0.58667 z m 14.586667,0 q -1.973333,0 -3.04,-1.06667 -1.066666,-1.06666 -1.066666,-3.01333 v -13.14666 h 1.893333 v 13.03999 q 0,1.22667 0.613333,1.89334 0.64,0.66666 1.813333,0.66666 1.253334,0 2.08,-0.72 l 0.666667,1.36 q -0.56,0.50667 -1.36,0.74667 -0.773333,0.24 -1.6,0.24 z m -6.613333,-12.56 v -1.57333 h 8.666666 v 1.57333 z m 18.456873,12.56 q -2.186667,0 -3.84,-0.90667 -1.653333,-0.93333 -2.586667,-2.53333 -0.933333,-1.62667 -0.933333,-3.70666 0,-2.08 0.88,-3.68 0.906667,-1.6 2.453333,-2.50667 1.573334,-0.93333 3.52,-0.93333 1.973333,0 3.493333,0.90666 1.546667,0.88 2.426667,2.50667 0.88,1.6 0.88,3.70667 0,0.13333 -0.02667,0.29333 0,0.13333 0,0.29333 H 70.403287 v -1.41333 H 81.57662 l -0.746667,0.56 q 0,-1.52 -0.666666,-2.69333 -0.64,-1.2 -1.76,-1.86667 -1.12,-0.66667 -2.586667,-0.66667 -1.44,0 -2.586666,0.66667 -1.146667,0.66667 -1.786667,1.86667 -0.64,1.2 -0.64,2.74666 v 0.29334 q 0,1.6 0.693333,2.82666 0.72,1.2 1.973334,1.89333 1.279999,0.66667 2.906666,0.66667 1.28,0 2.373333,-0.45333 1.12,-0.45334 1.92,-1.38667 l 1.066667,1.22667 q -0.933333,1.12 -2.346667,1.70666 -1.386666,0.58667 -3.066666,0.58667 z m 10.16,-0.13333 v -14 h 1.813333 v 3.81333 l -0.186667,-0.66666 q 0.586667,-1.6 1.973334,-2.42667 1.386666,-0.85333 3.44,-0.85333 v 1.84 q -0.106667,0 -0.213334,0 -0.106666,-0.0267 -0.213333,-0.0267 -2.213333,0 -3.466667,1.36 -1.253333,1.33333 -1.253333,3.81333 v 7.14667 z m 16.060423,0.13333 q -2.02667,0 -3.653338,-0.90667 -1.6,-0.93333 -2.533333,-2.53333 -0.933333,-1.62667 -0.933333,-3.70666 0,-2.10667 0.933333,-3.70667 0.933333,-1.6 2.533333,-2.50667 1.599998,-0.90666 3.653338,-0.90666 2.08,0 3.68,0.90666 1.62666,0.90667 2.53333,2.50667 0.93333,1.6 0.93333,3.70667 0,2.07999 -0.93333,3.70666 -0.90667,1.6 -2.53333,2.53333 -1.62667,0.90667 -3.68,0.90667 z m 0,-1.68 q 1.52,0 2.69333,-0.66667 1.17333,-0.69333 1.84,-1.92 0.69333,-1.25333 0.69333,-2.87999 0,-1.65334 -0.69333,-2.88 -0.66667,-1.22667 -1.84,-1.89334 -1.17333,-0.69333 -2.66667,-0.69333 -1.49333,0 -2.666664,0.69333 -1.173334,0.66667 -1.866667,1.89334 -0.693333,1.22666 -0.693333,2.88 0,1.62666 0.693333,2.87999 0.693333,1.22667 1.866667,1.92 1.173334,0.66667 2.640004,0.66667 z m 16.98668,6.85333 q -1.92,0 -3.68,-0.56 -1.76,-0.56 -2.85333,-1.6 l 0.96,-1.44 q 0.98666,0.88 2.42666,1.38667 1.46667,0.53333 3.09334,0.53333 2.66666,0 3.92,-1.25333 1.25333,-1.22667 1.25333,-3.84 v -3.49333 l 0.26667,-2.4 -0.18667,-2.4 v -4.24 h 1.81333 V 292.022 q 0,3.62667 -1.78666,5.30667 -1.76,1.70666 -5.22667,1.70666 z m -0.34667,-5.84 q -2,0 -3.6,-0.85333 -1.6,-0.88 -2.53333,-2.42667 -0.90667,-1.54666 -0.90667,-3.54666 0,-2 0.90667,-3.52 0.93333,-1.54667 2.53333,-2.4 1.6,-0.85333 3.6,-0.85333 1.86667,0 3.36,0.77333 1.49334,0.77333 2.37334,2.29333 0.88,1.52 0.88,3.70667 0,2.18667 -0.88,3.70666 -0.88,1.52 -2.37334,2.32 -1.49333,0.8 -3.36,0.8 z m 0.18667,-1.68 q 1.54667,0 2.74667,-0.64 1.2,-0.66666 1.89333,-1.81333 0.69333,-1.17333 0.69333,-2.69333 0,-1.52 -0.69333,-2.66667 -0.69333,-1.14666 -1.89333,-1.78666 -1.2,-0.66667 -2.74667,-0.66667 -1.52,0 -2.74667,0.66667 -1.2,0.64 -1.89333,1.78666 -0.66667,1.14667 -0.66667,2.66667 0,1.52 0.66667,2.69333 0.69333,1.14667 1.89333,1.81333 1.22667,0.64 2.74667,0.64 z m 18.39999,2.34667 q -2.18667,0 -3.84,-0.90667 -1.65334,-0.93333 -2.58667,-2.53333 -0.93333,-1.62667 -0.93333,-3.70666 0,-2.08 0.88,-3.68 0.90666,-1.6 2.45333,-2.50667 1.57333,-0.93333 3.52,-0.93333 1.97333,0 3.49333,0.90666 1.54667,0.88 2.42667,2.50667 0.88,1.6 0.88,3.70667 0,0.13333 -0.0267,0.29333 0,0.13333 0,0.29333 h -12.18666 v -1.41333 h 11.17333 l -0.74667,0.56 q 0,-1.52 -0.66666,-2.69333 -0.64,-1.2 -1.76,-1.86667 -1.12,-0.66667 -2.58667,-0.66667 -1.44,0 -2.58667,0.66667 -1.14666,0.66667 -1.78666,1.86667 -0.64,1.2 -0.64,2.74666 v 0.29334 q 0,1.6 0.69333,2.82666 0.72,1.2 1.97333,1.89333 1.28,0.66667 2.90667,0.66667 1.28,0 2.37333,-0.45333 1.12,-0.45334 1.92,-1.38667 l 1.06667,1.22667 q -0.93333,1.12 -2.34667,1.70666 -1.38666,0.58667 -3.06666,0.58667 z m 17.30666,-14.26666 q 1.70667,0 2.98667,0.66666 1.30667,0.64 2.02667,1.97334 0.74666,1.33333 0.74666,3.36 v 8.13333 h -1.89333 V 285.782 q 0,-2.21333 -1.12,-3.33333 -1.09333,-1.14667 -3.09333,-1.14667 -1.49334,0 -2.61334,0.61334 -1.09333,0.58666 -1.70666,1.73333 -0.58667,1.12 -0.58667,2.72 v 7.36 h -1.89333 v -14 h 1.81333 v 3.84 l -0.29333,-0.72 q 0.66666,-1.52 2.13333,-2.37333 1.46667,-0.88 3.49333,-0.88 z m 16.82669,14.26666 q -2.18667,0 -3.84,-0.90667 -1.65333,-0.93333 -2.58667,-2.53333 -0.93333,-1.62667 -0.93333,-3.70666 0,-2.08 0.88,-3.68 0.90667,-1.6 2.45333,-2.50667 1.57334,-0.93333 3.52,-0.93333 1.97334,0 3.49334,0.90666 1.54666,0.88 2.42666,2.50667 0.88,1.6 0.88,3.70667 0,0.13333 -0.0267,0.29333 0,0.13333 0,0.29333 h -12.18667 v -1.41333 h 11.17333 l -0.74666,0.56 q 0,-1.52 -0.66667,-2.69333 -0.64,-1.2 -1.76,-1.86667 -1.12,-0.66667 -2.58667,-0.66667 -1.44,0 -2.58666,0.66667 -1.14667,0.66667 -1.78667,1.86667 -0.64,1.2 -0.64,2.74666 v 0.29334 q 0,1.6 0.69333,2.82666 0.72,1.2 1.97334,1.89333 1.28,0.66667 2.90666,0.66667 1.28,0 2.37334,-0.45333 1.12,-0.45334 1.92,-1.38667 l 1.06666,1.22667 q -0.93333,1.12 -2.34666,1.70666 -1.38667,0.58667 -3.06667,0.58667 z m 10.15999,-0.13333 v -14 h 1.89334 v 14 z m 0.96,-17.09333 q -0.58666,0 -0.98666,-0.4 -0.4,-0.4 -0.4,-0.96 0,-0.56 0.4,-0.93334 0.4,-0.4 0.98666,-0.4 0.58667,0 0.98667,0.37334 0.4,0.37333 0.4,0.93333 0,0.58667 -0.4,0.98667 -0.37333,0.4 -0.98667,0.4 z M 193.6637,293.862 q -1.97333,0 -3.04,-1.06667 -1.06667,-1.06666 -1.06667,-3.01333 v -13.14666 h 1.89334 v 13.03999 q 0,1.22667 0.61333,1.89334 0.64,0.66666 1.81333,0.66666 1.25334,0 2.08,-0.72 l 0.66667,1.36 q -0.56,0.50667 -1.36,0.74667 -0.77333,0.24 -1.6,0.24 z m -6.61333,-12.56 v -1.57333 h 8.66666 v 1.57333 z m 12.85333,17.73333 q -0.98667,0 -1.89334,-0.32 -0.88,-0.32 -1.52,-0.96 l 0.88,-1.41333 q 0.53334,0.50667 1.14667,0.77333 0.64,0.29334 1.41333,0.29334 0.93334,0 1.6,-0.53334 0.69334,-0.50666 1.30667,-1.81333 l 0.90667,-2.05333 0.21333,-0.29334 5.76,-12.98666 h 1.86667 l -7.01334,15.68 q -0.58666,1.36 -1.30666,2.16 -0.69334,0.8 -1.52,1.12 -0.82667,0.34666 -1.84,0.34666 z m 3.73333,-4.90666 -6.45333,-14.4 h 1.97333 l 5.70667,12.85333 z"
     id="text4126-2-1-5-6-5-9-3-3"
     style="font-size:26.6667px;line-height:1.25;font-family:Montserrat;-inkscape-font-specification:'Montserrat, @wght=400';font-variation-settings:'wght' 400;text-align:center;letter-spacing:0px;word-spacing:0px;text-anchor:middle"
     aria-label="Heterogeneity" />
  <path
     inkscape:connector-curvature="0"
     style="fill:none;stroke:#000000;stroke-width:2;stroke-miterlimit:4;stroke-dasharray:none;stroke-dashoffset:0;marker-end:url(#marker6123-9-3-9-4-6)"
     d="M 229.42631,46.62709 H 610.2867"
     id="path260-8-3-9-7-2"
     sodipodi:nodetypes="cc" />
  <path
     inkscape:connector-curvature="0"
     style="fill:none;stroke:#000000;stroke-width:4;stroke-miterlimit:4;stroke-dasharray:none;stroke-dashoffset:0;marker-end:url(#Arrow2Mend)"
     d="m 229.75978,206.79482 88.94401,82.22997"
     id="path260-8-3-9-7-2-8"
     sodipodi:nodetypes="cc" />
  <path
     sodipodi:nodetypes="ccccc"
     id="path244-6-1-2-9-3-9-2-3"
     d="M 323.69774,136.44933 H 552.0514 V 474.7832 H 323.69774 Z"
     style="fill:#ffffff;stroke:#000000;stroke-width:2"
     inkscape:connector-curvature="0" />
  <path
     sodipodi:nodetypes="ccccc"
     id="path244-6-1-2-9-3-1"
     d="M 332.43467,258.76638 H 543.31446 V 352.4661 H 332.43467 Z"
     style="fill:#ffffff;stroke:#000000;stroke-width:2"
     inkscape:connector-curvature="0" />
  <g
     id="text4126-2-1-5-6-5-9-3-1"
     style="font-size:26.6667px;line-height:1.25;font-family:Montserrat;-inkscape-font-specification:'Montserrat, @wght=400';font-variation-settings:'wght' 400;text-align:center;letter-spacing:0px;word-spacing:0px;text-anchor:middle"
     aria-label="Mutual&#10;Trust">
    <path
       d="m 393.83612,297.29279 v -18.66667 h 1.62666 l 8.53334,14.56 h -0.85334 l 8.45334,-14.56 h 1.62666 v 18.66667 h -1.89333 v -15.70667 h 0.45333 l -7.78666,13.33333 h -0.93334 l -7.84,-13.33333 h 0.50667 v 15.70667 z m 30.85333,0.13333 q -1.78667,0 -3.12,-0.66667 -1.33334,-0.66666 -2.08,-2 -0.72,-1.33333 -0.72,-3.33333 v -8.13333 h 1.89333 v 7.92 q 0,2.24 1.09333,3.38666 1.12,1.12 3.12,1.12 1.46667,0 2.53334,-0.58666 1.09333,-0.61334 1.65333,-1.76 0.58667,-1.14667 0.58667,-2.74667 v -7.33333 h 1.89333 v 14 h -1.81333 v -3.84 l 0.29333,0.69333 q -0.66667,1.54667 -2.08,2.42667 -1.38667,0.85333 -3.25333,0.85333 z m 16.56002,0 q -1.97333,0 -3.04,-1.06667 -1.06666,-1.06666 -1.06666,-3.01333 v -13.14667 h 1.89333 v 13.04 q 0,1.22667 0.61333,1.89334 0.64,0.66666 1.81334,0.66666 1.25333,0 2.08,-0.72 l 0.66666,1.36 q -0.56,0.50667 -1.36,0.74667 -0.77333,0.24 -1.6,0.24 z m -6.61333,-12.56 v -1.57333 h 8.66667 v 1.57333 z m 18.8,12.56 q -1.78667,0 -3.12,-0.66667 -1.33333,-0.66666 -2.08,-2 -0.72,-1.33333 -0.72,-3.33333 v -8.13333 h 1.89333 v 7.92 q 0,2.24 1.09334,3.38666 1.12,1.12 3.12,1.12 1.46666,0 2.53333,-0.58666 1.09333,-0.61334 1.65333,-1.76 0.58667,-1.14667 0.58667,-2.74667 v -7.33333 h 1.89333 v 14 h -1.81333 v -3.84 l 0.29333,0.69333 q -0.66666,1.54667 -2.08,2.42667 -1.38666,0.85333 -3.25333,0.85333 z m 20.90669,-0.13333 v -3.09334 l -0.08,-0.50666 v -5.17334 q 0,-1.78666 -1.01333,-2.74666 -0.98667,-0.96 -2.96,-0.96 -1.36,0 -2.58667,0.45333 -1.22667,0.45333 -2.08,1.2 l -0.85333,-1.41333 q 1.06666,-0.90667 2.56,-1.38667 1.49333,-0.50667 3.14666,-0.50667 2.72,0 4.18667,1.36 1.49333,1.33334 1.49333,4.08 v 8.69334 z m -4.82667,0.13333 q -1.57333,0 -2.74666,-0.50667 -1.14667,-0.53333 -1.76,-1.44 -0.61334,-0.93333 -0.61334,-2.13333 0,-1.09333 0.50667,-1.97333 0.53333,-0.90667 1.70667,-1.44 1.2,-0.56 3.2,-0.56 h 4.82666 v 1.41333 h -4.77333 q -2.02667,0 -2.82667,0.72 -0.77333,0.72 -0.77333,1.78667 0,1.2 0.93333,1.92 0.93334,0.72 2.61334,0.72 1.6,0 2.74666,-0.72 1.17334,-0.74667 1.70667,-2.13334 l 0.42667,1.30667 q -0.53334,1.38667 -1.86667,2.21333 -1.30667,0.82667 -3.30667,0.82667 z m 11.78667,-0.13333 v -19.78667 h 1.89334 v 19.78667 z"
       id="path7" />
    <path
       d="m 411.28768,330.62612 v -16.96 h -6.56 v -1.70667 h 15.09333 v 1.70667 h -6.56 v 16.96 z m 10.91021,0 v -14 h 1.81334 v 3.81333 l -0.18667,-0.66666 q 0.58667,-1.6 1.97333,-2.42667 1.38667,-0.85333 3.44,-0.85333 v 1.84 q -0.10666,0 -0.21333,0 -0.10667,-0.0267 -0.21333,-0.0267 -2.21334,0 -3.46667,1.36 -1.25333,1.33333 -1.25333,3.81333 v 7.14667 z m 16.47998,0.13333 q -1.78667,0 -3.12,-0.66667 -1.33334,-0.66666 -2.08,-2 -0.72,-1.33333 -0.72,-3.33333 v -8.13333 h 1.89333 v 7.92 q 0,2.24 1.09333,3.38666 1.12,1.12 3.12,1.12 1.46667,0 2.53334,-0.58666 1.09333,-0.61334 1.65333,-1.76 0.58667,-1.14667 0.58667,-2.74667 v -7.33333 h 1.89333 v 14 h -1.81333 v -3.84 l 0.29333,0.69333 q -0.66667,1.54667 -2.08,2.42667 -1.38667,0.85333 -3.25333,0.85333 z m 15.89335,0 q -1.73333,0 -3.28,-0.48 -1.54666,-0.50667 -2.42666,-1.25333 l 0.85333,-1.49334 q 0.85333,0.64 2.18667,1.12 1.33333,0.45334 2.8,0.45334 2,0 2.88,-0.61334 0.88,-0.64 0.88,-1.68 0,-0.77333 -0.50667,-1.2 -0.48,-0.45333 -1.28,-0.66666 -0.8,-0.24 -1.78667,-0.4 -0.98666,-0.16 -1.97333,-0.37333 -0.96,-0.21334 -1.76,-0.61334 -0.8,-0.42666 -1.30667,-1.14666 -0.48,-0.72 -0.48,-1.92 0,-1.14667 0.64,-2.05334 0.64,-0.90666 1.86667,-1.41333 1.25333,-0.53333 3.04,-0.53333 1.36,0 2.72,0.37333 1.36,0.34667 2.24,0.93333 l -0.82667,1.52 q -0.93333,-0.64 -2,-0.90666 -1.06666,-0.29334 -2.13333,-0.29334 -1.89333,0 -2.8,0.66667 -0.88,0.64 -0.88,1.65333 0,0.8 0.48,1.25334 0.50667,0.45333 1.30667,0.72 0.82666,0.24 1.78666,0.4 0.98667,0.16 1.94667,0.4 0.98667,0.21333 1.78667,0.61333 0.82666,0.37333 1.30666,1.09333 0.50667,0.69333 0.50667,1.84 0,1.22667 -0.69333,2.13333 -0.66667,0.88 -1.97334,1.38667 -1.28,0.48 -3.12,0.48 z m 13.68003,0 q -1.97334,0 -3.04,-1.06667 -1.06667,-1.06666 -1.06667,-3.01333 v -13.14666 h 1.89333 v 13.03999 q 0,1.22667 0.61334,1.89334 0.64,0.66666 1.81333,0.66666 1.25333,0 2.08,-0.72 l 0.66667,1.36 q -0.56,0.50667 -1.36,0.74667 -0.77334,0.24 -1.6,0.24 z m -6.61334,-12.56 v -1.57333 h 8.66667 v 1.57333 z"
       id="path8" />
  </g>
  <g
     id="text4126-2-1-5-6-5-9-3-7-0"
     style="font-size:32px;line-height:1.25;font-family:Montserrat;-inkscape-font-specification:'Montserrat, @wght=700';font-variation-settings:'wght' 700;text-align:center;letter-spacing:0px;word-spacing:0px;text-anchor:middle"
     aria-label="Collective&#10;Efficacy">
    <path
       d="m 368.57568,181.54294 q -2.592,0 -4.832,-0.832 -2.208,-0.864 -3.84,-2.432 -1.632,-1.568 -2.56,-3.68 -0.896,-2.112 -0.896,-4.64 0,-2.528 0.896,-4.64 0.928,-2.112 2.56,-3.68 1.664,-1.568 3.872,-2.4 2.208,-0.864 4.832,-0.864 2.912,0 5.248,1.024 2.368,0.992 3.968,2.944 l -3.328,3.072 q -1.152,-1.312 -2.56,-1.952 -1.408,-0.672 -3.072,-0.672 -1.568,0 -2.88,0.512 -1.312,0.512 -2.272,1.472 -0.96,0.96 -1.504,2.272 -0.512,1.312 -0.512,2.912 0,1.6 0.512,2.912 0.544,1.312 1.504,2.272 0.96,0.96 2.272,1.472 1.312,0.512 2.88,0.512 1.664,0 3.072,-0.64 1.408,-0.672 2.56,-2.016 l 3.328,3.072 q -1.6,1.952 -3.968,2.976 -2.336,1.024 -5.28,1.024 z m 19.98016,-0.128 q -2.752,0 -4.896,-1.152 -2.112,-1.152 -3.36,-3.136 -1.216,-2.016 -1.216,-4.576 0,-2.592 1.216,-4.576 1.248,-2.016 3.36,-3.136 2.144,-1.152 4.896,-1.152 2.72,0 4.864,1.152 2.144,1.12 3.36,3.104 1.216,1.984 1.216,4.608 0,2.56 -1.216,4.576 -1.216,1.984 -3.36,3.136 -2.144,1.152 -4.864,1.152 z m 0,-4.096 q 1.248,0 2.24,-0.576 0.992,-0.576 1.568,-1.632 0.576,-1.088 0.576,-2.56 0,-1.504 -0.576,-2.56 -0.576,-1.056 -1.568,-1.632 -0.992,-0.576 -2.24,-0.576 -1.248,0 -2.24,0.576 -0.992,0.576 -1.6,1.632 -0.576,1.056 -0.576,2.56 0,1.472 0.576,2.56 0.608,1.056 1.6,1.632 0.992,0.576 2.24,0.576 z m 12.76803,3.84 v -23.744 h 4.992 v 23.744 z m 9.63202,0 v -23.744 h 4.992 v 23.744 z m 18.17602,0.256 q -2.944,0 -5.184,-1.152 -2.208,-1.152 -3.424,-3.136 -1.216,-2.016 -1.216,-4.576 0,-2.592 1.184,-4.576 1.216,-2.016 3.296,-3.136 2.08,-1.152 4.704,-1.152 2.528,0 4.544,1.088 2.048,1.056 3.232,3.072 1.184,1.984 1.184,4.768 0,0.288 -0.032,0.672 -0.032,0.352 -0.064,0.672 h -13.984 v -2.912 h 11.36 l -1.92,0.864 q 0,-1.344 -0.544,-2.336 -0.544,-0.992 -1.504,-1.536 -0.96,-0.576 -2.24,-0.576 -1.28,0 -2.272,0.576 -0.96,0.544 -1.504,1.568 -0.544,0.992 -0.544,2.368 v 0.768 q 0,1.408 0.608,2.496 0.64,1.056 1.76,1.632 1.152,0.544 2.688,0.544 1.376,0 2.4,-0.416 1.056,-0.416 1.92,-1.248 l 2.656,2.88 q -1.184,1.344 -2.976,2.08 -1.792,0.704 -4.128,0.704 z m 19.96801,0 q -2.784,0 -4.96,-1.12 -2.176,-1.152 -3.424,-3.168 -1.216,-2.016 -1.216,-4.576 0,-2.592 1.216,-4.576 1.248,-2.016 3.424,-3.136 2.176,-1.152 4.96,-1.152 2.72,0 4.736,1.152 2.016,1.12 2.976,3.232 l -3.872,2.08 q -0.672,-1.216 -1.696,-1.792 -0.992,-0.576 -2.176,-0.576 -1.28,0 -2.304,0.576 -1.024,0.576 -1.632,1.632 -0.576,1.056 -0.576,2.56 0,1.504 0.576,2.56 0.608,1.056 1.632,1.632 1.024,0.576 2.304,0.576 1.184,0 2.176,-0.544 1.024,-0.576 1.696,-1.824 l 3.872,2.112 q -0.96,2.08 -2.976,3.232 -2.016,1.12 -4.736,1.12 z m 17.89401,0 q -3.04,0 -4.736,-1.536 -1.696,-1.568 -1.696,-4.64 v -15.104 h 4.992 v 15.04 q 0,1.088 0.576,1.696 0.576,0.576 1.568,0.576 1.184,0 2.016,-0.64 l 1.344,3.52 q -0.768,0.544 -1.856,0.832 -1.056,0.256 -2.208,0.256 z m -9.088,-13.248 v -3.84 h 11.936 v 3.84 z m 15.96799,12.992 v -17.216 h 4.992 v 17.216 z m 2.496,-19.616 q -1.376,0 -2.24,-0.8 -0.864,-0.8 -0.864,-1.984 0,-1.184 0.864,-1.984 0.864,-0.8 2.24,-0.8 1.376,0 2.24,0.768 0.864,0.736 0.864,1.92 0,1.248 -0.864,2.08 -0.832,0.8 -2.24,0.8 z m 11.80801,19.616 -7.232,-17.216 h 5.152 l 6.016,14.816 h -2.56 l 6.24,-14.816 h 4.8 l -7.264,17.216 z m 22.52801,0.256 q -2.944,0 -5.184,-1.152 -2.208,-1.152 -3.424,-3.136 -1.216,-2.016 -1.216,-4.576 0,-2.592 1.184,-4.576 1.216,-2.016 3.296,-3.136 2.08,-1.152 4.704,-1.152 2.528,0 4.544,1.088 2.048,1.056 3.232,3.072 1.184,1.984 1.184,4.768 0,0.288 -0.032,0.672 -0.032,0.352 -0.064,0.672 h -13.984 v -2.912 h 11.36 l -1.92,0.864 q 0,-1.344 -0.544,-2.336 -0.544,-0.992 -1.504,-1.536 -0.96,-0.576 -2.24,-0.576 -1.28,0 -2.272,0.576 -0.96,0.544 -1.504,1.568 -0.544,0.992 -0.544,2.368 v 0.768 q 0,1.408 0.608,2.496 0.64,1.056 1.76,1.632 1.152,0.544 2.688,0.544 1.376,0 2.4,-0.416 1.056,-0.416 1.92,-1.248 l 2.656,2.88 q -1.184,1.344 -2.976,2.08 -1.792,0.704 -4.128,0.704 z"
       id="path5" />
    <path
       d="m 378.68746,207.78294 h 10.784 v 4.032 h -10.784 z m 0.384,9.216 h 12.192 v 4.16 h -17.344 v -22.4 h 16.928 v 4.16 h -11.776 z m 16.57598,4.16 v -17.6 q 0,-2.912 1.728,-4.64 1.728,-1.76 4.928,-1.76 1.088,0 2.08,0.224 1.024,0.224 1.728,0.704 l -1.312,3.616 q -0.416,-0.288 -0.928,-0.448 -0.512,-0.16 -1.088,-0.16 -1.088,0 -1.696,0.64 -0.576,0.608 -0.576,1.856 v 1.6 l 0.128,2.144 v 13.824 z m -2.656,-12.992 v -3.84 h 11.936 v 3.84 z m 15.03998,12.992 v -17.6 q 0,-2.912 1.728,-4.64 1.728,-1.76 4.928,-1.76 1.088,0 2.08,0.224 1.024,0.224 1.728,0.704 l -1.312,3.616 q -0.416,-0.288 -0.928,-0.448 -0.512,-0.16 -1.088,-0.16 -1.088,0 -1.696,0.64 -0.576,0.608 -0.576,1.856 v 1.6 l 0.128,2.144 v 13.824 z m -2.656,-12.992 v -3.84 h 11.936 v 3.84 z m 14.752,12.992 v -17.216 h 4.992 v 17.216 z m 2.496,-19.616 q -1.376,0 -2.24,-0.8 -0.864,-0.8 -0.864,-1.984 0,-1.184 0.864,-1.984 0.864,-0.8 2.24,-0.8 1.376,0 2.24,0.768 0.864,0.736 0.864,1.92 0,1.248 -0.864,2.08 -0.832,0.8 -2.24,0.8 z m 15.42401,19.872 q -2.784,0 -4.96,-1.12 -2.176,-1.152 -3.424,-3.168 -1.216,-2.016 -1.216,-4.576 0,-2.592 1.216,-4.576 1.248,-2.016 3.424,-3.136 2.176,-1.152 4.96,-1.152 2.72,0 4.736,1.152 2.016,1.12 2.976,3.232 l -3.872,2.08 q -0.672,-1.216 -1.696,-1.792 -0.992,-0.576 -2.176,-0.576 -1.28,0 -2.304,0.576 -1.024,0.576 -1.632,1.632 -0.576,1.056 -0.576,2.56 0,1.504 0.576,2.56 0.608,1.056 1.632,1.632 1.024,0.576 2.304,0.576 1.184,0 2.176,-0.544 1.024,-0.576 1.696,-1.824 l 3.872,2.112 q -0.96,2.08 -2.976,3.232 -2.016,1.12 -4.736,1.12 z m 21.15199,-0.256 v -3.36 l -0.32,-0.736 v -6.016 q 0,-1.6 -0.992,-2.496 -0.96,-0.896 -2.976,-0.896 -1.376,0 -2.72,0.448 -1.312,0.416 -2.24,1.152 l -1.792,-3.488 q 1.408,-0.992 3.392,-1.536 1.984,-0.544 4.032,-0.544 3.936,0 6.112,1.856 2.176,1.856 2.176,5.792 v 9.824 z m -5.248,0.256 q -2.016,0 -3.456,-0.672 -1.44,-0.704 -2.208,-1.888 -0.768,-1.184 -0.768,-2.656 0,-1.536 0.736,-2.688 0.768,-1.152 2.4,-1.792 1.632,-0.672 4.256,-0.672 h 4.576 v 2.912 h -4.032 q -1.76,0 -2.432,0.576 -0.64,0.576 -0.64,1.44 0,0.96 0.736,1.536 0.768,0.544 2.08,0.544 1.248,0 2.24,-0.576 0.992,-0.608 1.44,-1.76 l 0.768,2.304 q -0.544,1.664 -1.984,2.528 -1.44,0.864 -3.712,0.864 z m 22.87891,0 q -2.784,0 -4.96,-1.12 -2.176,-1.152 -3.424,-3.168 -1.216,-2.016 -1.216,-4.576 0,-2.592 1.216,-4.576 1.248,-2.016 3.424,-3.136 2.176,-1.152 4.96,-1.152 2.72,0 4.736,1.152 2.016,1.12 2.976,3.232 l -3.872,2.08 q -0.672,-1.216 -1.696,-1.792 -0.992,-0.576 -2.176,-0.576 -1.28,0 -2.304,0.576 -1.024,0.576 -1.632,1.632 -0.576,1.056 -0.576,2.56 0,1.504 0.576,2.56 0.608,1.056 1.632,1.632 1.024,0.576 2.304,0.576 1.184,0 2.176,-0.544 1.024,-0.576 1.696,-1.824 l 3.872,2.112 q -0.96,2.08 -2.976,3.232 -2.016,1.12 -4.736,1.12 z m 12.49986,6.208 q -1.344,0 -2.656,-0.416 -1.312,-0.416 -2.144,-1.152 l 1.824,-3.552 q 0.576,0.512 1.312,0.8 0.768,0.288 1.504,0.288 1.056,0 1.664,-0.512 0.64,-0.48 1.152,-1.632 l 0.896,-2.112 0.384,-0.544 6.176,-14.848 h 4.8 l -7.776,18.272 q -0.832,2.08 -1.92,3.264 -1.056,1.184 -2.368,1.664 -1.28,0.48 -2.848,0.48 z m 2.944,-5.792 -7.68,-17.888 h 5.152 l 5.952,14.4 z"
       id="path6" />
  </g>
  <path
     inkscape:connector-curvature="0"
     style="fill:#ffffff;stroke:#000000;stroke-width:2"
     d="m 332.43467,372.14986 h 210.87979 v 93.69972 H 332.43467 Z"
     id="path244-6-1-2-9-3-97-2"
     sodipodi:nodetypes="ccccc" />
  <g
     id="text4126-2-1-5-6-5-9-3-3-0"
     style="font-size:26.6667px;line-height:1.25;font-family:Montserrat;-inkscape-font-specification:'Montserrat, @wght=400';font-variation-settings:'wght' 400;text-align:center;letter-spacing:0px;word-spacing:0px;text-anchor:middle"
     aria-label="Expectations&#10;for Control">
    <path
       d="m 356.43301,400.35627 h 9.86667 v 1.68 h -9.86667 z m 0.21334,8.61333 h 11.22666 v 1.70667 h -13.2 V 392.0096 h 12.8 v 1.70667 h -10.82666 z m 12.93601,1.70667 5.92,-7.68 -0.0267,0.93333 -5.62667,-7.25333 h 2.13334 l 4.61333,6 -0.8,-0.0267 4.61333,-5.97333 h 2.08 l -5.68,7.33333 0.0267,-1.01333 5.97333,7.68 h -2.16 l -4.88,-6.4 0.74667,0.10667 -4.8,6.29333 z m 23.60001,0.13333 q -1.81334,0 -3.28,-0.82666 -1.46667,-0.85334 -2.34667,-2.42667 -0.85333,-1.6 -0.85333,-3.89333 0,-2.29334 0.85333,-3.86667 0.85333,-1.6 2.32,-2.42667 1.46667,-0.82666 3.30667,-0.82666 2,0 3.57333,0.90666 1.6,0.88 2.50667,2.50667 0.90666,1.6 0.90666,3.70667 0,2.13333 -0.90666,3.73333 -0.90667,1.6 -2.50667,2.50667 -1.57333,0.90666 -3.57333,0.90666 z m -7.22667,5.04 v -19.17333 h 1.81333 v 4.21333 l -0.18666,2.8 0.26666,2.82667 v 9.33333 z m 7.09333,-6.72 q 1.49334,0 2.66667,-0.66666 1.17333,-0.69334 1.86667,-1.92 0.69333,-1.25334 0.69333,-2.88 0,-1.62667 -0.69333,-2.85334 -0.69334,-1.22666 -1.86667,-1.92 -1.17333,-0.69333 -2.66667,-0.69333 -1.49333,0 -2.69333,0.69333 -1.17333,0.69334 -1.86667,1.92 -0.66666,1.22667 -0.66666,2.85334 0,1.62666 0.66666,2.88 0.69334,1.22666 1.86667,1.92 1.2,0.66666 2.69333,0.66666 z m 16.93332,1.68 q -2.18666,0 -3.84,-0.90666 -1.65333,-0.93334 -2.58666,-2.53334 -0.93334,-1.62666 -0.93334,-3.70666 0,-2.08 0.88,-3.68 0.90667,-1.6 2.45334,-2.50667 1.57333,-0.93333 3.52,-0.93333 1.97333,0 3.49333,0.90666 1.54667,0.88 2.42667,2.50667 0.88,1.6 0.88,3.70667 0,0.13333 -0.0267,0.29333 0,0.13333 0,0.29333 h -12.18667 v -1.41333 h 11.17334 l -0.74667,0.56 q 0,-1.52 -0.66667,-2.69333 -0.64,-1.2 -1.76,-1.86667 -1.12,-0.66667 -2.58666,-0.66667 -1.44,0 -2.58667,0.66667 -1.14667,0.66667 -1.78667,1.86667 -0.64,1.2 -0.64,2.74666 v 0.29334 q 0,1.6 0.69334,2.82666 0.72,1.2 1.97333,1.89334 1.28,0.66666 2.90667,0.66666 1.28,0 2.37333,-0.45333 1.12,-0.45333 1.92,-1.38667 l 1.06667,1.22667 q -0.93334,1.12 -2.34667,1.70667 -1.38667,0.58666 -3.06667,0.58666 z m 15.97334,0 q -2.08,0 -3.73334,-0.90666 -1.62666,-0.93334 -2.56,-2.53334 -0.93333,-1.62666 -0.93333,-3.70666 0,-2.10667 0.93333,-3.70667 0.93334,-1.6 2.56,-2.50667 1.65334,-0.90666 3.73334,-0.90666 1.78666,0 3.22666,0.69333 1.44,0.69333 2.26667,2.08 l -1.41334,0.96 q -0.72,-1.06667 -1.78666,-1.57333 -1.06667,-0.50667 -2.32,-0.50667 -1.49333,0 -2.69333,0.69333 -1.2,0.66667 -1.89334,1.89334 -0.69333,1.22666 -0.69333,2.88 0,1.65333 0.69333,2.88 0.69334,1.22666 1.89334,1.92 1.2,0.66666 2.69333,0.66666 1.25333,0 2.32,-0.50666 1.06666,-0.50667 1.78666,-1.54667 l 1.41334,0.96 q -0.82667,1.36 -2.26667,2.08 -1.44,0.69333 -3.22666,0.69333 z m 13.79018,0 q -1.97334,0 -3.04,-1.06666 -1.06667,-1.06667 -1.06667,-3.01334 v -13.14666 h 1.89333 v 13.04 q 0,1.22666 0.61334,1.89333 0.64,0.66667 1.81333,0.66667 1.25333,0 2.08,-0.72 l 0.66667,1.36 q -0.56,0.50666 -1.36,0.74666 -0.77334,0.24 -1.6,0.24 z m -6.61334,-12.56 v -1.57333 h 8.66667 v 1.57333 z m 21.78668,12.42667 v -3.09333 l -0.08,-0.50667 v -5.17333 q 0,-1.78667 -1.01333,-2.74667 -0.98667,-0.96 -2.96,-0.96 -1.36,0 -2.58667,0.45333 -1.22667,0.45334 -2.08,1.2 l -0.85333,-1.41333 q 1.06666,-0.90667 2.56,-1.38667 1.49333,-0.50666 3.14666,-0.50666 2.72,0 4.18667,1.36 1.49333,1.33333 1.49333,4.08 v 8.69333 z m -4.82667,0.13333 q -1.57333,0 -2.74666,-0.50666 -1.14667,-0.53334 -1.76,-1.44 -0.61334,-0.93334 -0.61334,-2.13334 0,-1.09333 0.50667,-1.97333 0.53333,-0.90667 1.70667,-1.44 1.2,-0.56 3.2,-0.56 h 4.82666 v 1.41333 h -4.77333 q -2.02667,0 -2.82667,0.72 -0.77333,0.72 -0.77333,1.78667 0,1.2 0.93333,1.92 0.93334,0.72 2.61334,0.72 1.6,0 2.74666,-0.72 1.17334,-0.74667 1.70667,-2.13333 l 0.42667,1.30666 q -0.53334,1.38667 -1.86667,2.21334 -1.30667,0.82666 -3.30667,0.82666 z m 16.21334,0 q -1.97333,0 -3.04,-1.06666 -1.06667,-1.06667 -1.06667,-3.01334 v -13.14666 h 1.89334 v 13.04 q 0,1.22666 0.61333,1.89333 0.64,0.66667 1.81333,0.66667 1.25334,0 2.08,-0.72 l 0.66667,1.36 q -0.56,0.50666 -1.36,0.74666 -0.77333,0.24 -1.6,0.24 z m -6.61333,-12.56 v -1.57333 h 8.66666 v 1.57333 z m 13.01333,12.42667 v -14 h 1.89334 v 14 z m 0.96,-17.09333 q -0.58666,0 -0.98666,-0.4 -0.4,-0.4 -0.4,-0.96 0,-0.56 0.4,-0.93334 0.4,-0.4 0.98666,-0.4 0.58667,0 0.98667,0.37334 0.4,0.37333 0.4,0.93333 0,0.58667 -0.4,0.98667 -0.37333,0.4 -0.98667,0.4 z m 11.91998,17.22666 q -2.02667,0 -3.65334,-0.90666 -1.6,-0.93334 -2.53333,-2.53334 -0.93333,-1.62666 -0.93333,-3.70666 0,-2.10667 0.93333,-3.70667 0.93333,-1.6 2.53333,-2.50667 1.6,-0.90666 3.65334,-0.90666 2.08,0 3.68,0.90666 1.62666,0.90667 2.53333,2.50667 0.93333,1.6 0.93333,3.70667 0,2.08 -0.93333,3.70666 -0.90667,1.6 -2.53333,2.53334 -1.62667,0.90666 -3.68,0.90666 z m 0,-1.68 q 1.52,0 2.69333,-0.66666 1.17333,-0.69334 1.84,-1.92 0.69333,-1.25334 0.69333,-2.88 0,-1.65334 -0.69333,-2.88 -0.66667,-1.22667 -1.84,-1.89334 -1.17333,-0.69333 -2.66667,-0.69333 -1.49333,0 -2.66666,0.69333 -1.17334,0.66667 -1.86667,1.89334 -0.69333,1.22666 -0.69333,2.88 0,1.62666 0.69333,2.88 0.69333,1.22666 1.86667,1.92 1.17333,0.66666 2.64,0.66666 z m 18.16002,-12.58666 q 1.70667,0 2.98667,0.66666 1.30666,0.64 2.02666,1.97334 0.74667,1.33333 0.74667,3.36 v 8.13333 h -1.89333 v -7.94667 q 0,-2.21333 -1.12,-3.33333 -1.09333,-1.14667 -3.09333,-1.14667 -1.49334,0 -2.61334,0.61334 -1.09333,0.58666 -1.70666,1.73333 -0.58667,1.12 -0.58667,2.72 v 7.36 h -1.89333 v -14 h 1.81333 v 3.84 l -0.29333,-0.72 q 0.66666,-1.52 2.13333,-2.37333 1.46667,-0.88 3.49333,-0.88 z m 14.64001,14.26666 q -1.73334,0 -3.28,-0.48 -1.54667,-0.50666 -2.42667,-1.25333 l 0.85333,-1.49333 q 0.85334,0.64 2.18667,1.12 1.33333,0.45333 2.8,0.45333 2,0 2.88,-0.61333 0.88,-0.64 0.88,-1.68 0,-0.77334 -0.50667,-1.2 -0.48,-0.45334 -1.28,-0.66667 -0.8,-0.24 -1.78666,-0.4 -0.98667,-0.16 -1.97334,-0.37333 -0.96,-0.21334 -1.76,-0.61334 -0.8,-0.42666 -1.30666,-1.14666 -0.48,-0.72 -0.48,-1.92 0,-1.14667 0.64,-2.05334 0.64,-0.90666 1.86666,-1.41333 1.25334,-0.53333 3.04,-0.53333 1.36,0 2.72,0.37333 1.36,0.34667 2.24,0.93333 l -0.82666,1.52 q -0.93334,-0.64 -2,-0.90666 -1.06667,-0.29334 -2.13334,-0.29334 -1.89333,0 -2.8,0.66667 -0.88,0.64 -0.88,1.65333 0,0.8 0.48,1.25334 0.50667,0.45333 1.30667,0.72 0.82667,0.24 1.78667,0.4 0.98666,0.16 1.94666,0.4 0.98667,0.21333 1.78667,0.61333 0.82667,0.37333 1.30667,1.09333 0.50666,0.69334 0.50666,1.84 0,1.22667 -0.69333,2.13334 -0.66667,0.88 -1.97333,1.38666 -1.28,0.48 -3.12,0.48 z"
       id="path9" />
    <path
       d="m 370.48059,444.0096 v -15.76 q 0,-1.86666 1.09333,-3.01333 1.09334,-1.14667 3.14667,-1.14667 0.8,0 1.54667,0.21334 0.74666,0.21333 1.25333,0.66666 l -0.64,1.41334 q -0.4,-0.34667 -0.93333,-0.50667 -0.53334,-0.18667 -1.14667,-0.18667 -1.2,0 -1.84,0.66667 -0.64,0.66667 -0.64,1.97333 v 2.13334 l 0.0533,0.88 v 12.66666 z m -2.50667,-12.42666 v -1.57334 h 8.66667 v 1.57334 z m 16.6969,12.56 q -2.02667,0 -3.65334,-0.90667 -1.6,-0.93333 -2.53333,-2.53333 -0.93333,-1.62667 -0.93333,-3.70667 0,-2.10667 0.93333,-3.70667 0.93333,-1.6 2.53333,-2.50666 1.6,-0.90667 3.65334,-0.90667 2.08,0 3.68,0.90667 1.62666,0.90666 2.53333,2.50666 0.93333,1.6 0.93333,3.70667 0,2.08 -0.93333,3.70667 -0.90667,1.6 -2.53333,2.53333 -1.62667,0.90667 -3.68,0.90667 z m 0,-1.68 q 1.52,0 2.69333,-0.66667 1.17333,-0.69333 1.84,-1.92 0.69333,-1.25333 0.69333,-2.88 0,-1.65333 -0.69333,-2.88 -0.66667,-1.22667 -1.84,-1.89333 -1.17333,-0.69334 -2.66667,-0.69334 -1.49333,0 -2.66666,0.69334 -1.17334,0.66666 -1.86667,1.89333 -0.69333,1.22667 -0.69333,2.88 0,1.62667 0.69333,2.88 0.69333,1.22667 1.86667,1.92 1.17333,0.66667 2.64,0.66667 z m 11.01335,1.54666 v -14 h 1.81333 v 3.81334 l -0.18666,-0.66667 q 0.58666,-1.6 1.97333,-2.42667 1.38667,-0.85333 3.44,-0.85333 v 1.84 q -0.10667,0 -0.21333,0 -0.10667,-0.0267 -0.21334,-0.0267 -2.21333,0 -3.46666,1.36 -1.25334,1.33334 -1.25334,3.81334 v 7.14666 z m 26.18662,0.16 q -2.10667,0 -3.89334,-0.69333 -1.78666,-0.72 -3.09333,-2 -1.30667,-1.28 -2.05333,-3.01333 -0.72,-1.73334 -0.72,-3.78667 0,-2.05333 0.72,-3.78667 0.74666,-1.73333 2.05333,-3.01333 1.33333,-1.28 3.12,-1.97333 1.78667,-0.72 3.89333,-0.72 2.02667,0 3.81334,0.69333 1.78666,0.66667 3.01333,2.02667 l -1.25333,1.25333 q -1.14667,-1.17333 -2.53334,-1.68 -1.38666,-0.53333 -2.98666,-0.53333 -1.68,0 -3.12,0.58666 -1.44,0.56 -2.50667,1.62667 -1.06667,1.04 -1.68,2.45333 -0.58667,1.38667 -0.58667,3.06667 0,1.68 0.58667,3.09333 0.61333,1.38667 1.68,2.45334 1.06667,1.04 2.50667,1.62666 1.44,0.56 3.12,0.56 1.6,0 2.98666,-0.53333 1.38667,-0.53333 2.53334,-1.70667 l 1.25333,1.25334 q -1.22667,1.36 -3.01333,2.05333 -1.78667,0.69333 -3.84,0.69333 z m 15.76709,-0.0267 q -2.02666,0 -3.65333,-0.90667 -1.6,-0.93333 -2.53333,-2.53333 -0.93334,-1.62667 -0.93334,-3.70667 0,-2.10667 0.93334,-3.70667 0.93333,-1.6 2.53333,-2.50666 1.6,-0.90667 3.65333,-0.90667 2.08,0 3.68,0.90667 1.62667,0.90666 2.53334,2.50666 0.93333,1.6 0.93333,3.70667 0,2.08 -0.93333,3.70667 -0.90667,1.6 -2.53334,2.53333 -1.62666,0.90667 -3.68,0.90667 z m 0,-1.68 q 1.52,0 2.69334,-0.66667 1.17333,-0.69333 1.84,-1.92 0.69333,-1.25333 0.69333,-2.88 0,-1.65333 -0.69333,-2.88 -0.66667,-1.22667 -1.84,-1.89333 -1.17334,-0.69334 -2.66667,-0.69334 -1.49333,0 -2.66667,0.69334 -1.17333,0.66666 -1.86666,1.89333 -0.69334,1.22667 -0.69334,2.88 0,1.62667 0.69334,2.88 0.69333,1.22667 1.86666,1.92 1.17334,0.66667 2.64,0.66667 z m 18.16002,-12.58667 q 1.70667,0 2.98667,0.66667 1.30667,0.64 2.02667,1.97333 0.74666,1.33333 0.74666,3.36 v 8.13333 h -1.89333 v -7.94666 q 0,-2.21334 -1.12,-3.33334 -1.09333,-1.14666 -3.09333,-1.14666 -1.49334,0 -2.61334,0.61333 -1.09333,0.58667 -1.70666,1.73333 -0.58667,1.12 -0.58667,2.72 v 7.36 h -1.89333 v -14 h 1.81333 v 3.84 l -0.29333,-0.72 q 0.66666,-1.52 2.13333,-2.37333 1.46667,-0.88 3.49333,-0.88 z m 15.30668,14.26667 q -1.97333,0 -3.04,-1.06667 -1.06666,-1.06667 -1.06666,-3.01333 v -13.14667 h 1.89333 v 13.04 q 0,1.22667 0.61333,1.89333 0.64,0.66667 1.81334,0.66667 1.25333,0 2.08,-0.72 l 0.66666,1.36 q -0.56,0.50667 -1.36,0.74667 -0.77333,0.24 -1.6,0.24 z m -6.61333,-12.56 v -1.57334 h 8.66667 v 1.57334 z m 13.01334,12.42666 v -14 h 1.81334 v 3.81334 l -0.18667,-0.66667 q 0.58667,-1.6 1.97333,-2.42667 1.38667,-0.85333 3.44,-0.85333 v 1.84 q -0.10666,0 -0.21333,0 -0.10667,-0.0267 -0.21333,-0.0267 -2.21334,0 -3.46667,1.36 -1.25333,1.33334 -1.25333,3.81334 v 7.14666 z m 16.06041,0.13334 q -2.02666,0 -3.65333,-0.90667 -1.6,-0.93333 -2.53333,-2.53333 -0.93334,-1.62667 -0.93334,-3.70667 0,-2.10667 0.93334,-3.70667 0.93333,-1.6 2.53333,-2.50666 1.6,-0.90667 3.65333,-0.90667 2.08,0 3.68,0.90667 1.62667,0.90666 2.53334,2.50666 0.93333,1.6 0.93333,3.70667 0,2.08 -0.93333,3.70667 -0.90667,1.6 -2.53334,2.53333 -1.62666,0.90667 -3.68,0.90667 z m 0,-1.68 q 1.52,0 2.69334,-0.66667 1.17333,-0.69333 1.84,-1.92 0.69333,-1.25333 0.69333,-2.88 0,-1.65333 -0.69333,-2.88 -0.66667,-1.22667 -1.84,-1.89333 -1.17334,-0.69334 -2.66667,-0.69334 -1.49333,0 -2.66667,0.69334 -1.17333,0.66666 -1.86666,1.89333 -0.69334,1.22667 -0.69334,2.88 0,1.62667 0.69334,2.88 0.69333,1.22667 1.86666,1.92 1.17334,0.66667 2.64,0.66667 z m 11.01336,1.54666 v -19.78666 h 1.89333 v 19.78666 z"
       id="path10" />
  </g>
  <path
     inkscape:connector-curvature="0"
     style="fill:none;stroke:#000000;stroke-width:4;stroke-miterlimit:4;stroke-dasharray:none;stroke-dashoffset:0;marker-end:url(#Arrow2Mend-2)"
     d="M 553.1248,291.39269 690.37891,103.29164"
     id="path260-8-3-9-7-2-8-0"
     sodipodi:nodetypes="cc" />
</svg>
