<?xml version="1.0" encoding="UTF-8" standalone="no"?>
<svg
   width="1252.5251"
   height="340.33386"
   version="1.1"
   id="svg5560"
   sodipodi:docname="shaw_mckay.svg"
   inkscape:version="1.3 (0e150ed6c4, 2023-07-21)"
   xmlns:inkscape="http://www.inkscape.org/namespaces/inkscape"
   xmlns:sodipodi="http://sodipodi.sourceforge.net/DTD/sodipodi-0.dtd"
   xmlns="http://www.w3.org/2000/svg"
   xmlns:svg="http://www.w3.org/2000/svg"
   xmlns:rdf="http://www.w3.org/1999/02/22-rdf-syntax-ns#"
   xmlns:cc="http://creativecommons.org/ns#"
   xmlns:dc="http://purl.org/dc/elements/1.1/">
  <metadata
     id="metadata5566">
    <rdf:RDF>
      <cc:Work
         rdf:about="">
        <dc:format>image/svg+xml</dc:format>
        <dc:type
           rdf:resource="http://purl.org/dc/dcmitype/StillImage" />
        <dc:title />
      </cc:Work>
    </rdf:RDF>
  </metadata>
  <defs
     id="defs5564">
    <inkscape:path-effect
       effect="bspline"
       id="path-effect1825"
       is_visible="true"
       weight="33.333333"
       steps="2"
       helper_size="0"
       apply_no_weight="true"
       apply_with_weight="true"
       only_selected="false" />
    <marker
       inkscape:stockid="Arrow2Lstart"
       orient="auto"
       refY="0"
       refX="0"
       id="Arrow2Lstart"
       style="overflow:visible"
       inkscape:isstock="true">
      <path
         id="path4580"
         style="fill:#000000;fill-opacity:1;fill-rule:evenodd;stroke:#000000;stroke-width:0.625;stroke-linejoin:round;stroke-opacity:1"
         d="M 8.7185878,4.0337352 -2.2072895,0.01601326 8.7185884,-4.0017078 c -1.7454984,2.3720609 -1.7354408,5.6174519 -6e-7,8.035443 z"
         transform="matrix(1.1,0,0,1.1,1.1,0)"
         inkscape:connector-curvature="0" />
    </marker>
    <marker
       inkscape:stockid="Arrow2Lend"
       orient="auto"
       refY="0"
       refX="0"
       id="marker4512"
       style="overflow:visible"
       inkscape:isstock="true">
      <path
         inkscape:connector-curvature="0"
         id="path4510"
         style="fill:#000000;fill-opacity:1;fill-rule:evenodd;stroke:#000000;stroke-width:0.625;stroke-linejoin:round;stroke-opacity:1"
         d="M 8.7185878,4.0337352 -2.2072895,0.01601326 8.7185884,-4.0017078 c -1.7454984,2.3720609 -1.7354408,5.6174519 -6e-7,8.035443 z"
         transform="matrix(-1.1,0,0,-1.1,-1.1,0)" />
    </marker>
    <inkscape:path-effect
       effect="bspline"
       id="path-effect4496"
       is_visible="true"
       weight="33.333333"
       steps="2"
       helper_size="0"
       apply_no_weight="true"
       apply_with_weight="true"
       only_selected="false" />
    <marker
       inkscape:isstock="true"
       style="overflow:visible"
       id="marker6123"
       refX="0"
       refY="0"
       orient="auto"
       inkscape:stockid="Arrow2Lend">
      <path
         transform="matrix(-1.1,0,0,-1.1,-1.1,0)"
         d="M 8.7185878,4.0337352 -2.2072895,0.01601326 8.7185884,-4.0017078 c -1.7454984,2.3720609 -1.7354408,5.6174519 -6e-7,8.035443 z"
         style="fill:#000000;fill-opacity:1;fill-rule:evenodd;stroke:#000000;stroke-width:0.625;stroke-linejoin:round;stroke-opacity:1"
         id="path6121"
         inkscape:connector-curvature="0" />
    </marker>
    <marker
       inkscape:isstock="true"
       style="overflow:visible"
       id="marker6123-9"
       refX="0"
       refY="0"
       orient="auto"
       inkscape:stockid="Arrow2Lend">
      <path
         transform="matrix(-1.1,0,0,-1.1,-1.1,0)"
         d="M 8.7185878,4.0337352 -2.2072895,0.01601326 8.7185884,-4.0017078 c -1.7454984,2.3720609 -1.7354408,5.6174519 -6e-7,8.035443 z"
         style="fill:#000000;fill-opacity:1;fill-rule:evenodd;stroke:#000000;stroke-width:0.625;stroke-linejoin:round;stroke-opacity:1"
         id="path6121-8"
         inkscape:connector-curvature="0" />
    </marker>
    <marker
       inkscape:isstock="true"
       style="overflow:visible"
       id="marker6089-7"
       refX="0"
       refY="0"
       orient="auto"
       inkscape:stockid="Arrow2Lend">
      <path
         transform="matrix(-1.1,0,0,-1.1,-1.1,0)"
         d="M 8.7185878,4.0337352 -2.2072895,0.01601326 8.7185884,-4.0017078 c -1.7454984,2.3720609 -1.7354408,5.6174519 -6e-7,8.035443 z"
         style="fill:#000000;fill-opacity:1;fill-rule:evenodd;stroke:#000000;stroke-width:0.625;stroke-linejoin:round;stroke-opacity:1"
         id="path6087-2"
         inkscape:connector-curvature="0" />
    </marker>
    <marker
       inkscape:isstock="true"
       style="overflow:visible"
       id="marker6123-9-3"
       refX="0"
       refY="0"
       orient="auto"
       inkscape:stockid="Arrow2Lend">
      <path
         transform="matrix(-1.1,0,0,-1.1,-1.1,0)"
         d="M 8.7185878,4.0337352 -2.2072895,0.01601326 8.7185884,-4.0017078 c -1.7454984,2.3720609 -1.7354408,5.6174519 -6e-7,8.035443 z"
         style="fill:#000000;fill-opacity:1;fill-rule:evenodd;stroke:#000000;stroke-width:0.625;stroke-linejoin:round;stroke-opacity:1"
         id="path6121-8-8"
         inkscape:connector-curvature="0" />
    </marker>
    <marker
       inkscape:isstock="true"
       style="overflow:visible"
       id="marker6089-7-0"
       refX="0"
       refY="0"
       orient="auto"
       inkscape:stockid="Arrow2Lend">
      <path
         transform="matrix(-1.1,0,0,-1.1,-1.1,0)"
         d="M 8.7185878,4.0337352 -2.2072895,0.01601326 8.7185884,-4.0017078 c -1.7454984,2.3720609 -1.7354408,5.6174519 -6e-7,8.035443 z"
         style="fill:#000000;fill-opacity:1;fill-rule:evenodd;stroke:#000000;stroke-width:0.625;stroke-linejoin:round;stroke-opacity:1"
         id="path6087-2-4"
         inkscape:connector-curvature="0" />
    </marker>
    <marker
       inkscape:isstock="true"
       style="overflow:visible"
       id="marker6089-7-0-3"
       refX="0"
       refY="0"
       orient="auto"
       inkscape:stockid="Arrow2Lend">
      <path
         transform="matrix(-1.1,0,0,-1.1,-1.1,0)"
         d="M 8.7185878,4.0337352 -2.2072895,0.01601326 8.7185884,-4.0017078 c -1.7454984,2.3720609 -1.7354408,5.6174519 -6e-7,8.035443 z"
         style="fill:#000000;fill-opacity:1;fill-rule:evenodd;stroke:#000000;stroke-width:0.625;stroke-linejoin:round;stroke-opacity:1"
         id="path6087-2-4-2"
         inkscape:connector-curvature="0" />
    </marker>
    <marker
       inkscape:isstock="true"
       style="overflow:visible"
       id="marker6089-7-2"
       refX="0"
       refY="0"
       orient="auto"
       inkscape:stockid="Arrow2Lend">
      <path
         transform="matrix(-1.1,0,0,-1.1,-1.1,0)"
         d="M 8.7185878,4.0337352 -2.2072895,0.01601326 8.7185884,-4.0017078 c -1.7454984,2.3720609 -1.7354408,5.6174519 -6e-7,8.035443 z"
         style="fill:#000000;fill-opacity:1;fill-rule:evenodd;stroke:#000000;stroke-width:0.625;stroke-linejoin:round;stroke-opacity:1"
         id="path6087-2-6"
         inkscape:connector-curvature="0" />
    </marker>
    <marker
       inkscape:isstock="true"
       style="overflow:visible"
       id="marker6123-9-3-9"
       refX="0"
       refY="0"
       orient="auto"
       inkscape:stockid="Arrow2Lend">
      <path
         transform="matrix(-1.1,0,0,-1.1,-1.1,0)"
         d="M 8.7185878,4.0337352 -2.2072895,0.01601326 8.7185884,-4.0017078 c -1.7454984,2.3720609 -1.7354408,5.6174519 -6e-7,8.035443 z"
         style="fill:#000000;fill-opacity:1;fill-rule:evenodd;stroke:#000000;stroke-width:0.625;stroke-linejoin:round;stroke-opacity:1"
         id="path6121-8-8-8"
         inkscape:connector-curvature="0" />
    </marker>
    <marker
       inkscape:isstock="true"
       style="overflow:visible"
       id="marker6123-9-3-9-4"
       refX="0"
       refY="0"
       orient="auto"
       inkscape:stockid="Arrow2Lend">
      <path
         transform="matrix(-1.1,0,0,-1.1,-1.1,0)"
         d="M 8.7185878,4.0337352 -2.2072895,0.01601326 8.7185884,-4.0017078 c -1.7454984,2.3720609 -1.7354408,5.6174519 -6e-7,8.035443 z"
         style="fill:#000000;fill-opacity:1;fill-rule:evenodd;stroke:#000000;stroke-width:0.625;stroke-linejoin:round;stroke-opacity:1"
         id="path6121-8-8-8-7"
         inkscape:connector-curvature="0" />
    </marker>
    <marker
       inkscape:isstock="true"
       style="overflow:visible"
       id="marker6123-9-3-9-4-8"
       refX="0"
       refY="0"
       orient="auto"
       inkscape:stockid="Arrow2Lend">
      <path
         transform="matrix(-1.1,0,0,-1.1,-1.1,0)"
         d="M 8.7185878,4.0337352 -2.2072895,0.01601326 8.7185884,-4.0017078 c -1.7454984,2.3720609 -1.7354408,5.6174519 -6e-7,8.035443 z"
         style="fill:#000000;fill-opacity:1;fill-rule:evenodd;stroke:#000000;stroke-width:0.625;stroke-linejoin:round;stroke-opacity:1"
         id="path6121-8-8-8-7-7"
         inkscape:connector-curvature="0" />
    </marker>
    <marker
       inkscape:isstock="true"
       style="overflow:visible"
       id="marker6123-9-3-9-2"
       refX="0"
       refY="0"
       orient="auto"
       inkscape:stockid="Arrow2Lend">
      <path
         transform="matrix(-1.1,0,0,-1.1,-1.1,0)"
         d="M 8.7185878,4.0337352 -2.2072895,0.01601326 8.7185884,-4.0017078 c -1.7454984,2.3720609 -1.7354408,5.6174519 -6e-7,8.035443 z"
         style="fill:#000000;fill-opacity:1;fill-rule:evenodd;stroke:#000000;stroke-width:0.625;stroke-linejoin:round;stroke-opacity:1"
         id="path6121-8-8-8-4"
         inkscape:connector-curvature="0" />
    </marker>
    <marker
       inkscape:isstock="true"
       style="overflow:visible"
       id="marker6123-9-3-9-26"
       refX="0"
       refY="0"
       orient="auto"
       inkscape:stockid="Arrow2Lend">
      <path
         transform="matrix(-1.1,0,0,-1.1,-1.1,0)"
         d="M 8.7185878,4.0337352 -2.2072895,0.01601326 8.7185884,-4.0017078 c -1.7454984,2.3720609 -1.7354408,5.6174519 -6e-7,8.035443 z"
         style="fill:#000000;fill-opacity:1;fill-rule:evenodd;stroke:#000000;stroke-width:0.625;stroke-linejoin:round;stroke-opacity:1"
         id="path6121-8-8-8-5"
         inkscape:connector-curvature="0" />
    </marker>
    <marker
       inkscape:isstock="true"
       style="overflow:visible"
       id="marker6123-9-3-9-8"
       refX="0"
       refY="0"
       orient="auto"
       inkscape:stockid="Arrow2Lend">
      <path
         transform="matrix(-1.1,0,0,-1.1,-1.1,0)"
         d="M 8.7185878,4.0337352 -2.2072895,0.01601326 8.7185884,-4.0017078 c -1.7454984,2.3720609 -1.7354408,5.6174519 -6e-7,8.035443 z"
         style="fill:#000000;fill-opacity:1;fill-rule:evenodd;stroke:#000000;stroke-width:0.625;stroke-linejoin:round;stroke-opacity:1"
         id="path6121-8-8-8-45"
         inkscape:connector-curvature="0" />
    </marker>
    <marker
       inkscape:isstock="true"
       style="overflow:visible"
       id="marker6123-9-3-9-4-7"
       refX="0"
       refY="0"
       orient="auto"
       inkscape:stockid="Arrow2Lend">
      <path
         transform="matrix(-1.1,0,0,-1.1,-1.1,0)"
         d="M 8.7185878,4.0337352 -2.2072895,0.01601326 8.7185884,-4.0017078 c -1.7454984,2.3720609 -1.7354408,5.6174519 -6e-7,8.035443 z"
         style="fill:#000000;fill-opacity:1;fill-rule:evenodd;stroke:#000000;stroke-width:0.625;stroke-linejoin:round;stroke-opacity:1"
         id="path6121-8-8-8-7-3"
         inkscape:connector-curvature="0" />
    </marker>
    <marker
       inkscape:isstock="true"
       style="overflow:visible"
       id="marker6123-9-3-9-4-1"
       refX="0"
       refY="0"
       orient="auto"
       inkscape:stockid="Arrow2Lend">
      <path
         transform="matrix(-1.1,0,0,-1.1,-1.1,0)"
         d="M 8.7185878,4.0337352 -2.2072895,0.01601326 8.7185884,-4.0017078 c -1.7454984,2.3720609 -1.7354408,5.6174519 -6e-7,8.035443 z"
         style="fill:#000000;fill-opacity:1;fill-rule:evenodd;stroke:#000000;stroke-width:0.625;stroke-linejoin:round;stroke-opacity:1"
         id="path6121-8-8-8-7-75"
         inkscape:connector-curvature="0" />
    </marker>
    <marker
       inkscape:isstock="true"
       style="overflow:visible"
       id="marker6123-9-3-9-46"
       refX="0"
       refY="0"
       orient="auto"
       inkscape:stockid="Arrow2Lend">
      <path
         transform="matrix(-1.1,0,0,-1.1,-1.1,0)"
         d="M 8.7185878,4.0337352 -2.2072895,0.01601326 8.7185884,-4.0017078 c -1.7454984,2.3720609 -1.7354408,5.6174519 -6e-7,8.035443 z"
         style="fill:#000000;fill-opacity:1;fill-rule:evenodd;stroke:#000000;stroke-width:0.625;stroke-linejoin:round;stroke-opacity:1"
         id="path6121-8-8-8-9"
         inkscape:connector-curvature="0" />
    </marker>
    <marker
       inkscape:isstock="true"
       style="overflow:visible"
       id="marker6123-9-3-9-4-4"
       refX="0"
       refY="0"
       orient="auto"
       inkscape:stockid="Arrow2Lend">
      <path
         transform="matrix(-1.1,0,0,-1.1,-1.1,0)"
         d="M 8.7185878,4.0337352 -2.2072895,0.01601326 8.7185884,-4.0017078 c -1.7454984,2.3720609 -1.7354408,5.6174519 -6e-7,8.035443 z"
         style="fill:#000000;fill-opacity:1;fill-rule:evenodd;stroke:#000000;stroke-width:0.625;stroke-linejoin:round;stroke-opacity:1"
         id="path6121-8-8-8-7-6"
         inkscape:connector-curvature="0" />
    </marker>
    <marker
       inkscape:isstock="true"
       style="overflow:visible"
       id="marker6123-9-3-9-9"
       refX="0"
       refY="0"
       orient="auto"
       inkscape:stockid="Arrow2Lend">
      <path
         transform="matrix(-1.1,0,0,-1.1,-1.1,0)"
         d="M 8.7185878,4.0337352 -2.2072895,0.01601326 8.7185884,-4.0017078 c -1.7454984,2.3720609 -1.7354408,5.6174519 -6e-7,8.035443 z"
         style="fill:#000000;fill-opacity:1;fill-rule:evenodd;stroke:#000000;stroke-width:0.625;stroke-linejoin:round;stroke-opacity:1"
         id="path6121-8-8-8-3"
         inkscape:connector-curvature="0" />
    </marker>
    <marker
       inkscape:isstock="true"
       style="overflow:visible"
       id="marker6123-9-3-9-6"
       refX="0"
       refY="0"
       orient="auto"
       inkscape:stockid="Arrow2Lend">
      <path
         transform="matrix(-1.1,0,0,-1.1,-1.1,0)"
         d="M 8.7185878,4.0337352 -2.2072895,0.01601326 8.7185884,-4.0017078 c -1.7454984,2.3720609 -1.7354408,5.6174519 -6e-7,8.035443 z"
         style="fill:#000000;fill-opacity:1;fill-rule:evenodd;stroke:#000000;stroke-width:0.625;stroke-linejoin:round;stroke-opacity:1"
         id="path6121-8-8-8-74"
         inkscape:connector-curvature="0" />
    </marker>
    <marker
       inkscape:isstock="true"
       style="overflow:visible"
       id="marker6123-9-3-9-3"
       refX="0"
       refY="0"
       orient="auto"
       inkscape:stockid="Arrow2Lend">
      <path
         transform="matrix(-1.1,0,0,-1.1,-1.1,0)"
         d="M 8.7185878,4.0337352 -2.2072895,0.01601326 8.7185884,-4.0017078 c -1.7454984,2.3720609 -1.7354408,5.6174519 -6e-7,8.035443 z"
         style="fill:#000000;fill-opacity:1;fill-rule:evenodd;stroke:#000000;stroke-width:0.625;stroke-linejoin:round;stroke-opacity:1"
         id="path6121-8-8-8-49"
         inkscape:connector-curvature="0" />
    </marker>
    <marker
       inkscape:isstock="true"
       style="overflow:visible"
       id="marker6123-9-3-9-3-3"
       refX="0"
       refY="0"
       orient="auto"
       inkscape:stockid="Arrow2Lend">
      <path
         transform="matrix(-1.1,0,0,-1.1,-1.1,0)"
         d="M 8.7185878,4.0337352 -2.2072895,0.01601326 8.7185884,-4.0017078 c -1.7454984,2.3720609 -1.7354408,5.6174519 -6e-7,8.035443 z"
         style="fill:#000000;fill-opacity:1;fill-rule:evenodd;stroke:#000000;stroke-width:0.625;stroke-linejoin:round;stroke-opacity:1"
         id="path6121-8-8-8-49-2"
         inkscape:connector-curvature="0" />
    </marker>
    <marker
       inkscape:isstock="true"
       style="overflow:visible"
       id="marker6123-9-3-9-4-80"
       refX="0"
       refY="0"
       orient="auto"
       inkscape:stockid="Arrow2Lend">
      <path
         transform="matrix(-1.1,0,0,-1.1,-1.1,0)"
         d="M 8.7185878,4.0337352 -2.2072895,0.01601326 8.7185884,-4.0017078 c -1.7454984,2.3720609 -1.7354408,5.6174519 -6e-7,8.035443 z"
         style="fill:#000000;fill-opacity:1;fill-rule:evenodd;stroke:#000000;stroke-width:0.625;stroke-linejoin:round;stroke-opacity:1"
         id="path6121-8-8-8-7-1"
         inkscape:connector-curvature="0" />
    </marker>
    <marker
       inkscape:isstock="true"
       style="overflow:visible"
       id="marker6123-9-3-9-6-9"
       refX="0"
       refY="0"
       orient="auto"
       inkscape:stockid="Arrow2Lend">
      <path
         transform="matrix(-1.1,0,0,-1.1,-1.1,0)"
         d="M 8.7185878,4.0337352 -2.2072895,0.01601326 8.7185884,-4.0017078 c -1.7454984,2.3720609 -1.7354408,5.6174519 -6e-7,8.035443 z"
         style="fill:#000000;fill-opacity:1;fill-rule:evenodd;stroke:#000000;stroke-width:0.625;stroke-linejoin:round;stroke-opacity:1"
         id="path6121-8-8-8-74-3"
         inkscape:connector-curvature="0" />
    </marker>
    <marker
       inkscape:isstock="true"
       style="overflow:visible"
       id="marker6123-9-3-9-4-3"
       refX="0"
       refY="0"
       orient="auto"
       inkscape:stockid="Arrow2Lend">
      <path
         transform="matrix(-1.1,0,0,-1.1,-1.1,0)"
         d="M 8.7185878,4.0337352 -2.2072895,0.01601326 8.7185884,-4.0017078 c -1.7454984,2.3720609 -1.7354408,5.6174519 -6e-7,8.035443 z"
         style="fill:#000000;fill-opacity:1;fill-rule:evenodd;stroke:#000000;stroke-width:0.625;stroke-linejoin:round;stroke-opacity:1"
         id="path6121-8-8-8-7-36"
         inkscape:connector-curvature="0" />
    </marker>
    <marker
       inkscape:isstock="true"
       style="overflow:visible"
       id="marker6123-9-3-9-4-2"
       refX="0"
       refY="0"
       orient="auto"
       inkscape:stockid="Arrow2Lend">
      <path
         transform="matrix(-1.1,0,0,-1.1,-1.1,0)"
         d="M 8.7185878,4.0337352 -2.2072895,0.01601326 8.7185884,-4.0017078 c -1.7454984,2.3720609 -1.7354408,5.6174519 -6e-7,8.035443 z"
         style="fill:#000000;fill-opacity:1;fill-rule:evenodd;stroke:#000000;stroke-width:0.625;stroke-linejoin:round;stroke-opacity:1"
         id="path6121-8-8-8-7-5"
         inkscape:connector-curvature="0" />
    </marker>
    <marker
       inkscape:isstock="true"
       style="overflow:visible"
       id="marker6123-9-3-9-3-0"
       refX="0"
       refY="0"
       orient="auto"
       inkscape:stockid="Arrow2Lend">
      <path
         transform="matrix(-1.1,0,0,-1.1,-1.1,0)"
         d="M 8.7185878,4.0337352 -2.2072895,0.01601326 8.7185884,-4.0017078 c -1.7454984,2.3720609 -1.7354408,5.6174519 -6e-7,8.035443 z"
         style="fill:#000000;fill-opacity:1;fill-rule:evenodd;stroke:#000000;stroke-width:0.625;stroke-linejoin:round;stroke-opacity:1"
         id="path6121-8-8-8-49-4"
         inkscape:connector-curvature="0" />
    </marker>
    <marker
       inkscape:isstock="true"
       style="overflow:visible"
       id="marker6123-9-3-9-4-6"
       refX="0"
       refY="0"
       orient="auto"
       inkscape:stockid="Arrow2Lend">
      <path
         transform="matrix(-1.1,0,0,-1.1,-1.1,0)"
         d="M 8.7185878,4.0337352 -2.2072895,0.01601326 8.7185884,-4.0017078 c -1.7454984,2.3720609 -1.7354408,5.6174519 -6e-7,8.035443 z"
         style="fill:#000000;fill-opacity:1;fill-rule:evenodd;stroke:#000000;stroke-width:0.625;stroke-linejoin:round;stroke-opacity:1"
         id="path6121-8-8-8-7-65"
         inkscape:connector-curvature="0" />
    </marker>
    <marker
       inkscape:isstock="true"
       style="overflow:visible"
       id="marker6123-9-3-9-4-6-0"
       refX="0"
       refY="0"
       orient="auto"
       inkscape:stockid="Arrow2Lend">
      <path
         transform="matrix(-1.1,0,0,-1.1,-1.1,0)"
         d="M 8.7185878,4.0337352 -2.2072895,0.01601326 8.7185884,-4.0017078 c -1.7454984,2.3720609 -1.7354408,5.6174519 -6e-7,8.035443 z"
         style="fill:#000000;fill-opacity:1;fill-rule:evenodd;stroke:#000000;stroke-width:0.625;stroke-linejoin:round;stroke-opacity:1"
         id="path6121-8-8-8-7-65-3"
         inkscape:connector-curvature="0" />
    </marker>
    <marker
       inkscape:isstock="true"
       style="overflow:visible"
       id="marker6123-9-3-9-3-0-6"
       refX="0"
       refY="0"
       orient="auto"
       inkscape:stockid="Arrow2Lend">
      <path
         transform="matrix(-1.1,0,0,-1.1,-1.1,0)"
         d="M 8.7185878,4.0337352 -2.2072895,0.01601326 8.7185884,-4.0017078 c -1.7454984,2.3720609 -1.7354408,5.6174519 -6e-7,8.035443 z"
         style="fill:#000000;fill-opacity:1;fill-rule:evenodd;stroke:#000000;stroke-width:0.625;stroke-linejoin:round;stroke-opacity:1"
         id="path6121-8-8-8-49-4-0"
         inkscape:connector-curvature="0" />
    </marker>
    <marker
       inkscape:isstock="true"
       style="overflow:visible"
       id="marker6123-9-3-9-3-0-6-9"
       refX="0"
       refY="0"
       orient="auto"
       inkscape:stockid="Arrow2Lend">
      <path
         transform="matrix(-1.1,0,0,-1.1,-1.1,0)"
         d="M 8.7185878,4.0337352 -2.2072895,0.01601326 8.7185884,-4.0017078 c -1.7454984,2.3720609 -1.7354408,5.6174519 -6e-7,8.035443 z"
         style="fill:#000000;fill-opacity:1;fill-rule:evenodd;stroke:#000000;stroke-width:0.625;stroke-linejoin:round;stroke-opacity:1"
         id="path6121-8-8-8-49-4-0-0"
         inkscape:connector-curvature="0" />
    </marker>
    <marker
       inkscape:isstock="true"
       style="overflow:visible"
       id="marker6123-9-3-9-3-0-6-9-5"
       refX="0"
       refY="0"
       orient="auto"
       inkscape:stockid="Arrow2Lend">
      <path
         transform="matrix(-1.1,0,0,-1.1,-1.1,0)"
         d="M 8.7185878,4.0337352 -2.2072895,0.01601326 8.7185884,-4.0017078 c -1.7454984,2.3720609 -1.7354408,5.6174519 -6e-7,8.035443 z"
         style="fill:#000000;fill-opacity:1;fill-rule:evenodd;stroke:#000000;stroke-width:0.625;stroke-linejoin:round;stroke-opacity:1"
         id="path6121-8-8-8-49-4-0-0-8"
         inkscape:connector-curvature="0" />
    </marker>
  </defs>
  <sodipodi:namedview
     pagecolor="#ffffff"
     bordercolor="#666666"
     borderopacity="1"
     objecttolerance="10"
     gridtolerance="10"
     guidetolerance="10"
     inkscape:pageopacity="0"
     inkscape:pageshadow="2"
     inkscape:window-width="2560"
     inkscape:window-height="1377"
     id="namedview5562"
     showgrid="false"
     inkscape:zoom="0.97288135"
     inkscape:cx="435.81882"
     inkscape:cy="151.6115"
     inkscape:window-x="-8"
     inkscape:window-y="-8"
     inkscape:window-maximized="1"
     inkscape:current-layer="svg5560"
     showguides="false"
     inkscape:showpageshadow="2"
     inkscape:pagecheckerboard="0"
     inkscape:deskcolor="#d1d1d1" />
  <g
     id="g5079"
     transform="translate(542.133,1103.4293)" />
  <flowRoot
     xml:space="preserve"
     id="flowRoot3587"
     style="font-style:normal;font-weight:normal;font-size:18.6667px;line-height:1.25;font-family:sans-serif;letter-spacing:0px;word-spacing:0px;fill:#000000;fill-opacity:1;stroke:none"
     transform="translate(460.23185,892.80945)"><flowRegion
       id="flowRegion3589"><rect
         id="rect3591"
         width="71.951218"
         height="33.919861"
         x="49.337978"
         y="49.613239" /></flowRegion><flowPara
       id="flowPara3593" /></flowRoot>
  <path
     sodipodi:nodetypes="ccccc"
     id="path244-6-1-2-9-3-4"
     d="m 292.90264,123.31707 h 210.87979 v 93.69972 H 292.90264 Z"
     style="fill:#ffffff;stroke:#000000;stroke-width:2"
     inkscape:connector-curvature="0" />
  <g
     id="text4126-2-1-5-6-5-9-3-2"
     style="font-size:24px;line-height:1.25;font-family:Montserrat;-inkscape-font-specification:'Montserrat, @wght=700';font-variation-settings:'wght' 700;text-align:center;letter-spacing:0px;word-spacing:0px;text-anchor:middle"
     aria-label="Social&#10;Disorganization">
    <path
       d="m 368.29362,157.01493 q -2.016,0 -3.864,-0.528 -1.848,-0.552 -2.976,-1.416 l 1.32,-2.928 q 1.08,0.768 2.544,1.272 1.488,0.48 3,0.48 1.152,0 1.848,-0.216 0.72,-0.24 1.056,-0.648 0.336,-0.408 0.336,-0.936 0,-0.672 -0.528,-1.056 -0.528,-0.408 -1.392,-0.648 -0.864,-0.264 -1.92,-0.48 -1.032,-0.24 -2.088,-0.576 -1.032,-0.336 -1.896,-0.864 -0.864,-0.528 -1.416,-1.392 -0.528,-0.864 -0.528,-2.208 0,-1.44 0.768,-2.616 0.792,-1.2 2.352,-1.896 1.584,-0.72 3.96,-0.72 1.584,0 3.12,0.384 1.536,0.36 2.712,1.104 l -1.2,2.952 q -1.176,-0.672 -2.352,-0.984 -1.176,-0.336 -2.304,-0.336 -1.128,0 -1.848,0.264 -0.72,0.264 -1.032,0.696 -0.312,0.408 -0.312,0.96 0,0.648 0.528,1.056 0.528,0.384 1.392,0.624 0.864,0.24 1.896,0.48 1.056,0.24 2.088,0.552 1.056,0.312 1.92,0.84 0.864,0.528 1.392,1.392 0.552,0.864 0.552,2.184 0,1.416 -0.792,2.592 -0.792,1.176 -2.376,1.896 -1.56,0.72 -3.96,0.72 z m 15.67202,-0.096 q -2.064,0 -3.672,-0.864 -1.584,-0.864 -2.52,-2.352 -0.912,-1.512 -0.912,-3.432 0,-1.944 0.912,-3.432 0.936,-1.512 2.52,-2.352 1.608,-0.864 3.672,-0.864 2.04,0 3.648,0.864 1.608,0.84 2.52,2.328 0.912,1.488 0.912,3.456 0,1.92 -0.912,3.432 -0.912,1.488 -2.52,2.352 -1.608,0.864 -3.648,0.864 z m 0,-3.072 q 0.936,0 1.68,-0.432 0.744,-0.432 1.176,-1.224 0.432,-0.816 0.432,-1.92 0,-1.128 -0.432,-1.92 -0.432,-0.792 -1.176,-1.224 -0.744,-0.432 -1.68,-0.432 -0.936,0 -1.68,0.432 -0.744,0.432 -1.2,1.224 -0.432,0.792 -0.432,1.92 0,1.104 0.432,1.92 0.456,0.792 1.2,1.224 0.744,0.432 1.68,0.432 z m 15.81601,3.072 q -2.088,0 -3.72,-0.84 -1.632,-0.864 -2.568,-2.376 -0.912,-1.512 -0.912,-3.432 0,-1.944 0.912,-3.432 0.936,-1.512 2.568,-2.352 1.632,-0.864 3.72,-0.864 2.04,0 3.552,0.864 1.512,0.84 2.232,2.424 l -2.904,1.56 q -0.504,-0.912 -1.272,-1.344 -0.744,-0.432 -1.632,-0.432 -0.96,0 -1.728,0.432 -0.768,0.432 -1.224,1.224 -0.432,0.792 -0.432,1.92 0,1.128 0.432,1.92 0.456,0.792 1.224,1.224 0.768,0.432 1.728,0.432 0.888,0 1.632,-0.408 0.768,-0.432 1.272,-1.368 l 2.904,1.584 q -0.72,1.56 -2.232,2.424 -1.512,0.84 -3.552,0.84 z m 7.85711,-0.192 v -12.912 h 3.744 v 12.912 z m 1.872,-14.712 q -1.032,0 -1.68,-0.6 -0.648,-0.6 -0.648,-1.488 0,-0.888 0.648,-1.488 0.648,-0.6 1.68,-0.6 1.032,0 1.68,0.576 0.648,0.552 0.648,1.44 0,0.936 -0.648,1.56 -0.624,0.6 -1.68,0.6 z m 13.27201,14.712 v -2.52 l -0.24,-0.552 v -4.512 q 0,-1.2 -0.744,-1.872 -0.72,-0.672 -2.232,-0.672 -1.032,0 -2.04,0.336 -0.984,0.312 -1.68,0.864 l -1.344,-2.616 q 1.056,-0.744 2.544,-1.152 1.488,-0.408 3.024,-0.408 2.952,0 4.584,1.392 1.632,1.392 1.632,4.344 v 7.368 z m -3.936,0.192 q -1.512,0 -2.592,-0.504 -1.08,-0.528 -1.656,-1.416 -0.576,-0.888 -0.576,-1.992 0,-1.152 0.552,-2.016 0.576,-0.864 1.8,-1.344 1.224,-0.504 3.192,-0.504 h 3.432 v 2.184 h -3.024 q -1.32,0 -1.824,0.432 -0.48,0.432 -0.48,1.08 0,0.72 0.552,1.152 0.576,0.408 1.56,0.408 0.936,0 1.68,-0.432 0.744,-0.456 1.08,-1.32 l 0.576,1.728 q -0.408,1.248 -1.488,1.896 -1.08,0.648 -2.784,0.648 z m 10.82402,-0.192 v -17.808 h 3.744 v 17.808 z"
       id="path5" />
    <path
       d="m 300.5296,186.72693 v -16.8 h 7.632 q 2.736,0 4.824,1.056 2.088,1.032 3.264,2.904 1.176,1.872 1.176,4.44 0,2.544 -1.176,4.44 -1.176,1.872 -3.264,2.928 -2.088,1.032 -4.824,1.032 z m 3.888,-3.192 h 3.552 q 1.68,0 2.904,-0.624 1.248,-0.648 1.92,-1.824 0.696,-1.176 0.696,-2.76 0,-1.608 -0.696,-2.76 -0.672,-1.176 -1.92,-1.8 -1.224,-0.648 -2.904,-0.648 h -3.552 z m 15.672,3.192 v -12.912 h 3.744 v 12.912 z m 1.872,-14.712 q -1.032,0 -1.68,-0.6 -0.648,-0.6 -0.648,-1.488 0,-0.888 0.648,-1.488 0.648,-0.6 1.68,-0.6 1.032,0 1.68,0.576 0.648,0.552 0.648,1.44 0,0.936 -0.648,1.56 -0.624,0.6 -1.68,0.6 z m 9.69602,14.904 q -1.656,0 -3.192,-0.384 -1.512,-0.408 -2.4,-1.008 l 1.248,-2.688 q 0.888,0.552 2.088,0.912 1.224,0.336 2.4,0.336 1.296,0 1.824,-0.312 0.552,-0.312 0.552,-0.864 0,-0.456 -0.432,-0.672 -0.408,-0.24 -1.104,-0.36 -0.696,-0.12 -1.536,-0.24 -0.816,-0.12 -1.656,-0.312 -0.84,-0.216 -1.536,-0.624 -0.696,-0.408 -1.128,-1.104 -0.408,-0.696 -0.408,-1.8 0,-1.224 0.696,-2.16 0.72,-0.936 2.064,-1.464 1.344,-0.552 3.216,-0.552 1.32,0 2.688,0.288 1.368,0.288 2.28,0.84 l -1.248,2.664 q -0.936,-0.552 -1.896,-0.744 -0.936,-0.216 -1.824,-0.216 -1.248,0 -1.824,0.336 -0.576,0.336 -0.576,0.864 0,0.48 0.408,0.72 0.432,0.24 1.128,0.384 0.696,0.144 1.512,0.264 0.84,0.096 1.68,0.312 0.84,0.216 1.512,0.624 0.696,0.384 1.128,1.08 0.432,0.672 0.432,1.776 0,1.2 -0.72,2.136 -0.72,0.912 -2.088,1.44 -1.344,0.528 -3.288,0.528 z m 14.544,0 q -2.064,0 -3.672,-0.864 -1.584,-0.864 -2.52,-2.352 -0.912,-1.512 -0.912,-3.432 0,-1.944 0.912,-3.432 0.936,-1.512 2.52,-2.352 1.608,-0.864 3.672,-0.864 2.04,0 3.648,0.864 1.608,0.84 2.52,2.328 0.912,1.488 0.912,3.456 0,1.92 -0.912,3.432 -0.912,1.488 -2.52,2.352 -1.608,0.864 -3.648,0.864 z m 0,-3.072 q 0.936,0 1.68,-0.432 0.744,-0.432 1.176,-1.224 0.432,-0.816 0.432,-1.92 0,-1.128 -0.432,-1.92 -0.432,-0.792 -1.176,-1.224 -0.744,-0.432 -1.68,-0.432 -0.936,0 -1.68,0.432 -0.744,0.432 -1.2,1.224 -0.432,0.792 -0.432,1.92 0,1.104 0.432,1.92 0.456,0.792 1.2,1.224 0.744,0.432 1.68,0.432 z m 9.57602,2.88 v -12.912 h 3.576 v 3.648 l -0.504,-1.056 q 0.576,-1.368 1.848,-2.064 1.272,-0.72 3.096,-0.72 v 3.456 q -0.24,-0.024 -0.432,-0.024 -0.192,-0.024 -0.408,-0.024 -1.536,0 -2.496,0.888 -0.936,0.864 -0.936,2.712 v 6.096 z m 16.20913,4.848 q -1.824,0 -3.528,-0.456 -1.68,-0.432 -2.808,-1.32 l 1.488,-2.688 q 0.816,0.672 2.064,1.056 1.272,0.408 2.496,0.408 1.992,0 2.88,-0.888 0.912,-0.888 0.912,-2.64 v -1.944 l 0.24,-3.24 -0.048,-3.264 v -2.784 h 3.552 v 10.752 q 0,3.6 -1.872,5.304 -1.872,1.704 -5.376,1.704 z m -0.576,-5.472 q -1.8,0 -3.264,-0.768 -1.44,-0.792 -2.328,-2.184 -0.864,-1.416 -0.864,-3.288 0,-1.896 0.864,-3.288 0.888,-1.416 2.328,-2.184 1.464,-0.768 3.264,-0.768 1.632,0 2.88,0.672 1.248,0.648 1.944,2.04 0.696,1.368 0.696,3.528 0,2.136 -0.696,3.528 -0.696,1.368 -1.944,2.04 -1.248,0.672 -2.88,0.672 z m 0.744,-3.072 q 0.984,0 1.752,-0.384 0.768,-0.408 1.2,-1.128 0.432,-0.72 0.432,-1.656 0,-0.96 -0.432,-1.656 -0.432,-0.72 -1.2,-1.104 -0.768,-0.408 -1.752,-0.408 -0.984,0 -1.752,0.408 -0.768,0.384 -1.224,1.104 -0.432,0.696 -0.432,1.656 0,0.936 0.432,1.656 0.456,0.72 1.224,1.128 0.768,0.384 1.752,0.384 z m 18.48002,3.696 v -2.52 l -0.24,-0.552 v -4.512 q 0,-1.2 -0.744,-1.872 -0.72,-0.672 -2.232,-0.672 -1.032,0 -2.04,0.336 -0.984,0.312 -1.68,0.864 l -1.344,-2.616 q 1.056,-0.744 2.544,-1.152 1.488,-0.408 3.024,-0.408 2.952,0 4.584,1.392 1.632,1.392 1.632,4.344 v 7.368 z m -3.936,0.192 q -1.512,0 -2.592,-0.504 -1.08,-0.528 -1.656,-1.416 -0.576,-0.888 -0.576,-1.992 0,-1.152 0.552,-2.016 0.576,-0.864 1.8,-1.344 1.224,-0.504 3.192,-0.504 h 3.432 v 2.184 h -3.024 q -1.32,0 -1.824,0.432 -0.48,0.432 -0.48,1.08 0,0.72 0.552,1.152 0.576,0.408 1.56,0.408 0.936,0 1.68,-0.432 0.744,-0.456 1.08,-1.32 l 0.576,1.728 q -0.408,1.248 -1.488,1.896 -1.08,0.648 -2.784,0.648 z m 18.67201,-13.296 q 1.536,0 2.736,0.624 1.224,0.6 1.92,1.872 0.696,1.248 0.696,3.216 v 7.392 h -3.744 v -6.816 q 0,-1.56 -0.696,-2.304 -0.672,-0.744 -1.92,-0.744 -0.888,0 -1.608,0.384 -0.696,0.36 -1.104,1.128 -0.384,0.768 -0.384,1.968 v 6.384 h -3.744 v -12.912 h 3.576 v 3.576 l -0.672,-1.08 q 0.696,-1.296 1.992,-1.992 1.296,-0.696 2.952,-0.696 z m 8.736,13.104 v -12.912 h 3.744 v 12.912 z m 1.872,-14.712 q -1.032,0 -1.68,-0.6 -0.648,-0.6 -0.648,-1.488 0,-0.888 0.648,-1.488 0.648,-0.6 1.68,-0.6 1.032,0 1.68,0.576 0.648,0.552 0.648,1.44 0,0.936 -0.648,1.56 -0.624,0.6 -1.68,0.6 z m 4.46401,14.712 v -2.256 l 7.632,-9.024 0.648,1.248 h -8.112 v -2.88 h 11.136 v 2.256 l -7.632,9.024 -0.672,-1.248 h 8.52 v 2.88 z m 21.83999,0 v -2.52 l -0.24,-0.552 v -4.512 q 0,-1.2 -0.744,-1.872 -0.72,-0.672 -2.232,-0.672 -1.032,0 -2.04,0.336 -0.984,0.312 -1.68,0.864 l -1.344,-2.616 q 1.056,-0.744 2.544,-1.152 1.488,-0.408 3.024,-0.408 2.952,0 4.584,1.392 1.632,1.392 1.632,4.344 v 7.368 z m -3.936,0.192 q -1.512,0 -2.592,-0.504 -1.08,-0.528 -1.656,-1.416 -0.576,-0.888 -0.576,-1.992 0,-1.152 0.552,-2.016 0.576,-0.864 1.8,-1.344 1.224,-0.504 3.192,-0.504 h 3.432 v 2.184 h -3.024 q -1.32,0 -1.824,0.432 -0.48,0.432 -0.48,1.08 0,0.72 0.552,1.152 0.576,0.408 1.56,0.408 0.936,0 1.68,-0.432 0.744,-0.456 1.08,-1.32 l 0.576,1.728 q -0.408,1.248 -1.488,1.896 -1.08,0.648 -2.784,0.648 z m 16.10401,0 q -2.28,0 -3.552,-1.152 -1.272,-1.176 -1.272,-3.48 v -11.328 h 3.744 v 11.28 q 0,0.816 0.432,1.272 0.432,0.432 1.176,0.432 0.888,0 1.512,-0.48 l 1.008,2.64 q -0.576,0.408 -1.392,0.624 -0.792,0.192 -1.656,0.192 z m -6.816,-9.936 v -2.88 h 8.952 v 2.88 z m 11.97599,9.744 v -12.912 h 3.744 v 12.912 z m 1.872,-14.712 q -1.032,0 -1.68,-0.6 -0.648,-0.6 -0.648,-1.488 0,-0.888 0.648,-1.488 0.648,-0.6 1.68,-0.6 1.032,0 1.68,0.576 0.648,0.552 0.648,1.44 0,0.936 -0.648,1.56 -0.624,0.6 -1.68,0.6 z m 11.49601,14.904 q -2.064,0 -3.672,-0.864 -1.584,-0.864 -2.52,-2.352 -0.912,-1.512 -0.912,-3.432 0,-1.944 0.912,-3.432 0.936,-1.512 2.52,-2.352 1.608,-0.864 3.672,-0.864 2.04,0 3.648,0.864 1.608,0.84 2.52,2.328 0.912,1.488 0.912,3.456 0,1.92 -0.912,3.432 -0.912,1.488 -2.52,2.352 -1.608,0.864 -3.648,0.864 z m 0,-3.072 q 0.936,0 1.68,-0.432 0.744,-0.432 1.176,-1.224 0.432,-0.816 0.432,-1.92 0,-1.128 -0.432,-1.92 -0.432,-0.792 -1.176,-1.224 -0.744,-0.432 -1.68,-0.432 -0.936,0 -1.68,0.432 -0.744,0.432 -1.2,1.224 -0.432,0.792 -0.432,1.92 0,1.104 0.432,1.92 0.456,0.792 1.2,1.224 0.744,0.432 1.68,0.432 z m 17.42402,-10.224 q 1.536,0 2.736,0.624 1.224,0.6 1.92,1.872 0.696,1.248 0.696,3.216 v 7.392 h -3.744 v -6.816 q 0,-1.56 -0.696,-2.304 -0.672,-0.744 -1.92,-0.744 -0.888,0 -1.608,0.384 -0.696,0.36 -1.104,1.128 -0.384,0.768 -0.384,1.968 v 6.384 h -3.744 v -12.912 h 3.576 v 3.576 l -0.672,-1.08 q 0.696,-1.296 1.992,-1.992 1.296,-0.696 2.952,-0.696 z"
       id="path6" />
  </g>
  <path
     sodipodi:nodetypes="ccccc"
     id="path244-6-1-2-9-3-3"
     d="m 566.61972,123.31707 h 210.87979 v 93.69972 H 566.61972 Z"
     style="fill:#ffffff;stroke:#000000;stroke-width:2"
     inkscape:connector-curvature="0" />
  <g
     id="text4126-2-1-5-6-5-9-3-75"
     style="font-size:29.3333px;line-height:1.25;font-family:Montserrat;-inkscape-font-specification:'Montserrat, @wght=400';font-variation-settings:'wght' 400;text-align:center;letter-spacing:0px;word-spacing:0px;text-anchor:middle"
     aria-label="Loss of&#10;Control">
    <path
       d="m 624.86946,161.91092 v -20.53333 h 2.17067 v 18.656 h 11.49866 v 1.87733 z m 22.88782,0.14667 q -2.22934,0 -4.01867,-0.99734 -1.76,-1.02666 -2.78667,-2.78666 -1.02666,-1.78934 -1.02666,-4.07734 0,-2.31733 1.02666,-4.07733 1.02667,-1.76 2.78667,-2.75733 1.76,-0.99734 4.01867,-0.99734 2.288,0 4.048,0.99734 1.78933,0.99733 2.78666,2.75733 1.02667,1.76 1.02667,4.07733 0,2.288 -1.02667,4.07734 -0.99733,1.76 -2.78666,2.78666 -1.78934,0.99734 -4.048,0.99734 z m 0,-1.848 q 1.672,0 2.96266,-0.73334 1.29067,-0.76266 2.024,-2.112 0.76267,-1.37866 0.76267,-3.168 0,-1.81866 -0.76267,-3.168 -0.73333,-1.34933 -2.024,-2.08266 -1.29066,-0.76267 -2.93333,-0.76267 -1.64267,0 -2.93333,0.76267 -1.29067,0.73333 -2.05334,2.08266 -0.76266,1.34934 -0.76266,3.168 0,1.78934 0.76266,3.168 0.76267,1.34934 2.05334,2.112 1.29066,0.73334 2.904,0.73334 z m 16.25069,1.848 q -1.90667,0 -3.608,-0.528 -1.70134,-0.55734 -2.66934,-1.37867 l 0.93867,-1.64267 q 0.93867,0.704 2.40533,1.232 1.46667,0.49867 3.08,0.49867 2.2,0 3.168,-0.67467 0.968,-0.704 0.968,-1.848 0,-0.85066 -0.55733,-1.32 -0.528,-0.49866 -1.408,-0.73333 -0.88,-0.264 -1.96533,-0.44 -1.08534,-0.176 -2.17067,-0.41067 -1.056,-0.23466 -1.936,-0.67466 -0.88,-0.46934 -1.43733,-1.26134 -0.528,-0.792 -0.528,-2.112 0,-1.26133 0.704,-2.25866 0.704,-0.99734 2.05333,-1.55467 1.37867,-0.58667 3.344,-0.58667 1.496,0 2.992,0.41067 1.496,0.38133 2.464,1.02667 l -0.90933,1.672 q -1.02667,-0.704 -2.2,-0.99734 -1.17334,-0.32266 -2.34667,-0.32266 -2.08267,0 -3.08,0.73333 -0.968,0.704 -0.968,1.81867 0,0.88 0.528,1.37866 0.55733,0.49867 1.43733,0.792 0.90934,0.264 1.96534,0.44 1.08533,0.176 2.14133,0.44 1.08533,0.23467 1.96533,0.67467 0.90934,0.41067 1.43734,1.20267 0.55733,0.76266 0.55733,2.024 0,1.34933 -0.76267,2.34666 -0.73333,0.968 -2.17066,1.52534 -1.408,0.528 -3.432,0.528 z m 14.31469,0 q -1.90667,0 -3.608,-0.528 -1.70133,-0.55734 -2.66933,-1.37867 l 0.93866,-1.64267 q 0.93867,0.704 2.40534,1.232 1.46666,0.49867 3.08,0.49867 2.2,0 3.168,-0.67467 0.968,-0.704 0.968,-1.848 0,-0.85066 -0.55734,-1.32 -0.528,-0.49866 -1.408,-0.73333 -0.88,-0.264 -1.96533,-0.44 -1.08533,-0.176 -2.17067,-0.41067 -1.056,-0.23466 -1.936,-0.67466 -0.88,-0.46934 -1.43733,-1.26134 -0.528,-0.792 -0.528,-2.112 0,-1.26133 0.704,-2.25866 0.704,-0.99734 2.05333,-1.55467 1.37867,-0.58667 3.344,-0.58667 1.496,0 2.992,0.41067 1.496,0.38133 2.464,1.02667 l -0.90933,1.672 q -1.02667,-0.704 -2.2,-0.99734 -1.17333,-0.32266 -2.34667,-0.32266 -2.08266,0 -3.08,0.73333 -0.968,0.704 -0.968,1.81867 0,0.88 0.528,1.37866 0.55734,0.49867 1.43734,0.792 0.90933,0.264 1.96533,0.44 1.08533,0.176 2.14133,0.44 1.08534,0.23467 1.96534,0.67467 0.90933,0.41067 1.43733,1.20267 0.55733,0.76266 0.55733,2.024 0,1.34933 -0.76266,2.34666 -0.73334,0.968 -2.17067,1.52534 -1.408,0.528 -3.432,0.528 z m 24.14134,0 q -2.22934,0 -4.01867,-0.99734 -1.76,-1.02666 -2.78667,-2.78666 -1.02666,-1.78934 -1.02666,-4.07734 0,-2.31733 1.02666,-4.07733 1.02667,-1.76 2.78667,-2.75733 1.76,-0.99734 4.01867,-0.99734 2.288,0 4.048,0.99734 1.78933,0.99733 2.78666,2.75733 1.02667,1.76 1.02667,4.07733 0,2.288 -1.02667,4.07734 -0.99733,1.76 -2.78666,2.78666 -1.78934,0.99734 -4.048,0.99734 z m 0,-1.848 q 1.672,0 2.96266,-0.73334 1.29067,-0.76266 2.024,-2.112 0.76267,-1.37866 0.76267,-3.168 0,-1.81866 -0.76267,-3.168 -0.73333,-1.34933 -2.024,-2.08266 -1.29066,-0.76267 -2.93333,-0.76267 -1.64267,0 -2.93333,0.76267 -1.29067,0.73333 -2.05334,2.08266 -0.76266,1.34934 -0.76266,3.168 0,1.78934 0.76266,3.168 0.76267,1.34934 2.05334,2.112 1.29066,0.73334 2.904,0.73334 z m 12.46668,1.70133 v -17.336 q 0,-2.05333 1.20267,-3.31467 1.20267,-1.26133 3.46133,-1.26133 0.88,0 1.70134,0.23467 0.82133,0.23466 1.37866,0.73333 l -0.704,1.55467 q -0.44,-0.38134 -1.02666,-0.55734 -0.58667,-0.20533 -1.26134,-0.20533 -1.32,0 -2.024,0.73333 -0.704,0.73334 -0.704,2.17067 v 2.34667 l 0.0587,0.968 v 13.93333 z m -2.75733,-13.66933 v -1.73067 h 9.53333 v 1.73067 z"
       id="path7" />
    <path
       d="m 629.72026,198.75359 q -2.31733,0 -4.28267,-0.76267 -1.96533,-0.792 -3.40266,-2.2 -1.43734,-1.408 -2.25867,-3.31467 -0.792,-1.90666 -0.792,-4.16533 0,-2.25867 0.792,-4.16533 0.82133,-1.90667 2.25867,-3.31467 1.46666,-1.408 3.432,-2.17067 1.96533,-0.792 4.28266,-0.792 2.22934,0 4.19467,0.76267 1.96533,0.73333 3.31467,2.22933 l -1.37867,1.37867 q -1.26133,-1.29067 -2.78667,-1.848 -1.52533,-0.58667 -3.28533,-0.58667 -1.848,0 -3.432,0.64534 -1.584,0.616 -2.75733,1.78933 -1.17334,1.144 -1.848,2.69867 -0.64534,1.52533 -0.64534,3.37333 0,1.848 0.64534,3.40267 0.67466,1.52533 1.848,2.69866 1.17333,1.144 2.75733,1.78934 1.584,0.616 3.432,0.616 1.76,0 3.28533,-0.58667 1.52534,-0.58667 2.78667,-1.87733 l 1.37867,1.37866 q -1.34934,1.496 -3.31467,2.25867 -1.96533,0.76267 -4.224,0.76267 z m 17.34381,-0.0293 q -2.22933,0 -4.01867,-0.99733 -1.76,-1.02667 -2.78666,-2.78667 -1.02667,-1.78933 -1.02667,-4.07733 0,-2.31733 1.02667,-4.07733 1.02666,-1.76 2.78666,-2.75734 1.76,-0.99733 4.01867,-0.99733 2.288,0 4.048,0.99733 1.78933,0.99734 2.78667,2.75734 1.02666,1.76 1.02666,4.07733 0,2.288 -1.02666,4.07733 -0.99734,1.76 -2.78667,2.78667 -1.78933,0.99733 -4.048,0.99733 z m 0,-1.848 q 1.672,0 2.96267,-0.73333 1.29066,-0.76267 2.024,-2.112 0.76266,-1.37867 0.76266,-3.168 0,-1.81867 -0.76266,-3.168 -0.73334,-1.34933 -2.024,-2.08267 -1.29067,-0.76266 -2.93334,-0.76266 -1.64266,0 -2.93333,0.76266 -1.29067,0.73334 -2.05333,2.08267 -0.76267,1.34933 -0.76267,3.168 0,1.78933 0.76267,3.168 0.76266,1.34933 2.05333,2.112 1.29067,0.73333 2.904,0.73333 z m 19.97602,-13.84533 q 1.87734,0 3.28534,0.73333 1.43733,0.704 2.22933,2.17067 0.82134,1.46667 0.82134,3.696 v 8.94667 h -2.08267 v -8.74134 q 0,-2.43466 -1.232,-3.66666 -1.20267,-1.26134 -3.40267,-1.26134 -1.64267,0 -2.87467,0.67467 -1.20266,0.64533 -1.87733,1.90667 -0.64533,1.232 -0.64533,2.992 v 8.096 h -2.08267 v -15.4 h 1.99467 v 4.224 l -0.32267,-0.792 q 0.73333,-1.672 2.34667,-2.61067 1.61333,-0.968 3.84266,-0.968 z m 16.83736,15.69333 q -2.17067,0 -3.344,-1.17333 -1.17334,-1.17333 -1.17334,-3.31467 v -14.46133 h 2.08267 v 14.344 q 0,1.34933 0.67467,2.08267 0.704,0.73333 1.99466,0.73333 1.37867,0 2.288,-0.792 l 0.73334,1.496 q -0.616,0.55733 -1.496,0.82133 -0.85067,0.264 -1.76,0.264 z m -7.27467,-13.816 v -1.73066 h 9.53333 v 1.73066 z m 14.31467,13.66934 v -15.4 h 1.99466 v 4.19466 l -0.20533,-0.73333 q 0.64533,-1.76 2.17067,-2.66933 1.52533,-0.93867 3.784,-0.93867 v 2.024 q -0.11734,0 -0.23467,0 -0.11733,-0.0293 -0.23467,-0.0293 -2.43466,0 -3.81333,1.496 -1.37867,1.46666 -1.37867,4.19466 v 7.86134 z m 17.66646,0.14666 q -2.22933,0 -4.01867,-0.99733 -1.76,-1.02667 -2.78666,-2.78667 -1.02667,-1.78933 -1.02667,-4.07733 0,-2.31733 1.02667,-4.07733 1.02666,-1.76 2.78666,-2.75734 1.76,-0.99733 4.01867,-0.99733 2.288,0 4.048,0.99733 1.78933,0.99734 2.78667,2.75734 1.02666,1.76 1.02666,4.07733 0,2.288 -1.02666,4.07733 -0.99734,1.76 -2.78667,2.78667 -1.78933,0.99733 -4.048,0.99733 z m 0,-1.848 q 1.672,0 2.96267,-0.73333 1.29066,-0.76267 2.024,-2.112 0.76266,-1.37867 0.76266,-3.168 0,-1.81867 -0.76266,-3.168 -0.73334,-1.34933 -2.024,-2.08267 -1.29067,-0.76266 -2.93334,-0.76266 -1.64266,0 -2.93333,0.76266 -1.29067,0.73334 -2.05333,2.08267 -0.76267,1.34933 -0.76267,3.168 0,1.78933 0.76267,3.168 0.76266,1.34933 2.05333,2.112 1.29067,0.73333 2.904,0.73333 z m 12.11469,1.70134 v -21.76534 h 2.08266 v 21.76534 z"
       id="path8" />
  </g>
  <path
     sodipodi:nodetypes="ccccc"
     id="path244-6-1-2-9-3-9-2"
     d="M 1,1 H 229.35366 V 339.33386 H 1 Z"
     style="fill:#ffffff;stroke:#000000;stroke-width:2"
     inkscape:connector-curvature="0" />
  <path
     sodipodi:nodetypes="ccccc"
     id="path244-6-1-2-9-3"
     d="m 9.73694,123.31705 h 210.87979 v 93.69972 H 9.73694 Z"
     style="fill:#ffffff;stroke:#000000;stroke-width:2"
     inkscape:connector-curvature="0" />
  <g
     id="text4126-2-1-5-6-5-9-3"
     style="font-size:29.3333px;line-height:1.25;font-family:Montserrat;-inkscape-font-specification:'Montserrat, @wght=400';font-variation-settings:'wght' 400;text-align:center;letter-spacing:0px;word-spacing:0px;text-anchor:middle"
     aria-label="Residential&#10;Turnover">
    <path
       d="m 37.18109,161.84344 v -20.53333 h 7.685334 q 2.610667,0 4.488,0.85067 1.877333,0.82133 2.874667,2.40533 1.026666,1.55467 1.026666,3.784 0,2.17067 -1.026666,3.75467 -0.997334,1.55466 -2.874667,2.40533 -1.877333,0.82133 -4.488,0.82133 h -6.482667 l 0.968,-0.99733 v 7.50933 z m 14.021334,0 -5.28,-7.45066 h 2.346667 l 5.309333,7.45066 z m -11.850667,-7.33333 -0.968,-1.02667 h 6.424 q 3.08,0 4.664,-1.34933 1.613334,-1.34933 1.613334,-3.784 0,-2.464 -1.613334,-3.81333 -1.584,-1.34934 -4.664,-1.34934 h -6.424 l 0.968,-1.02666 z m 25.138656,7.48 q -2.405334,0 -4.224001,-0.99733 -1.818666,-1.02667 -2.845333,-2.78667 -1.026667,-1.78933 -1.026667,-4.07733 0,-2.288 0.968,-4.048 0.997334,-1.76 2.698667,-2.75734 1.730667,-1.02666 3.872,-1.02666 2.170667,0 3.842667,0.99733 1.701333,0.968 2.669333,2.75733 0.968,1.76 0.968,4.07734 0,0.14666 -0.02933,0.32266 0,0.14667 0,0.32267 H 57.978412 v -1.55467 h 12.290667 l -0.821333,0.616 q 0,-1.672 -0.733333,-2.96266 -0.704,-1.32 -1.936,-2.05334 -1.232,-0.73333 -2.845334,-0.73333 -1.584,0 -2.845333,0.73333 -1.261334,0.73334 -1.965334,2.05334 -0.704,1.32 -0.704,3.02133 v 0.32267 q 0,1.76 0.762667,3.10933 0.792,1.32 2.170667,2.08267 1.408,0.73333 3.197333,0.73333 1.408,0 2.610667,-0.49867 1.232,-0.49866 2.112,-1.52533 l 1.173333,1.34933 q -1.026666,1.232 -2.581333,1.87734 -1.525333,0.64533 -3.373333,0.64533 z m 15.312001,0 q -1.906667,0 -3.608,-0.528 -1.701334,-0.55733 -2.669334,-1.37867 l 0.938667,-1.64266 q 0.938667,0.704 2.405334,1.232 1.466666,0.49866 3.08,0.49866 2.2,0 3.168,-0.67466 0.968,-0.704 0.968,-1.848 0,-0.85067 -0.557334,-1.32 -0.528,-0.49867 -1.408,-0.73334 -0.88,-0.264 -1.965333,-0.44 -1.085333,-0.176 -2.170667,-0.41066 -1.056,-0.23467 -1.936,-0.67467 -0.88,-0.46933 -1.437333,-1.26133 -0.528,-0.792 -0.528,-2.112 0,-1.26134 0.704,-2.25867 0.704,-0.99733 2.053333,-1.55467 1.378667,-0.58666 3.344,-0.58666 1.496,0 2.992,0.41066 1.496,0.38134 2.464,1.02667 l -0.909333,1.672 q -1.026667,-0.704 -2.2,-0.99733 -1.173333,-0.32267 -2.346667,-0.32267 -2.082666,0 -3.08,0.73333 -0.968,0.704 -0.968,1.81867 0,0.88 0.528,1.37867 0.557334,0.49866 1.437334,0.792 0.909333,0.264 1.965333,0.44 1.085333,0.176 2.141333,0.44 1.085334,0.23466 1.965334,0.67466 0.909333,0.41067 1.437333,1.20267 0.557333,0.76267 0.557333,2.024 0,1.34933 -0.762666,2.34667 -0.733334,0.968 -2.170667,1.52533 -1.408,0.528 -3.432,0.528 z m 10.178693,-0.14667 v -15.4 h 2.082667 v 15.4 z m 1.056,-18.80266 q -0.645333,0 -1.085333,-0.44 -0.44,-0.44 -0.44,-1.056 0,-0.616 0.44,-1.02667 0.44,-0.44 1.085333,-0.44 0.645334,0 1.085334,0.41067 0.44,0.41066 0.44,1.02666 0,0.64534 -0.44,1.08534 -0.410667,0.44 -1.085334,0.44 z m 12.965303,18.94933 q -2.2,0 -3.96,-0.99733 -1.730662,-0.99734 -2.727996,-2.75734 -0.997333,-1.78933 -0.997333,-4.10666 0,-2.34667 0.997333,-4.10667 0.997334,-1.76 2.727996,-2.728 1.76,-0.99733 3.96,-0.99733 2.024,0 3.608,0.90933 1.61334,0.90933 2.552,2.66933 0.968,1.73067 0.968,4.25334 0,2.49333 -0.93866,4.25333 -0.93867,1.76 -2.552,2.69867 -1.584,0.90933 -3.63734,0.90933 z m 0.14667,-1.848 q 1.64267,0 2.93333,-0.73333 1.32,-0.76267 2.05334,-2.112 0.76266,-1.37867 0.76266,-3.168 0,-1.81867 -0.76266,-3.168 -0.73334,-1.34934 -2.05334,-2.08267 -1.29066,-0.76267 -2.93333,-0.76267 -1.61333,0 -2.904,0.76267 -1.290666,0.73333 -2.053332,2.08267 -0.762667,1.34933 -0.762667,3.168 0,1.78933 0.762667,3.168 0.762666,1.34933 2.053332,2.112 1.29067,0.73333 2.904,0.73333 z m 5.808,1.70133 v -4.63466 l 0.20533,-3.10934 -0.29333,-3.10933 v -10.912 h 2.08267 v 21.76533 z m 14.34399,0.14667 q -2.40533,0 -4.224,-0.99733 -1.81867,-1.02667 -2.84533,-2.78667 -1.02667,-1.78933 -1.02667,-4.07733 0,-2.288 0.968,-4.048 0.99733,-1.76 2.69867,-2.75734 1.73066,-1.02666 3.872,-1.02666 2.17066,0 3.84266,0.99733 1.70134,0.968 2.66934,2.75733 0.968,1.76 0.968,4.07734 0,0.14666 -0.0293,0.32266 0,0.14667 0,0.32267 h -13.40533 v -1.55467 h 12.29067 l -0.82134,0.616 q 0,-1.672 -0.73333,-2.96266 -0.704,-1.32 -1.936,-2.05334 -1.232,-0.73333 -2.84533,-0.73333 -1.584,0 -2.84534,0.73333 -1.26133,0.73334 -1.96533,2.05334 -0.704,1.32 -0.704,3.02133 v 0.32267 q 0,1.76 0.76267,3.10933 0.792,1.32 2.17066,2.08267 1.408,0.73333 3.19734,0.73333 1.408,0 2.61066,-0.49867 1.232,-0.49866 2.112,-1.52533 l 1.17334,1.34933 q -1.02667,1.232 -2.58134,1.87734 -1.52533,0.64533 -3.37333,0.64533 z m 19.03733,-15.69333 q 1.87733,0 3.28533,0.73333 1.43734,0.704 2.22934,2.17067 0.82133,1.46666 0.82133,3.696 v 8.94666 h -2.08267 v -8.74133 q 0,-2.43467 -1.232,-3.66667 -1.20266,-1.26133 -3.40266,-1.26133 -1.64267,0 -2.87467,0.67467 -1.20267,0.64533 -1.87733,1.90666 -0.64534,1.232 -0.64534,2.992 v 8.096 h -2.08266 v -15.4 h 1.99466 v 4.224 l -0.32266,-0.792 q 0.73333,-1.672 2.34666,-2.61066 1.61334,-0.968 3.84267,-0.968 z m 16.83735,15.69333 q -2.17066,0 -3.344,-1.17333 -1.17333,-1.17334 -1.17333,-3.31467 v -14.46133 h 2.08267 v 14.344 q 0,1.34933 0.67466,2.08266 0.704,0.73334 1.99467,0.73334 1.37867,0 2.288,-0.792 l 0.73333,1.496 q -0.616,0.55733 -1.496,0.82133 -0.85066,0.264 -1.76,0.264 z m -7.27466,-13.816 v -1.73067 h 9.53333 v 1.73067 z m 14.31467,13.66933 v -15.4 h 2.08267 v 15.4 z m 1.056,-18.80266 q -0.64533,0 -1.08533,-0.44 -0.44,-0.44 -0.44,-1.056 0,-0.616 0.44,-1.02667 0.44,-0.44 1.08533,-0.44 0.64533,0 1.08533,0.41067 0.44,0.41066 0.44,1.02666 0,0.64534 -0.44,1.08534 -0.41066,0.44 -1.08533,0.44 z m 16.48531,18.80266 v -3.40266 l -0.088,-0.55734 v -5.69066 q 0,-1.96534 -1.11467,-3.02134 -1.08533,-1.056 -3.256,-1.056 -1.496,0 -2.84533,0.49867 -1.34934,0.49867 -2.288,1.32 l -0.93867,-1.55467 q 1.17333,-0.99733 2.816,-1.52533 1.64267,-0.55733 3.46133,-0.55733 2.992,0 4.60534,1.496 1.64266,1.46666 1.64266,4.488 v 9.56266 z m -5.30934,0.14667 q -1.73066,0 -3.02133,-0.55733 -1.26133,-0.58667 -1.936,-1.584 -0.67467,-1.02667 -0.67467,-2.34667 0,-1.20267 0.55734,-2.17067 0.58666,-0.99733 1.87733,-1.584 1.32,-0.616 3.52,-0.616 h 5.30933 v 1.55467 h -5.25066 q -2.22934,0 -3.10934,0.792 -0.85066,0.792 -0.85066,1.96533 0,1.32 1.02666,2.112 1.02667,0.792 2.87467,0.792 1.76,0 3.02133,-0.792 1.29067,-0.82133 1.87734,-2.34666 l 0.46933,1.43733 q -0.58667,1.52533 -2.05333,2.43467 -1.43734,0.90933 -3.63734,0.90933 z m 12.96534,-0.14667 v -21.76533 h 2.08267 v 21.76533 z"
       id="path1" />
    <path
       d="m 57.752529,198.51011 v -18.656 h -7.216 v -1.87733 h 16.602667 v 1.87733 h -7.216 v 18.656 z m 18.366569,0.14667 q -1.965333,0 -3.432,-0.73333 -1.466667,-0.73334 -2.288,-2.2 -0.792,-1.46667 -0.792,-3.66667 v -8.94667 h 2.082666 v 8.712 q 0,2.464 1.202667,3.72534 1.232,1.232 3.432,1.232 1.613334,0 2.786667,-0.64534 1.202667,-0.67466 1.818667,-1.936 0.645333,-1.26133 0.645333,-3.02133 v -8.06667 h 2.082667 v 15.4 h -1.994667 v -4.224 l 0.322667,0.76267 q -0.733334,1.70133 -2.288,2.66933 -1.525334,0.93867 -3.578667,0.93867 z m 13.346691,-0.14667 v -15.4 h 1.994667 v 4.19467 l -0.205334,-0.73333 q 0.645334,-1.76 2.170667,-2.66934 1.525334,-0.93866 3.784,-0.93866 v 2.024 q -0.117333,0 -0.234666,0 -0.117334,-0.0293 -0.234667,-0.0293 -2.434667,0 -3.813333,1.496 -1.378667,1.46667 -1.378667,4.19467 v 7.86133 z m 19.397101,-15.54666 q 1.87733,0 3.28533,0.73333 1.43734,0.704 2.22934,2.17067 0.82133,1.46666 0.82133,3.696 v 8.94666 h -2.08267 v -8.74133 q 0,-2.43467 -1.232,-3.66667 -1.20266,-1.26133 -3.40266,-1.26133 -1.64267,0 -2.87467,0.67467 -1.20267,0.64533 -1.87733,1.90666 -0.64534,1.232 -0.64534,2.992 v 8.096 h -2.08266 v -15.4 h 1.99466 v 4.224 l -0.32266,-0.792 q 0.73333,-1.672 2.34666,-2.61066 1.61334,-0.968 3.84267,-0.968 z m 18.24535,15.69333 q -2.22933,0 -4.01866,-0.99733 -1.76,-1.02667 -2.78667,-2.78667 -1.02667,-1.78933 -1.02667,-4.07733 0,-2.31734 1.02667,-4.07734 1.02667,-1.76 2.78667,-2.75733 1.76,-0.99733 4.01866,-0.99733 2.288,0 4.048,0.99733 1.78934,0.99733 2.78667,2.75733 1.02667,1.76 1.02667,4.07734 0,2.288 -1.02667,4.07733 -0.99733,1.76 -2.78667,2.78667 -1.78933,0.99733 -4.048,0.99733 z m 0,-1.848 q 1.672,0 2.96267,-0.73333 1.29067,-0.76267 2.024,-2.112 0.76267,-1.37867 0.76267,-3.168 0,-1.81867 -0.76267,-3.168 -0.73333,-1.34934 -2.024,-2.08267 -1.29067,-0.76267 -2.93333,-0.76267 -1.64267,0 -2.93334,0.76267 -1.29066,0.73333 -2.05333,2.08267 -0.76267,1.34933 -0.76267,3.168 0,1.78933 0.76267,3.168 0.76267,1.34933 2.05333,2.112 1.29067,0.73333 2.904,0.73333 z m 15.63471,1.70133 -6.83467,-15.4 h 2.17067 l 6.27733,14.28534 h -1.02666 l 6.36533,-14.28534 h 2.05333 l -6.864,15.4 z m 18.04001,0.14667 q -2.40533,0 -4.224,-0.99733 -1.81866,-1.02667 -2.84533,-2.78667 -1.02667,-1.78933 -1.02667,-4.07733 0,-2.288 0.968,-4.048 0.99734,-1.76 2.69867,-2.75734 1.73067,-1.02666 3.872,-1.02666 2.17067,0 3.84267,0.99733 1.70133,0.968 2.66933,2.75733 0.968,1.76 0.968,4.07734 0,0.14666 -0.0293,0.32266 0,0.14667 0,0.32267 h -13.40534 v -1.55467 h 12.29067 l -0.82133,0.616 q 0,-1.672 -0.73334,-2.96266 -0.704,-1.32 -1.936,-2.05334 -1.232,-0.73333 -2.84533,-0.73333 -1.584,0 -2.84533,0.73333 -1.26134,0.73334 -1.96534,2.05334 -0.704,1.32 -0.704,3.02133 v 0.32267 q 0,1.76 0.76267,3.10933 0.792,1.32 2.17067,2.08267 1.408,0.73333 3.19733,0.73333 1.408,0 2.61067,-0.49867 1.232,-0.49866 2.112,-1.52533 l 1.17333,1.34933 q -1.02667,1.232 -2.58133,1.87734 -1.52534,0.64533 -3.37334,0.64533 z m 11.17601,-0.14667 v -15.4 h 1.99467 v 4.19467 l -0.20534,-0.73333 q 0.64534,-1.76 2.17067,-2.66934 1.52533,-0.93866 3.784,-0.93866 v 2.024 q -0.11733,0 -0.23467,0 -0.11733,-0.0293 -0.23466,-0.0293 -2.43467,0 -3.81334,1.496 -1.37866,1.46667 -1.37866,4.19467 v 7.86133 z"
       id="path2" />
  </g>
  <path
     sodipodi:nodetypes="ccccc"
     id="path244-6-1-2-9-3-9"
     d="m 9.73694,9.9336 h 210.87979 v 93.69972 H 9.73694 Z"
     style="fill:#ffffff;stroke:#000000;stroke-width:2"
     inkscape:connector-curvature="0" />
  <path
     d="M 62.062962,63.183468 V 42.650134 h 7.685334 q 2.610667,0 4.488,0.850667 1.877333,0.821333 2.874667,2.405333 1.026667,1.554667 1.026667,3.784 0,2.170667 -1.026667,3.754667 -0.997334,1.554667 -2.874667,2.405333 -1.877333,0.850667 -4.488,0.850667 h -6.482667 l 0.968,-1.026667 v 7.509334 z m 2.170667,-7.333334 -0.968,-1.056 h 6.424 q 3.08,0 4.664,-1.32 1.613334,-1.349333 1.613334,-3.784 0,-2.464 -1.613334,-3.813333 -1.584,-1.349334 -4.664,-1.349334 h -6.424 l 0.968,-1.026666 z m 24.350581,7.480001 q -2.229333,0 -4.018667,-0.997334 -1.76,-1.026667 -2.786666,-2.786667 -1.026667,-1.789333 -1.026667,-4.077333 0,-2.317333 1.026667,-4.077333 1.026666,-1.76 2.786666,-2.757334 1.76,-0.997333 4.018667,-0.997333 2.288,0 4.048,0.997333 1.789334,0.997334 2.786667,2.757334 1.026667,1.76 1.026667,4.077333 0,2.288 -1.026667,4.077333 -0.997333,1.76 -2.786667,2.786667 -1.789333,0.997334 -4.048,0.997334 z m 0,-1.848001 q 1.672,0 2.962667,-0.733333 1.290667,-0.762667 2.024,-2.112 0.762667,-1.378667 0.762667,-3.168 0,-1.818667 -0.762667,-3.168 -0.733333,-1.349333 -2.024,-2.082667 -1.290667,-0.762666 -2.933334,-0.762666 -1.642666,0 -2.933333,0.762666 -1.290667,0.733334 -2.053333,2.082667 -0.762667,1.349333 -0.762667,3.168 0,1.789333 0.762667,3.168 0.762666,1.349333 2.053333,2.112 1.290667,0.733333 2.904,0.733333 z m 15.63471,1.701334 -6.834668,-15.4 h 2.170666 l 6.277332,14.285333 h -1.02666 l 6.36533,-14.285333 h 2.05333 l -6.864,15.4 z m 18.04001,0.146667 q -2.40533,0 -4.224,-0.997334 -1.81867,-1.026667 -2.84533,-2.786667 -1.02667,-1.789333 -1.02667,-4.077333 0,-2.288 0.968,-4.048 0.99733,-1.76 2.69867,-2.757333 1.73066,-1.026667 3.872,-1.026667 2.17066,0 3.84266,0.997333 1.70134,0.968 2.66934,2.757334 0.968,1.76 0.968,4.077333 0,0.146667 -0.0293,0.322667 0,0.146666 0,0.322666 h -13.40533 v -1.554666 h 12.29067 l -0.82134,0.616 q 0,-1.672 -0.73333,-2.962667 -0.704,-1.32 -1.936,-2.053333 -1.232,-0.733334 -2.84533,-0.733334 -1.584,0 -2.84534,0.733334 -1.26133,0.733333 -1.96533,2.053333 -0.704,1.32 -0.704,3.021333 v 0.322667 q 0,1.76 0.76267,3.109333 0.792,1.32 2.17066,2.082667 1.408,0.733333 3.19734,0.733333 1.408,0 2.61066,-0.498666 1.232,-0.498667 2.112,-1.525334 l 1.17334,1.349334 q -1.02667,1.232 -2.58134,1.877333 -1.52533,0.645334 -3.37333,0.645334 z m 11.17601,-0.146667 v -15.4 h 1.99466 v 4.194666 l -0.20533,-0.733333 q 0.64533,-1.76 2.17067,-2.669333 1.52533,-0.938667 3.784,-0.938667 v 2.024 q -0.11734,0 -0.23467,0 -0.11733,-0.02933 -0.23467,-0.02933 -2.43466,0 -3.81333,1.496 -1.37867,1.466666 -1.37867,4.194666 v 7.861334 z m 17.07195,0.146667 q -2.17067,0 -3.344,-1.173334 -1.17333,-1.173333 -1.17333,-3.314667 V 44.380801 h 2.08266 v 14.344 q 0,1.349333 0.67467,2.082667 0.704,0.733333 1.99467,0.733333 1.37866,0 2.288,-0.792 l 0.73333,1.496 q -0.616,0.557334 -1.496,0.821334 -0.85067,0.264 -1.76,0.264 z m -7.27467,-13.816001 v -1.730666 h 9.53334 v 1.730666 z m 14.13867,19.506667 q -1.08534,0 -2.08267,-0.352 -0.968,-0.352 -1.672,-1.056 l 0.968,-1.554666 q 0.58667,0.557333 1.26133,0.850666 0.704,0.322667 1.55467,0.322667 1.02667,0 1.76,-0.586667 0.76267,-0.557333 1.43733,-1.994666 l 0.99734,-2.258667 0.23466,-0.322667 6.33601,-14.285333 h 2.05333 l -7.71467,17.248 q -0.64533,1.496 -1.43733,2.376 -0.76267,0.88 -1.672,1.232 -0.90934,0.381333 -2.024,0.381333 z m 4.10666,-5.397333 -7.09866,-15.84 h 2.17066 l 6.27734,14.138667 z"
     id="text4126-2-1-5-6-5-9-3-7"
     style="font-size:29.3333px;line-height:1.25;font-family:Montserrat;-inkscape-font-specification:'Montserrat, @wght=400';font-variation-settings:'wght' 400;text-align:center;letter-spacing:0px;word-spacing:0px;text-anchor:middle"
     aria-label="Poverty" />
  <path
     inkscape:connector-curvature="0"
     style="fill:#ffffff;stroke:#000000;stroke-width:2"
     d="m 9.73693,236.70053 h 210.87979 v 93.69972 H 9.73693 Z"
     id="path244-6-1-2-9-3-97"
     sodipodi:nodetypes="ccccc" />
  <g
     id="text4126-2-1-5-6-5-9-3-3"
     style="font-size:26.6667px;line-height:1.25;font-family:Montserrat;-inkscape-font-specification:'Montserrat, @wght=400';font-variation-settings:'wght' 400;text-align:center;letter-spacing:0px;word-spacing:0px;text-anchor:middle"
     aria-label="Ethnic&#10;Heterogeneity">
    <path
       style="font-size:26.6667px"
       d="m 77.16372,264.90693 h 9.866666 v 1.68 H 77.16372 Z m 0.213333,8.61333 h 11.226666 v 1.70667 H 75.40372 v -18.66667 h 12.799999 v 1.70667 H 77.377053 Z m 19.49601,1.84 q -1.973334,0 -3.04,-1.06666 -1.066667,-1.06667 -1.066667,-3.01334 V 258.1336 h 1.893333 v 13.04 q 0,1.22666 0.613334,1.89333 0.64,0.66667 1.813333,0.66667 1.253333,0 2.08,-0.72 l 0.666667,1.36 q -0.56,0.50666 -1.36,0.74666 -0.773334,0.24 -1.6,0.24 z m -6.613333,-12.56 v -1.57333 h 8.666666 v 1.57333 z m 20.16,-1.70666 q 1.70667,0 2.98667,0.66666 1.30667,0.64 2.02667,1.97334 0.74666,1.33333 0.74666,3.36 v 8.13333 h -1.89333 v -7.94667 q 0,-2.21333 -1.12,-3.33333 -1.09333,-1.14667 -3.09333,-1.14667 -1.49334,0 -2.61334,0.61334 -1.09333,0.58666 -1.70666,1.73333 -0.58667,1.12 -0.58667,2.72 v 7.36 h -1.89333 v -19.78667 h 1.89333 v 9.62667 l -0.37333,-0.72 q 0.66666,-1.52 2.13333,-2.37333 1.46667,-0.88 3.49333,-0.88 z m 18.02668,0 q 1.70667,0 2.98667,0.66666 1.30667,0.64 2.02667,1.97334 0.74666,1.33333 0.74666,3.36 v 8.13333 h -1.89333 v -7.94667 q 0,-2.21333 -1.12,-3.33333 -1.09333,-1.14667 -3.09333,-1.14667 -1.49334,0 -2.61334,0.61334 -1.09333,0.58666 -1.70666,1.73333 -0.58667,1.12 -0.58667,2.72 v 7.36 h -1.89333 v -14 h 1.81333 v 3.84 l -0.29333,-0.72 q 0.66666,-1.52 2.13333,-2.37333 1.46667,-0.88 3.49333,-0.88 z m 10.88002,14.13333 v -14 h 1.89333 v 14 z m 0.96,-17.09333 q -0.58667,0 -0.98667,-0.4 -0.4,-0.4 -0.4,-0.96 0,-0.56 0.4,-0.93334 0.4,-0.4 0.98667,-0.4 0.58666,0 0.98666,0.37334 0.4,0.37333 0.4,0.93333 0,0.58667 -0.4,0.98667 -0.37333,0.4 -0.98666,0.4 z m 12.02664,17.22666 q -2.08,0 -3.73333,-0.90666 -1.62667,-0.93334 -2.56,-2.53334 -0.93334,-1.62666 -0.93334,-3.70666 0,-2.10667 0.93334,-3.70667 0.93333,-1.6 2.56,-2.50667 1.65333,-0.90666 3.73333,-0.90666 1.78667,0 3.22667,0.69333 1.44,0.69333 2.26666,2.08 l -1.41333,0.96 q -0.72,-1.06667 -1.78667,-1.57333 -1.06666,-0.50667 -2.32,-0.50667 -1.49333,0 -2.69333,0.69333 -1.2,0.66667 -1.89333,1.89334 -0.69334,1.22666 -0.69334,2.88 0,1.65333 0.69334,2.88 0.69333,1.22666 1.89333,1.92 1.2,0.66666 2.69333,0.66666 1.25334,0 2.32,-0.50666 1.06667,-0.50667 1.78667,-1.54667 l 1.41333,0.96 q -0.82666,1.36 -2.26666,2.08 -1.44,0.69333 -3.22667,0.69333 z"
       id="path3" />
    <path
       style="font-size:26.6667px"
       d="m 36.319754,289.89364 h 1.946667 V 308.5603 H 36.319754 Z M 24.639755,308.5603 h -1.973334 v -18.66666 h 1.973334 z m 11.866666,-8.61333 h -12.08 v -1.73333 h 12.08 z m 13.386659,8.74667 q -2.186666,0 -3.839999,-0.90667 -1.653334,-0.93333 -2.586667,-2.53333 -0.933333,-1.62667 -0.933333,-3.70667 0,-2.08 0.88,-3.68 0.906666,-1.6 2.453333,-2.50667 1.573333,-0.93333 3.52,-0.93333 1.973333,0 3.493333,0.90667 1.546667,0.88 2.426667,2.50666 0.88,1.6 0.88,3.70667 0,0.13333 -0.02667,0.29333 0,0.13334 0,0.29334 H 43.973081 v -1.41334 h 11.173333 l -0.746667,0.56 q 0,-1.52 -0.666667,-2.69333 -0.64,-1.2 -1.76,-1.86667 -1.12,-0.66666 -2.586666,-0.66666 -1.44,0 -2.586667,0.66666 -1.146666,0.66667 -1.786666,1.86667 -0.64,1.2 -0.64,2.74667 v 0.29333 q 0,1.6 0.693333,2.82667 0.72,1.2 1.973333,1.89333 1.28,0.66667 2.906667,0.66667 1.28,0 2.373333,-0.45334 1.12,-0.45333 1.92,-1.38666 l 1.066667,1.22666 q -0.933334,1.12 -2.346667,1.70667 -1.386667,0.58667 -3.066667,0.58667 z m 14.586667,0 q -1.973333,0 -3.04,-1.06667 -1.066666,-1.06667 -1.066666,-3.01333 v -13.14667 h 1.893333 v 13.04 q 0,1.22667 0.613333,1.89333 0.64,0.66667 1.813333,0.66667 1.253334,0 2.08,-0.72 l 0.666667,1.36 q -0.56,0.50667 -1.36,0.74667 -0.773333,0.24 -1.6,0.24 z m -6.613333,-12.56 v -1.57334 h 8.666666 v 1.57334 z m 18.456873,12.56 q -2.186667,0 -3.84,-0.90667 -1.653333,-0.93333 -2.586667,-2.53333 -0.933333,-1.62667 -0.933333,-3.70667 0,-2.08 0.88,-3.68 0.906667,-1.6 2.453333,-2.50667 1.573334,-0.93333 3.52,-0.93333 1.973333,0 3.493333,0.90667 1.546667,0.88 2.426667,2.50666 0.88,1.6 0.88,3.70667 0,0.13333 -0.02667,0.29333 0,0.13334 0,0.29334 H 70.403287 V 300.7203 H 81.57662 l -0.746667,0.56 q 0,-1.52 -0.666666,-2.69333 -0.64,-1.2 -1.76,-1.86667 -1.12,-0.66666 -2.586667,-0.66666 -1.44,0 -2.586666,0.66666 -1.146667,0.66667 -1.786667,1.86667 -0.64,1.2 -0.64,2.74667 v 0.29333 q 0,1.6 0.693333,2.82667 0.72,1.2 1.973334,1.89333 1.279999,0.66667 2.906666,0.66667 1.28,0 2.373333,-0.45334 1.12,-0.45333 1.92,-1.38666 l 1.066667,1.22666 q -0.933333,1.12 -2.346667,1.70667 -1.386666,0.58667 -3.066666,0.58667 z m 10.16,-0.13334 v -14 h 1.813333 v 3.81334 l -0.186667,-0.66667 q 0.586667,-1.6 1.973334,-2.42667 1.386666,-0.85333 3.44,-0.85333 v 1.84 q -0.106667,0 -0.213334,0 -0.106666,-0.0267 -0.213333,-0.0267 -2.213333,0 -3.466667,1.36 -1.253333,1.33334 -1.253333,3.81334 v 7.14666 z m 16.060423,0.13334 q -2.02667,0 -3.653338,-0.90667 -1.6,-0.93333 -2.533333,-2.53333 -0.933333,-1.62667 -0.933333,-3.70667 0,-2.10667 0.933333,-3.70667 0.933333,-1.6 2.533333,-2.50666 1.599998,-0.90667 3.653338,-0.90667 2.08,0 3.68,0.90667 1.62666,0.90666 2.53333,2.50666 0.93333,1.6 0.93333,3.70667 0,2.08 -0.93333,3.70667 -0.90667,1.6 -2.53333,2.53333 -1.62667,0.90667 -3.68,0.90667 z m 0,-1.68 q 1.52,0 2.69333,-0.66667 1.17333,-0.69333 1.84,-1.92 0.69333,-1.25333 0.69333,-2.88 0,-1.65333 -0.69333,-2.88 -0.66667,-1.22667 -1.84,-1.89333 -1.17333,-0.69334 -2.66667,-0.69334 -1.49333,0 -2.666664,0.69334 -1.173334,0.66666 -1.866667,1.89333 -0.693333,1.22667 -0.693333,2.88 0,1.62667 0.693333,2.88 0.693333,1.22667 1.866667,1.92 1.173334,0.66667 2.640004,0.66667 z m 16.98668,6.85333 q -1.92,0 -3.68,-0.56 -1.76,-0.56 -2.85333,-1.6 l 0.96,-1.44 q 0.98666,0.88 2.42666,1.38667 1.46667,0.53333 3.09334,0.53333 2.66666,0 3.92,-1.25333 1.25333,-1.22667 1.25333,-3.84 v -3.49334 l 0.26667,-2.4 -0.18667,-2.4 v -4.24 h 1.81333 v 12.29334 q 0,3.62666 -1.78666,5.30666 -1.76,1.70667 -5.22667,1.70667 z m -0.34667,-5.84 q -2,0 -3.6,-0.85333 -1.6,-0.88 -2.53333,-2.42667 -0.90667,-1.54667 -0.90667,-3.54667 0,-2 0.90667,-3.52 0.93333,-1.54666 2.53333,-2.4 1.6,-0.85333 3.6,-0.85333 1.86667,0 3.36,0.77333 1.49334,0.77334 2.37334,2.29334 0.88,1.52 0.88,3.70666 0,2.18667 -0.88,3.70667 -0.88,1.52 -2.37334,2.32 -1.49333,0.8 -3.36,0.8 z m 0.18667,-1.68 q 1.54667,0 2.74667,-0.64 1.2,-0.66667 1.89333,-1.81333 0.69333,-1.17334 0.69333,-2.69334 0,-1.52 -0.69333,-2.66666 -0.69333,-1.14667 -1.89333,-1.78667 -1.2,-0.66667 -2.74667,-0.66667 -1.52,0 -2.74667,0.66667 -1.2,0.64 -1.89333,1.78667 -0.66667,1.14666 -0.66667,2.66666 0,1.52 0.66667,2.69334 0.69333,1.14666 1.89333,1.81333 1.22667,0.64 2.74667,0.64 z m 18.39999,2.34667 q -2.18667,0 -3.84,-0.90667 -1.65334,-0.93333 -2.58667,-2.53333 -0.93333,-1.62667 -0.93333,-3.70667 0,-2.08 0.88,-3.68 0.90666,-1.6 2.45333,-2.50667 1.57333,-0.93333 3.52,-0.93333 1.97333,0 3.49333,0.90667 1.54667,0.88 2.42667,2.50666 0.88,1.6 0.88,3.70667 0,0.13333 -0.0267,0.29333 0,0.13334 0,0.29334 h -12.18666 v -1.41334 h 11.17333 l -0.74667,0.56 q 0,-1.52 -0.66666,-2.69333 -0.64,-1.2 -1.76,-1.86667 -1.12,-0.66666 -2.58667,-0.66666 -1.44,0 -2.58667,0.66666 -1.14666,0.66667 -1.78666,1.86667 -0.64,1.2 -0.64,2.74667 v 0.29333 q 0,1.6 0.69333,2.82667 0.72,1.2 1.97333,1.89333 1.28,0.66667 2.90667,0.66667 1.28,0 2.37333,-0.45334 1.12,-0.45333 1.92,-1.38666 l 1.06667,1.22666 q -0.93333,1.12 -2.34667,1.70667 -1.38666,0.58667 -3.06666,0.58667 z m 17.30666,-14.26667 q 1.70667,0 2.98667,0.66667 1.30667,0.64 2.02667,1.97333 0.74666,1.33333 0.74666,3.36 v 8.13333 h -1.89333 v -7.94666 q 0,-2.21334 -1.12,-3.33334 -1.09333,-1.14666 -3.09333,-1.14666 -1.49334,0 -2.61334,0.61333 -1.09333,0.58667 -1.70666,1.73333 -0.58667,1.12 -0.58667,2.72 v 7.36 h -1.89333 v -14 h 1.81333 v 3.84 l -0.29333,-0.72 q 0.66666,-1.52 2.13333,-2.37333 1.46667,-0.88 3.49333,-0.88 z m 16.82669,14.26667 q -2.18667,0 -3.84,-0.90667 -1.65333,-0.93333 -2.58667,-2.53333 -0.93333,-1.62667 -0.93333,-3.70667 0,-2.08 0.88,-3.68 0.90667,-1.6 2.45333,-2.50667 1.57334,-0.93333 3.52,-0.93333 1.97334,0 3.49334,0.90667 1.54666,0.88 2.42666,2.50666 0.88,1.6 0.88,3.70667 0,0.13333 -0.0267,0.29333 0,0.13334 0,0.29334 h -12.18667 v -1.41334 h 11.17333 l -0.74666,0.56 q 0,-1.52 -0.66667,-2.69333 -0.64,-1.2 -1.76,-1.86667 -1.12,-0.66666 -2.58667,-0.66666 -1.44,0 -2.58666,0.66666 -1.14667,0.66667 -1.78667,1.86667 -0.64,1.2 -0.64,2.74667 v 0.29333 q 0,1.6 0.69333,2.82667 0.72,1.2 1.97334,1.89333 1.28,0.66667 2.90666,0.66667 1.28,0 2.37334,-0.45334 1.12,-0.45333 1.92,-1.38666 l 1.06666,1.22666 q -0.93333,1.12 -2.34666,1.70667 -1.38667,0.58667 -3.06667,0.58667 z m 10.15999,-0.13334 v -14 h 1.89334 v 14 z m 0.96,-17.09333 q -0.58666,0 -0.98666,-0.4 -0.4,-0.4 -0.4,-0.96 0,-0.56 0.4,-0.93333 0.4,-0.4 0.98666,-0.4 0.58667,0 0.98667,0.37333 0.4,0.37333 0.4,0.93333 0,0.58667 -0.4,0.98667 -0.37333,0.4 -0.98667,0.4 z m 10.63998,17.22667 q -1.97333,0 -3.04,-1.06667 -1.06667,-1.06667 -1.06667,-3.01333 v -13.14667 h 1.89334 v 13.04 q 0,1.22667 0.61333,1.89333 0.64,0.66667 1.81333,0.66667 1.25334,0 2.08,-0.72 l 0.66667,1.36 q -0.56,0.50667 -1.36,0.74667 -0.77333,0.24 -1.6,0.24 z m -6.61333,-12.56 v -1.57334 h 8.66666 v 1.57334 z m 12.85333,17.73333 q -0.98667,0 -1.89334,-0.32 -0.88,-0.32 -1.52,-0.96 l 0.88,-1.41333 q 0.53334,0.50666 1.14667,0.77333 0.64,0.29333 1.41333,0.29333 0.93334,0 1.6,-0.53333 0.69334,-0.50667 1.30667,-1.81333 l 0.90667,-2.05334 0.21333,-0.29333 5.76,-12.98667 h 1.86667 l -7.01334,15.68 q -0.58666,1.36 -1.30666,2.16 -0.69334,0.8 -1.52,1.12 -0.82667,0.34667 -1.84,0.34667 z m 3.73333,-4.90667 -6.45333,-14.4 h 1.97333 l 5.70667,12.85334 z"
       id="path4" />
  </g>
  <path
     sodipodi:nodetypes="ccccc"
     id="path244-6-1-2-9-3-3-4-1"
     d="m 1040.6454,123.31707 h 210.8797 v 93.69972 h -210.8797 z"
     style="fill:#ffffff;stroke:#000000;stroke-width:2"
     inkscape:connector-curvature="0" />
  <g
     id="text4126-2-1-5-6-5-9-3-75-7-4"
     style="font-size:29.3333px;line-height:1.25;font-family:Montserrat;-inkscape-font-specification:'Montserrat, @wght=400';font-variation-settings:'wght' 400;text-align:center;letter-spacing:0px;word-spacing:0px;text-anchor:middle"
     aria-label="Delinquent&#10;Tradition">
    <path
       d="M 1065.8374,161.83093 V 141.2976 h 8.36 q 3.2853,0 5.7493,1.32 2.4933,1.29067 3.872,3.608 1.3787,2.31733 1.3787,5.33867 0,3.02133 -1.3787,5.33866 -1.3787,2.31734 -3.872,3.63734 -2.464,1.29066 -5.7493,1.29066 z m 2.1706,-1.87733 h 6.072 q 2.728,0 4.7227,-1.056 2.024,-1.08533 3.1387,-2.96267 1.1146,-1.90666 1.1146,-4.37066 0,-2.49334 -1.1146,-4.37067 -1.1147,-1.87733 -3.1387,-2.93333 -1.9947,-1.08534 -4.7227,-1.08534 h -6.072 z m 28.16,2.024 q -2.4053,0 -4.224,-0.99733 -1.8186,-1.02667 -2.8453,-2.78667 -1.0267,-1.78933 -1.0267,-4.07733 0,-2.288 0.968,-4.048 0.9974,-1.76 2.6987,-2.75734 1.7307,-1.02666 3.872,-1.02666 2.1707,0 3.8427,0.99733 1.7013,0.968 2.6693,2.75733 0.968,1.76 0.968,4.07734 0,0.14666 -0.029,0.32266 0,0.14667 0,0.32267 h -13.4054 v -1.55467 h 12.2907 l -0.8213,0.616 q 0,-1.672 -0.7334,-2.96266 -0.704,-1.32 -1.936,-2.05334 -1.232,-0.73333 -2.8453,-0.73333 -1.584,0 -2.8453,0.73333 -1.2614,0.73334 -1.9654,2.05334 -0.704,1.32 -0.704,3.02133 v 0.32267 q 0,1.76 0.7627,3.10933 0.792,1.32 2.1707,2.08267 1.408,0.73333 3.1973,0.73333 1.408,0 2.6107,-0.49867 1.232,-0.49866 2.112,-1.52533 l 1.1733,1.34933 q -1.0267,1.232 -2.5813,1.87734 -1.5254,0.64533 -3.3734,0.64533 z m 11.1761,-0.14667 V 140.0656 h 2.0826 v 21.76533 z m 7.8906,0 v -15.4 h 2.0827 v 15.4 z m 1.056,-18.80266 q -0.6453,0 -1.0853,-0.44 -0.44,-0.44 -0.44,-1.056 0,-0.616 0.44,-1.02667 0.44,-0.44 1.0853,-0.44 0.6453,0 1.0853,0.41067 0.44,0.41066 0.44,1.02666 0,0.64534 -0.44,1.08534 -0.4106,0.44 -1.0853,0.44 z m 14.696,3.256 q 1.8773,0 3.2853,0.73333 1.4373,0.704 2.2293,2.17067 0.8214,1.46666 0.8214,3.696 v 8.94666 h -2.0827 v -8.74133 q 0,-2.43467 -1.232,-3.66667 -1.2027,-1.26133 -3.4027,-1.26133 -1.6426,0 -2.8746,0.67467 -1.2027,0.64533 -1.8774,1.90666 -0.6453,1.232 -0.6453,2.992 v 8.096 h -2.0827 v -15.4 h 1.9947 v 4.224 l -0.3227,-0.792 q 0.7334,-1.672 2.3467,-2.61066 1.6133,-0.968 3.8427,-0.968 z m 18.0987,15.69333 q -2.2,0 -3.96,-0.99733 -1.7307,-0.99734 -2.728,-2.75734 -0.9974,-1.76 -0.9974,-4.10666 0,-2.31734 0.9974,-4.07734 0.9973,-1.78933 2.728,-2.75733 1.76,-0.99733 3.96,-0.99733 2.0533,0 3.6373,0.90933 1.6133,0.90933 2.552,2.66933 0.9387,1.73067 0.9387,4.25334 0,2.52266 -0.968,4.28266 -0.9387,1.73067 -2.552,2.66934 -1.584,0.90933 -3.608,0.90933 z m 0.1466,-1.848 q 1.6427,0 2.9334,-0.73333 1.32,-0.76267 2.0533,-2.112 0.7627,-1.37867 0.7627,-3.168 0,-1.78934 -0.7627,-3.13867 -0.7333,-1.34933 -2.0533,-2.112 -1.2907,-0.76267 -2.9334,-0.76267 -1.6133,0 -2.904,0.76267 -1.2906,0.76267 -2.0533,2.112 -0.7627,1.34933 -0.7627,3.13867 0,1.78933 0.7627,3.168 0.7627,1.34933 2.0533,2.112 1.2907,0.73333 2.904,0.73333 z m 5.72,7.392 v -10.26667 l 0.2934,-3.10933 -0.2054,-3.08 v -4.63467 h 1.9947 v 21.09067 z m 14.256,-5.544 q -1.9653,0 -3.432,-0.73333 -1.4667,-0.73334 -2.288,-2.2 -0.792,-1.46667 -0.792,-3.66667 v -8.94667 h 2.0827 v 8.712 q 0,2.464 1.2026,3.72534 1.232,1.232 3.432,1.232 1.6134,0 2.7867,-0.64534 1.2027,-0.67466 1.8187,-1.936 0.6453,-1.26133 0.6453,-3.02133 v -8.06667 h 2.0827 v 15.4 h -1.9947 v -4.224 l 0.3227,0.76267 q -0.7334,1.70133 -2.288,2.66933 -1.5254,0.93867 -3.5787,0.93867 z m 19.888,0 q -2.4053,0 -4.224,-0.99733 -1.8186,-1.02667 -2.8453,-2.78667 -1.0267,-1.78933 -1.0267,-4.07733 0,-2.288 0.968,-4.048 0.9974,-1.76 2.6987,-2.75734 1.7307,-1.02666 3.872,-1.02666 2.1707,0 3.8427,0.99733 1.7013,0.968 2.6693,2.75733 0.968,1.76 0.968,4.07734 0,0.14666 -0.029,0.32266 0,0.14667 0,0.32267 h -13.4054 v -1.55467 h 12.2907 l -0.8213,0.616 q 0,-1.672 -0.7334,-2.96266 -0.704,-1.32 -1.936,-2.05334 -1.232,-0.73333 -2.8453,-0.73333 -1.584,0 -2.8453,0.73333 -1.2614,0.73334 -1.9654,2.05334 -0.704,1.32 -0.704,3.02133 v 0.32267 q 0,1.76 0.7627,3.10933 0.792,1.32 2.1707,2.08267 1.408,0.73333 3.1973,0.73333 1.408,0 2.6107,-0.49867 1.232,-0.49866 2.112,-1.52533 l 1.1733,1.34933 q -1.0267,1.232 -2.5813,1.87734 -1.5254,0.64533 -3.3734,0.64533 z m 19.0374,-15.69333 q 1.8773,0 3.2853,0.73333 1.4373,0.704 2.2293,2.17067 0.8214,1.46666 0.8214,3.696 v 8.94666 h -2.0827 v -8.74133 q 0,-2.43467 -1.232,-3.66667 -1.2027,-1.26133 -3.4027,-1.26133 -1.6426,0 -2.8746,0.67467 -1.2027,0.64533 -1.8774,1.90666 -0.6453,1.232 -0.6453,2.992 v 8.096 h -2.0827 v -15.4 h 1.9947 v 4.224 l -0.3227,-0.792 q 0.7334,-1.672 2.3467,-2.61066 1.6133,-0.968 3.8427,-0.968 z m 16.8373,15.69333 q -2.1706,0 -3.344,-1.17333 -1.1733,-1.17334 -1.1733,-3.31467 v -14.46133 h 2.0827 v 14.344 q 0,1.34933 0.6746,2.08266 0.704,0.73334 1.9947,0.73334 1.3787,0 2.288,-0.792 l 0.7333,1.496 q -0.616,0.55733 -1.496,0.82133 -0.8506,0.264 -1.76,0.264 z m -7.2746,-13.816 v -1.73067 h 9.5333 v 1.73067 z"
       id="path9" />
    <path
       d="m 1088.1752,198.4976 v -18.656 h -7.216 v -1.87733 h 16.6027 v 1.87733 h -7.216 v 18.656 z m 12.0013,0 v -15.4 h 1.9946 v 4.19467 l -0.2053,-0.73334 q 0.6453,-1.76 2.1707,-2.66933 1.5253,-0.93867 3.784,-0.93867 v 2.024 q -0.1174,0 -0.2347,0 -0.1173,-0.0293 -0.2347,-0.0293 -2.4346,0 -3.8133,1.496 -1.3787,1.46667 -1.3787,4.19467 v 7.86133 z m 20.0297,0 v -3.40267 l -0.088,-0.55733 v -5.69067 q 0,-1.96533 -1.1147,-3.02133 -1.0853,-1.056 -3.256,-1.056 -1.496,0 -2.8453,0.49867 -1.3493,0.49866 -2.288,1.32 l -0.9387,-1.55467 q 1.1734,-0.99733 2.816,-1.52533 1.6427,-0.55734 3.4614,-0.55734 2.992,0 4.6053,1.496 1.6427,1.46667 1.6427,4.488 v 9.56267 z m -5.3093,0.14667 q -1.7307,0 -3.0214,-0.55734 -1.2613,-0.58666 -1.936,-1.584 -0.6746,-1.02666 -0.6746,-2.34666 0,-1.20267 0.5573,-2.17067 0.5867,-0.99733 1.8773,-1.584 1.32,-0.616 3.52,-0.616 h 5.3094 v 1.55467 h -5.2507 q -2.2293,0 -3.1093,0.792 -0.8507,0.792 -0.8507,1.96533 0,1.32 1.0267,2.112 1.0266,0.792 2.8746,0.792 1.76,0 3.0214,-0.792 1.2906,-0.82133 1.8773,-2.34667 l 0.4693,1.43734 q -0.5866,1.52533 -2.0533,2.43466 -1.4373,0.90934 -3.6373,0.90934 z m 19.096,0 q -2.2,0 -3.96,-0.99734 -1.7307,-0.99733 -2.728,-2.75733 -0.9973,-1.78933 -0.9973,-4.10667 0,-2.34666 0.9973,-4.10666 0.9973,-1.76 2.728,-2.728 1.76,-0.99734 3.96,-0.99734 2.024,0 3.608,0.90934 1.6133,0.90933 2.552,2.66933 0.968,1.73067 0.968,4.25333 0,2.49334 -0.9387,4.25334 -0.9386,1.76 -2.552,2.69866 -1.584,0.90934 -3.6373,0.90934 z m 0.1467,-1.848 q 1.6426,0 2.9333,-0.73334 1.32,-0.76266 2.0533,-2.112 0.7627,-1.37866 0.7627,-3.168 0,-1.81866 -0.7627,-3.168 -0.7333,-1.34933 -2.0533,-2.08266 -1.2907,-0.76267 -2.9333,-0.76267 -1.6134,0 -2.904,0.76267 -1.2907,0.73333 -2.0534,2.08266 -0.7626,1.34934 -0.7626,3.168 0,1.78934 0.7626,3.168 0.7627,1.34934 2.0534,2.112 1.2906,0.73334 2.904,0.73334 z m 5.808,1.70133 v -4.63467 l 0.2053,-3.10933 -0.2933,-3.10933 v -10.912 h 2.0826 v 21.76533 z m 7.8026,0 v -15.4 h 2.0827 v 15.4 z m 1.056,-18.80267 q -0.6453,0 -1.0853,-0.44 -0.44,-0.44 -0.44,-1.056 0,-0.616 0.44,-1.02666 0.44,-0.44 1.0853,-0.44 0.6453,0 1.0853,0.41066 0.44,0.41067 0.44,1.02667 0,0.64533 -0.44,1.08533 -0.4106,0.44 -1.0853,0.44 z m 11.704,18.94934 q -2.1707,0 -3.344,-1.17334 -1.1734,-1.17333 -1.1734,-3.31466 v -14.46134 h 2.0827 v 14.344 q 0,1.34934 0.6747,2.08267 0.704,0.73333 1.9946,0.73333 1.3787,0 2.288,-0.792 l 0.7334,1.496 q -0.616,0.55734 -1.496,0.82134 -0.8507,0.264 -1.76,0.264 z m -7.2747,-13.816 v -1.73067 h 9.5333 v 1.73067 z m 14.3147,13.66933 v -15.4 h 2.0826 v 15.4 z m 1.056,-18.80267 q -0.6454,0 -1.0854,-0.44 -0.44,-0.44 -0.44,-1.056 0,-0.616 0.44,-1.02666 0.44,-0.44 1.0854,-0.44 0.6453,0 1.0853,0.41066 0.44,0.41067 0.44,1.02667 0,0.64533 -0.44,1.08533 -0.4107,0.44 -1.0853,0.44 z m 13.112,18.94934 q -2.2294,0 -4.0187,-0.99734 -1.76,-1.02666 -2.7867,-2.78666 -1.0266,-1.78934 -1.0266,-4.07734 0,-2.31733 1.0266,-4.07733 1.0267,-1.76 2.7867,-2.75733 1.76,-0.99734 4.0187,-0.99734 2.288,0 4.048,0.99734 1.7893,0.99733 2.7866,2.75733 1.0267,1.76 1.0267,4.07733 0,2.288 -1.0267,4.07734 -0.9973,1.76 -2.7866,2.78666 -1.7894,0.99734 -4.048,0.99734 z m 0,-1.848 q 1.672,0 2.9626,-0.73334 1.2907,-0.76266 2.024,-2.112 0.7627,-1.37866 0.7627,-3.168 0,-1.81866 -0.7627,-3.168 -0.7333,-1.34933 -2.024,-2.08266 -1.2906,-0.76267 -2.9333,-0.76267 -1.6427,0 -2.9333,0.76267 -1.2907,0.73333 -2.0534,2.08266 -0.7626,1.34934 -0.7626,3.168 0,1.78934 0.7626,3.168 0.7627,1.34934 2.0534,2.112 1.2906,0.73334 2.904,0.73334 z m 19.976,-13.84534 q 1.8773,0 3.2853,0.73334 1.4373,0.704 2.2293,2.17066 0.8214,1.46667 0.8214,3.696 v 8.94667 h -2.0827 v -8.74133 q 0,-2.43467 -1.232,-3.66667 -1.2027,-1.26133 -3.4027,-1.26133 -1.6426,0 -2.8746,0.67466 -1.2027,0.64534 -1.8774,1.90667 -0.6453,1.232 -0.6453,2.992 v 8.096 h -2.0827 v -15.4 h 1.9947 v 4.224 l -0.3227,-0.792 q 0.7334,-1.672 2.3467,-2.61067 1.6133,-0.968 3.8427,-0.968 z"
       id="path10" />
  </g>
  <path
     inkscape:connector-curvature="0"
     style="fill:#ffffff;stroke:#000000;stroke-width:2"
     d="M 805.02383,1 H 1015.9036 V 94.69972 H 805.02383 Z"
     id="path244-6-1-2-9-3-3-4"
     sodipodi:nodetypes="ccccc" />
  <path
     d="m 875.47093,54.697866 q -2.34667,0 -4.34133,-0.762667 -1.96534,-0.792 -3.432,-2.2 -1.43734,-1.408 -2.25867,-3.314667 -0.792,-1.906666 -0.792,-4.165333 0,-2.258667 0.792,-4.165333 0.82133,-1.906667 2.288,-3.314667 1.46667,-1.408 3.432,-2.170667 1.99467,-0.792 4.34133,-0.792 2.34667,0 4.28267,0.733333 1.96533,0.733334 3.344,2.229334 l -1.34933,1.378666 q -1.29067,-1.290666 -2.84534,-1.848 -1.55466,-0.557333 -3.344,-0.557333 -1.90666,0 -3.52,0.645333 -1.584,0.616 -2.78666,1.789334 -1.17334,1.144 -1.848,2.698667 -0.64534,1.525333 -0.64534,3.373333 0,1.818667 0.64534,3.373333 0.67466,1.554667 1.848,2.728 1.20266,1.144 2.78666,1.789334 1.61334,0.616 3.49067,0.616 1.76,0 3.31467,-0.528 1.584,-0.528 2.904,-1.789334 l 1.232,1.642667 q -1.46667,1.290667 -3.432,1.965334 -1.96534,0.645333 -4.10667,0.645333 z m 5.456,-2.874667 v -7.568 h 2.08267 v 7.832 z m 17.42402,2.698667 v -3.402667 l -0.088,-0.557333 v -5.690667 q 0,-1.965333 -1.11467,-3.021333 -1.08533,-1.056 -3.256,-1.056 -1.496,0 -2.84533,0.498666 -1.34933,0.498667 -2.288,1.32 l -0.93867,-1.554666 q 1.17334,-0.997334 2.816,-1.525334 1.64267,-0.557333 3.46134,-0.557333 2.992,0 4.60533,1.496 1.64267,1.466667 1.64267,4.488 v 9.562667 z m -5.30933,0.146667 q -1.73067,0 -3.02134,-0.557334 -1.26133,-0.586667 -1.936,-1.584 -0.67466,-1.026667 -0.67466,-2.346667 0,-1.202666 0.55733,-2.170666 0.58667,-0.997334 1.87733,-1.584 1.32,-0.616 3.52,-0.616 h 5.30934 v 1.554666 h -5.25067 q -2.22933,0 -3.10933,0.792 -0.85067,0.792 -0.85067,1.965334 0,1.32 1.02667,2.112 1.02666,0.792 2.87466,0.792 1.76,0 3.02134,-0.792 1.29066,-0.821334 1.87733,-2.346667 l 0.46933,1.437333 q -0.58666,1.525334 -2.05333,2.434667 -1.43733,0.909334 -3.63733,0.909334 z m 20.82667,-15.693334 q 1.87733,0 3.28533,0.733333 1.43734,0.704 2.22934,2.170667 0.82133,1.466667 0.82133,3.696 v 8.946667 h -2.08267 v -8.741334 q 0,-2.434666 -1.232,-3.666666 -1.20266,-1.261334 -3.40266,-1.261334 -1.64267,0 -2.87467,0.674667 -1.20267,0.645333 -1.87733,1.906667 -0.64534,1.232 -0.64534,2.992 v 8.096 h -2.08266 v -15.4 h 1.99466 v 4.224 l -0.32266,-0.792 q 0.73333,-1.672 2.34666,-2.610667 1.61334,-0.968 3.84267,-0.968 z m 18.53868,21.384 q -2.112,0 -4.048,-0.616 -1.936,-0.616 -3.13866,-1.76 l 1.056,-1.584 q 1.08533,0.968 2.66933,1.525334 1.61333,0.586666 3.40267,0.586666 2.93333,0 4.312,-1.378666 1.37866,-1.349334 1.37866,-4.224001 v -3.842666 l 0.29334,-2.64 -0.20534,-2.64 v -4.664 h 1.99467 v 13.522666 q 0,3.989334 -1.96533,5.837334 -1.936,1.877333 -5.74934,1.877333 z m -0.38133,-6.424 q -2.2,0 -3.96,-0.938667 -1.76,-0.968 -2.78667,-2.669333 -0.99733,-1.701333 -0.99733,-3.901333 0,-2.2 0.99733,-3.872 1.02667,-1.701334 2.78667,-2.64 1.76,-0.938667 3.96,-0.938667 2.05333,0 3.696,0.850667 1.64267,0.850666 2.61067,2.522666 0.968,1.672 0.968,4.077334 0,2.405333 -0.968,4.077333 -0.968,1.672 -2.61067,2.552 -1.64267,0.88 -3.696,0.88 z m 0.20533,-1.848 q 1.70134,0 3.02134,-0.704 1.32,-0.733333 2.08266,-1.994667 0.76267,-1.290666 0.76267,-2.962666 0,-1.672 -0.76267,-2.933334 -0.76266,-1.261333 -2.08266,-1.965333 -1.32,-0.733333 -3.02134,-0.733333 -1.672,0 -3.02133,0.733333 -1.32,0.704 -2.08267,1.965333 -0.73333,1.261334 -0.73333,2.933334 0,1.672 0.73333,2.962666 0.76267,1.261334 2.08267,1.994667 1.34933,0.704 3.02133,0.704 z m 17.83466,2.581334 q -1.90667,0 -3.608,-0.528 -1.70134,-0.557334 -2.66934,-1.378667 l 0.93867,-1.642667 q 0.93867,0.704 2.40533,1.232 1.46667,0.498667 3.08,0.498667 2.2,0 3.168,-0.674667 0.968,-0.704 0.968,-1.848 0,-0.850667 -0.55733,-1.32 -0.528,-0.498667 -1.408,-0.733333 -0.88,-0.264 -1.96533,-0.44 -1.08534,-0.176 -2.17067,-0.410667 -1.056,-0.234667 -1.936,-0.674667 -0.88,-0.469333 -1.43733,-1.261333 -0.528,-0.792 -0.528,-2.112 0,-1.261333 0.704,-2.258667 0.704,-0.997333 2.05333,-1.554666 1.37867,-0.586667 3.344,-0.586667 1.496,0 2.992,0.410667 1.496,0.381333 2.464,1.026666 l -0.90933,1.672 q -1.02667,-0.704 -2.2,-0.997333 -1.17334,-0.322667 -2.34667,-0.322667 -2.08267,0 -3.08,0.733334 -0.968,0.704 -0.968,1.818666 0,0.88 0.528,1.378667 0.55733,0.498667 1.43733,0.792 0.90934,0.264 1.96534,0.44 1.08533,0.176 2.14133,0.44 1.08533,0.234667 1.96533,0.674667 0.90934,0.410666 1.43734,1.202666 0.55733,0.762667 0.55733,2.024 0,1.349334 -0.76267,2.346667 -0.73333,0.968 -2.17066,1.525334 -1.408,0.528 -3.432,0.528 z"
     id="text4126-2-1-5-6-5-9-3-75-7"
     style="font-size:29.3333px;line-height:1.25;font-family:Montserrat;-inkscape-font-specification:'Montserrat, @wght=400';font-variation-settings:'wght' 400;text-align:center;letter-spacing:0px;word-spacing:0px;text-anchor:middle"
     aria-label="Gangs" />
  <path
     inkscape:connector-curvature="0"
     style="fill:#ffffff;stroke:#000000;stroke-width:2"
     d="m 802.96814,245.63414 h 210.87966 v 93.69972 H 802.96814 Z"
     id="path244-6-1-2-9-3-3-4-1-7"
     sodipodi:nodetypes="ccccc" />
  <path
     d="m 817.61355,300.164 v -20.53333 h 8.36 q 3.28534,0 5.74934,1.32 2.49333,1.29066 3.872,3.608 1.37867,2.31733 1.37867,5.33866 0,3.02134 -1.37867,5.33867 -1.37867,2.31733 -3.872,3.63733 -2.464,1.29067 -5.74934,1.29067 z m 2.17067,-1.87733 h 6.072 q 2.728,0 4.72267,-1.056 2.024,-1.08534 3.13867,-2.96267 1.11466,-1.90667 1.11466,-4.37067 0,-2.49333 -1.11466,-4.37066 -1.11467,-1.87734 -3.13867,-2.93334 -1.99467,-1.08533 -4.72267,-1.08533 h -6.072 z m 28.16001,2.024 q -2.40534,0 -4.224,-0.99734 -1.81867,-1.02666 -2.84534,-2.78666 -1.02666,-1.78934 -1.02666,-4.07734 0,-2.288 0.968,-4.048 0.99733,-1.76 2.69866,-2.75733 1.73067,-1.02667 3.872,-1.02667 2.17067,0 3.84267,0.99734 1.70133,0.968 2.66933,2.75733 0.968,1.76 0.968,4.07733 0,0.14667 -0.0293,0.32267 0,0.14667 0,0.32267 H 841.43223 V 291.54 h 12.29066 l -0.82133,0.616 q 0,-1.672 -0.73333,-2.96267 -0.704,-1.32 -1.936,-2.05333 -1.232,-0.73333 -2.84534,-0.73333 -1.584,0 -2.84533,0.73333 -1.26133,0.73333 -1.96533,2.05333 -0.704,1.32 -0.704,3.02134 v 0.32266 q 0,1.76 0.76266,3.10934 0.792,1.32 2.17067,2.08266 1.408,0.73334 3.19733,0.73334 1.408,0 2.61067,-0.49867 1.232,-0.49867 2.112,-1.52533 l 1.17333,1.34933 q -1.02666,1.232 -2.58133,1.87733 -1.52533,0.64534 -3.37333,0.64534 z m 11.176,-0.14667 v -21.76533 h 2.08267 V 300.164 Z m 7.89064,0 v -15.4 h 2.08267 v 15.4 z m 1.056,-18.80267 q -0.64533,0 -1.08533,-0.44 -0.44,-0.44 -0.44,-1.056 0,-0.616 0.44,-1.02666 0.44,-0.44 1.08533,-0.44 0.64534,0 1.08534,0.41066 0.44,0.41067 0.44,1.02667 0,0.64533 -0.44,1.08533 -0.41067,0.44 -1.08534,0.44 z m 14.69598,3.256 q 1.87733,0 3.28533,0.73334 1.43733,0.704 2.22933,2.17066 0.82134,1.46667 0.82134,3.696 v 8.94667 h -2.08267 v -8.74133 q 0,-2.43467 -1.232,-3.66667 -1.20267,-1.26133 -3.40267,-1.26133 -1.64266,0 -2.87466,0.67466 -1.20267,0.64534 -1.87734,1.90667 -0.64533,1.232 -0.64533,2.992 v 8.096 h -2.08267 v -15.4 h 1.99467 v 4.224 l -0.32267,-0.792 q 0.73334,-1.672 2.34667,-2.61067 1.61333,-0.968 3.84267,-0.968 z m 18.09868,15.69334 q -2.2,0 -3.96,-0.99734 -1.73066,-0.99733 -2.728,-2.75733 -0.99733,-1.76 -0.99733,-4.10667 0,-2.31733 0.99733,-4.07733 0.99734,-1.78933 2.728,-2.75733 1.76,-0.99734 3.96,-0.99734 2.05334,0 3.63734,0.90934 1.61333,0.90933 2.552,2.66933 0.93866,1.73067 0.93866,4.25333 0,2.52267 -0.968,4.28267 -0.93866,1.73067 -2.552,2.66933 -1.584,0.90934 -3.608,0.90934 z m 0.14667,-1.848 q 1.64267,0 2.93333,-0.73334 1.32,-0.76266 2.05334,-2.112 0.76266,-1.37866 0.76266,-3.168 0,-1.78933 -0.76266,-3.13866 -0.73334,-1.34934 -2.05334,-2.112 -1.29066,-0.76267 -2.93333,-0.76267 -1.61333,0 -2.904,0.76267 -1.29067,0.76266 -2.05333,2.112 -0.76267,1.34933 -0.76267,3.13866 0,1.78934 0.76267,3.168 0.76266,1.34934 2.05333,2.112 1.29067,0.73334 2.904,0.73334 z m 5.72,7.392 V 295.588 l 0.29333,-3.10933 -0.20533,-3.08 V 284.764 h 1.99467 v 21.09067 z m 14.25599,-5.544 q -1.96534,0 -3.432,-0.73334 -1.46667,-0.73333 -2.288,-2.2 -0.792,-1.46666 -0.792,-3.66666 V 284.764 h 2.08266 v 8.712 q 0,2.464 1.20267,3.72533 1.232,1.232 3.432,1.232 1.61333,0 2.78667,-0.64533 1.20266,-0.67467 1.81866,-1.936 0.64534,-1.26133 0.64534,-3.02133 V 284.764 h 2.08266 v 15.4 h -1.99466 v -4.224 l 0.32266,0.76267 q -0.73333,1.70133 -2.288,2.66933 -1.52533,0.93867 -3.57866,0.93867 z m 19.88802,0 q -2.40534,0 -4.224,-0.99734 -1.81867,-1.02666 -2.84534,-2.78666 -1.02666,-1.78934 -1.02666,-4.07734 0,-2.288 0.968,-4.048 0.99733,-1.76 2.69866,-2.75733 1.73067,-1.02667 3.872,-1.02667 2.17067,0 3.84267,0.99734 1.70133,0.968 2.66933,2.75733 0.968,1.76 0.968,4.07733 0,0.14667 -0.0293,0.32267 0,0.14667 0,0.32267 H 934.36021 V 291.54 h 12.29066 l -0.82133,0.616 q 0,-1.672 -0.73333,-2.96267 -0.704,-1.32 -1.936,-2.05333 -1.232,-0.73333 -2.84534,-0.73333 -1.584,0 -2.84533,0.73333 -1.26133,0.73333 -1.96533,2.05333 -0.704,1.32 -0.704,3.02134 v 0.32266 q 0,1.76 0.76266,3.10934 0.792,1.32 2.17067,2.08266 1.408,0.73334 3.19733,0.73334 1.408,0 2.61067,-0.49867 1.232,-0.49867 2.112,-1.52533 l 1.17333,1.34933 q -1.02666,1.232 -2.58133,1.87733 -1.52533,0.64534 -3.37333,0.64534 z m 19.03734,-15.69334 q 1.87734,0 3.28534,0.73334 1.43733,0.704 2.22933,2.17066 0.82133,1.46667 0.82133,3.696 v 8.94667 h -2.08266 v -8.74133 q 0,-2.43467 -1.232,-3.66667 -1.20267,-1.26133 -3.40267,-1.26133 -1.64267,0 -2.87467,0.67466 -1.20266,0.64534 -1.87733,1.90667 -0.64533,1.232 -0.64533,2.992 v 8.096 h -2.08267 v -15.4 h 1.99467 v 4.224 l -0.32267,-0.792 q 0.73333,-1.672 2.34667,-2.61067 1.61333,-0.968 3.84266,-0.968 z m 18.36268,15.69334 q -2.288,0 -4.10667,-0.99734 -1.78933,-1.02666 -2.816,-2.78666 -1.02666,-1.78934 -1.02666,-4.07734 0,-2.31733 1.02666,-4.07733 1.02667,-1.76 2.816,-2.75733 1.81867,-0.99734 4.10667,-0.99734 1.96533,0 3.54933,0.76267 1.584,0.76267 2.49334,2.288 l -1.55467,1.056 q -0.792,-1.17333 -1.96533,-1.73067 -1.17334,-0.55733 -2.552,-0.55733 -1.64267,0 -2.96267,0.76267 -1.32,0.73333 -2.08267,2.08266 -0.76266,1.34934 -0.76266,3.168 0,1.81867 0.76266,3.168 0.76267,1.34934 2.08267,2.112 1.32,0.73334 2.96267,0.73334 1.37866,0 2.552,-0.55734 1.17333,-0.55733 1.96533,-1.70133 l 1.55467,1.056 q -0.90934,1.496 -2.49334,2.288 -1.584,0.76267 -3.54933,0.76267 z m 10.01045,5.69066 q -1.08533,0 -2.08267,-0.352 -0.968,-0.352 -1.672,-1.056 l 0.968,-1.55466 q 0.58667,0.55733 1.26134,0.85066 0.704,0.32267 1.55466,0.32267 1.02667,0 1.76,-0.58667 0.76267,-0.55733 1.43734,-1.99466 l 0.99733,-2.25867 0.23467,-0.32267 6.336,-14.28533 h 2.05335 l -7.71469,17.248 q -0.64533,1.496 -1.43733,2.376 -0.76267,0.88 -1.672,1.232 -0.90933,0.38133 -2.024,0.38133 z m 4.10667,-5.39733 -7.09867,-15.84 h 2.17067 l 6.27733,14.13867 z"
     id="text4126-2-1-5-6-5-9-3-75-7-4-4"
     style="font-size:29.3333px;line-height:1.25;font-family:Montserrat;-inkscape-font-specification:'Montserrat, @wght=400';font-variation-settings:'wght' 400;text-align:center;letter-spacing:0px;word-spacing:0px;text-anchor:middle"
     aria-label="Delinquency" />
  <path
     inkscape:connector-curvature="0"
     style="fill:none;stroke:#000000;stroke-width:2;stroke-miterlimit:4;stroke-dasharray:none;stroke-dashoffset:0;marker-end:url(#marker6123-9-3-9-3-0)"
     d="M 776.85499,154.87908 835.35396,98.493611"
     id="path260-8-3-9-3-9"
     sodipodi:nodetypes="cc" />
  <path
     inkscape:connector-curvature="0"
     style="fill:none;stroke:#000000;stroke-width:2;stroke-miterlimit:4;stroke-dasharray:none;stroke-dashoffset:0;marker-end:url(#marker6123-9-3-9-4-6)"
     d="m 229.42631,170.89352 h 58.10777"
     id="path260-8-3-9-7-2"
     sodipodi:nodetypes="cc" />
  <path
     inkscape:connector-curvature="0"
     style="fill:none;stroke:#000000;stroke-width:2;stroke-miterlimit:4;stroke-dasharray:none;stroke-dashoffset:0;marker-end:url(#marker6123-9-3-9-4-6-0)"
     d="m 504.20229,172.87496 h 58.10777"
     id="path260-8-3-9-7-2-8"
     sodipodi:nodetypes="cc" />
  <path
     inkscape:connector-curvature="0"
     style="fill:none;stroke:#000000;stroke-width:2;stroke-miterlimit:4;stroke-dasharray:none;stroke-dashoffset:0;marker-end:url(#marker6123-9-3-9-3-0-6)"
     d="M 978.62247,95.032231 1037.1214,151.4177"
     id="path260-8-3-9-3-9-6"
     sodipodi:nodetypes="cc" />
  <path
     inkscape:connector-curvature="0"
     style="fill:none;stroke:#000000;stroke-width:2;stroke-miterlimit:4;stroke-dasharray:none;stroke-dashoffset:0;marker-end:url(#marker6123-9-3-9-3-0-6-9)"
     d="M 1039.754,185.90973 981.25505,242.2952"
     id="path260-8-3-9-3-9-6-0"
     sodipodi:nodetypes="cc" />
  <path
     inkscape:connector-curvature="0"
     style="fill:none;stroke:#000000;stroke-width:2;stroke-miterlimit:4;stroke-dasharray:none;stroke-dashoffset:0;marker-end:url(#marker6123-9-3-9-3-0-6-9-5)"
     d="m 778.69888,185.88436 58.49897,56.38547"
     id="path260-8-3-9-3-9-6-0-6"
     sodipodi:nodetypes="cc" />
</svg>
